<svg width="394" height="83" viewBox="0 0 394 83" fill="none" xmlns="http://www.w3.org/2000/svg">
<g clip-path="url(#clip0_2524_42)">
<path fill-rule="evenodd" clip-rule="evenodd" d="M39.1271 0L38.5299 0.210163L1.76341 13.3211L0.439941 13.798L0.60134 15.1964L6.20993 63.8167L6.31484 64.722L7.11376 65.1666L38.2717 82.4242L39.1271 82.9011L39.9906 82.4242L71.1405 65.1666L71.9394 64.722L72.0443 63.8167L77.6529 15.1964L77.8143 13.798L76.4908 13.3211L39.7243 0.210163L39.1271 0Z" fill="#DD0031"/>
<path fill-rule="evenodd" clip-rule="evenodd" d="M45.4833 45.0415C45.7093 45.0415 45.9191 45.1304 46.0805 45.284C46.2419 45.4375 46.3307 45.6558 46.3307 45.8821H48.0576C48.0576 45.195 47.7913 44.5484 47.3071 44.0634C46.8229 43.5784 46.1774 43.3117 45.4914 43.3117C44.0711 43.3117 42.9171 44.4676 42.9171 45.8821V47.5877H44.6441V45.8821C44.636 45.4214 45.0153 45.0415 45.4833 45.0415Z" fill="white"/>
<path fill-rule="evenodd" clip-rule="evenodd" d="M26.0913 16.8392H13.5345V18.569H27.0839L26.0913 16.8392Z" fill="white"/>
<path fill-rule="evenodd" clip-rule="evenodd" d="M43.1108 32.2134H38.4786L38.5755 32.1569L36.1464 27.9294H34.1451L36.6145 32.2054H28.8351V30.5968C28.8351 30.3705 28.9239 30.1603 29.0853 29.9987C29.2467 29.837 29.4565 29.7481 29.6824 29.7481C29.9084 29.7481 30.1182 29.837 30.2796 29.9906C30.441 30.1522 30.5298 30.3624 30.5298 30.5887H32.2567C32.2567 29.9017 31.9904 29.255 31.5062 28.77C31.022 28.285 30.3764 28.0183 29.6905 28.0183C29.0046 28.0183 28.359 28.285 27.8748 28.77C27.3906 29.255 27.1243 29.9017 27.1243 30.5887V32.1892H20.9508V30.5887C20.9508 30.128 21.3301 29.7481 21.7901 29.7481C22.2581 29.7481 22.6293 30.128 22.6293 30.5887H24.3563C24.3563 29.1742 23.2023 28.0183 21.782 28.0183C20.3617 28.0183 19.2077 29.1742 19.2077 30.5887V32.1892H16.9078V27.9132H15.1566V32.1892H13.5345V33.919H44.1114L43.1108 32.2134Z" fill="white"/>
<path fill-rule="evenodd" clip-rule="evenodd" d="M34.6293 24.5263H30.1263L27.7214 20.3393H25.7201L28.133 24.5263H16.8916V20.3393H15.1566V24.5263H13.5345V26.2561H35.63L34.6293 24.5263Z" fill="white"/>
<path fill-rule="evenodd" clip-rule="evenodd" d="M50.8498 39.9006H46.944L46.9924 39.8763L44.5634 35.6488H42.562L45.0072 39.9006H36.7355V38.195C36.7355 37.9687 36.8243 37.7585 36.9857 37.5968C37.1471 37.4352 37.3569 37.3463 37.5829 37.3463C37.8088 37.3463 38.0187 37.4352 38.1801 37.5888C38.3415 37.7504 38.4302 37.9606 38.4302 38.1869H40.1572C40.1572 37.4998 39.8909 36.8532 39.4067 36.3682C38.9225 35.8832 38.2769 35.6165 37.591 35.6165C36.905 35.6165 36.2594 35.8832 35.7752 36.3682C35.291 36.8532 35.0247 37.4998 35.0247 38.1869V39.8925H28.8512V38.195C28.8512 37.9687 28.94 37.7585 29.1014 37.5968C29.2628 37.4352 29.4726 37.3463 29.6986 37.3463C30.1586 37.3463 30.5378 37.7262 30.5378 38.1869H32.2648C32.2648 36.7724 31.1108 35.6165 29.6905 35.6165C29.0046 35.6165 28.359 35.8832 27.8748 36.3682C27.3906 36.8532 27.1243 37.4998 27.1243 38.1869V39.8844H20.9508V38.1869C20.9508 37.7262 21.3301 37.3463 21.7901 37.3463C22.25 37.3463 22.6293 37.7262 22.6293 38.1869H24.3563C24.3563 36.7724 23.2023 35.6165 21.782 35.6165C20.3617 35.6165 19.2077 36.7724 19.2077 38.1869V39.8844H16.8997V35.7054H15.1566V39.8844H13.5345V41.6142H51.8505L50.8498 39.9006Z" fill="white"/>
<path fill-rule="evenodd" clip-rule="evenodd" d="M65.3192 33.9432V32.2134H45.1605L46.1531 33.9432H65.3192Z" fill="white"/>
<path fill-rule="evenodd" clip-rule="evenodd" d="M61.9621 35.7215V39.9006H52.8673L53.868 41.6304H65.3192V39.9006H63.6891V35.7215H61.9621Z" fill="white"/>
<path fill-rule="evenodd" clip-rule="evenodd" d="M63.6891 47.5957V43.4087H61.9621V47.5957H54.9251L52.5768 43.5137H50.5754L52.9238 47.5957H36.7355V45.8902C36.7355 45.6639 36.8243 45.4537 36.9857 45.292C37.1471 45.1304 37.3569 45.0415 37.5829 45.0415C37.8088 45.0415 38.0186 45.1304 38.18 45.284C38.3414 45.4456 38.4302 45.6558 38.4302 45.8821H40.1572C40.1572 45.195 39.8909 44.5484 39.4067 44.0634C38.9225 43.5784 38.2769 43.3117 37.5909 43.3117C36.905 43.3117 36.2594 43.5784 35.7752 44.0634C35.291 44.5484 35.0247 45.195 35.0247 45.8821V47.5877H28.8512V45.8902C28.8512 45.6639 28.94 45.4537 29.1014 45.292C29.2628 45.1304 29.4726 45.0415 29.6986 45.0415C30.1586 45.0415 30.5378 45.4214 30.5378 45.8821H32.2648C32.2648 44.4676 31.1108 43.3117 29.6905 43.3117C29.0046 43.3117 28.359 43.5784 27.8748 44.0634C27.3906 44.5484 27.1243 45.195 27.1243 45.8821V47.5796H20.9508V45.8821C20.9508 45.4214 21.3301 45.0415 21.79 45.0415C22.016 45.0415 22.2258 45.1304 22.3872 45.284C22.5486 45.4456 22.6374 45.6558 22.6374 45.8821H24.3644C24.3644 45.195 24.098 44.5484 23.6138 44.0634C23.1297 43.5784 22.4841 43.3117 21.7981 43.3117C20.3778 43.3117 19.2238 44.4676 19.2238 45.8821V47.5796H16.8755V43.4976H15.1162V47.5796H7.90979L8.11154 49.3094H70.1531L70.3548 47.5796H63.6891V47.5957Z" fill="white"/>
<path fill-rule="evenodd" clip-rule="evenodd" d="M25.4215 51.9122V71.2552L27.1566 72.209V51.9122H25.4215Z" fill="white"/>
<path fill-rule="evenodd" clip-rule="evenodd" d="M29.6986 51.9122V73.6236L31.4336 74.5774V51.9122H29.6986Z" fill="white"/>
<path fill-rule="evenodd" clip-rule="evenodd" d="M21.1445 51.9122V68.8868L22.8795 69.8407V51.9122H21.1445Z" fill="white"/>
<path fill-rule="evenodd" clip-rule="evenodd" d="M16.8674 51.9122V66.5104L18.5944 67.4723V51.9122H16.8674Z" fill="white"/>
<path fill-rule="evenodd" clip-rule="evenodd" d="M8.41016 51.9122L9.62871 62.5011L10.0403 62.7355V51.9122H8.41016Z" fill="white"/>
<path fill-rule="evenodd" clip-rule="evenodd" d="M38.2607 51.9122V78.3603L39.1242 78.8453L39.9877 78.3684V51.9122H38.2607Z" fill="white"/>
<path fill-rule="evenodd" clip-rule="evenodd" d="M12.5903 51.9122V64.142L14.3173 65.1039V51.9122H12.5903Z" fill="white"/>
<path fill-rule="evenodd" clip-rule="evenodd" d="M33.9837 51.9122V75.9919L35.7107 76.9538V51.9122H33.9837Z" fill="white"/>
<path fill-rule="evenodd" clip-rule="evenodd" d="M63.9311 51.9122V65.1039L65.6581 64.1501V51.9122H63.9311Z" fill="white"/>
<path fill-rule="evenodd" clip-rule="evenodd" d="M42.5378 51.9122V76.9538L44.2647 76V51.9122H42.5378Z" fill="white"/>
<path fill-rule="evenodd" clip-rule="evenodd" d="M59.6541 51.9122V67.4723L61.381 66.5185V51.9122H59.6541Z" fill="white"/>
<path fill-rule="evenodd" clip-rule="evenodd" d="M68.2082 51.9122V62.7355L68.6279 62.5011L69.8464 51.9122H68.2082Z" fill="white"/>
<path fill-rule="evenodd" clip-rule="evenodd" d="M55.369 51.9122V69.8487L57.1041 68.8868V51.9122H55.369Z" fill="white"/>
<path fill-rule="evenodd" clip-rule="evenodd" d="M46.8149 51.9122V74.5855L48.5419 73.6236V51.9122H46.8149Z" fill="white"/>
<path fill-rule="evenodd" clip-rule="evenodd" d="M51.0919 51.9122V72.2171L52.827 71.2552V51.9122H51.0919Z" fill="white"/>
</g>
<g clip-path="url(#clip1_2524_42)">
<path fill-rule="evenodd" clip-rule="evenodd" d="M103.606 14.738L134.997 43.7349V16.9486H143.785V63.4838L112.448 34.4868V61.2731H103.606V14.738ZM175.029 44.8034V37.6002H196.952C197.081 40.9715 196.676 44.1586 195.755 47.1431C194.834 50.1459 193.415 52.7803 191.518 55.0463C189.62 57.3307 187.244 59.1177 184.425 60.4257C181.588 61.7337 178.345 62.3785 174.661 62.3785C170.055 62.3785 165.966 61.4021 162.392 59.4309C158.818 57.4781 156.017 54.7331 153.991 51.2329C151.965 47.7326 150.951 43.6796 150.951 39.0925C150.951 34.4868 151.983 30.4707 154.065 27.0073C156.128 23.5439 158.983 20.8542 162.594 18.9383C166.205 17.0223 170.313 16.0644 174.919 16.0644C179.432 16.0644 183.32 16.9855 186.58 18.8093C189.841 20.6516 192.476 23.1018 194.502 26.1783L186.691 30.7655C185.549 28.868 184.02 27.3021 182.104 26.0862C180.188 24.8703 177.793 24.2439 174.919 24.2439C172.266 24.2439 169.834 24.8519 167.624 26.0493C165.431 27.2468 163.681 28.9601 162.392 31.1708C161.102 33.3815 160.457 36.0343 160.457 39.1109C160.457 42.1874 161.084 44.8587 162.355 47.1431C163.626 49.4275 165.339 51.1776 167.513 52.4303C169.687 53.683 172.156 54.291 174.9 54.291C178.53 54.291 181.367 53.3883 183.393 51.5645C185.42 49.7591 186.838 47.4931 187.63 44.8034H175.029ZM231.163 45.1903V61.2547H222.044V16.9855H227.626H231.181H237.003C240.503 16.9855 243.506 17.575 245.974 18.754C248.443 19.9331 250.34 21.5911 251.648 23.7281C252.956 25.8651 253.62 28.3337 253.62 31.1524C253.62 34.2658 252.809 36.9554 251.188 39.2214C249.567 41.469 247.246 43.1085 244.243 44.1218L256.291 61.2547H245.459L235.068 45.1903H231.163ZM231.163 37.9687H236.413C238.771 37.9687 240.65 37.3976 242.05 36.237C243.45 35.0764 244.151 33.4552 244.151 31.3919C244.151 29.2917 243.45 27.6521 242.05 26.4915C240.65 25.3309 238.771 24.7598 236.413 24.7598H231.163V37.9687ZM258.852 39.1109C258.852 35.7396 259.441 32.6446 260.62 29.8444C261.799 27.0442 263.457 24.6124 265.557 22.5675C267.676 20.5226 270.145 18.9383 273 17.7961C275.856 16.6539 278.951 16.0828 282.285 16.0828C285.656 16.0828 288.77 16.6539 291.607 17.7961C294.444 18.9383 296.912 20.5226 299.049 22.5675C301.186 24.6124 302.826 27.0442 303.987 29.8444C305.147 32.6446 305.737 35.7396 305.737 39.1109C305.737 42.4453 305.147 45.5403 303.987 48.3774C302.826 51.2329 301.205 53.683 299.105 55.7832C297.005 57.8649 294.536 59.4861 291.699 60.6467C288.843 61.8074 285.712 62.3785 282.285 62.3785C278.858 62.3785 275.727 61.8074 272.871 60.6467C270.016 59.4861 267.547 57.8649 265.465 55.7832C263.365 53.7015 261.744 51.2329 260.583 48.3774C259.441 45.5403 258.852 42.4453 258.852 39.1109ZM268.487 39.1109C268.487 41.9295 269.076 44.4534 270.255 46.6457C271.434 48.8379 273.074 50.5512 275.137 51.804C277.2 53.0567 279.595 53.6646 282.303 53.6646C285.012 53.6646 287.388 53.0383 289.47 51.804C291.533 50.5512 293.173 48.8379 294.352 46.6457C295.531 44.4534 296.12 41.9479 296.12 39.1109C296.12 36.2738 295.549 33.7684 294.407 31.5761C293.265 29.3838 291.662 27.6705 289.599 26.4178C287.517 25.1835 285.085 24.5755 282.303 24.5755C279.595 24.5755 277.219 25.2019 275.137 26.4362C273.074 27.6889 271.434 29.4022 270.255 31.5945C269.076 33.7868 268.487 36.2922 268.487 39.1109ZM321.341 36.8449L318.485 61.2547H308.979L315.574 14.7564L334.2 43.2928L352.696 14.7564L359.42 61.2547H349.785L346.929 36.8449L334.2 57.1465L321.341 36.8449ZM373.992 41.5242V53.5357H393.391V61.2547H373.992H370.952H365.131V16.9855H370.952H373.992H393.391V24.6861H373.992V33.9894H392.12V41.5242H373.992Z" fill="#DD0031"/>
</g>
<defs>
<clipPath id="clip0_2524_42">
<rect width="77.3744" height="82.9011" fill="white" transform="translate(0.439941)"/>
</clipPath>
<clipPath id="clip1_2524_42">
<rect width="289.785" height="48.7643" fill="white" transform="translate(103.606 14.738)"/>
</clipPath>
</defs>
</svg>
