<?xml version="1.0" encoding="UTF-8"?>
<svg width="141px" height="70px" viewBox="0 0 141 70" version="1.1" xmlns="http://www.w3.org/2000/svg" xmlns:xlink="http://www.w3.org/1999/xlink">
    <title>141x70px</title>
    <defs>
        <rect id="path-1" x="0" y="0" width="141" height="70.3057851"></rect>
        <polygon id="path-3" points="0 85.4615232 157.702479 85.4615232 157.702479 0 0 0"></polygon>
        <polygon id="path-5" points="0 85.4615232 157.702479 85.4615232 157.702479 0 0 0"></polygon>
        <polygon id="path-7" points="0 85.4615232 157.702479 85.4615232 157.702479 0 0 0"></polygon>
        <polygon id="path-9" points="0 85.4615232 157.702479 85.4615232 157.702479 0 0 0"></polygon>
        <polygon id="path-11" points="0 85.4615232 157.702479 85.4615232 157.702479 0 0 0"></polygon>
        <polygon id="path-13" points="0 85.4615232 157.702479 85.4615232 157.702479 0 0 0"></polygon>
        <polygon id="path-15" points="0 85.4615232 157.702479 85.4615232 157.702479 0 0 0"></polygon>
        <polygon id="path-17" points="0 85.4615232 157.702479 85.4615232 157.702479 0 0 0"></polygon>
        <polygon id="path-19" points="0 85.4615232 157.702479 85.4615232 157.702479 0 0 0"></polygon>
        <polygon id="path-21" points="0 85.4615232 157.702479 85.4615232 157.702479 0 0 0"></polygon>
        <polygon id="path-23" points="0 85.4615232 157.702479 85.4615232 157.702479 0 0 0"></polygon>
        <polygon id="path-25" points="0 85.4615232 157.702479 85.4615232 157.702479 0 0 0"></polygon>
        <polygon id="path-27" points="0 85.4615232 157.702479 85.4615232 157.702479 0 0 0"></polygon>
        <polygon id="path-29" points="0 85.4615232 157.702479 85.4615232 157.702479 0 0 0"></polygon>
        <polygon id="path-31" points="0 85.4615232 157.702479 85.4615232 157.702479 0 0 0"></polygon>
        <polygon id="path-33" points="0 85.4615232 157.702479 85.4615232 157.702479 0 0 0"></polygon>
        <polygon id="path-35" points="0 85.4615232 157.702479 85.4615232 157.702479 0 0 0"></polygon>
        <polygon id="path-37" points="0 85.4615232 157.702479 85.4615232 157.702479 0 0 0"></polygon>
        <polygon id="path-39" points="0 85.4615232 157.702479 85.4615232 157.702479 0 0 0"></polygon>
    </defs>
    <g id="141x70px" stroke="none" stroke-width="1" fill="none" fill-rule="evenodd">
        <g id="Group">
            <mask id="mask-2" fill="white">
                <use xlink:href="#path-1"></use>
            </mask>
            <g id="Mask"></g>
            <g id="180x91px" mask="url(#mask-2)">
                <g transform="translate(-8.545455, -6.991736)">
                    <path d="M19.3161878,70.0928338 L19.3161878,69.7168675 C18.5080526,69.4295789 17.7420978,69.318981 16.9339626,69.318981 C15.4666013,69.318981 14.7009659,69.9377311 14.7009659,70.955032 C14.7009659,71.8833232 15.3387824,72.5904187 16.6575541,72.5904187 C18.2738244,72.5904187 19.3161878,71.441264 19.3161878,70.0928338 M12.2762409,71.0430453 C12.2762409,69.0536127 13.6161028,67.5062393 16.7639634,67.5062393 C17.7635074,67.5062393 18.7419613,67.7055146 19.3161878,67.8822055 L19.3161878,66.8207319 C19.3161878,65.7599226 18.6780518,64.875804 17.1467811,64.875804 C15.8069192,64.875804 15.1048737,65.6493247 15.083464,66.5779481 L12.786558,66.5779481 C12.786558,64.4114925 14.424238,62.7976939 17.1892809,62.7976939 C20.0818232,62.7976939 21.7195031,64.5440106 21.7195031,66.7988116 L21.7195031,74.4031605 L19.5925962,74.4031605 L19.4222775,73.0543983 L19.3372779,73.0543983 C18.6994615,74.0271943 17.5720985,74.6017717 16.1044178,74.6017717 C13.6796927,74.6017717 12.2762409,73.0543983 12.2762409,71.0430453" id="Fill-1" fill="#00558C" fill-rule="nonzero"></path>
                    <path d="M24.0803187,70.6009861 L26.566388,70.6009861 C26.566388,71.7285526 27.4386585,72.4356482 28.8565077,72.4356482 C30.2740292,72.4356482 31.0155575,71.9497483 31.0155575,71.1536432 C31.0155575,70.5123085 30.5577957,70.0702493 29.5328286,69.8493857 L27.5481019,69.4734195 C25.715744,69.0977853 24.4292925,68.0588963 24.4292925,66.1133042 C24.4292925,64.2344694 26.0427635,62.7976939 28.7693462,62.7976939 C31.4736469,62.7976939 33.2620964,64.323147 33.2620964,66.5334432 L30.8192802,66.5334432 C30.7756995,65.4945542 30.0125446,64.8312992 28.7257654,64.8312992 C27.6133092,64.8312992 26.8498267,65.2956109 26.8498267,66.1358888 C26.8498267,66.8207319 27.3950778,67.2186185 28.3332109,67.373389 L30.2524026,67.7493552 C32.2151751,68.1694941 33.5235809,68.9875196 33.5235809,71.1536432 C33.5235809,73.3639393 31.4736469,74.6017717 28.8565077,74.6017717 C25.8248598,74.6017717 24.1458537,73.0102256 24.0803187,70.6009861" id="Fill-3" fill="#00558C" fill-rule="nonzero"></path>
                    <path d="M36.3565596,70.6009861 L38.8430428,70.6009861 C38.8430428,71.7285526 39.7153437,72.4356482 41.1329143,72.4356482 C42.550485,72.4356482 43.292039,71.9497483 43.292039,71.1536432 C43.292039,70.5123085 42.8342613,70.0702493 41.808931,69.8493857 L39.8241355,69.4734195 C37.9923693,69.0977853 36.7052178,68.0588963 36.7052178,66.1133042 C36.7052178,64.2344694 38.3194002,62.7976939 41.0457498,62.7976939 C43.7498167,62.7976939 45.5386559,64.323147 45.5386559,66.5334432 L43.0957549,66.5334432 C43.0521727,65.4945542 42.2889914,64.8312992 41.0021675,64.8312992 C39.8896727,64.8312992 39.1264915,65.2956109 39.1264915,66.1358888 C39.1264915,66.8207319 39.6717614,67.2186185 40.6095994,67.373389 L42.5288577,67.7493552 C44.4916983,68.1694941 45.7998218,68.9875196 45.7998218,71.1536432 C45.7998218,73.3639393 43.7498167,74.6017717 41.1329143,74.6017717 C38.1011612,74.6017717 36.4217692,73.0102256 36.3565596,70.6009861" id="Fill-5" fill="#00558C" fill-rule="nonzero"></path>
                    <g id="Fill-7-Clipped" stroke-width="1" fill="none" fill-rule="evenodd">
                        <mask id="mask-4" fill="white">
                            <use xlink:href="#path-3"></use>
                        </mask>
                        <g id="path-1"></g>
                        <path d="M48.6447586,74.314368 L51.5426988,74.314368 L51.5426988,61.973977 L48.6447586,61.973977 L48.6447586,74.314368 Z M48.2384054,58.3628388 C48.2384054,57.3103986 48.8739052,56.6647056 50.0941106,56.6647056 C51.2883461,56.6647056 51.949052,57.3103986 51.949052,58.3628388 C51.949052,59.415279 51.2883461,60.084687 50.0941106,60.084687 C48.8739052,60.084687 48.2384054,59.415279 48.2384054,58.3628388 L48.2384054,58.3628388 Z" id="Fill-7" fill="#00558C" fill-rule="nonzero" mask="url(#mask-4)"></path>
                    </g>
                    <g id="Fill-9-Clipped" stroke-width="1" fill="none" fill-rule="evenodd">
                        <mask id="mask-6" fill="white">
                            <use xlink:href="#path-5"></use>
                        </mask>
                        <g id="path-1"></g>
                        <path d="M53.8043753,68.2764955 C53.8043753,64.6806145 55.8264799,62.2382832 59.5847783,62.2382832 C63.0335782,62.2382832 64.7465417,64.1828383 64.9127274,66.6934653 L62.2012202,66.6934653 C62.0822098,65.3815786 61.1072537,64.5222775 59.5847783,64.5222775 C57.491196,64.5222775 56.5637726,66.0149266 56.5637726,68.2764955 C56.5637726,70.583255 57.491196,72.0531389 59.5847783,72.0531389 C61.1308413,72.0531389 62.0822098,71.2162632 62.2251652,69.882291 L64.936315,69.882291 C64.722954,72.4601941 63.0099906,74.314368 59.6558986,74.314368 C55.8740126,74.314368 53.8043753,71.8948019 53.8043753,68.2764955" id="Fill-9" fill="#00558C" fill-rule="nonzero" mask="url(#mask-6)"></path>
                    </g>
                    <g id="Fill-10-Clipped" stroke-width="1" fill="none" fill-rule="evenodd">
                        <mask id="mask-8" fill="white">
                            <use xlink:href="#path-7"></use>
                        </mask>
                        <g id="path-1"></g>
                        <path d="M76.9959164,62.2382832 L76.9959164,69.6132267 C76.9959164,72.2631372 75.2265441,74.314368 71.89395,74.314368 C68.5844917,74.314368 66.7916383,72.2631372 66.7916383,69.6132267 L66.7916383,62.2382832 L69.4118563,62.2382832 L69.4118563,69.1987563 C69.4118563,70.8580233 70.1242324,71.8950653 71.89395,71.8950653 C73.6636676,71.8950653 74.3760437,70.8580233 74.3760437,69.1987563 L74.3760437,62.2382832 L76.9959164,62.2382832 Z" id="Fill-10" fill="#00558C" fill-rule="nonzero" mask="url(#mask-8)"></path>
                    </g>
                    <g id="Fill-11-Clipped" stroke-width="1" fill="none" fill-rule="evenodd">
                        <mask id="mask-10" fill="white">
                            <use xlink:href="#path-9"></use>
                        </mask>
                        <g id="path-1"></g>
                        <path d="M79.7789013,62.3999453 L81.9590232,62.3999453 L82.1858704,64.2934032 L82.2766093,64.2934032 C82.7535003,63.0698367 83.8430496,62.2382832 85.3187508,62.2382832 L86.2725328,62.2382832 L86.2725328,64.6861102 L85.2733814,64.6861102 C83.2979338,64.6861102 82.2766093,66.0713387 82.2766093,68.4959224 L82.2766093,74.314368 L79.7789013,74.314368 L79.7789013,62.3999453 Z" id="Fill-11" fill="#00558C" fill-rule="nonzero" mask="url(#mask-10)"></path>
                    </g>
                    <g id="Fill-12-Clipped" stroke-width="1" fill="none" fill-rule="evenodd">
                        <mask id="mask-12" fill="white">
                            <use xlink:href="#path-11"></use>
                        </mask>
                        <g id="path-1"></g>
                        <path d="M94.8074782,69.7015285 L94.8074782,69.3168987 C93.9342165,69.02299 93.1065354,68.9098435 92.233619,68.9098435 C90.6476604,68.9098435 89.8203237,69.5428517 89.8203237,70.5835948 C89.8203237,71.5332771 90.509886,72.2566665 91.9349353,72.2566665 C93.6811124,72.2566665 94.8074782,71.0810313 94.8074782,69.7015285 M87.2001945,70.6736363 C87.2001945,68.6383601 88.6480335,67.0553299 92.0499199,67.0553299 C93.1296704,67.0553299 94.1869755,67.2591972 94.8074782,67.4399597 L94.8074782,66.354026 C94.8074782,65.268772 94.1179158,64.3642803 92.4632429,64.3642803 C91.0154039,64.3642803 90.2571271,65.1556256 90.2339921,66.1056476 L87.7516371,66.1056476 C87.7516371,63.8892693 89.5212948,62.2382832 92.5091676,62.2382832 C95.6348151,62.2382832 97.4044725,64.0248411 97.4044725,66.3316006 L97.4044725,74.1111802 L95.1061621,74.1111802 L94.9221177,72.7313378 L94.8302681,72.7313378 C94.1410507,73.7265504 92.9231813,74.314368 91.3368773,74.314368 C88.7170932,74.314368 87.2001945,72.7313378 87.2001945,70.6736363" id="Fill-12" fill="#00558C" fill-rule="nonzero" mask="url(#mask-12)"></path>
                    </g>
                    <g id="Fill-13-Clipped" stroke-width="1" fill="none" fill-rule="evenodd">
                        <mask id="mask-14" fill="white">
                            <use xlink:href="#path-13"></use>
                        </mask>
                        <g id="path-1"></g>
                        <polygon id="Fill-13" fill="#00558C" fill-rule="nonzero" mask="url(#mask-14)" points="100.187457 72.0913529 106.296515 64.601951 106.296515 64.5087686 100.209894 64.5087686 100.209894 62.2382832 109.418862 62.2382832 109.418862 64.4848577 103.33258 71.9510519 103.33258 72.0445859 109.464074 72.0445859 109.464074 74.314368 100.187457 74.314368"></polygon>
                    </g>
                    <g id="Fill-14-Clipped" stroke-width="1" fill="none" fill-rule="evenodd">
                        <mask id="mask-16" fill="white">
                            <use xlink:href="#path-15"></use>
                        </mask>
                        <g id="path-1"></g>
                        <path d="M111.72643,74.314368 L114.623392,74.314368 L114.623392,61.973977 L111.72643,61.973977 L111.72643,74.314368 Z M111.319397,58.3628388 C111.319397,57.3103986 111.954767,56.6647056 113.17472,56.6647056 C114.369092,56.6647056 115.030044,57.3103986 115.030044,58.3628388 C115.030044,59.415279 114.369092,60.084687 113.17472,60.084687 C111.954767,60.084687 111.319397,59.415279 111.319397,58.3628388 L111.319397,58.3628388 Z" id="Fill-14" fill="#00558C" fill-rule="nonzero" mask="url(#mask-16)"></path>
                    </g>
                    <g id="Fill-15-Clipped" stroke-width="1" fill="none" fill-rule="evenodd">
                        <mask id="mask-18" fill="white">
                            <use xlink:href="#path-17"></use>
                        </mask>
                        <g id="path-1"></g>
                        <path d="M126.298815,68.2764955 C126.298815,65.9473106 125.363527,64.5222775 123.378827,64.5222775 C121.39447,64.5222775 120.459182,65.969736 120.459182,68.2764955 C120.459182,70.6284456 121.417774,72.0307135 123.378827,72.0307135 C125.363527,72.0307135 126.298815,70.6284456 126.298815,68.2764955 M117.813029,68.2764955 C117.813029,64.861377 119.683946,62.2382832 123.378827,62.2382832 C127.074737,62.2382832 128.944968,64.861377 128.944968,68.2764955 C128.944968,71.6912743 127.119976,74.314368 123.378827,74.314368 C119.638021,74.314368 117.813029,71.7136997 117.813029,68.2764955" id="Fill-15" fill="#00558C" fill-rule="nonzero" mask="url(#mask-18)"></path>
                    </g>
                    <g id="Fill-16-Clipped" stroke-width="1" fill="none" fill-rule="evenodd">
                        <mask id="mask-20" fill="white">
                            <use xlink:href="#path-19"></use>
                        </mask>
                        <g id="path-1"></g>
                        <path d="M130.800292,62.4452939 L133.085623,62.4452939 L133.289239,63.9866423 L133.37966,63.9866423 C134.012944,62.9743981 135.121788,62.2382832 136.79627,62.2382832 C139.398073,62.2382832 141.00457,63.8715596 141.00457,66.5626986 L141.00457,74.314368 L138.425201,74.314368 L138.425201,67.2068856 C138.425201,65.5504544 137.678381,64.6076744 136.04911,64.6076744 C134.420517,64.6076744 133.37966,65.7806199 133.37966,67.7587989 L133.37966,74.314368 L130.800292,74.314368 L130.800292,62.4452939 Z" id="Fill-16" fill="#00558C" fill-rule="nonzero" mask="url(#mask-20)"></path>
                    </g>
                    <g id="Fill-17-Clipped" stroke-width="1" fill="none" fill-rule="evenodd">
                        <mask id="mask-22" fill="white">
                            <use xlink:href="#path-21"></use>
                        </mask>
                        <g id="path-1"></g>
                        <path d="M143.266969,74.314368 L146.163846,74.314368 L146.163846,61.973977 L143.266969,61.973977 L143.266969,74.314368 Z M142.859893,58.3628388 C142.859893,57.3103986 143.495327,56.6647056 144.715407,56.6647056 C145.909902,56.6647056 146.57054,57.3103986 146.57054,58.3628388 C146.57054,59.415279 145.909902,60.084687 144.715407,60.084687 C143.495327,60.084687 142.859893,59.415279 142.859893,58.3628388 L142.859893,58.3628388 Z" id="Fill-17" fill="#00558C" fill-rule="nonzero" mask="url(#mask-22)"></path>
                    </g>
                    <g id="Fill-18-Clipped" stroke-width="1" fill="none" fill-rule="evenodd">
                        <mask id="mask-24" fill="white">
                            <use xlink:href="#path-23"></use>
                        </mask>
                        <g id="path-1"></g>
                        <path d="M31.3292596,30.4577129 C33.4929036,32.1844928 34.8008827,34.4564991 35.2511424,37.2730414 L29.2542981,37.2730414 C28.5345671,34.8654187 26.2801864,33.2293948 23.5745188,33.2293948 C14.8637889,33.2293948 14.9315847,47.5874804 23.6200583,47.5874804 C26.3246988,47.5874804 28.5345671,46.0425576 29.2101281,43.7256909 L35.2066301,43.7256909 C34.2807726,49.4063967 29.4217331,52.9489872 23.5300063,52.9489872 C16.1361581,52.9489872 11.1319397,47.3604178 11.1319397,40.4077474 C11.1319397,33.3653563 16.1361581,27.867888 23.5300063,27.867888 C26.5499999,27.867888 29.1656157,28.7309329 31.3292596,30.4577129" id="Fill-18" fill="#00558C" fill-rule="nonzero" mask="url(#mask-24)"></path>
                    </g>
                    <g id="Fill-19-Clipped" stroke-width="1" fill="none" fill-rule="evenodd">
                        <mask id="mask-26" fill="white">
                            <use xlink:href="#path-25"></use>
                        </mask>
                        <g id="path-1"></g>
                        <path d="M45.1301074,45.58811 C49.0350238,49.5485538 56.9561641,47.5883446 56.9561641,40.4089618 C56.9561641,36.0210054 53.8596351,33.2302692 50.0924439,33.2302692 C43.2223835,33.2302692 41.3583371,41.4837818 45.1301074,45.58811 M50.0924439,27.8689365 C57.6067487,27.7792244 63.2186131,33.4583449 63.0784221,40.4089618 C63.0784221,47.405815 57.6525397,52.9489872 50.0924439,52.9489872 C46.2893244,52.9489872 43.1825806,51.7672029 40.7236033,49.4046694 C38.3128827,46.9969349 37.1064657,43.9984807 37.1064657,40.4089618 C37.1064657,33.3223966 42.393214,27.8689365 50.0924439,27.8689365" id="Fill-19" fill="#00558C" fill-rule="nonzero" mask="url(#mask-26)"></path>
                    </g>
                    <g id="Fill-20-Clipped" stroke-width="1" fill="none" fill-rule="evenodd">
                        <mask id="mask-28" fill="white">
                            <use xlink:href="#path-27"></use>
                        </mask>
                        <g id="path-1"></g>
                        <path d="M64.936315,52.0200576 L64.936315,27.5605114 L70.576841,27.5605114 L70.576841,30.5365524 L70.8964419,30.5365524 C74.1010899,24.6635773 86.2725328,25.635108 86.2725328,36.0235285 L86.2725328,52.0200576 L80.3587049,52.0200576 L80.3587049,37.6046055 C80.3587049,30.7385573 70.850143,31.042271 70.850143,38.0230947 L70.850143,52.0200576 L64.936315,52.0200576 Z" id="Fill-20" fill="#00558C" fill-rule="nonzero" mask="url(#mask-28)"></path>
                    </g>
                    <g id="Fill-21-Clipped" stroke-width="1" fill="none" fill-rule="evenodd">
                        <mask id="mask-30" fill="white">
                            <use xlink:href="#path-29"></use>
                        </mask>
                        <g id="path-1"></g>
                        <path d="M88.1278561,32.7403998 L88.1278561,28.0351584 L90.8345423,28.0351584 C91.8894845,28.0351584 92.5779145,27.3495485 92.5779145,26.2073278 L92.5779145,21.3653808 L98.1738463,21.3653808 L98.1738463,27.9890116 L104.825766,27.9890116 L104.825766,32.7403998 L98.1738463,32.7403998 L98.1738463,43.7969016 C98.1738463,45.8530375 99.2751254,47.0854701 101.476986,47.0854701 L104.688149,47.0854701 L104.688149,52.0200576 L100.238439,52.0200576 C95.1462881,52.0200576 92.2107054,49.141606 92.2107054,44.0248599 L92.2107054,32.7403998 L88.1278561,32.7403998 Z" id="Fill-21" fill="#C8102E" fill-rule="nonzero" mask="url(#mask-30)"></path>
                    </g>
                    <g id="Fill-22-Clipped" stroke-width="1" fill="none" fill-rule="evenodd">
                        <mask id="mask-32" fill="white">
                            <use xlink:href="#path-31"></use>
                        </mask>
                        <g id="path-1"></g>
                        <path d="M123.259775,37.9549193 C122.54151,30.7292908 111.551321,30.8828514 110.698316,37.9549193 L123.259775,37.9549193 Z M116.979567,27.867888 C124.726596,27.867888 128.944968,33.5472135 128.944968,40.2717859 L128.944968,42.1345274 L110.607793,42.1345274 C110.790231,45.7692543 113.357951,48.2241529 117.163399,48.2241529 C120.05178,48.2241529 122.297446,46.9062926 123.16786,44.9065545 L128.715876,44.9065545 C127.477799,49.8142812 123.16786,52.9489872 116.979567,52.9489872 C100.652003,52.9489872 100.897459,27.867888 116.979567,27.867888 L116.979567,27.867888 Z" id="Fill-22" fill="#C8102E" fill-rule="nonzero" mask="url(#mask-32)"></path>
                    </g>
                    <g id="Fill-23-Clipped" stroke-width="1" fill="none" fill-rule="evenodd">
                        <mask id="mask-34" fill="white">
                            <use xlink:href="#path-33"></use>
                        </mask>
                        <g id="path-1"></g>
                        <path d="M129.87263,13.86477 C115.901595,10.2425286 100.254398,10.2400388 86.2725328,13.86477 C86.2725328,13.86477 87.008255,16.784544 87.4613564,18.578592 C100.648111,15.1306338 115.484127,15.1270769 128.684155,18.578592 C129.137257,16.784544 129.87263,13.86477 129.87263,13.86477" id="Fill-23" fill="#C8102E" fill-rule="nonzero" mask="url(#mask-34)"></path>
                    </g>
                    <g id="Fill-24-Clipped" stroke-width="1" fill="none" fill-rule="evenodd">
                        <mask id="mask-36" fill="white">
                            <use xlink:href="#path-35"></use>
                        </mask>
                        <g id="path-1"></g>
                        <path d="M128.944968,50.1621984 C128.944968,49.0422828 129.584748,48.3043392 130.813172,48.3043392 C131.990459,48.3043392 132.655615,49.0422828 132.655615,50.1621984 C132.655615,51.282114 131.990459,52.0200576 130.813172,52.0200576 C129.584748,52.0200576 128.944968,51.282114 128.944968,50.1621984" id="Fill-24" fill="#00558C" fill-rule="nonzero" mask="url(#mask-36)"></path>
                    </g>
                    <g id="Fill-25-Clipped" stroke-width="1" fill="none" fill-rule="evenodd">
                        <mask id="mask-38" fill="white">
                            <use xlink:href="#path-37"></use>
                        </mask>
                        <g id="path-1"></g>
                        <path d="M134.91759,52.0200576 L137.814933,52.0200576 L137.814933,39.6795936 L134.91759,39.6795936 L134.91759,52.0200576 Z M134.510938,36.0683902 C134.510938,35.0160357 135.146689,34.3703952 136.366262,34.3703952 C137.561015,34.3703952 138.221585,35.0160357 138.221585,36.0683902 C138.221585,37.1203854 137.561015,37.7900981 136.366262,37.7900981 C135.146689,37.7900981 134.510938,37.1203854 134.510938,36.0683902 L134.510938,36.0683902 Z" id="Fill-25" fill="#00558C" fill-rule="nonzero" mask="url(#mask-38)"></path>
                    </g>
                    <g id="Fill-26-Clipped" stroke-width="1" fill="none" fill-rule="evenodd">
                        <mask id="mask-40" fill="white">
                            <use xlink:href="#path-39"></use>
                        </mask>
                        <g id="path-1"></g>
                        <path d="M141.084255,48.4420397 L141.084255,41.8103065 L139.149246,41.8103065 L139.149246,39.4966363 L141.198139,39.4966363 L141.198139,36.8962658 L143.451887,36.2282544 L143.679313,36.2282544 L143.679313,39.4966363 L146.525055,39.4966363 L146.525055,41.8103065 L143.679313,41.8103065 L143.679313,47.9646838 C143.679313,49.1337037 144.157423,49.6347122 145.204612,49.6347122 C145.68272,49.6347122 146.046945,49.5630372 146.342771,49.4677095 L146.57054,49.4677095 L146.57054,51.757727 C146.206315,51.8770659 145.454951,52.0200576 144.567133,52.0200576 C142.063045,52.0200576 141.084255,50.5650543 141.084255,48.4420397" id="Fill-26" fill="#00558C" fill-rule="nonzero" mask="url(#mask-40)"></path>
                    </g>
                </g>
            </g>
        </g>
    </g>
</svg>