<svg width="2644" height="651" viewBox="0 0 2644 651" fill="none" xmlns="http://www.w3.org/2000/svg">
<path d="M1615.55 179.488C1596.85 179.488 1578.91 172.072 1565.68 158.869C1552.45 145.667 1545.02 127.761 1545.02 109.09C1545.02 90.419 1552.45 72.5129 1565.68 59.3107C1578.91 46.1084 1596.85 38.6914 1615.55 38.6914C1634.26 38.6914 1652.2 46.1084 1665.42 59.3107C1678.65 72.5129 1686.08 90.419 1686.08 109.09C1686.08 127.761 1678.65 145.667 1665.42 158.869C1652.2 172.072 1634.26 179.488 1615.55 179.488ZM1615.55 69.3278C1604.81 69.3278 1594.51 73.5856 1586.92 81.1648C1579.33 88.7439 1575.06 99.0233 1575.06 109.742C1575.06 131.904 1593.35 150.156 1615.55 150.156C1637.76 150.156 1656.04 131.904 1656.04 109.742C1656.04 86.9274 1637.76 69.3278 1615.55 69.3278Z" fill="#112BFC"/>
<path d="M193.837 178.835C193.837 110.392 238.245 52.3784 330.327 52.3784C349.918 52.3784 372.122 54.9858 396.939 60.8523V147.547C380.612 140.377 364.285 135.814 350.572 135.814C319.224 135.814 303.551 153.414 303.551 184.05V203.605H389.755V279.218H304.203V606.441H193.837V279.87H122V203.605H193.837V178.835ZM944.857 420.667C944.857 486.502 973.591 520.398 1027.8 520.398C1076.12 520.398 1111.39 487.806 1111.39 405.023C1111.39 322.239 1076.12 289.647 1027.8 289.647C1010.16 289.647 995.143 293.558 983.388 301.38V214.034C1002.98 205.56 1026.49 198.39 1050 198.39C1149.27 198.39 1225.02 253.144 1225.02 403.067C1225.02 541.909 1151.88 611.655 1044.12 611.655C1000.37 611.655 965.103 592.752 945.51 567.33V606.441H835.143V66.7189H944.857V420.667ZM1391.55 607.093H1281.18V203.605H1389.59V275.307C1415.71 219.249 1462.73 194.479 1503.22 194.479L1522.16 196.435V317.025C1509.75 313.114 1496.69 310.506 1484.94 310.506C1434.65 310.506 1392.2 344.402 1392.2 408.934V607.093H1391.55ZM1560.69 607.093V203.605H1671.06V606.441H1560.69V607.093ZM2095.55 454.562C2083.15 558.856 2014.57 612.307 1913.34 612.307C1799.06 612.307 1723.31 543.864 1723.31 406.978C1723.31 270.744 1802.98 198.39 1917.27 198.39C2015.88 198.39 2084.45 251.841 2094.24 358.742H1983.22C1976.7 308.551 1952.54 289.647 1915.3 289.647C1867.63 289.647 1836.29 322.891 1836.29 405.675C1836.29 487.154 1868.28 521.05 1914 521.05C1949.27 521.05 1976.7 502.798 1985.18 454.562H2095.55ZM2255.55 607.093H2145.18V66.7189H2255.55V607.093ZM2375.72 383.512L2522 607.093H2394.66L2256.21 397.852L2386.82 204.257H2503.06L2375.72 383.512ZM600.04 199.042C489.673 199.042 425.021 255.1 425.021 344.402H529.51C529.51 320.936 541.918 287.692 596.122 287.692C637.266 287.692 657.51 307.899 657.51 341.143V459.777C657.51 500.191 630.082 531.479 584.367 531.479C546.49 531.479 530.163 506.709 530.163 488.458C530.163 471.51 539.96 457.822 560.203 448.696L616.367 426.533V349.616L528.203 376.994C469.428 394.593 415.878 424.578 415.878 497.584C415.878 564.723 468.776 611.655 544.53 611.655C609.837 611.655 644.449 579.715 657.51 562.768V606.441H768.53V332.017C769.184 242.063 705.837 199.042 600.04 199.042Z" fill="#112BFC"/>
</svg>
