<svg class="w-[100px] h-[24px] min-w-[100px] transition-all ease-in-out duration-200 fill-blue-10" width="138" height="34" viewBox="0 0 138 34" fill="none"><path d="M85.8792 8.6C84.8037 8.6 83.7721 8.17331 83.0116 7.41378C82.251 6.65426 81.8237 5.62413 81.8237 4.55C81.8237 3.47587 82.251 2.44574 83.0116 1.68622C83.7721 0.926695 84.8037 0.5 85.8792 0.5C86.9548 0.5 87.9864 0.926695 88.7469 1.68622C89.5075 2.44574 89.9348 3.47587 89.9348 4.55C89.9348 5.62413 89.5075 6.65426 88.7469 7.41378C87.9864 8.17331 86.9548 8.6 85.8792 8.6ZM85.8792 2.2625C85.2618 2.2625 84.6696 2.50745 84.233 2.94348C83.7964 3.3795 83.5511 3.97087 83.5511 4.5875C83.5511 5.8625 84.6025 6.9125 85.8792 6.9125C87.156 6.9125 88.2074 5.8625 88.2074 4.5875C88.2074 3.275 87.156 2.2625 85.8792 2.2625Z" fill="auto"></path><path d="M4.13061 8.56241C4.13061 4.62491 6.68408 1.28741 11.9788 1.28741C13.1053 1.28741 14.382 1.43741 15.809 1.77491V6.76241C14.8702 6.34991 13.9314 6.08741 13.1429 6.08741C11.3404 6.08741 10.4392 7.09992 10.4392 8.86241V9.98742H15.3959V14.3374H10.4767V33.1624H4.13061V14.3749H0V9.98742H4.13061V8.56241ZM47.3143 22.4749C47.3143 26.2624 48.9665 28.2124 52.0833 28.2124C54.862 28.2124 56.8898 26.3374 56.8898 21.5749C56.8898 16.8124 54.862 14.9374 52.0833 14.9374C51.0694 14.9374 50.2057 15.1624 49.5298 15.6124V10.5874C50.6563 10.0999 52.0082 9.68741 53.36 9.68741C59.0678 9.68741 63.4237 12.8374 63.4237 21.4624C63.4237 29.4499 59.218 33.4624 53.022 33.4624C50.5061 33.4624 48.4784 32.3749 47.3518 30.9124V33.1624H41.0057V2.11241H47.3143V22.4749ZM72.9992 33.1999H66.6531V9.98742H72.8865V14.1124C74.3886 10.8874 77.0922 9.46241 79.4204 9.46241L80.5094 9.57491V16.5124C79.7959 16.2874 79.0449 16.1374 78.369 16.1374C75.4776 16.1374 73.0367 18.0874 73.0367 21.7999V33.1999H72.9992ZM82.7249 33.1999V9.98742H89.071V33.1624H82.7249V33.1999ZM113.479 24.4249C112.766 30.4249 108.823 33.4999 103.002 33.4999C96.431 33.4999 92.0751 29.5624 92.0751 21.6874C92.0751 13.8499 96.6563 9.68741 103.228 9.68741C108.898 9.68741 112.841 12.7624 113.404 18.9124H107.02C106.645 16.0249 105.256 14.9374 103.115 14.9374C100.374 14.9374 98.5714 16.8499 98.5714 21.6124C98.5714 26.2999 100.411 28.2499 103.04 28.2499C105.068 28.2499 106.645 27.1999 107.133 24.4249H113.479ZM122.679 33.1999H116.333V2.11241H122.679V33.1999ZM129.589 20.3374L138 33.1999H130.678L122.717 21.1624L130.227 10.0249H136.911L129.589 20.3374ZM27.4873 9.72491C21.1412 9.72491 17.4237 12.9499 17.4237 18.0874H23.4318C23.4318 16.7374 24.1453 14.8249 27.262 14.8249C29.6278 14.8249 30.7918 15.9874 30.7918 17.8999V24.7249C30.7918 27.0499 29.2147 28.8499 26.5861 28.8499C24.4082 28.8499 23.4694 27.4249 23.4694 26.3749C23.4694 25.3999 24.0327 24.6124 25.1967 24.0874L28.4261 22.8124V18.3874L23.3567 19.9624C19.9771 20.9749 16.898 22.6999 16.898 26.8999C16.898 30.7624 19.9396 33.4624 24.2955 33.4624C28.0506 33.4624 30.0408 31.6249 30.7918 30.6499V33.1624H37.1755V17.3749C37.2131 12.1999 33.5706 9.72491 27.4873 9.72491Z" fill="auto"></path></svg>