<?xml version="1.0" encoding="utf-8"?>
<!-- Generator: Adobe Illustrator 22.1.0, SVG Export Plug-In . SVG Version: 6.00 Build 0)  -->
<svg version="1.1" id="FerventoLogo" xmlns="http://www.w3.org/2000/svg" xmlns:xlink="http://www.w3.org/1999/xlink" x="0px"
	 y="0px" viewBox="0 0 335 63" style="enable-background:new 0 0 335 63;" xml:space="preserve">
<style type="text/css">
	.st0{fill:#B50F0F;stroke:#FFFFFF;stroke-miterlimit:10;}
</style>
<g id="Livello_1">
	<g>
		<path d="M329.2,50.3c0,2.8-2.2,5-5,5c-2.8,0-5.1-2.2-5.1-5c0-2.7,2.2-4.9,5.1-4.9C327,45.4,329.2,47.6,329.2,50.3z M320.4,50.3
			c0,2.2,1.6,3.9,3.8,3.9c2.2,0,3.8-1.7,3.8-3.9c0-2.2-1.6-4-3.8-4C322,46.4,320.4,48.1,320.4,50.3z M323.4,52.9h-1.1V48
			c0.5-0.1,1.1-0.2,1.9-0.2c0.9,0,1.4,0.2,1.7,0.4c0.3,0.2,0.5,0.6,0.5,1.1c0,0.5-0.4,1-1,1.1v0.1c0.5,0.2,0.8,0.5,0.9,1.2
			c0.1,0.8,0.2,1,0.4,1.2h-1.2c-0.2-0.2-0.2-0.6-0.4-1.2c-0.1-0.5-0.4-0.8-1-0.8h-0.5V52.9z M323.5,50.1h0.5c0.6,0,1.1-0.2,1.1-0.7
			c0-0.4-0.3-0.7-1-0.7c-0.3,0-0.5,0-0.6,0.1V50.1z"/>
	</g>
</g>
<title>Fervento</title>
<path d="M3.1,19.8c0-4.2,1.1-7.1,3.4-8.9c2.3-1.8,5.2-2.8,8.2-2.7c6.9-0.1,13.8,0.2,20.6,1v10.3H18.3c-0.8-0.1-1.6,0.2-2.2,0.8
	c-0.5,0.5-0.7,1.2-0.7,1.9v5.3L32.3,28v9.7l-16.9,0.6V55H3.1V19.8z"/>
<path d="M39.8,44.2V19.8c0-4.2,1.1-7.1,3.4-8.9c2.4-1.8,5.3-2.8,8.2-2.7c6.9,0,13.8,0.3,20.7,0.9v10.3H55.2c-2.1,0-3.2,0.9-3.2,2.8
	v3.9l17,0.6v9.7l-17,0.6v3.5c-0.1,0.9,0.2,1.8,0.7,2.5c0.5,0.6,1.2,0.9,2,0.8h17.4v10.3c-2.6,0.4-5.7,0.7-9.4,0.8s-7.2,0.3-10.5,0.3
	C43.9,55.3,39.8,51.6,39.8,44.2z"/>
<path d="M77.8,8.2h20c4.4,0,7.9,1.2,10.4,3.6c2.5,2.4,3.7,6.4,3.7,12.2c0,3.6-0.6,6.4-1.7,8.3c-1.1,1.9-2.7,3.5-4.7,4.6l8.1,18.2
	h-12.4l-6.5-16.2h-4.7V55H77.8V8.2z M95.6,29.2c1.2,0.1,2.3-0.4,3.1-1.2c0.8-1.2,1.1-2.6,1-3.9c0.1-1.3-0.2-2.7-1-3.8
	c-0.8-0.8-2-1.2-3.1-1.1h-5.5v10L95.6,29.2z"/>
<path d="M115,8.2h12.7l8.9,33.5l8.9-33.5h12.5L144.1,55h-15.2L115,8.2z"/>
<path d="M160.1,44.2V19.8c0-4.2,1.1-7.1,3.4-8.9c2.3-1.8,5.2-2.8,8.2-2.7c6.9,0,13.8,0.3,20.6,0.9v10.3h-16.9
	c-2.1,0-3.2,0.9-3.2,2.8v3.9l16.9,0.6v9.7l-16.9,0.6v3.5c-0.1,0.9,0.2,1.8,0.7,2.5c0.5,0.6,1.2,0.9,2,0.8h17.4v10.3
	c-2.6,0.4-5.7,0.7-9.4,0.8c-3.7,0.2-7.2,0.3-10.6,0.3C164.3,55.3,160.1,51.6,160.1,44.2z"/>
<path d="M198.2,8.2h9.7l16.4,26.1V8.2h12.2V55h-9.7l-16.4-26.1V55h-12.2V8.2z"/>
<path d="M252.8,19.1H241v-11h35.8v11H265V55h-12.2V19.1z"/>
<path d="M288.4,53.5c-3-1.4-5.3-3.9-6.5-7c-1.5-3.4-2.2-8.4-2.2-14.9s0.7-11.4,2.2-14.9c1.2-3.1,3.5-5.6,6.5-7
	c2.8-1.3,6.6-1.9,11.4-1.9c4.8,0,8.5,0.6,11.4,1.9c3,1.4,5.3,4,6.5,7c1.5,3.4,2.2,8.4,2.2,14.9S319,43,317.5,46.5
	c-1.2,3.1-3.5,5.6-6.5,7c-2.8,1.3-6.6,1.9-11.4,1.9S291.2,54.7,288.4,53.5z M304.6,43.3c1.2-0.9,2-2.2,2.3-3.7
	c0.5-2.7,0.7-5.4,0.7-8.1c0.1-2.8-0.1-5.5-0.6-8.2c-0.2-1.5-1-2.8-2.3-3.6c-3.1-1.3-6.7-1.3-9.8,0c-1.2,0.9-2,2.2-2.3,3.6
	c-0.5,2.7-0.7,5.5-0.6,8.2c-0.1,2.7,0.1,5.4,0.7,8.1c0.2,1.5,1.1,2.8,2.3,3.7C297.9,44.7,301.5,44.7,304.6,43.3z"/>
<path class="st0" d="M130.6,56.5h11.9c0.6,0,1-0.5,1-1c0-0.2-0.1-0.5-0.3-0.7c-2.5-2.6-7-7.3-6.9-7.3s-4.2,4.7-6.5,7.3
	c-0.4,0.4-0.3,1.1,0.1,1.4C130.1,56.4,130.3,56.5,130.6,56.5z"/>
</svg>
