<?xml version="1.0" encoding="utf-8"?>
<!-- Generator: Adobe Illustrator 25.3.1, SVG Export Plug-In . SVG Version: 6.00 Build 0)  -->
<svg version="1.1" id="Livello_1" xmlns="http://www.w3.org/2000/svg" xmlns:xlink="http://www.w3.org/1999/xlink" x="0px" y="0px"
	 viewBox="0 0 192.56 77.4" style="enable-background:new 0 0 192.56 77.4;" xml:space="preserve">
<style type="text/css">
	.st0{fill:#088D7B;}
</style>
<g>
	<g>
		<path class="st0" d="M105.15,33.25c-0.98,0-1.87-0.2-2.68-0.59c-0.82-0.39-1.51-0.93-2.09-1.62c-0.58-0.68-1.03-1.47-1.35-2.37
			c-0.32-0.9-0.47-1.85-0.47-2.87c0-1.07,0.17-2.06,0.51-2.98c0.33-0.92,0.8-1.72,1.4-2.42c0.6-0.69,1.32-1.24,2.15-1.63
			c0.83-0.39,1.76-0.59,2.77-0.59c1.16,0,2.17,0.26,3.03,0.77c0.86,0.51,1.56,1.2,2.11,2.07v-2.59h3.29v14.02
			c0,1.08-0.2,2.06-0.6,2.92c-0.4,0.86-0.97,1.59-1.7,2.19c-0.73,0.6-1.59,1.06-2.58,1.37c-0.99,0.32-2.08,0.48-3.26,0.48
			c-1.63,0-2.99-0.27-4.09-0.8c-1.1-0.53-2.04-1.29-2.83-2.26l2.05-1.99c0.56,0.69,1.27,1.24,2.12,1.63
			c0.85,0.39,1.76,0.59,2.74,0.59c0.58,0,1.14-0.08,1.67-0.24c0.54-0.16,1-0.41,1.4-0.74c0.4-0.34,0.72-0.77,0.96-1.29
			c0.23-0.52,0.35-1.14,0.35-1.86v-1.85c-0.49,0.84-1.17,1.49-2.05,1.95C107.11,33.02,106.16,33.25,105.15,33.25z M106.44,30.25
			c0.41,0,0.8-0.07,1.18-0.2c0.37-0.13,0.71-0.31,1.02-0.54c0.31-0.22,0.59-0.49,0.83-0.79c0.24-0.3,0.43-0.62,0.56-0.96v-3.51
			c-0.34-0.86-0.87-1.55-1.58-2.08c-0.71-0.52-1.46-0.79-2.25-0.79c-0.58,0-1.11,0.13-1.59,0.38c-0.47,0.25-0.88,0.59-1.22,1.01
			c-0.34,0.42-0.59,0.9-0.77,1.45c-0.18,0.54-0.27,1.1-0.27,1.69c0,0.6,0.1,1.16,0.31,1.68c0.21,0.52,0.49,0.98,0.86,1.38
			c0.37,0.39,0.79,0.7,1.29,0.93S105.86,30.25,106.44,30.25z"/>
		<path class="st0" d="M124.03,33.45c-1.18,0-2.25-0.2-3.2-0.6c-0.96-0.4-1.77-0.95-2.44-1.64c-0.67-0.69-1.2-1.5-1.56-2.42
			c-0.36-0.92-0.54-1.88-0.54-2.89c0-1.05,0.18-2.04,0.53-2.96c0.36-0.93,0.88-1.74,1.55-2.44c0.67-0.7,1.49-1.26,2.46-1.67
			c0.96-0.41,2.04-0.62,3.24-0.62c1.2,0,2.27,0.21,3.22,0.62c0.94,0.41,1.75,0.96,2.41,1.66c0.66,0.69,1.17,1.5,1.52,2.42
			s0.52,1.87,0.52,2.86c0,0.24,0,0.48-0.02,0.7c-0.01,0.22-0.03,0.41-0.07,0.56h-11.38c0.06,0.58,0.2,1.09,0.42,1.54
			s0.52,0.83,0.87,1.15c0.36,0.32,0.76,0.56,1.21,0.73c0.45,0.17,0.92,0.25,1.4,0.25c0.75,0,1.46-0.18,2.12-0.55
			c0.66-0.36,1.12-0.85,1.36-1.45l3.23,0.9c-0.54,1.12-1.41,2.05-2.6,2.77C127.09,33.09,125.67,33.45,124.03,33.45z M127.85,24.57
			c-0.09-1.11-0.5-1.99-1.22-2.65c-0.72-0.67-1.6-1-2.63-1c-0.51,0-0.98,0.09-1.42,0.27c-0.44,0.18-0.83,0.42-1.17,0.74
			c-0.33,0.32-0.61,0.7-0.83,1.15c-0.21,0.45-0.34,0.95-0.38,1.49H127.85z"/>
		<path class="st0" d="M139.84,33.45c-0.6,0-1.22-0.05-1.87-0.14c-0.64-0.09-1.28-0.23-1.89-0.39c-0.62-0.17-1.21-0.38-1.77-0.62
			c-0.56-0.24-1.06-0.52-1.49-0.82l1.52-2.55c1.87,1.22,3.68,1.83,5.42,1.83c0.79,0,1.41-0.14,1.85-0.42
			c0.45-0.28,0.68-0.68,0.68-1.21s-0.27-0.91-0.8-1.17c-0.54-0.25-1.43-0.53-2.69-0.83c-0.96-0.22-1.77-0.46-2.44-0.7
			c-0.68-0.24-1.22-0.52-1.63-0.84c-0.41-0.32-0.71-0.68-0.9-1.09c-0.19-0.41-0.28-0.9-0.28-1.46c0-0.75,0.15-1.42,0.45-2.02
			c0.3-0.6,0.71-1.11,1.25-1.53c0.54-0.42,1.16-0.75,1.88-0.97c0.72-0.23,1.5-0.34,2.34-0.34c1.05,0,2.09,0.16,3.13,0.49
			c1.04,0.33,2.01,0.77,2.91,1.33l-1.54,2.33c-0.83-0.52-1.6-0.9-2.33-1.14c-0.73-0.23-1.46-0.35-2.19-0.35
			c-0.68,0-1.24,0.13-1.7,0.39c-0.46,0.26-0.69,0.68-0.69,1.26c0,0.51,0.22,0.87,0.66,1.1c0.44,0.22,1.22,0.48,2.34,0.76
			c1.05,0.26,1.94,0.52,2.69,0.79c0.74,0.26,1.34,0.56,1.82,0.9c0.48,0.34,0.82,0.73,1.04,1.17c0.21,0.44,0.32,0.97,0.32,1.59
			c0,0.71-0.15,1.36-0.44,1.94c-0.29,0.58-0.7,1.07-1.22,1.48c-0.52,0.4-1.16,0.71-1.92,0.93
			C141.59,33.34,140.76,33.45,139.84,33.45z"/>
		<path class="st0" d="M157.06,32.41c-0.5,0.22-1.13,0.45-1.87,0.67c-0.74,0.23-1.51,0.34-2.32,0.34c-0.53,0-1.02-0.07-1.47-0.2
			c-0.46-0.13-0.86-0.34-1.21-0.63c-0.35-0.29-0.62-0.66-0.83-1.12c-0.21-0.46-0.31-1.02-0.31-1.67v-8.46h-1.91v-2.89h1.91v-4.77
			h3.76v4.77h3.12v2.89h-3.12v7.19c0,0.53,0.14,0.9,0.42,1.11c0.28,0.21,0.62,0.32,1.01,0.32c0.39,0,0.78-0.07,1.15-0.2
			c0.38-0.13,0.68-0.24,0.9-0.34L157.06,32.41z"/>
		<path class="st0" d="M162.98,33.45c-0.71,0-1.38-0.12-1.99-0.35c-0.62-0.23-1.15-0.56-1.6-0.98c-0.45-0.42-0.8-0.91-1.05-1.47
			c-0.25-0.56-0.38-1.18-0.38-1.85c0-0.69,0.16-1.33,0.46-1.92c0.31-0.59,0.74-1.09,1.29-1.5c0.55-0.41,1.21-0.73,1.98-0.97
			c0.76-0.23,1.61-0.35,2.53-0.35c0.66,0,1.3,0.06,1.93,0.17c0.62,0.11,1.19,0.27,1.67,0.48v-0.84c0-0.97-0.28-1.72-0.83-2.25
			c-0.55-0.52-1.37-0.79-2.46-0.79c-0.79,0-1.55,0.14-2.3,0.42c-0.75,0.28-1.51,0.69-2.3,1.24l-1.15-2.39
			c1.89-1.25,3.93-1.88,6.12-1.88c2.12,0,3.76,0.52,4.93,1.56c1.17,1.04,1.76,2.54,1.76,4.51v4.58c0,0.39,0.07,0.67,0.22,0.84
			c0.15,0.17,0.41,0.26,0.79,0.28v3.2c-0.36,0.07-0.69,0.13-1,0.15c-0.31,0.03-0.57,0.04-0.8,0.04c-0.71-0.02-1.26-0.18-1.63-0.49
			c-0.37-0.31-0.61-0.73-0.7-1.25l-0.08-0.81c-0.65,0.86-1.45,1.52-2.39,1.97C165.05,33.22,164.05,33.45,162.98,33.45z M164.05,30.7
			c0.63,0,1.24-0.11,1.81-0.34c0.57-0.22,1.02-0.52,1.33-0.9c0.42-0.32,0.62-0.67,0.62-1.07v-1.68c-0.45-0.17-0.94-0.3-1.46-0.41
			c-0.52-0.1-1.03-0.15-1.52-0.15c-0.97,0-1.77,0.22-2.39,0.66c-0.62,0.44-0.93,1-0.93,1.67c0,0.64,0.24,1.17,0.73,1.59
			C162.74,30.49,163.34,30.7,164.05,30.7z"/>
		<path class="st0" d="M175.14,12.66h3.76v15.62c0,1.14,0.51,1.71,1.54,1.71c0.21,0,0.45-0.04,0.71-0.11
			c0.27-0.07,0.53-0.16,0.77-0.25l0.51,3c-0.51,0.24-1.1,0.43-1.77,0.56c-0.67,0.13-1.28,0.2-1.83,0.2c-1.18,0-2.09-0.31-2.74-0.94
			c-0.64-0.63-0.97-1.52-0.97-2.68V12.66z"/>
		<path class="st0" d="M192.56,32.41c-0.51,0.22-1.13,0.45-1.87,0.67c-0.74,0.23-1.51,0.34-2.32,0.34c-0.52,0-1.02-0.07-1.47-0.2
			c-0.46-0.13-0.86-0.34-1.21-0.63c-0.35-0.29-0.62-0.66-0.83-1.12c-0.21-0.46-0.31-1.02-0.31-1.67v-8.46h-1.91v-2.89h1.91v-4.77
			h3.76v4.77h3.12v2.89h-3.12v7.19c0,0.53,0.14,0.9,0.42,1.11c0.28,0.21,0.62,0.32,1.01,0.32c0.39,0,0.78-0.07,1.15-0.2
			c0.38-0.13,0.67-0.24,0.9-0.34L192.56,32.41z"/>
		<path class="st0" d="M124.29,58.2c-1.01,0-1.93-0.21-2.77-0.63c-0.83-0.42-1.55-0.98-2.16-1.67c-0.61-0.69-1.08-1.49-1.42-2.39
			c-0.34-0.9-0.5-1.83-0.5-2.78c0-1.01,0.16-1.98,0.49-2.91c0.33-0.93,0.79-1.74,1.39-2.43c0.6-0.69,1.32-1.24,2.15-1.66
			c0.83-0.41,1.76-0.62,2.77-0.62c1.25,0,2.34,0.31,3.26,0.94c0.92,0.63,1.7,1.42,2.36,2.37v-3.06h1.71v14.69
			c0,1.01-0.2,1.91-0.58,2.68c-0.39,0.78-0.9,1.43-1.54,1.95c-0.65,0.52-1.41,0.92-2.29,1.18c-0.88,0.26-1.81,0.39-2.78,0.39
			c-1.67,0-3.02-0.3-4.04-0.9c-1.03-0.6-1.86-1.41-2.5-2.42l1.18-0.93c0.58,0.94,1.34,1.63,2.3,2.07c0.95,0.44,1.97,0.66,3.06,0.66
			c0.71,0,1.39-0.1,2.04-0.29c0.64-0.2,1.21-0.49,1.69-0.87c0.47-0.38,0.86-0.87,1.13-1.46c0.28-0.59,0.42-1.28,0.42-2.07v-2.89
			c-0.58,0.94-1.35,1.68-2.32,2.22C126.37,57.93,125.36,58.2,124.29,58.2z M124.82,56.6c0.56,0,1.12-0.1,1.66-0.31
			c0.55-0.21,1.04-0.48,1.47-0.83c0.44-0.35,0.81-0.73,1.11-1.16c0.3-0.43,0.49-0.87,0.59-1.32v-4.52
			c-0.21-0.53-0.49-1.01-0.86-1.46c-0.37-0.45-0.77-0.83-1.22-1.15c-0.45-0.32-0.93-0.57-1.45-0.76c-0.51-0.19-1.03-0.28-1.55-0.28
			c-0.83,0-1.55,0.17-2.19,0.52c-0.64,0.35-1.18,0.8-1.63,1.36c-0.45,0.56-0.79,1.2-1.02,1.91c-0.23,0.71-0.35,1.43-0.35,2.16
			c0,0.79,0.14,1.54,0.42,2.25c0.28,0.71,0.66,1.33,1.15,1.87c0.49,0.53,1.06,0.96,1.73,1.27C123.34,56.44,124.05,56.6,124.82,56.6z
			"/>
		<path class="st0" d="M142.97,45.05c-1.29,0.04-2.41,0.39-3.37,1.07c-0.96,0.67-1.63,1.6-2.02,2.78V58h-1.91V43.37h1.8v3.51
			c0.5-1.03,1.17-1.88,1.99-2.57c0.82-0.68,1.71-1.03,2.67-1.03c0.17,0,0.33,0,0.48,0c0.15,0,0.27,0.01,0.36,0.03V45.05z"/>
		<path class="st0" d="M151.17,58.28c-1.06,0-2.04-0.2-2.93-0.6c-0.89-0.4-1.66-0.95-2.3-1.64c-0.65-0.69-1.15-1.5-1.5-2.42
			c-0.35-0.92-0.54-1.88-0.54-2.89c0-1.03,0.19-2,0.55-2.92c0.36-0.92,0.87-1.72,1.52-2.42c0.64-0.69,1.41-1.24,2.3-1.66
			c0.89-0.41,1.86-0.62,2.91-0.62c1.05,0,2.02,0.21,2.91,0.62c0.89,0.41,1.66,0.96,2.3,1.66c0.65,0.69,1.15,1.5,1.52,2.42
			c0.37,0.92,0.55,1.89,0.55,2.92c0,1.01-0.18,1.98-0.55,2.89c-0.37,0.92-0.87,1.72-1.52,2.42c-0.64,0.69-1.41,1.24-2.3,1.64
			C153.19,58.08,152.22,58.28,151.17,58.28z M145.86,50.75c0,0.82,0.14,1.59,0.41,2.29c0.27,0.7,0.65,1.32,1.12,1.85
			c0.48,0.54,1.04,0.95,1.68,1.25c0.65,0.3,1.33,0.45,2.06,0.45c0.73,0,1.42-0.16,2.06-0.46c0.65-0.31,1.21-0.73,1.7-1.27
			c0.49-0.53,0.87-1.16,1.15-1.87c0.28-0.71,0.42-1.48,0.42-2.3c0-0.81-0.14-1.57-0.42-2.29c-0.28-0.72-0.66-1.35-1.15-1.88
			c-0.49-0.53-1.05-0.96-1.69-1.26c-0.63-0.31-1.32-0.46-2.05-0.46c-0.73,0-1.42,0.15-2.06,0.46c-0.65,0.31-1.21,0.73-1.69,1.28
			c-0.48,0.54-0.86,1.17-1.14,1.9C146,49.16,145.86,49.93,145.86,50.75z"/>
		<path class="st0" d="M166.08,58.28c-1.54,0-2.7-0.53-3.49-1.59c-0.78-1.06-1.18-2.63-1.18-4.73v-8.59h1.91v8.26
			c0,3.31,1.13,4.97,3.4,4.97c0.56,0,1.11-0.09,1.66-0.28c0.55-0.19,1.04-0.46,1.51-0.82c0.46-0.35,0.87-0.78,1.23-1.26
			c0.37-0.49,0.66-1.04,0.88-1.66v-9.21h1.91v12.16c0,0.52,0.23,0.79,0.7,0.79V58c-0.38,0.05-0.64,0.08-0.79,0.08
			c-0.43,0-0.8-0.13-1.11-0.39c-0.31-0.26-0.46-0.59-0.46-0.98v-2.02c-0.65,1.14-1.52,2.03-2.61,2.65
			C168.56,57.97,167.38,58.28,166.08,58.28z"/>
		<path class="st0" d="M185.74,58.28c-1.23,0-2.33-0.31-3.29-0.94c-0.96-0.63-1.72-1.42-2.3-2.37v9.02h-1.91V43.37h1.71v2.84
			c0.6-0.92,1.38-1.66,2.33-2.23c0.96-0.57,1.99-0.86,3.12-0.86c1.01,0,1.94,0.21,2.79,0.63c0.85,0.42,1.58,0.98,2.21,1.68
			c0.62,0.7,1.1,1.51,1.45,2.43c0.35,0.92,0.52,1.86,0.52,2.84c0,1.03-0.16,2-0.48,2.92c-0.32,0.92-0.77,1.72-1.36,2.42
			c-0.59,0.69-1.29,1.24-2.1,1.64C187.61,58.08,186.72,58.28,185.74,58.28z M185.21,56.6c0.79,0,1.5-0.17,2.13-0.51
			c0.64-0.33,1.18-0.78,1.64-1.33c0.46-0.55,0.81-1.18,1.05-1.88c0.24-0.7,0.37-1.43,0.37-2.18c0-0.79-0.14-1.54-0.42-2.25
			c-0.28-0.71-0.66-1.34-1.15-1.88c-0.49-0.54-1.06-0.97-1.73-1.29c-0.66-0.32-1.38-0.48-2.15-0.48c-0.49,0-0.99,0.1-1.52,0.29
			c-0.53,0.2-1.02,0.46-1.49,0.79c-0.47,0.33-0.87,0.71-1.19,1.15c-0.33,0.44-0.53,0.9-0.61,1.39v4.5c0.23,0.52,0.51,1.01,0.86,1.46
			c0.35,0.45,0.74,0.84,1.18,1.17c0.44,0.33,0.92,0.59,1.43,0.77C184.14,56.5,184.67,56.6,185.21,56.6z"/>
	</g>
	<g>
		<path class="st0" d="M0,0v77.4h77.4V0H0z M41.3,58.77h-0.36l-7.45-7.5c-8.56-0.64-15.31-7.76-15.31-16.49
			c0-9.14,7.41-16.55,16.55-16.55l5.67,5.71h0.91c9.6,0,17.42,7.81,17.42,17.42C58.72,50.96,50.91,58.77,41.3,58.77z"/>
		<path class="st0" d="M41.3,25.67h-6.62c-5,0-9.06,4.07-9.06,9.06c0,4.99,4.05,9.05,9.04,9.06h6.6c1.36,0,2.47-1.11,2.48-2.47
			c-0.01-1.33-1.11-2.41-2.44-2.41h-6.67c-2.33,0-4.22-1.9-4.22-4.22c0-2.35,1.87-4.22,4.18-4.22h6.62
			c5.96,0.01,10.8,4.86,10.8,10.8c0,5.96-4.84,10.8-10.8,10.8h-4.49l4.94,4.97c8.48-0.19,15.33-7.15,15.33-15.68
			C56.99,32.71,49.95,25.67,41.3,25.67z"/>
	</g>
</g>
</svg>
