<?xml version="1.0" encoding="utf-8"?>
<!-- Generator: Adobe Illustrator 21.1.0, SVG Export Plug-In . SVG Version: 6.00 Build 0)  -->
<svg version="1.1" id="Livello_1" xmlns="http://www.w3.org/2000/svg" xmlns:xlink="http://www.w3.org/1999/xlink" x="0px" y="0px"
	 viewBox="0 0 640 150" style="enable-background:new 0 0 640 150;" xml:space="preserve">
<style type="text/css">
	.st0{fill:#3F5772;}
	.st1{opacity:0.8;}
	.st2{fill:#5AC2E1;}
</style>
<g>
	<g>
		<path class="st0" d="M204.5,38.1h20.9v55.8h13V38.1h20.9V26.6h-54.9V38.1z M188.3,46.1l7.5-9.4c-3.3-3.4-7.2-6.1-11.8-8
			c-4.6-1.9-9.3-2.9-14.1-2.9c-6.6,0-12.6,1.5-18,4.5c-5.4,3-9.7,7.1-12.8,12.4c-3.1,5.3-4.7,11.1-4.7,17.5c0,6.4,1.5,12.3,4.6,17.5
			c3.1,5.3,7.3,9.5,12.7,12.5c5.4,3.1,11.3,4.6,17.8,4.6c4.8,0,9.5-1,14.2-3.1c4.7-2.1,8.8-4.9,12.3-8.5l-7.6-8.5
			c-2.5,2.5-5.4,4.5-8.6,5.9c-3.2,1.4-6.5,2.1-9.7,2.1c-4.2,0-8-1-11.4-3c-3.5-2-6.2-4.8-8.2-8.3c-2-3.5-3-7.3-3-11.5
			c0-4.2,1-8,3-11.5c2-3.5,4.7-6.2,8.2-8.2c3.5-2,7.3-3,11.4-3c3.3,0,6.6,0.8,9.8,2.3C183.1,41.1,185.9,43.3,188.3,46.1 M110.2,93.9
			h12.9V26.6h-12.9V93.9z"/>
		<g class="st1">
			<g>
				<path class="st0" d="M585.6,66.6h-17.9V33.1h17.9c6.5,0,11.4,1.4,14.9,4.2c3.5,2.8,5.2,6.9,5.2,12.3c0,5.5-1.7,9.7-5.2,12.6
					C596.9,65.2,592,66.6,585.6,66.6 M585.9,27.1h-24.8v67.2h6.6V72.6h18.2c8.3,0,14.8-2,19.3-6.1c4.5-4,6.8-9.7,6.8-17.1
					c0-7.1-2.3-12.6-6.8-16.5C600.6,29.1,594.2,27.1,585.9,27.1 M496,67V27h-6.6v40c0,8.7,2.5,15.5,7.4,20.5
					c4.9,4.9,11.8,7.4,20.5,7.4c8.7,0,15.5-2.5,20.4-7.4c4.9-4.9,7.3-11.8,7.3-20.5V27h-6.6v40c0,6.9-1.9,12.3-5.6,16.1
					c-3.7,3.8-8.9,5.8-15.6,5.8c-6.7,0-11.9-1.9-15.6-5.8C497.9,79.3,496,73.9,496,67 M441.3,32.5c5.1,0,9.8,1.2,14.1,3.7
					c4.3,2.5,7.8,5.9,10.3,10.2c2.6,4.3,3.8,9,3.8,14.1c0,5.1-1.3,9.9-3.8,14.2c-2.6,4.4-6,7.8-10.3,10.3c-4.3,2.5-9,3.8-14.1,3.8
					c-5.1,0-9.9-1.3-14.2-3.8c-4.4-2.5-7.8-6-10.4-10.3c-2.6-4.4-3.8-9.1-3.8-14.2c0-5.1,1.3-9.8,3.8-14.1c2.6-4.3,6-7.7,10.4-10.2
					C431.5,33.8,436.2,32.5,441.3,32.5 M441.2,26.5c-6.4,0-12.3,1.5-17.6,4.6c-5.3,3-9.6,7.2-12.7,12.3c-3.1,5.2-4.7,10.9-4.7,17.1
					c0,6.2,1.6,12,4.7,17.2c3.1,5.3,7.4,9.4,12.7,12.5c5.3,3.1,11.2,4.6,17.6,4.6c6.4,0,12.3-1.5,17.6-4.6
					c5.3-3.1,9.6-7.2,12.7-12.5c3.1-5.3,4.7-11,4.7-17.2c0-6.2-1.6-11.9-4.7-17.1c-3.1-5.2-7.4-9.3-12.7-12.3
					C453.5,28.1,447.6,26.5,441.2,26.5 M349.9,66.6V33.1h18.4c6.4,0,11.3,1.4,14.8,4.2c3.5,2.8,5.2,6.9,5.2,12.3
					c0,5.5-1.7,9.7-5.2,12.6c-3.5,2.9-8.4,4.4-14.8,4.4H349.9z M395.2,94.3l-16.1-23.2c5-1.5,8.8-4.1,11.5-7.8c2.7-3.7,4-8.4,4-13.9
					c0-7.1-2.3-12.6-6.9-16.5c-4.6-3.9-11.1-5.8-19.5-5.8h-25.1v67.2h6.6V72.6h18.4c1.1,0,2.7-0.1,4.7-0.2l14.5,21.9H395.2z
					 M321.4,82.8c-2.7,1.9-5.6,3.4-8.8,4.5c-3.2,1.1-6.4,1.6-9.6,1.6c-5.2,0-10-1.3-14.4-3.8c-4.4-2.5-7.9-6-10.4-10.3
					c-2.6-4.3-3.8-9.1-3.8-14.3c0-5.1,1.3-9.8,3.8-14.1c2.6-4.3,6-7.7,10.4-10.2c4.4-2.5,9.1-3.8,14.3-3.8c3.8,0,7.6,0.7,11.1,2.1
					c3.6,1.4,6.8,3.3,9.5,5.9l3.8-4.7c-3.3-2.9-7-5.1-11.3-6.7c-4.3-1.6-8.7-2.4-13.2-2.4c-6.4,0-12.3,1.5-17.7,4.6
					c-5.4,3-9.7,7.2-12.8,12.3c-3.1,5.2-4.7,10.9-4.7,17.1c0,6.2,1.6,12,4.7,17.2c3.1,5.3,7.4,9.4,12.7,12.5
					c5.3,3.1,11.2,4.6,17.5,4.6c4.5,0,8.9-0.8,13.2-2.4c4.3-1.6,8.1-3.7,11.4-6.5V61.4h-5.9V82.8z"/>
			</g>
		</g>
		<path class="st0" d="M598.2,130.2h3.1v-9.7c0-1-0.2-2.6-0.2-2.6h0c0,0,0.8,1.6,1.4,2.6l6.4,9.7h3v-16.8h-3v9.7
			c0,1,0.2,2.6,0.2,2.6h0c0,0-0.8-1.6-1.4-2.6l-6.4-9.7h-3.1V130.2z M580,121.7c0-3.3,2.5-5.8,5.6-5.8c3.1,0,5.6,2.5,5.6,5.8
			c0,3.4-2.5,6-5.6,6C582.5,127.7,580,125.1,580,121.7 M576.8,121.7c0,4.9,3.8,8.8,8.7,8.8c5,0,8.7-3.8,8.7-8.8
			c0-4.8-3.8-8.5-8.7-8.5C580.6,113.1,576.8,116.9,576.8,121.7 M569.9,130.2h3.1v-16.8h-3.1V130.2z M558.3,130.2h3.1V116h5.6v-2.6
			h-14.2v2.6h5.6V130.2z M545.4,116.3c0,0,0.4,1.7,0.7,2.6l1.5,4.5h-4.4l1.5-4.5C545,118,545.3,116.3,545.4,116.3L545.4,116.3z
			 M549.8,130.2h3.2l-6-16.8h-3.2l-6,16.8h3.2l1.4-4.3h5.9L549.8,130.2z M528.5,130.2h3.1l6.2-16.8h-3.3l-3.7,10.9
			c-0.3,1-0.6,2.5-0.6,2.5h0c0,0-0.3-1.5-0.6-2.5l-3.7-10.9h-3.3L528.5,130.2z M506.4,121.7c0-3.3,2.5-5.8,5.6-5.8
			c3.1,0,5.6,2.5,5.6,5.8c0,3.4-2.5,6-5.6,6C508.9,127.7,506.4,125.1,506.4,121.7 M503.3,121.7c0,4.9,3.8,8.8,8.7,8.8
			c5,0,8.7-3.8,8.7-8.8c0-4.8-3.8-8.5-8.7-8.5C507,113.1,503.3,116.9,503.3,121.7 M485.6,130.2h3.1v-9.7c0-1-0.2-2.6-0.2-2.6h0
			c0,0,0.8,1.6,1.4,2.6l6.4,9.7h3v-16.8h-3v9.7c0,1,0.2,2.6,0.2,2.6h0c0,0-0.8-1.6-1.4-2.6l-6.4-9.7h-3.1V130.2z M466.8,130.2h3.1
			v-9.7c0-1-0.2-2.6-0.2-2.6h0c0,0,0.8,1.6,1.4,2.6l6.4,9.7h3v-16.8h-3v9.7c0,1,0.2,2.6,0.2,2.6h0c0,0-0.8-1.6-1.4-2.6l-6.4-9.7
			h-3.1V130.2z M458.7,130.2h3.1v-16.8h-3.1V130.2z M444.6,134h2.6v-22.6h-2.6V134z M426.4,130.2h3.1v-7l5.6-9.7h-3.5l-2.6,4.9
			c-0.5,1-1,2.2-1,2.2h0c0,0-0.5-1.2-1-2.2l-2.6-4.9h-3.5l5.6,9.7V130.2z M403,121.8c0,5.3,3.8,8.7,8.3,8.7c3.2,0,4.9-1.8,4.9-1.8h0
			c0,0,0,0.4,0,0.7v0.8h2.6v-8.8h-5.4v2.6h2.6v2c0,0-1.7,1.7-4.2,1.7c-3.2,0-5.7-2.4-5.7-6c0-3.2,2-5.8,5.8-5.8
			c2.7,0,4.5,1.6,4.5,1.6l1.5-2.3c0,0-2.1-2.1-6.3-2.1C406.7,113.1,403,116.9,403,121.8 M386,121.7c0-3.3,2.5-5.8,5.6-5.8
			c3.1,0,5.6,2.5,5.6,5.8c0,3.4-2.5,6-5.6,6C388.5,127.7,386,125.1,386,121.7 M382.8,121.7c0,4.9,3.8,8.8,8.7,8.8
			c5,0,8.7-3.8,8.7-8.8c0-4.8-3.8-8.5-8.7-8.5C386.6,113.1,382.8,116.9,382.8,121.7 M370.7,130.2h10.4v-2.6h-7.3v-14.1h-3.1V130.2z
			 M352.5,121.7c0-3.3,2.5-5.8,5.6-5.8c3.1,0,5.6,2.5,5.6,5.8c0,3.4-2.5,6-5.6,6C355,127.7,352.5,125.1,352.5,121.7 M349.4,121.7
			c0,4.9,3.8,8.8,8.7,8.8s8.7-3.8,8.7-8.8c0-4.8-3.8-8.5-8.7-8.5S349.4,116.9,349.4,121.7 M331.7,130.2h3.1v-9.7
			c0-1-0.2-2.6-0.2-2.6h0c0,0,0.8,1.6,1.4,2.6l6.4,9.7h3v-16.8h-3v9.7c0,1,0.2,2.6,0.2,2.6h0c0,0-0.8-1.6-1.4-2.6l-6.4-9.7h-3.1
			V130.2z M312.8,130.2h3.1v-7h7.7v7h3.1v-16.8h-3.1v7.1h-7.7v-7.1h-3.1V130.2z M293.8,121.7c0,4.9,3.6,8.7,8.7,8.7
			c4.3,0,6.7-2.7,6.7-2.7l-1.6-2.2c0,0-2,2.1-4.9,2.1c-3.5,0-5.7-2.8-5.7-6c0-3.1,2.1-5.8,5.7-5.8c2.7,0,4.6,1.8,4.6,1.8l1.5-2.3
			c0,0-2.1-2.3-6.2-2.3C297.6,113.1,293.8,116.9,293.8,121.7 M280.7,130.2h10.5v-2.6h-7.4v-4.5h5.7v-2.6h-5.7V116h7.1v-2.6h-10.1
			V130.2z M269.1,130.2h3.1V116h5.6v-2.6h-14.2v2.6h5.6V130.2z M251.5,134h2.6v-22.6h-2.6V134z M230.5,130.2H241v-2.6h-7.4v-4.5h5.7
			v-2.6h-5.7V116h7.1v-2.6h-10.1V130.2z M217.2,121.3V116h2.3c2.4,0,3.1,1,3.1,2.6c0,1.7-1,2.6-2.7,2.6H217.2z M214.1,130.2h3.1
			v-6.3h3l3.4,6.3h3.4l-3.5-6.3c-0.3-0.6-0.6-0.8-0.6-0.8v0c1.8-0.7,2.9-2.6,2.9-4.6c0-2.2-1.1-3.8-2.8-4.6
			c-0.7-0.3-1.6-0.5-3.4-0.5h-5.5V130.2z M203.7,116.3c0,0,0.4,1.7,0.7,2.6l1.5,4.5h-4.4l1.5-4.5C203.3,118,203.7,116.3,203.7,116.3
			L203.7,116.3z M208.1,130.2h3.2l-6-16.8h-3.2l-6,16.8h3.2l1.4-4.3h5.9L208.1,130.2z M185.6,113.4H183l-3,11.6
			c-0.3,1-0.3,1.8-0.3,1.8h0c0,0-0.1-0.8-0.3-1.8l-2.7-11.6h-3.2l4.2,16.8h3.6l2.6-9.9c0.3-1.1,0.4-2.2,0.4-2.2h0
			c0,0,0.1,1.1,0.4,2.2l2.6,9.9h3.6l4.4-16.8h-3.2l-2.8,11.6c-0.2,0.9-0.3,1.8-0.3,1.8h0c0,0,0-0.8-0.3-1.8L185.6,113.4z
			 M163.2,130.2h3.1V116h5.6v-2.6h-14.2v2.6h5.6V130.2z M146.4,130.2h3.1v-6.8h5.6v-2.6h-5.6V116h6.7v-2.6h-9.7V130.2z M128.2,121.7
			c0-3.3,2.5-5.8,5.6-5.8c3.1,0,5.6,2.5,5.6,5.8c0,3.4-2.5,6-5.6,6C130.7,127.7,128.2,125.1,128.2,121.7 M125.1,121.7
			c0,4.9,3.8,8.8,8.7,8.8c5,0,8.8-3.8,8.8-8.8c0-4.8-3.8-8.5-8.8-8.5C128.8,113.1,125.1,116.9,125.1,121.7 M111,128.2
			c0,0,2.1,2.3,5.8,2.3c3.5,0,5.6-2.2,5.6-4.9c0-5.4-8-4.6-8-7.6c0-1.2,1.1-2,2.6-2c2.1,0,3.7,1.5,3.7,1.5l1.3-2.5
			c0,0-1.7-1.8-5.1-1.8c-3.2,0-5.7,2.1-5.7,4.9c0,5.1,8,4.6,8,7.6c0,1.4-1.2,2-2.5,2c-2.4,0-4.2-1.8-4.2-1.8L111,128.2z"/>
		<path class="st2" d="M70.6,79.6c-2.2,2.1-5.7,2.1-7.9,0s-2.2-5.5,0-7.6c2.2-2.1,5.7-2.1,7.9,0C72.8,74.1,72.8,77.5,70.6,79.6
			 M76.5,66c-2-2-1.9-5.4,0.3-7.5c0.1,0,0.1-0.1,0.2-0.1l0,0L93,42.2V27.3L53.9,65.6l0,0c0,0-0.1,0.1-0.1,0.2
			c-2.1,2.1-5.5,2.3-7.5,0.3c-2-2-1.9-5.4,0.3-7.5c0,0,0.1-0.1,0.2-0.1l0,0L79,26.7l-32.5,0c0,0-21.5,0-21.5,21.5v40.2
			c0,0,0,6.2,6.2,6.2h40.2c0,0,21.6,0,21.6-21.6V56.7l-8.8,8.8l0,0c0,0-0.1,0.1-0.1,0.2C81.9,67.9,78.5,68,76.5,66"/>
	</g>
</g>
<g>
</g>
<g>
</g>
<g>
</g>
<g>
</g>
<g>
</g>
<g>
</g>
<g>
</g>
<g>
</g>
<g>
</g>
<g>
</g>
<g>
</g>
<g>
</g>
<g>
</g>
<g>
</g>
<g>
</g>
</svg>
