<svg width="594" height="250" viewBox="0 0 594 250" fill="none" xmlns="http://www.w3.org/2000/svg">
<path d="M244.894 81.0565H207.365V118.506H244.894V81.0565Z" fill="#004899"/>
<path d="M226.238 62.2235H188.709V99.6729H226.238V62.2235Z" fill="#5E4F9C"/>
<path d="M207.366 43.3906H169.837V80.84H207.366V43.3906Z" fill="#83D0F5"/>
<path d="M143.805 171.974V125.65H160.725C168.535 125.65 174.609 127.814 178.948 132.144C183.286 136.473 185.455 141.668 185.455 148.812C185.455 155.955 183.286 161.367 178.948 165.48C174.609 169.81 168.535 171.974 160.725 171.974H143.805ZM152.265 164.398H160.075C171.789 164.398 176.995 158.553 176.995 148.812C176.995 139.071 172.006 133.226 160.075 133.226H152.265V164.181V164.398Z" fill="#1D1D1B"/>
<path d="M191.312 127.598C191.312 124.784 193.482 122.619 196.302 122.619C199.122 122.619 201.291 124.784 201.291 127.598C201.291 130.412 199.122 132.577 196.302 132.577C193.482 132.577 191.312 130.412 191.312 127.598ZM192.18 136.689H200.641V161.584C200.641 164.398 201.291 165.264 203.027 165.264C204.762 165.264 204.111 165.264 204.545 165.264V172.407C203.678 172.84 202.376 173.057 200.424 173.057C195 173.057 192.18 170.026 192.18 164.181V137.122V136.689Z" fill="#1D1D1B"/>
<path d="M236.652 136.69H245.112V166.13C245.112 174.572 243.81 179.767 239.038 183.447C235.567 186.045 231.445 187.344 226.456 187.344C221.466 187.344 214.091 185.612 209.318 182.148L213.44 175.871C217.345 178.468 221.466 179.767 225.588 179.767C229.71 179.767 231.445 179.118 233.398 177.602C235.567 176.087 236.869 173.057 236.869 168.727V166.995C235.133 170.026 231.011 172.191 225.371 172.191C219.731 172.191 216.26 170.459 212.789 166.995C209.318 163.532 207.8 159.202 207.8 154.007C207.8 148.812 209.535 144.482 213.006 141.019C216.477 137.339 220.599 135.607 225.588 135.607C230.578 135.607 235.784 137.988 236.869 141.452V136.257L236.652 136.69ZM234.048 161.8C236.218 159.852 237.302 157.254 237.302 154.224C237.302 151.193 236.218 148.595 234.048 146.647C232.096 144.699 229.493 143.617 226.456 143.617C223.419 143.617 221.033 144.699 218.863 146.647C216.911 148.595 215.826 151.193 215.826 154.224C215.826 157.254 216.911 159.852 218.863 161.8C220.816 163.748 223.419 164.831 226.456 164.831C229.493 164.831 232.096 163.748 234.048 161.8Z" fill="#1D1D1B"/>
<path d="M250.969 127.598C250.969 124.784 253.138 122.619 255.958 122.619C258.778 122.619 260.948 124.784 260.948 127.598C260.948 130.412 258.778 132.577 255.958 132.577C253.138 132.577 250.969 130.412 250.969 127.598ZM251.836 136.689H260.297V161.584C260.297 164.398 260.948 165.264 262.683 165.264C264.418 165.264 263.768 165.264 264.202 165.264V172.407C263.334 172.84 262.032 173.057 260.08 173.057C254.657 173.057 251.836 170.026 251.836 164.181V137.122V136.689Z" fill="#1D1D1B"/>
<path d="M271.577 144.266H267.238V136.69H271.577V123.052H280.037V136.69H287.847V144.266H280.037V160.068C280.037 163.965 281.339 165.264 284.376 165.264C287.413 165.264 286.328 165.264 287.413 165.047V172.624C286.111 172.84 284.81 173.057 283.074 173.057C275.482 173.057 271.577 169.16 271.577 161.151V144.482V144.266Z" fill="#1D1D1B"/>
<path d="M291.318 154.44C291.318 149.245 293.271 144.699 296.959 141.019C300.646 137.339 305.202 135.607 310.625 135.607C316.049 135.607 320.604 137.339 324.292 141.019C327.98 144.699 329.932 149.028 329.932 154.44C329.932 159.852 327.98 164.181 324.292 167.861C320.604 171.541 316.049 173.273 310.625 173.273C305.202 173.273 300.646 171.541 296.959 167.861C293.271 164.181 291.318 159.852 291.318 154.44ZM318.652 162.233C320.821 160.068 321.906 157.471 321.906 154.224C321.906 150.977 320.821 148.379 318.652 146.431C316.482 144.266 313.879 143.184 310.842 143.184C307.805 143.184 304.985 144.266 303.033 146.431C301.08 148.595 299.996 151.193 299.996 154.224C299.996 157.254 301.08 160.068 303.033 162.233C305.202 164.398 307.805 165.48 310.842 165.48C313.879 165.48 316.482 164.398 318.652 162.233Z" fill="#1D1D1B"/>
<path d="M336.873 136.689H345.333V157.471C345.333 162.233 347.937 165.264 352.492 165.264C357.048 165.264 360.302 161.8 360.302 157.038V136.689H368.762V161.367C368.762 164.398 369.413 165.48 371.365 165.48C373.317 165.48 372.45 165.48 373.101 165.48V172.407C372.233 172.84 370.714 173.057 368.979 173.057C367.243 173.057 365.074 172.624 363.773 171.758C362.471 170.675 361.603 169.593 361.169 168.078C359.217 171.541 355.529 173.273 350.323 173.273C341.862 173.273 336.873 167.861 336.873 159.202V137.339V136.689Z" fill="#1D1D1B"/>
<path d="M409.112 141.668L403.905 147.08C401.519 144.482 398.482 143.184 395.011 143.184C391.54 143.184 389.371 144.266 387.201 146.431C385.249 148.595 384.164 151.193 384.164 154.44C384.164 157.687 385.249 160.285 387.201 162.45C389.371 164.614 391.974 165.697 395.011 165.697C398.048 165.697 401.519 164.398 403.905 161.8L409.112 167.212C405.207 171.325 400.651 173.273 395.011 173.273C389.371 173.273 385.032 171.541 381.344 167.861C377.656 164.181 375.704 159.852 375.704 154.44C375.704 149.028 377.44 144.699 381.344 141.019C385.032 137.339 389.588 135.607 395.011 135.607C400.434 135.607 405.424 137.555 409.112 141.668Z" fill="#1D1D1B"/>
<path d="M416.054 171.974V123.052H424.514V141.452C426.033 137.988 429.937 135.824 434.927 135.824C443.17 135.824 447.943 141.235 447.943 149.894V161.151C447.943 163.965 448.376 164.831 450.329 164.831C452.281 164.831 451.197 164.831 451.63 164.831V171.974C450.763 172.191 449.678 172.407 447.943 172.407C442.302 172.407 439.699 169.377 439.699 163.099V151.41C439.699 146.647 437.096 143.617 432.54 143.617C427.985 143.617 424.731 147.08 424.731 151.842V172.191H416.271L416.054 171.974Z" fill="#1D1D1B"/>
<path d="M276.566 187.127C278.085 187.127 279.386 187.56 280.254 188.642C281.122 189.725 281.556 191.024 281.556 192.755V200.981H277.434V193.188C277.434 192.539 277.434 191.889 277 191.673C276.566 191.457 276.132 191.024 275.482 191.024C274.831 191.024 274.397 191.24 273.963 191.673C273.529 192.106 273.312 192.755 273.312 193.621V201.198H269.191V193.405C269.191 192.755 269.191 192.106 268.757 191.889C268.323 191.673 267.889 191.24 267.238 191.24C266.587 191.24 266.154 191.456 265.72 191.889C265.286 192.322 265.069 192.972 265.069 193.838V201.414H260.947V187.993H265.069V189.292C265.72 188.209 267.021 187.776 268.757 187.776C270.492 187.776 271.577 188.426 272.228 189.508C273.095 188.426 274.397 187.776 276.132 187.776L276.566 187.127Z" fill="#83D0F5"/>
<path d="M297.392 200.765H292.836L288.498 194.92V200.765H284.376V181.932H288.498V193.188L292.619 187.344H297.392L292.402 194.054L297.392 200.765Z" fill="#83D0F5"/>
<path d="M306.503 191.24H303.683V196.002C303.683 196.435 303.683 196.868 304.333 197.085C304.767 197.085 305.418 197.085 306.503 197.085V200.765C303.9 200.981 302.164 200.765 301.079 200.115C299.995 199.249 299.561 197.951 299.561 196.002V191.24H297.392V187.343H299.561V184.746L303.683 183.447V187.127H306.503V191.023V191.24Z" fill="#83D0F5"/>
<path d="M318.218 187.56H322.122V200.332C322.122 202.496 321.471 204.012 319.953 205.094C318.651 206.176 316.916 206.609 314.964 206.609C311.927 206.609 309.757 205.527 308.673 203.362L312.143 201.414C312.794 202.496 313.879 203.146 315.18 203.146C316.482 203.146 316.916 202.929 317.35 202.496C317.784 202.064 318.218 201.198 318.218 200.332V199.033C317.35 200.115 316.048 200.765 314.313 200.765C312.577 200.765 310.842 200.115 309.54 198.816C308.239 197.518 307.588 195.786 307.588 194.054C307.588 192.322 308.239 190.591 309.54 189.292C310.842 187.993 312.36 187.344 314.313 187.344C316.265 187.344 317.35 187.993 318.218 189.075V187.776V187.56ZM312.794 196.219C313.445 196.868 314.096 197.085 315.18 197.085C316.265 197.085 316.916 196.868 317.567 196.219C318.218 195.569 318.434 194.92 318.434 194.054C318.434 193.188 318.218 192.322 317.567 191.889C316.916 191.24 316.265 191.023 315.18 191.023C314.096 191.023 313.445 191.24 312.794 191.889C312.143 192.539 311.927 193.188 311.927 194.054C311.927 194.92 312.143 195.786 312.794 196.219Z" fill="#83D0F5"/>
<path d="M335.789 191.24H332.969V196.002C332.969 196.435 332.969 196.868 333.62 197.085C334.053 197.085 334.704 197.085 335.789 197.085V200.765C333.186 200.981 331.45 200.765 330.366 200.115C329.281 199.249 328.847 197.951 328.847 196.002V191.24H326.678V187.344H328.847V184.746L332.969 183.447V187.127H335.789V191.024V191.24Z" fill="#5E4F9C"/>
<path d="M341.429 195.786C341.863 197.085 342.948 197.734 344.683 197.734C346.419 197.734 346.636 197.301 347.286 196.652L350.54 198.6C349.239 200.332 347.286 201.414 344.683 201.414C342.08 201.414 340.562 200.765 339.26 199.466C337.958 198.167 337.308 196.435 337.308 194.487C337.308 192.539 337.958 190.807 339.26 189.508C340.562 188.209 342.297 187.56 344.466 187.56C346.636 187.56 347.937 188.209 349.239 189.508C350.54 190.807 351.191 192.539 351.191 194.487C351.191 196.435 351.191 195.569 351.191 196.002H341.646L341.429 195.786ZM341.429 192.755H347.286C346.853 191.24 345.985 190.591 344.466 190.591C342.948 190.591 341.863 191.24 341.646 192.755H341.429Z" fill="#5E4F9C"/>
<path d="M359.869 201.198C357.916 201.198 356.181 200.548 354.879 199.25C353.578 197.951 352.927 196.219 352.927 194.271C352.927 192.322 353.578 190.591 354.879 189.292C356.181 187.993 357.916 187.344 359.869 187.344C361.821 187.344 362.255 187.56 363.339 188.209C364.424 188.859 365.292 189.725 365.943 190.807L362.472 192.755C362.038 191.673 361.17 191.24 359.869 191.24C358.567 191.24 358.35 191.457 357.699 192.106C357.048 192.755 356.832 193.405 356.832 194.271C356.832 195.137 357.048 196.002 357.699 196.435C358.35 197.085 359.001 197.301 359.869 197.301C361.17 197.301 362.038 196.868 362.472 195.786L365.943 197.734C365.292 198.817 364.424 199.682 363.339 200.332C362.255 200.981 361.17 201.198 359.869 201.198Z" fill="#5E4F9C"/>
<path d="M375.27 187.127C376.789 187.127 377.874 187.56 378.958 188.642C379.826 189.725 380.477 191.024 380.477 192.755V200.981H376.355V193.405C376.355 192.539 376.138 192.106 375.704 191.673C375.27 191.24 374.62 191.024 373.969 191.024C373.318 191.024 372.667 191.24 372.233 191.673C371.8 192.106 371.583 192.755 371.583 193.838V201.198H367.461V182.365H371.583V189.075C372.45 187.993 373.752 187.344 375.487 187.344L375.27 187.127Z" fill="#5E4F9C"/>
<path d="M389.588 195.786C390.021 197.085 391.106 197.734 392.841 197.734C394.577 197.734 394.794 197.301 395.445 196.652L398.699 198.6C397.397 200.332 395.445 201.414 392.841 201.414C390.238 201.414 388.72 200.765 387.418 199.466C386.117 198.167 385.466 196.435 385.466 194.487C385.466 192.539 386.117 190.807 387.418 189.508C388.72 188.209 390.455 187.56 392.625 187.56C394.794 187.56 396.095 188.209 397.397 189.508C398.699 190.807 399.349 192.539 399.349 194.487C399.349 196.435 399.349 195.569 399.349 196.002H389.804L389.588 195.786ZM389.371 192.755H395.228C394.794 191.24 393.926 190.591 392.408 190.591C390.889 190.591 389.804 191.24 389.588 192.755H389.371Z" fill="#004899"/>
<path d="M407.81 201.198C405.858 201.198 404.122 200.548 402.821 199.249C401.519 197.951 400.868 196.219 400.868 194.271C400.868 192.322 401.519 190.591 402.821 189.292C404.122 187.993 405.858 187.344 407.81 187.344C409.762 187.344 410.196 187.56 411.281 188.209C412.366 188.859 413.233 189.725 413.884 190.807L410.413 192.755C409.979 191.673 409.112 191.24 407.81 191.24C406.508 191.24 406.291 191.456 405.641 192.106C404.99 192.755 404.773 193.405 404.773 194.271C404.773 195.136 404.99 196.002 405.641 196.435C406.291 197.085 406.942 197.301 407.81 197.301C409.112 197.301 409.979 196.868 410.413 195.786L413.884 197.734C413.233 198.816 412.366 199.682 411.281 200.332C410.196 200.981 409.112 201.198 407.81 201.198Z" fill="#004899"/>
<path d="M426.682 199.249C425.381 200.548 423.645 201.198 421.693 201.198C419.741 201.198 418.005 200.548 416.703 199.249C415.402 197.951 414.534 196.219 414.534 194.271C414.534 192.322 415.185 190.591 416.703 189.292C418.222 187.993 419.741 187.344 421.693 187.344C423.645 187.344 425.381 187.993 426.682 189.292C427.984 190.591 428.852 192.322 428.852 194.271C428.852 196.219 428.201 197.951 426.682 199.249ZM419.524 196.435C420.174 197.085 420.825 197.301 421.693 197.301C422.561 197.301 423.211 197.085 423.862 196.435C424.513 195.786 424.73 195.136 424.73 194.054C424.73 192.972 424.513 192.322 423.862 191.673C423.211 191.024 422.561 190.807 421.693 190.807C420.825 190.807 420.174 191.024 419.524 191.673C418.873 192.322 418.656 192.972 418.656 194.054C418.656 195.136 418.873 195.786 419.524 196.435Z" fill="#004899"/>
<path d="M446.207 187.127C447.725 187.127 449.027 187.56 449.895 188.642C450.763 189.725 451.196 191.024 451.196 192.755V200.981H447.075V193.188C447.075 192.539 447.075 191.889 446.641 191.673C446.207 191.457 445.773 191.024 445.122 191.024C444.472 191.024 444.038 191.24 443.604 191.673C443.17 192.106 442.953 192.755 442.953 193.621V201.198H438.831V193.405C438.831 192.755 438.831 192.106 438.397 191.889C437.964 191.673 437.53 191.24 436.879 191.24C436.228 191.24 435.794 191.456 435.36 191.889C434.927 192.322 434.71 192.972 434.71 193.838V201.414H430.588V187.993H434.71V189.292C435.36 188.209 436.662 187.776 438.397 187.776C440.133 187.776 441.218 188.426 441.868 189.508C442.736 188.426 444.038 187.776 445.773 187.776L446.207 187.127Z" fill="#004899"/>
<g style="mix-blend-mode:multiply">
<path d="M226.238 81.0565H207.365V99.8895H226.238V81.0565Z" fill="#0069B4"/>
</g>
<g style="mix-blend-mode:multiply">
<path d="M207.582 62.2235H188.709V81.0565H207.582V62.2235Z" fill="#5E4F9C"/>
</g>
</svg>
