<svg width="594" height="250" viewBox="0 0 594 250" fill="none" xmlns="http://www.w3.org/2000/svg">
<rect x="0.5" y="0.5" width="593" height="249" stroke="white"/>
<path d="M200.269 94.988H217.773V140.372H228.66V94.988H246.164V85.6347H200.185V94.988H200.269ZM186.702 101.495L192.983 93.8493C190.219 91.084 186.953 88.888 183.1 87.3427C179.248 85.7973 175.312 84.984 171.292 84.984C165.764 84.984 160.739 86.204 156.217 88.644C151.694 91.084 148.093 94.4187 145.497 98.7293C142.9 103.04 141.56 107.757 141.56 112.963C141.56 118.168 142.817 122.967 145.413 127.196C148.009 131.507 151.527 134.923 156.049 137.363C160.572 139.884 165.513 141.104 170.957 141.104C174.977 141.104 178.913 140.291 182.849 138.583C186.785 136.875 190.219 134.597 193.15 131.669L186.785 124.756C184.692 126.789 182.263 128.416 179.583 129.555C176.903 130.693 174.139 131.263 171.459 131.263C167.942 131.263 164.759 130.449 161.912 128.823C158.98 127.196 156.719 124.919 155.044 122.072C153.369 119.225 152.532 116.135 152.532 112.719C152.532 109.303 153.369 106.212 155.044 103.365C156.719 100.519 158.98 98.3227 161.912 96.696C164.843 95.0693 168.025 94.256 171.459 94.256C174.223 94.256 176.987 94.9067 179.667 96.1267C182.347 97.428 184.692 99.2173 186.702 101.495ZM121.293 140.372H132.097V85.6347H121.293V140.372Z" fill="#3F5772"/>
<g opacity="0.8">
<path d="M519.44 118.168H504.449V90.9213H519.44C524.884 90.9213 528.988 92.06 531.919 94.3373C534.85 96.6147 536.274 99.9493 536.274 104.341C536.274 108.815 534.85 112.231 531.919 114.589C528.904 117.029 524.8 118.168 519.44 118.168ZM519.691 86.0413H498.921V140.697H504.449V123.048H519.691C526.643 123.048 532.086 121.421 535.855 118.087C539.624 114.833 541.55 110.197 541.55 104.179C541.55 98.404 539.624 93.9307 535.855 90.7587C532.003 87.668 526.643 86.0413 519.691 86.0413ZM444.4 118.493V85.96H438.873V118.493C438.873 125.569 440.966 131.1 445.07 135.167C449.174 139.152 454.953 141.185 462.239 141.185C469.525 141.185 475.22 139.152 479.324 135.167C483.428 131.181 485.438 125.569 485.438 118.493V85.96H479.91V118.493C479.91 124.105 478.319 128.497 475.22 131.588C472.121 134.679 467.766 136.305 462.155 136.305C456.544 136.305 452.189 134.76 449.09 131.588C445.991 128.497 444.4 124.105 444.4 118.493ZM398.589 90.4333C402.86 90.4333 406.796 91.4093 410.398 93.4427C413.999 95.476 416.93 98.2413 419.024 101.739C421.201 105.236 422.206 109.059 422.206 113.207C422.206 117.355 421.118 121.259 419.024 124.756C416.846 128.335 413.999 131.1 410.398 133.133C406.796 135.167 402.86 136.224 398.589 136.224C394.318 136.224 390.298 135.167 386.696 133.133C383.011 131.1 380.164 128.253 377.986 124.756C375.809 121.177 374.804 117.355 374.804 113.207C374.804 109.059 375.893 105.236 377.986 101.739C380.164 98.2413 383.011 95.476 386.696 93.4427C390.381 91.4907 394.318 90.4333 398.589 90.4333ZM398.505 85.5533C393.145 85.5533 388.204 86.7733 383.765 89.2947C379.326 91.7347 375.725 95.1507 373.129 99.2987C370.533 103.528 369.193 108.164 369.193 113.207C369.193 118.249 370.533 122.967 373.129 127.196C375.725 131.507 379.326 134.841 383.765 137.363C388.204 139.884 393.145 141.104 398.505 141.104C403.865 141.104 408.806 139.884 413.245 137.363C417.684 134.841 421.285 131.507 423.881 127.196C426.478 122.885 427.818 118.249 427.818 113.207C427.818 108.164 426.478 103.528 423.881 99.2987C421.285 95.0693 417.684 91.7347 413.245 89.2947C408.806 86.8547 403.865 85.5533 398.505 85.5533ZM322.041 118.168V90.9213H337.451C342.811 90.9213 346.915 92.06 349.846 94.3373C352.778 96.6147 354.201 99.9493 354.201 104.341C354.201 108.815 352.778 112.231 349.846 114.589C346.915 116.948 342.811 118.168 337.451 118.168H322.041ZM359.98 140.697L346.496 121.828C350.684 120.608 353.866 118.493 356.128 115.484C358.389 112.475 359.478 108.652 359.478 104.179C359.478 98.404 357.551 93.9307 353.699 90.7587C349.846 87.5867 344.403 86.0413 337.368 86.0413H316.346V140.697H321.874V123.048H337.284C338.205 123.048 339.545 122.967 341.22 122.885L353.364 140.697H359.98ZM298.173 131.344C295.911 132.889 293.483 134.109 290.803 135.004C288.123 135.899 285.443 136.305 282.763 136.305C278.408 136.305 274.388 135.248 270.703 133.215C267.018 131.181 264.086 128.335 261.993 124.837C259.815 121.34 258.81 117.436 258.81 113.207C258.81 109.059 259.899 105.236 261.993 101.739C264.17 98.2413 267.018 95.476 270.703 93.4427C274.388 91.4093 278.324 90.352 282.679 90.352C285.861 90.352 289.044 90.9213 291.975 92.06C294.99 93.1987 297.67 94.744 299.931 96.8587L303.114 93.036C300.35 90.6773 297.251 88.888 293.65 87.5867C290.049 86.2853 286.364 85.6347 282.595 85.6347C277.235 85.6347 272.294 86.8547 267.771 89.376C263.249 91.816 259.648 95.232 257.051 99.38C254.455 103.609 253.115 108.245 253.115 113.288C253.115 118.331 254.455 123.048 257.051 127.277C259.648 131.588 263.249 134.923 267.688 137.444C272.126 139.965 277.068 141.185 282.344 141.185C286.113 141.185 289.798 140.535 293.399 139.233C297 137.932 300.183 136.224 302.946 133.947V113.939H298.005V131.344H298.173Z" fill="#3F5772"/>
</g>
<path d="M529.993 169.896H532.589V162.007C532.589 161.193 532.422 159.892 532.422 159.892C532.422 159.892 533.092 161.193 533.594 162.007L538.954 169.896H541.467V156.232H538.954V164.121C538.954 164.935 539.122 166.236 539.122 166.236C539.122 166.236 538.452 164.935 537.949 164.121L532.589 156.232H529.993V169.896ZM514.75 162.983C514.75 160.299 516.844 158.265 519.44 158.265C522.037 158.265 524.13 160.299 524.13 162.983C524.13 165.748 522.037 167.863 519.44 167.863C516.844 167.863 514.75 165.748 514.75 162.983ZM512.07 162.983C512.07 166.968 515.253 170.14 519.357 170.14C523.544 170.14 526.643 167.049 526.643 162.983C526.643 159.079 523.46 156.069 519.357 156.069C515.253 155.988 512.07 159.079 512.07 162.983ZM506.292 169.896H508.888V156.232H506.292V169.896ZM496.577 169.896H499.173V158.347H503.863V156.232H491.97V158.347H496.66V169.896H496.577ZM485.773 158.591C485.773 158.591 486.108 159.973 486.359 160.705L487.615 164.365H483.93L485.187 160.705C485.438 159.973 485.689 158.591 485.773 158.591ZM489.458 169.896H492.138L487.113 156.232H484.433L479.408 169.896H482.088L483.26 166.399H488.202L489.458 169.896ZM471.619 169.896H474.215L479.408 156.232H476.644L473.545 165.097C473.294 165.911 473.043 167.131 473.043 167.131C473.043 167.131 472.792 165.911 472.54 165.097L469.442 156.232H466.678L471.619 169.896ZM453.11 162.983C453.11 160.299 455.204 158.265 457.8 158.265C460.397 158.265 462.49 160.299 462.49 162.983C462.49 165.748 460.397 167.863 457.8 167.863C455.204 167.863 453.11 165.748 453.11 162.983ZM450.514 162.983C450.514 166.968 453.697 170.14 457.8 170.14C461.988 170.14 465.087 167.049 465.087 162.983C465.087 159.079 461.904 156.069 457.8 156.069C453.613 155.988 450.514 159.079 450.514 162.983ZM435.69 169.896H438.287V162.007C438.287 161.193 438.119 159.892 438.119 159.892C438.119 159.892 438.789 161.193 439.292 162.007L444.652 169.896H447.164V156.232H444.652V164.121C444.652 164.935 444.819 166.236 444.819 166.236C444.819 166.236 444.149 164.935 443.647 164.121L438.287 156.232H435.69V169.896ZM419.945 169.896H422.542V162.007C422.542 161.193 422.374 159.892 422.374 159.892C422.374 159.892 423.044 161.193 423.547 162.007L428.907 169.896H431.419V156.232H428.907V164.121C428.907 164.935 429.074 166.236 429.074 166.236C429.074 166.236 428.404 164.935 427.902 164.121L422.542 156.232H419.945V169.896ZM413.162 169.896H415.758V156.232H413.162V169.896ZM401.353 172.987H403.53V154.605H401.353V172.987ZM386.11 169.896H388.707V164.203L393.397 156.313H390.465L388.288 160.299C387.869 161.112 387.45 162.088 387.45 162.088C387.45 162.088 387.032 161.112 386.613 160.299L384.435 156.313H381.504L386.194 164.203V169.896H386.11ZM366.513 163.064C366.513 167.375 369.695 170.14 373.464 170.14C376.144 170.14 377.568 168.676 377.568 168.676C377.568 168.676 377.568 169.001 377.568 169.245V169.896H379.745V162.739H375.223V164.853H377.4V166.48C377.4 166.48 375.977 167.863 373.883 167.863C371.203 167.863 369.109 165.911 369.109 162.983C369.109 160.38 370.784 158.265 373.967 158.265C376.228 158.265 377.735 159.567 377.735 159.567L378.992 157.696C378.992 157.696 377.233 155.988 373.715 155.988C369.612 155.988 366.513 159.079 366.513 163.064ZM352.275 162.983C352.275 160.299 354.369 158.265 356.965 158.265C359.562 158.265 361.655 160.299 361.655 162.983C361.655 165.748 359.562 167.863 356.965 167.863C354.369 167.863 352.275 165.748 352.275 162.983ZM349.595 162.983C349.595 166.968 352.778 170.14 356.882 170.14C361.069 170.14 364.168 167.049 364.168 162.983C364.168 159.079 360.985 156.069 356.882 156.069C352.778 155.988 349.595 159.079 349.595 162.983ZM339.462 169.896H348.172V167.781H342.058V156.313H339.462V169.896ZM324.219 162.983C324.219 160.299 326.313 158.265 328.909 158.265C331.505 158.265 333.599 160.299 333.599 162.983C333.599 165.748 331.505 167.863 328.909 167.863C326.313 167.863 324.219 165.748 324.219 162.983ZM321.623 162.983C321.623 166.968 324.805 170.14 328.909 170.14C333.013 170.14 336.195 167.049 336.195 162.983C336.195 159.079 333.013 156.069 328.909 156.069C324.805 156.069 321.623 159.079 321.623 162.983ZM306.799 169.896H309.395V162.007C309.395 161.193 309.228 159.892 309.228 159.892C309.228 159.892 309.898 161.193 310.4 162.007L315.76 169.896H318.273V156.232H315.76V164.121C315.76 164.935 315.928 166.236 315.928 166.236C315.928 166.236 315.258 164.935 314.755 164.121L309.395 156.232H306.799V169.896ZM290.97 169.896H293.567V164.203H300.015V169.896H302.612V156.232H300.015V162.007H293.567V156.232H290.97V169.896ZM275.058 162.983C275.058 166.968 278.073 170.059 282.344 170.059C285.945 170.059 287.955 167.863 287.955 167.863L286.615 166.073C286.615 166.073 284.94 167.781 282.512 167.781C279.58 167.781 277.738 165.504 277.738 162.901C277.738 160.38 279.497 158.184 282.512 158.184C284.773 158.184 286.364 159.648 286.364 159.648L287.62 157.777C287.62 157.777 285.862 155.907 282.428 155.907C278.24 155.988 275.058 159.079 275.058 162.983ZM264.087 169.896H272.88V167.781H266.683V164.121H271.457V162.007H266.683V158.347H272.629V156.232H264.17V169.896H264.087ZM254.372 169.896H256.968V158.347H261.658V156.232H249.765V158.347H254.455V169.896H254.372ZM239.632 172.987H241.809V154.605H239.632V172.987ZM222.044 169.896H230.838V167.781H224.64V164.121H229.414V162.007H224.64V158.347H230.587V156.232H222.128V169.896H222.044ZM210.905 162.657V158.347H212.832C214.842 158.347 215.428 159.16 215.428 160.461C215.428 161.844 214.59 162.576 213.167 162.576H210.905V162.657ZM208.309 169.896H210.905V164.772H213.418L216.265 169.896H219.113L216.182 164.772C215.93 164.284 215.679 164.121 215.679 164.121C217.187 163.552 218.108 162.007 218.108 160.38C218.108 158.591 217.187 157.289 215.763 156.639C215.177 156.395 214.423 156.232 212.915 156.232H208.309V169.896ZM199.599 158.591C199.599 158.591 199.934 159.973 200.185 160.705L201.442 164.365H197.757L199.013 160.705C199.264 159.973 199.599 158.591 199.599 158.591ZM203.284 169.896H205.964L200.939 156.232H198.259L193.234 169.896H195.914L197.087 166.399H202.028L203.284 169.896ZM184.44 156.232H182.263L179.75 165.667C179.499 166.48 179.499 167.131 179.499 167.131C179.499 167.131 179.415 166.48 179.248 165.667L176.987 156.232H174.307L177.824 169.896H180.839L183.017 161.844C183.268 160.949 183.352 160.055 183.352 160.055C183.352 160.055 183.435 160.949 183.687 161.844L185.864 169.896H188.879L192.564 156.232H189.884L187.539 165.667C187.372 166.399 187.288 167.131 187.288 167.131C187.288 167.131 187.288 166.48 187.037 165.667L184.44 156.232ZM165.68 169.896H168.277V158.347H172.967V156.232H161.074V158.347H165.764V169.896H165.68ZM151.61 169.896H154.207V164.365H158.897V162.251H154.207V158.347H159.818V156.232H151.694V169.896H151.61ZM136.368 162.983C136.368 160.299 138.462 158.265 141.058 158.265C143.654 158.265 145.748 160.299 145.748 162.983C145.748 165.748 143.654 167.863 141.058 167.863C138.462 167.863 136.368 165.748 136.368 162.983ZM133.772 162.983C133.772 166.968 136.954 170.14 141.058 170.14C145.245 170.14 148.428 167.049 148.428 162.983C148.428 159.079 145.245 156.069 141.058 156.069C136.87 155.988 133.772 159.079 133.772 162.983ZM121.963 168.269C121.963 168.269 123.722 170.14 126.82 170.14C129.752 170.14 131.51 168.351 131.51 166.155C131.51 161.763 124.81 162.413 124.81 159.973C124.81 158.997 125.732 158.347 126.988 158.347C128.747 158.347 130.087 159.567 130.087 159.567L131.175 157.533C131.175 157.533 129.752 156.069 126.904 156.069C124.224 156.069 122.13 157.777 122.13 160.055C122.13 164.203 128.83 163.796 128.83 166.236C128.83 167.375 127.825 167.863 126.737 167.863C124.727 167.863 123.219 166.399 123.219 166.399L121.963 168.269Z" fill="#3F5772"/>
<path d="M88.1275 128.741C86.285 130.449 83.3538 130.449 81.5113 128.741C79.6688 127.033 79.6688 124.268 81.5113 122.56C83.3538 120.852 86.285 120.852 88.1275 122.56C89.97 124.268 89.97 127.033 88.1275 128.741ZM93.0688 117.68C91.3938 116.053 91.4775 113.288 93.32 111.58C93.4038 111.58 93.4038 111.499 93.4875 111.499L106.888 98.3227V86.204L74.1413 117.355C74.1413 117.355 74.0575 117.436 74.0575 117.517C72.2987 119.225 69.4513 119.388 67.7763 117.761C66.1012 116.135 66.185 113.369 68.0275 111.661C68.0275 111.661 68.1112 111.58 68.195 111.58L95.1625 85.716H67.9438C67.9438 85.716 49.9375 85.716 49.9375 103.203V135.899C49.9375 135.899 49.9375 140.941 55.13 140.941H88.7975C88.7975 140.941 106.888 140.941 106.888 123.373V110.116L99.5175 117.273C99.5175 117.273 99.4338 117.355 99.4338 117.436C97.5913 119.225 94.7438 119.307 93.0688 117.68Z" fill="#5AC2E1"/>
</svg>
