<svg width="594" height="250" viewBox="0 0 594 250" fill="none" xmlns="http://www.w3.org/2000/svg">
<g clip-path="url(#clip0_4276_84)">
<mask id="mask0_4276_84" style="mask-type:luminance" maskUnits="userSpaceOnUse" x="143" y="48" width="309" height="154">
<path d="M452 48H143V201.668H452V48Z" fill="white"/>
</mask>
<g mask="url(#mask0_4276_84)">
<path d="M166.604 185.921V185.099C164.833 184.471 163.154 184.229 161.383 184.229C158.167 184.229 156.49 185.582 156.49 187.805C156.49 189.834 157.887 191.38 160.777 191.38C164.319 191.38 166.604 188.868 166.604 185.921ZM151.176 187.998C151.176 183.649 154.112 180.267 161.011 180.267C163.201 180.267 165.345 180.703 166.604 181.089V178.769C166.604 176.45 165.205 174.518 161.85 174.518C158.913 174.518 157.375 176.209 157.328 178.238H152.294C152.294 173.503 155.883 169.976 161.943 169.976C168.282 169.976 171.871 173.793 171.871 178.721V195.342H167.209L166.836 192.394H166.65C165.252 194.52 162.782 195.776 159.565 195.776C154.251 195.776 151.176 192.394 151.176 187.998Z" fill="#00558C"/>
<path d="M177.044 187.032H182.492C182.492 189.496 184.404 191.042 187.511 191.042C190.617 191.042 192.242 189.98 192.242 188.24C192.242 186.838 191.239 185.872 188.993 185.389L184.644 184.567C180.628 183.746 177.809 181.475 177.809 177.223C177.809 173.116 181.345 169.976 187.32 169.976C193.246 169.976 197.166 173.31 197.166 178.141H191.812C191.717 175.87 190.044 174.421 187.224 174.421C184.786 174.421 183.113 175.436 183.113 177.272C183.113 178.769 184.308 179.639 186.364 179.977L190.57 180.799C194.871 181.717 197.739 183.505 197.739 188.24C197.739 193.071 193.246 195.776 187.511 195.776C180.867 195.776 177.188 192.297 177.044 187.032Z" fill="#00558C"/>
<path d="M203.947 187.032H209.396C209.396 189.496 211.308 191.042 214.415 191.042C217.521 191.042 219.146 189.98 219.146 188.24C219.146 186.838 218.143 185.872 215.896 185.389L211.546 184.567C207.532 183.746 204.711 181.475 204.711 177.223C204.711 173.116 208.249 169.976 214.224 169.976C220.15 169.976 224.07 173.31 224.07 178.141H218.716C218.621 175.87 216.948 174.421 214.128 174.421C211.69 174.421 210.018 175.436 210.018 177.272C210.018 178.769 211.212 179.639 213.268 179.977L217.474 180.799C221.775 181.717 224.642 183.505 224.642 188.24C224.642 193.071 220.15 195.776 214.415 195.776C207.771 195.776 204.09 192.297 203.947 187.032Z" fill="#00558C"/>
<mask id="mask1_4276_84" style="mask-type:luminance" maskUnits="userSpaceOnUse" x="124" y="32" width="346" height="188">
<path d="M124.272 219.513H469.876V32.7181H124.272V219.513Z" fill="white"/>
</mask>
<g mask="url(#mask1_4276_84)">
<path d="M230.877 195.148H237.228V168.175H230.877V195.148ZM229.986 160.283C229.986 157.982 231.379 156.571 234.053 156.571C236.67 156.571 238.118 157.982 238.118 160.283C238.118 162.583 236.67 164.046 234.053 164.046C231.379 164.046 229.986 162.583 229.986 160.283Z" fill="#00558C"/>
</g>
<mask id="mask2_4276_84" style="mask-type:luminance" maskUnits="userSpaceOnUse" x="124" y="32" width="346" height="188">
<path d="M124.272 219.513H469.876V32.7181H124.272V219.513Z" fill="white"/>
</mask>
<g mask="url(#mask2_4276_84)">
<path d="M242.185 181.951C242.185 174.091 246.616 168.753 254.852 168.753C262.41 168.753 266.164 173.003 266.528 178.491H260.586C260.325 175.624 258.189 173.745 254.852 173.745C250.264 173.745 248.232 177.008 248.232 181.951C248.232 186.993 250.264 190.206 254.852 190.206C258.24 190.206 260.325 188.376 260.639 185.461H266.58C266.113 191.095 262.359 195.148 255.008 195.148C246.72 195.148 242.185 189.86 242.185 181.951Z" fill="#00558C"/>
</g>
<mask id="mask3_4276_84" style="mask-type:luminance" maskUnits="userSpaceOnUse" x="124" y="32" width="346" height="188">
<path d="M124.272 219.513H469.876V32.7181H124.272V219.513Z" fill="white"/>
</mask>
<g mask="url(#mask3_4276_84)">
<path d="M293.008 168.753V184.873C293.008 190.665 289.131 195.148 281.827 195.148C274.575 195.148 270.646 190.665 270.646 184.873V168.753H276.388V183.967C276.388 187.593 277.949 189.86 281.827 189.86C285.705 189.86 287.267 187.593 287.267 183.967V168.753H293.008Z" fill="#00558C"/>
</g>
<mask id="mask4_4276_84" style="mask-type:luminance" maskUnits="userSpaceOnUse" x="124" y="32" width="346" height="188">
<path d="M124.272 219.513H469.876V32.7181H124.272V219.513Z" fill="white"/>
</mask>
<g mask="url(#mask4_4276_84)">
<path d="M299.107 169.107H303.885L304.382 173.245H304.581C305.626 170.571 308.014 168.753 311.248 168.753H313.338V174.103H311.149C306.819 174.103 304.581 177.131 304.581 182.431V195.148H299.107V169.107Z" fill="#00558C"/>
</g>
<mask id="mask5_4276_84" style="mask-type:luminance" maskUnits="userSpaceOnUse" x="124" y="32" width="346" height="188">
<path d="M124.272 219.513H469.876V32.7181H124.272V219.513Z" fill="white"/>
</mask>
<g mask="url(#mask5_4276_84)">
<path d="M332.042 185.066V184.225C330.129 183.583 328.315 183.335 326.402 183.335C322.926 183.335 321.113 184.719 321.113 186.994C321.113 189.069 322.624 190.65 325.747 190.65C329.574 190.65 332.042 188.081 332.042 185.066ZM315.371 187.19C315.371 182.742 318.544 179.282 325.999 179.282C328.365 179.282 330.683 179.727 332.042 180.123V177.749C332.042 175.377 330.531 173.4 326.905 173.4C323.732 173.4 322.07 175.13 322.02 177.206H316.58C316.58 172.362 320.458 168.753 327.006 168.753C333.855 168.753 337.734 172.658 337.734 177.7V194.704H332.697L332.294 191.688H332.092C330.582 193.863 327.913 195.148 324.437 195.148C318.695 195.148 315.371 191.688 315.371 187.19Z" fill="#00558C"/>
</g>
<mask id="mask6_4276_84" style="mask-type:luminance" maskUnits="userSpaceOnUse" x="124" y="32" width="346" height="188">
<path d="M124.272 219.513H469.876V32.7181H124.272V219.513Z" fill="white"/>
</mask>
<g mask="url(#mask6_4276_84)">
<path d="M343.832 190.289L357.22 173.919V173.716H343.881V168.753H364.063V173.664L350.725 189.983V190.187H364.162V195.148H343.832V190.289Z" fill="#00558C"/>
</g>
<mask id="mask7_4276_84" style="mask-type:luminance" maskUnits="userSpaceOnUse" x="124" y="32" width="346" height="188">
<path d="M124.272 219.513H469.876V32.7181H124.272V219.513Z" fill="white"/>
</mask>
<g mask="url(#mask7_4276_84)">
<path d="M369.12 195.148H375.468V168.175H369.12V195.148ZM368.228 160.283C368.228 157.982 369.62 156.571 372.293 156.571C374.911 156.571 376.359 157.982 376.359 160.283C376.359 162.583 374.911 164.046 372.293 164.046C369.62 164.046 368.228 162.583 368.228 160.283Z" fill="#00558C"/>
</g>
<mask id="mask8_4276_84" style="mask-type:luminance" maskUnits="userSpaceOnUse" x="124" y="32" width="346" height="188">
<path d="M124.272 219.513H469.876V32.7181H124.272V219.513Z" fill="white"/>
</mask>
<g mask="url(#mask8_4276_84)">
<path d="M401.055 181.951C401.055 176.86 399.005 173.745 394.655 173.745C390.307 173.745 388.257 176.909 388.257 181.951C388.257 187.092 390.358 190.157 394.655 190.157C399.005 190.157 401.055 187.092 401.055 181.951ZM382.458 181.951C382.458 174.487 386.558 168.753 394.655 168.753C402.755 168.753 406.854 174.487 406.854 181.951C406.854 189.415 402.854 195.148 394.655 195.148C386.457 195.148 382.458 189.464 382.458 181.951Z" fill="#00558C"/>
</g>
<mask id="mask9_4276_84" style="mask-type:luminance" maskUnits="userSpaceOnUse" x="124" y="32" width="346" height="188">
<path d="M124.272 219.513H469.876V32.7181H124.272V219.513Z" fill="white"/>
</mask>
<g mask="url(#mask9_4276_84)">
<path d="M410.92 169.206H415.928L416.374 172.575H416.573C417.96 170.362 420.39 168.753 424.06 168.753C429.762 168.753 433.282 172.323 433.282 178.205V195.148H427.63V179.613C427.63 175.993 425.993 173.932 422.423 173.932C418.854 173.932 416.573 176.496 416.573 180.819V195.148H410.92V169.206Z" fill="#00558C"/>
</g>
<mask id="mask10_4276_84" style="mask-type:luminance" maskUnits="userSpaceOnUse" x="124" y="32" width="346" height="188">
<path d="M124.272 219.513H469.876V32.7181H124.272V219.513Z" fill="white"/>
</mask>
<g mask="url(#mask10_4276_84)">
<path d="M438.241 195.148H444.589V168.175H438.241V195.148ZM437.349 160.283C437.349 157.982 438.741 156.571 441.415 156.571C444.033 156.571 445.48 157.982 445.48 160.283C445.48 162.583 444.033 164.046 441.415 164.046C438.741 164.046 437.349 162.583 437.349 160.283Z" fill="#00558C"/>
</g>
<mask id="mask11_4276_84" style="mask-type:luminance" maskUnits="userSpaceOnUse" x="124" y="32" width="346" height="188">
<path d="M124.272 219.513H469.876V32.7181H124.272V219.513Z" fill="white"/>
</mask>
<g mask="url(#mask11_4276_84)">
<path d="M192.93 99.2899C197.672 103.064 200.538 108.03 201.525 114.186H188.383C186.806 108.924 181.865 105.348 175.936 105.348C156.846 105.348 156.995 136.731 176.036 136.731C181.963 136.731 186.806 133.354 188.286 128.29H201.427C199.398 140.706 188.75 148.449 175.838 148.449C159.635 148.449 148.668 136.234 148.668 121.038C148.668 105.645 159.635 93.6293 175.838 93.6293C182.456 93.6293 188.189 95.5156 192.93 99.2899Z" fill="#00558C"/>
</g>
<mask id="mask12_4276_84" style="mask-type:luminance" maskUnits="userSpaceOnUse" x="124" y="32" width="346" height="188">
<path d="M124.272 219.513H469.876V32.7181H124.272V219.513Z" fill="white"/>
</mask>
<g mask="url(#mask12_4276_84)">
<path d="M223.175 132.361C231.732 141.017 249.091 136.733 249.091 121.04C249.091 111.45 242.305 105.35 234.049 105.35C218.994 105.35 214.909 123.39 223.175 132.361ZM234.049 93.6316C250.517 93.4355 262.815 105.848 262.508 121.04C262.508 136.334 250.617 148.449 234.049 148.449C225.715 148.449 218.907 145.866 213.518 140.703C208.235 135.44 205.591 128.886 205.591 121.04C205.591 105.551 217.177 93.6316 234.049 93.6316Z" fill="#00558C"/>
</g>
<mask id="mask13_4276_84" style="mask-type:luminance" maskUnits="userSpaceOnUse" x="124" y="32" width="346" height="188">
<path d="M124.272 219.513H469.876V32.7181H124.272V219.513Z" fill="white"/>
</mask>
<g mask="url(#mask13_4276_84)">
<path d="M266.58 146.419V92.9575H278.941V99.4623H279.642C286.665 86.6257 313.338 88.7492 313.338 111.455V146.419H300.378V114.911C300.378 99.9038 279.54 100.568 279.54 115.826V146.419H266.58Z" fill="#00558C"/>
</g>
<mask id="mask14_4276_84" style="mask-type:luminance" maskUnits="userSpaceOnUse" x="124" y="32" width="346" height="188">
<path d="M124.272 219.513H469.876V32.7181H124.272V219.513Z" fill="white"/>
</mask>
<g mask="url(#mask14_4276_84)">
<path d="M317.403 104.279V93.995H323.335C325.647 93.995 327.156 92.4964 327.156 89.9999V79.4167H339.419V93.8941H353.997V104.279H339.419V128.446C339.419 132.94 341.832 135.634 346.658 135.634H353.695V146.419H343.944C332.784 146.419 326.351 140.128 326.351 128.944V104.279H317.403Z" fill="#C8102E"/>
</g>
<mask id="mask15_4276_84" style="mask-type:luminance" maskUnits="userSpaceOnUse" x="124" y="32" width="346" height="188">
<path d="M124.272 219.513H469.876V32.7181H124.272V219.513Z" fill="white"/>
</mask>
<g mask="url(#mask15_4276_84)">
<path d="M394.395 115.677C392.821 99.8835 368.736 100.219 366.867 115.677H394.395ZM380.632 93.6293C397.61 93.6293 406.854 106.043 406.854 120.741V124.812H366.668C367.068 132.757 372.695 138.122 381.035 138.122C387.365 138.122 392.286 135.242 394.194 130.871H406.352C403.639 141.598 394.194 148.449 380.632 148.449C344.85 148.449 345.388 93.6293 380.632 93.6293Z" fill="#C8102E"/>
</g>
<mask id="mask16_4276_84" style="mask-type:luminance" maskUnits="userSpaceOnUse" x="124" y="32" width="346" height="188">
<path d="M124.272 219.513H469.876V32.7181H124.272V219.513Z" fill="white"/>
</mask>
<g mask="url(#mask16_4276_84)">
<path d="M408.887 63.0224C378.27 55.1053 343.979 55.0998 313.338 63.0224C313.338 63.0224 314.95 69.4042 315.943 73.3255C344.842 65.7893 377.355 65.7815 406.283 73.3255C407.275 69.4042 408.887 63.0224 408.887 63.0224Z" fill="#C8102E"/>
</g>
<mask id="mask17_4276_84" style="mask-type:luminance" maskUnits="userSpaceOnUse" x="124" y="32" width="346" height="188">
<path d="M124.272 219.513H469.876V32.7181H124.272V219.513Z" fill="white"/>
</mask>
<g mask="url(#mask17_4276_84)">
<path d="M406.854 142.358C406.854 139.911 408.256 138.298 410.948 138.298C413.528 138.298 414.985 139.911 414.985 142.358C414.985 144.806 413.528 146.419 410.948 146.419C408.256 146.419 406.854 144.806 406.854 142.358Z" fill="#00558C"/>
</g>
<mask id="mask18_4276_84" style="mask-type:luminance" maskUnits="userSpaceOnUse" x="124" y="32" width="346" height="188">
<path d="M124.272 219.513H469.876V32.7181H124.272V219.513Z" fill="white"/>
</mask>
<g mask="url(#mask18_4276_84)">
<path d="M419.943 146.419H426.292V119.446H419.943V146.419ZM419.052 111.553C419.052 109.253 420.445 107.842 423.118 107.842C425.736 107.842 427.184 109.253 427.184 111.553C427.184 113.853 425.736 115.316 423.118 115.316C420.445 115.316 419.052 113.853 419.052 111.553Z" fill="#00558C"/>
</g>
<mask id="mask19_4276_84" style="mask-type:luminance" maskUnits="userSpaceOnUse" x="124" y="32" width="346" height="188">
<path d="M124.272 219.513H469.876V32.7181H124.272V219.513Z" fill="white"/>
</mask>
<g mask="url(#mask19_4276_84)">
<path d="M433.457 138.599V124.103H429.217V119.046H433.707V113.363L438.646 111.903H439.144V119.046H445.381V124.103H439.144V137.555C439.144 140.11 440.192 141.205 442.487 141.205C443.535 141.205 444.333 141.049 444.981 140.84H445.48V145.846C444.682 146.107 443.036 146.419 441.09 146.419C435.602 146.419 433.457 143.239 433.457 138.599Z" fill="#00558C"/>
</g>
</g>
</g>
<defs>
<clipPath id="clip0_4276_84">
<rect width="309" height="153" fill="white" transform="translate(143 48)"/>
</clipPath>
</defs>
</svg>
