<svg width="594" height="250" viewBox="0 0 594 250" fill="none" xmlns="http://www.w3.org/2000/svg">
<g clip-path="url(#clip0_4276_530)">
<mask id="mask0_4276_530" style="mask-type:luminance" maskUnits="userSpaceOnUse" x="187" y="15" width="220" height="220">
<path d="M407 15H187V235H407V15Z" fill="white"/>
</mask>
<g mask="url(#mask0_4276_530)">
<path d="M297 235C236.3 235 187 185.8 187 125C187 64.2 236.3 15 297 15C357.7 15 407 64.3 407 125C407 185.7 357.8 235 297 235Z" fill="#09080F"/>
<path d="M283.799 130.3C283.799 138.9 276.799 145.9 268.199 145.9V161.5C285.399 161.5 299.399 147.5 299.399 130.3C299.399 121.7 306.399 114.7 314.999 114.7V99.0996C297.799 99.0996 283.799 113 283.799 130.3Z" fill="#F9FBFE"/>
<path d="M375.9 114.7V99.0996C363.7 99.0996 353.1 106.1 348 116.3C342.9 106.1 332.3 99.0996 320.1 99.0996V114.7C328.7 114.7 335.7 121.7 335.7 130.3C335.7 138.9 328.7 145.9 320.1 145.9V161.5C332.3 161.5 342.9 154.5 348 144.3C353.1 154.5 363.7 161.5 375.9 161.5V145.9C367.3 145.9 360.3 138.9 360.3 130.3C360.2 121.7 367.2 114.7 375.9 114.7Z" fill="#F9FBFE"/>
<path d="M248.4 146.9C240.3 146.9 233.7 140.3 233.7 132.2V88.2002H219V132.2C219 148.4 232.2 161.6 248.4 161.6H263.1V146.9H248.4Z" fill="#F9FBFE"/>
</g>
</g>
<defs>
<clipPath id="clip0_4276_530">
<rect width="220" height="220" fill="white" transform="translate(187 15)"/>
</clipPath>
</defs>
</svg>
