<svg width="594" height="250" viewBox="0 0 594 250" fill="none" xmlns="http://www.w3.org/2000/svg">
<rect x="0.5" y="0.5" width="593" height="249" stroke="white"/>
<path d="M469.639 171.142V190.571H450.191V210H489.087V171.142H469.639Z" fill="#342578"/>
<path d="M105 40V78.8577H124.448V59.4289H143.895V40H105Z" fill="#DB1176"/>
<path d="M163.364 78.8578H143.896V181.774H163.364V78.8578Z" fill="#272727"/>
<path d="M179.294 78.8578H198.103L242.182 146.584V78.8578H261.8V181.774H242.935L198.903 114.26V181.776H179.294V78.8578Z" fill="#272727"/>
<path d="M278.221 78.8578H334.456V98.0274H297.687V116.638H334.454V135.459H297.687V162.536H334.454V181.776H278.221V78.8578Z" fill="#272727"/>
<mask id="mask0_4276_224" style="mask-type:luminance" maskUnits="userSpaceOnUse" x="105" y="40" width="385" height="170">
<path d="M489.084 40H105V210H489.084V40Z" fill="white"/>
</mask>
<g mask="url(#mask0_4276_224)">
<path d="M401.722 76.2674C408.738 76.1869 415.696 77.549 422.163 80.2692C428.63 82.9894 434.468 87.0095 439.313 92.0795C444.424 97.0975 448.456 103.105 451.162 109.733C453.869 116.361 455.193 123.472 455.053 130.629C455.198 137.706 453.895 144.738 451.225 151.294C448.555 157.851 444.574 163.794 439.526 168.76C434.501 173.744 428.541 177.687 421.987 180.364C415.433 183.041 408.414 184.399 401.334 184.359C394.253 184.32 387.25 182.884 380.727 180.134C374.203 177.384 368.287 173.375 363.318 168.335C355.825 160.752 350.741 151.126 348.705 140.666C346.669 130.206 347.772 119.379 351.875 109.543C355.978 99.7071 362.898 91.3014 371.766 85.3813C380.634 79.4611 391.056 76.2905 401.722 76.2674ZM401.509 95.437C397.033 95.3399 392.585 96.1728 388.447 97.8829C384.31 99.593 380.573 102.143 377.474 105.371C374.233 108.711 371.7 112.669 370.026 117.009C368.352 121.348 367.571 125.981 367.73 130.629C367.73 142.011 371.819 151.013 379.998 157.636C386.136 162.735 393.889 165.487 401.871 165.4C406.316 165.466 410.726 164.604 414.818 162.869C418.91 161.134 422.595 158.565 425.636 155.326C431.955 148.585 435.465 139.692 435.452 130.457C435.439 121.222 431.904 112.339 425.566 105.616C422.492 102.339 418.765 99.7401 414.626 97.9872C410.486 96.2342 406.026 95.3656 401.531 95.437" fill="#272727"/>
</g>
</svg>
