<svg width="594" height="250" viewBox="0 0 594 250" fill="none" xmlns="http://www.w3.org/2000/svg">
<rect x="0.5" y="0.5" width="593" height="249" stroke="white"/>
<g clip-path="url(#clip0_4276_34)">
<path d="M200.335 104.996C203.183 105.002 205.992 105.66 208.545 106.92C211.098 108.181 213.327 110.01 215.062 112.266C215.123 112.348 215.201 112.416 215.29 112.467C215.379 112.517 215.477 112.549 215.579 112.561C215.681 112.572 215.784 112.562 215.881 112.532C215.979 112.502 216.07 112.452 216.148 112.385L222.349 107.448C222.428 107.385 222.494 107.307 222.543 107.218C222.592 107.129 222.623 107.032 222.634 106.931C222.645 106.83 222.636 106.728 222.608 106.631C222.579 106.533 222.532 106.442 222.468 106.363C219.829 102.941 216.438 100.171 212.557 98.2648C208.677 96.3591 204.41 95.3694 200.086 95.3719C183.893 95.3719 170.764 109.315 170.764 126.458C170.764 143.602 183.937 157.545 200.086 157.545C204.409 157.56 208.678 156.576 212.558 154.671C216.439 152.767 219.826 149.992 222.457 146.564C222.523 146.486 222.572 146.395 222.602 146.297C222.631 146.199 222.64 146.095 222.627 145.994C222.615 145.892 222.582 145.794 222.531 145.705C222.479 145.617 222.41 145.54 222.327 145.479L216.137 140.597C216.058 140.533 215.967 140.486 215.869 140.457C215.772 140.429 215.67 140.42 215.569 140.431C215.468 140.442 215.37 140.473 215.281 140.522C215.192 140.571 215.114 140.637 215.051 140.716C213.307 142.958 211.077 144.774 208.527 146.028C205.978 147.282 203.177 147.94 200.335 147.953C189.269 147.953 180.614 138.513 180.614 126.48C180.614 114.447 189.269 104.996 200.335 104.996Z" fill="#3448C5"/>
<path d="M230.461 93.6033H238.237C238.442 93.6033 238.638 93.6844 238.782 93.8289C238.927 93.9734 239.008 94.1693 239.008 94.3737V155.983C239.008 156.184 238.928 156.377 238.786 156.52C238.643 156.662 238.45 156.742 238.248 156.742H230.472C230.268 156.742 230.072 156.661 229.927 156.517C229.782 156.372 229.701 156.176 229.701 155.972V94.3737C229.7 94.273 229.718 94.1731 229.756 94.0797C229.794 93.9863 229.849 93.9012 229.92 93.8296C229.991 93.7579 230.075 93.701 230.168 93.6621C230.261 93.6233 230.361 93.6033 230.461 93.6033Z" fill="#3448C5"/>
<path d="M265.507 114.914C255.201 114.914 244.775 122.205 244.775 136.148C244.775 148.398 253.691 157.643 265.507 157.643C277.323 157.643 286.326 148.398 286.326 136.148C286.326 123.898 277.377 114.914 265.507 114.914ZM276.943 136.148C276.943 143.222 272.023 148.561 265.507 148.561C258.991 148.561 254.169 143.222 254.169 136.148C254.169 129.073 259.045 123.995 265.507 123.995C271.969 123.995 276.943 129.214 276.943 136.148Z" fill="#3448C5"/>
<path d="M328.234 115.803H320.459C320.358 115.802 320.258 115.82 320.164 115.858C320.071 115.895 319.986 115.951 319.914 116.022C319.842 116.093 319.785 116.177 319.746 116.27C319.708 116.363 319.688 116.462 319.688 116.563V137.179C319.688 145.23 314.127 148.083 309.36 148.083C305.146 148.083 300.9 144.904 300.9 137.797V116.563C300.9 116.462 300.88 116.363 300.841 116.27C300.802 116.177 300.745 116.093 300.673 116.022C300.602 115.951 300.516 115.895 300.423 115.858C300.329 115.82 300.229 115.802 300.129 115.803H292.353C292.151 115.803 291.958 115.883 291.815 116.026C291.673 116.168 291.593 116.361 291.593 116.563V138.806C291.593 151.013 297.121 157.73 307.166 157.73C310.815 157.73 316.723 155.635 318.938 151.013L319.688 151.165V155.983C319.688 156.187 319.769 156.383 319.913 156.527C320.058 156.672 320.254 156.753 320.459 156.753H328.234C328.439 156.753 328.635 156.672 328.78 156.527C328.924 156.383 329.005 156.187 329.005 155.983V116.563C329.005 116.462 328.985 116.363 328.947 116.27C328.908 116.177 328.851 116.093 328.779 116.022C328.707 115.951 328.622 115.895 328.529 115.858C328.435 115.82 328.335 115.802 328.234 115.803Z" fill="#3448C5"/>
<path d="M375.985 93.6033H368.199C368.098 93.6033 367.998 93.6233 367.905 93.6621C367.812 93.701 367.728 93.7579 367.657 93.8296C367.587 93.9012 367.531 93.9863 367.493 94.0797C367.456 94.1731 367.437 94.273 367.438 94.3737V121.912L366.961 121.153C364.593 117.344 359.5 114.881 353.983 114.881C344.47 114.881 334.848 122.205 334.848 136.202C334.848 148.409 343.112 157.61 354.059 157.61C358.229 157.61 364.104 155.939 366.961 151.252L367.438 150.471V155.983C367.437 156.083 367.456 156.183 367.493 156.277C367.531 156.37 367.587 156.455 367.657 156.527C367.728 156.598 367.812 156.655 367.905 156.694C367.998 156.733 368.098 156.753 368.199 156.753H375.985C376.086 156.753 376.186 156.733 376.279 156.694C376.372 156.655 376.456 156.598 376.527 156.527C376.597 156.455 376.653 156.37 376.691 156.277C376.728 156.183 376.747 156.083 376.746 155.983V94.3737C376.747 94.273 376.728 94.1731 376.691 94.0797C376.653 93.9863 376.597 93.9012 376.527 93.8296C376.456 93.7579 376.372 93.701 376.279 93.6621C376.186 93.6233 376.086 93.6033 375.985 93.6033ZM367.297 136.148C367.349 137.725 367.088 139.297 366.528 140.773C365.968 142.249 365.12 143.599 364.035 144.745C362.949 145.892 361.646 146.811 360.203 147.451C358.759 148.091 357.202 148.439 355.623 148.474C349.259 148.474 344.274 143.049 344.274 136.148C344.274 129.247 349.259 123.995 355.623 123.995C358.776 124.075 361.77 125.398 363.951 127.674C366.132 129.951 367.323 132.997 367.265 136.148H367.297Z" fill="#3448C5"/>
<path d="M387.638 115.803H395.414C395.616 115.803 395.809 115.883 395.952 116.026C396.094 116.168 396.174 116.361 396.174 116.563V155.983C396.174 156.184 396.094 156.377 395.952 156.52C395.809 156.662 395.616 156.742 395.414 156.742H387.638C387.434 156.742 387.238 156.661 387.093 156.517C386.948 156.372 386.867 156.176 386.867 155.972V116.563C386.87 116.36 386.953 116.167 387.097 116.025C387.241 115.883 387.436 115.803 387.638 115.803Z" fill="#3448C5"/>
<path d="M391.559 94.8511C390.754 94.8337 389.953 94.9772 389.204 95.2732C388.455 95.5691 387.773 96.0116 387.197 96.5745C386.622 97.1375 386.165 97.8096 385.852 98.5515C385.54 99.2933 385.38 100.09 385.38 100.895C385.397 102.516 386.057 104.064 387.216 105.199C388.375 106.334 389.937 106.964 391.559 106.949C392.359 106.959 393.153 106.81 393.895 106.51C394.637 106.209 395.311 105.764 395.878 105.201C396.446 104.637 396.895 103.966 397.199 103.226C397.504 102.487 397.658 101.694 397.652 100.895C397.665 100.094 397.516 99.2982 397.214 98.5561C396.912 97.8139 396.463 97.1404 395.894 96.5759C395.325 96.0114 394.648 95.5677 393.903 95.2713C393.158 94.9749 392.361 94.8319 391.559 94.8511Z" fill="#3448C5"/>
<path d="M428.201 114.914C424.791 114.914 418.731 116.747 416.418 121.63L415.668 121.478V116.563C415.668 116.462 415.648 116.363 415.61 116.27C415.571 116.177 415.514 116.093 415.442 116.022C415.37 115.951 415.285 115.896 415.192 115.858C415.098 115.82 414.998 115.802 414.897 115.803H407.122C406.92 115.803 406.727 115.883 406.584 116.026C406.442 116.168 406.361 116.361 406.361 116.563V155.983C406.36 156.083 406.379 156.183 406.416 156.277C406.454 156.37 406.509 156.455 406.58 156.527C406.651 156.598 406.735 156.655 406.828 156.694C406.921 156.733 407.021 156.753 407.122 156.753H414.897C415.102 156.753 415.298 156.672 415.443 156.527C415.587 156.383 415.668 156.187 415.668 155.983V135.367C415.668 127.381 421.229 124.516 425.996 124.516C430.21 124.516 434.456 127.674 434.456 134.716V155.983C434.456 156.187 434.537 156.383 434.682 156.527C434.827 156.672 435.023 156.753 435.227 156.753H443.025C443.229 156.753 443.425 156.672 443.57 156.527C443.715 156.383 443.796 156.187 443.796 155.983V133.75C443.774 121.608 438.236 114.914 428.201 114.914Z" fill="#3448C5"/>
<path d="M490.244 115.803H482.468C482.367 115.802 482.267 115.82 482.174 115.858C482.08 115.896 481.995 115.951 481.923 116.022C481.852 116.093 481.795 116.177 481.756 116.27C481.717 116.363 481.697 116.462 481.697 116.563V121.988L481.23 121.229C478.851 117.42 473.758 114.957 468.198 114.957C458.695 114.957 449.062 122.281 449.062 136.278C449.062 148.485 457.327 157.686 468.285 157.686C472.444 157.686 478.319 156.015 481.186 151.328L481.653 150.547V155.983C481.653 156.187 481.735 156.383 481.879 156.527C482.024 156.672 482.22 156.753 482.424 156.753H490.2C490.301 156.753 490.401 156.733 490.494 156.694C490.587 156.655 490.671 156.598 490.742 156.527C490.812 156.455 490.868 156.37 490.906 156.277C490.943 156.183 490.962 156.083 490.96 155.983V116.563C490.961 116.369 490.887 116.182 490.753 116.041C490.62 115.899 490.438 115.814 490.244 115.803ZM481.556 136.148C481.608 137.728 481.345 139.303 480.783 140.78C480.221 142.258 479.371 143.61 478.281 144.757C477.192 145.903 475.886 146.823 474.438 147.461C472.991 148.099 471.431 148.443 469.849 148.474C463.485 148.474 458.511 143.049 458.511 136.148C458.511 129.247 463.485 123.995 469.849 123.995C473.009 124.064 476.014 125.381 478.205 127.659C480.395 129.937 481.592 132.99 481.534 136.148H481.556Z" fill="#3448C5"/>
<path d="M525.723 115.944C523.95 115.226 522.055 114.858 520.141 114.859C514.972 114.859 511.215 117.952 509.281 123.811L508.586 123.713V116.563C508.586 116.462 508.566 116.363 508.528 116.27C508.489 116.177 508.432 116.093 508.36 116.022C508.288 115.951 508.203 115.896 508.11 115.858C508.016 115.82 507.916 115.802 507.815 115.803H500.04C499.939 115.802 499.839 115.82 499.745 115.858C499.652 115.896 499.567 115.951 499.495 116.022C499.423 116.093 499.366 116.177 499.327 116.27C499.289 116.363 499.269 116.462 499.269 116.563V155.983C499.269 156.187 499.35 156.383 499.494 156.527C499.639 156.672 499.835 156.753 500.04 156.753H507.902C508.003 156.753 508.103 156.733 508.196 156.694C508.289 156.655 508.373 156.598 508.444 156.527C508.514 156.455 508.57 156.37 508.608 156.277C508.645 156.183 508.664 156.083 508.662 155.983V142.528C508.662 126.469 515.081 124.082 518.914 124.082C520.532 124.086 522.132 124.419 523.617 125.059C523.72 125.107 523.833 125.132 523.948 125.132C524.062 125.132 524.175 125.107 524.279 125.059C524.379 125.006 524.466 124.932 524.533 124.842C524.601 124.752 524.648 124.648 524.67 124.538L526.212 116.823C526.25 116.643 526.221 116.454 526.131 116.293C526.041 116.132 525.897 116.008 525.723 115.944Z" fill="#3448C5"/>
<path d="M568.87 116.14C568.8 116.034 568.705 115.948 568.593 115.889C568.481 115.83 568.356 115.801 568.229 115.803H559.856C559.702 115.805 559.551 115.852 559.424 115.939C559.296 116.026 559.197 116.149 559.139 116.292L549.007 142.528L538.777 116.292C538.719 116.149 538.62 116.026 538.493 115.939C538.365 115.852 538.215 115.805 538.06 115.803H529.524C529.399 115.803 529.277 115.833 529.167 115.892C529.057 115.95 528.963 116.036 528.894 116.14C528.823 116.243 528.779 116.363 528.766 116.488C528.753 116.613 528.771 116.739 528.818 116.856L544.022 154.16L535.627 175.958C535.574 176.077 535.552 176.206 535.563 176.336C535.573 176.465 535.616 176.589 535.688 176.697C535.759 176.806 535.857 176.894 535.972 176.955C536.086 177.015 536.215 177.046 536.344 177.043H544.489C544.643 177.044 544.793 176.998 544.919 176.91C545.045 176.823 545.142 176.699 545.195 176.555L568.935 116.878C568.989 116.759 569.012 116.629 569 116.5C568.989 116.371 568.944 116.246 568.87 116.14Z" fill="#3448C5"/>
<path d="M132.331 102.501C129.521 93.698 123.998 86.0081 116.551 80.5302C109.104 75.0522 100.114 72.0666 90.867 72C83.0487 71.9552 75.366 74.0396 68.6442 78.0294C61.9224 82.0191 56.4158 87.7634 52.7159 94.6449C45.9158 95.8625 39.6822 99.2166 34.9222 104.219C30.1622 109.221 27.1243 115.611 26.2508 122.458C25.3772 129.305 26.7135 136.252 30.0652 142.287C33.4168 148.323 38.6089 153.132 44.8858 156.015L45.7003 156.384H45.7546V147.161C41.4487 144.52 38.0777 140.599 36.1142 135.948C34.1507 131.297 33.6931 126.148 34.8055 121.224C35.9179 116.3 38.5445 111.847 42.3172 108.489C46.09 105.132 50.8197 103.038 55.8435 102.501L58.1241 102.262L59.1233 100.211C61.9601 94.2045 66.4543 89.1317 72.0776 85.5892C77.7008 82.0468 84.2194 80.1819 90.867 80.2138C98.7881 80.2696 106.463 82.9698 112.671 87.885C118.88 92.8002 123.265 99.6482 125.13 107.34L125.912 110.443H129.17C134.422 110.551 139.424 112.706 143.107 116.449C146.79 120.191 148.862 125.225 148.881 130.473C148.881 138.123 144.461 144.383 136.935 147.552V156.297L137.478 156.124C149.576 152.163 157.091 142.333 157.091 130.473C157.042 123.609 154.507 116.995 149.955 111.853C145.404 106.711 139.143 103.389 132.331 102.501Z" fill="#3448C5"/>
<path d="M74.946 155.321L76.7487 157.122C76.7974 157.172 76.8304 157.235 76.8437 157.304C76.8569 157.372 76.8498 157.443 76.8233 157.508C76.7968 157.572 76.7519 157.628 76.6943 157.667C76.6367 157.706 76.5688 157.728 76.4989 157.73H62.2723C60.5442 157.73 58.8868 157.044 57.6648 155.823C56.4428 154.602 55.7563 152.946 55.7563 151.219V123.616C55.7563 123.521 55.7186 123.43 55.6514 123.362C55.5842 123.295 55.493 123.258 55.398 123.258H52.3572C52.2864 123.258 52.217 123.238 52.1577 123.199C52.0985 123.161 52.052 123.106 52.0241 123.041C51.9962 122.976 51.9882 122.904 52.0011 122.834C52.014 122.765 52.0472 122.701 52.0965 122.65L64.1728 110.584C64.2062 110.55 64.2459 110.524 64.2897 110.505C64.3335 110.487 64.3806 110.478 64.4281 110.478C64.4755 110.478 64.5226 110.487 64.5664 110.505C64.6102 110.524 64.6499 110.55 64.6833 110.584L76.7487 122.65C76.7974 122.7 76.8304 122.763 76.8437 122.832C76.8569 122.9 76.8498 122.971 76.8233 123.036C76.7968 123.1 76.7519 123.156 76.6943 123.195C76.6367 123.234 76.5688 123.256 76.4989 123.258H73.4147C73.3186 123.258 73.2263 123.295 73.1574 123.362C73.0884 123.429 73.0483 123.52 73.0455 123.616V150.742C73.0498 152.459 73.7329 154.105 74.946 155.321Z" fill="#3448C5"/>
<path d="M101.629 155.321L103.443 157.122C103.492 157.173 103.526 157.237 103.539 157.306C103.551 157.376 103.543 157.448 103.516 157.513C103.488 157.578 103.441 157.633 103.382 157.671C103.323 157.71 103.253 157.73 103.182 157.73H88.9884C87.2603 157.73 85.6029 157.044 84.3809 155.823C83.159 154.602 82.4724 152.946 82.4724 151.219V130.593C82.4725 130.497 82.4351 130.404 82.3682 130.335C82.3013 130.267 82.2101 130.226 82.1141 130.224H79.0407C78.9709 130.222 78.903 130.2 78.8453 130.161C78.7877 130.122 78.7429 130.066 78.7163 130.002C78.6898 129.937 78.6827 129.866 78.696 129.798C78.7092 129.729 78.7422 129.666 78.7909 129.616L90.8564 117.572C90.8897 117.538 90.9294 117.511 90.9733 117.493C91.0171 117.475 91.0641 117.465 91.1116 117.465C91.1591 117.465 91.2061 117.475 91.2499 117.493C91.2937 117.511 91.3334 117.538 91.3668 117.572L103.443 129.594C103.492 129.645 103.526 129.709 103.539 129.779C103.551 129.848 103.543 129.92 103.516 129.985C103.488 130.05 103.441 130.105 103.382 130.144C103.323 130.182 103.253 130.203 103.182 130.202H100.098C100.002 130.205 99.911 130.245 99.8441 130.314C99.7772 130.383 99.7398 130.475 99.7398 130.571V150.742C99.7413 152.457 100.42 154.103 101.629 155.321Z" fill="#3448C5"/>
<path d="M128.323 155.321L130.126 157.122C130.175 157.172 130.208 157.235 130.221 157.304C130.234 157.372 130.227 157.443 130.201 157.508C130.174 157.572 130.129 157.628 130.072 157.667C130.014 157.706 129.946 157.728 129.876 157.73H115.639C113.911 157.73 112.253 157.044 111.031 155.823C109.809 154.602 109.123 152.946 109.123 151.219V137.515C109.123 137.42 109.085 137.329 109.018 137.262C108.951 137.195 108.859 137.157 108.764 137.157H105.724C105.651 137.158 105.581 137.137 105.521 137.097C105.461 137.057 105.414 137 105.387 136.933C105.36 136.866 105.354 136.793 105.37 136.722C105.385 136.652 105.421 136.588 105.474 136.539L117.55 124.484C117.582 124.45 117.621 124.424 117.664 124.405C117.707 124.387 117.753 124.378 117.8 124.378C117.846 124.378 117.893 124.387 117.936 124.405C117.978 124.424 118.017 124.45 118.05 124.484L130.126 136.539C130.178 136.588 130.215 136.652 130.23 136.722C130.246 136.793 130.239 136.866 130.212 136.933C130.185 137 130.139 137.057 130.079 137.097C130.019 137.137 129.948 137.158 129.876 137.157H126.781C126.686 137.157 126.595 137.195 126.528 137.262C126.46 137.329 126.423 137.42 126.423 137.515V150.742C126.427 152.459 127.11 154.105 128.323 155.321Z" fill="#3448C5"/>
</g>
<defs>
<clipPath id="clip0_4276_34">
<rect width="543" height="105" fill="white" transform="translate(26 72)"/>
</clipPath>
</defs>
</svg>
