<svg width="594" height="250" viewBox="0 0 594 250" fill="none" xmlns="http://www.w3.org/2000/svg">
<rect x="0.5" y="0.5" width="593" height="249" stroke="white"/>
<g clip-path="url(#clip0_4276_35)">
<path d="M114.69 100.03H79.3198C78.0598 100.03 77.0098 101.09 77.0098 102.37V147.66C77.0098 148.94 78.0598 150 79.3198 150H114.69C115.95 150 117 148.94 117 147.66V140.92C117 139.64 115.95 138.58 114.69 138.58H88.5398V130.13H111.18C112.44 130.13 113.49 129.07 113.49 127.79V121.05C113.49 119.77 112.44 118.71 111.18 118.71H88.5398V111.41H114.69C115.95 111.41 117 110.35 117 109.07V102.34C117 101.06 115.95 100 114.69 100V100.03Z" fill="#2A327C"/>
<path d="M176.46 100H168.04C167.24 100 166.47 100.4 166.01 101.02L152.65 119.34L138.83 100.99C138.37 100.37 137.6 100 136.83 100H127.52C126.57 100 125.68 100.56 125.25 101.42C124.82 102.28 124.94 103.34 125.56 104.11L146.69 130.94V147.46C146.69 148.85 147.83 150 149.21 150H156.09C157.47 150 158.61 148.86 158.61 147.46V130.54L178.48 104.09C179.06 103.32 179.16 102.3 178.73 101.43C178.3 100.56 177.44 100.04 176.49 100.04L176.46 100.01V100Z" fill="#2A327C"/>
<path d="M218.94 118.84C218.41 119.68 217.67 120.33 216.74 120.82C215.81 121.31 214.79 121.56 213.68 121.56H200.03V111.75H213.68C214.82 111.75 215.88 112 216.84 112.46C217.77 112.92 218.48 113.51 219.01 114.22C219.47 114.87 219.69 115.52 219.69 116.32C219.69 117.25 219.44 118.05 218.95 118.83L218.94 118.84ZM223.61 102.16C221.07 100.74 218.26 99.99 215.19 99.99H190.53C189.14 99.99 187.99 101.13 187.99 102.53V147.46C187.99 148.85 189.13 150 190.53 150H197.46C198.85 150 200 148.86 200 147.46V133.32H214.14C217.33 133.32 220.33 132.58 223.02 131.09C225.71 129.6 227.91 127.56 229.52 125.03C231.16 122.43 232 119.52 232 116.34C232 113.16 231.2 110.43 229.65 107.96C228.13 105.55 226.06 103.6 223.55 102.17H223.61V102.16Z" fill="#2A327C"/>
<path d="M256.9 127.6L261.12 118.63C261.52 117.76 261.93 116.9 262.33 116.03C262.67 116.8 263.04 117.58 263.42 118.38L267.73 127.6H256.9ZM268.78 101.46C268.38 100.56 267.45 100.01 266.48 100.01H258.57C257.58 100.01 256.68 100.6 256.27 101.46L235.24 146.39C234.87 147.19 234.93 148.09 235.4 148.83C235.87 149.57 236.67 150.01 237.54 150.01H244.8C245.79 150.01 246.69 149.45 247.1 148.56L251.44 139.37H273.25L277.59 148.56C277.99 149.46 278.92 150.01 279.89 150.01H287.49C288.89 150.01 290 148.87 290 147.47C290 147.04 289.88 146.6 289.66 146.23L268.75 101.49L268.78 101.46Z" fill="#2A327C"/>
<path d="M332.15 116.41C332.15 117.34 331.9 118.14 331.4 118.91C330.87 119.74 330.13 120.39 329.19 120.89C328.25 121.39 327.23 121.63 326.05 121.63H312.04V111.77H325.68C326.92 111.77 328.1 112.02 329.13 112.48C330.12 112.91 330.87 113.5 331.43 114.24C331.93 114.89 332.14 115.6 332.14 116.4L332.15 116.41ZM335.69 130.97C336.78 130.35 337.8 129.64 338.77 128.84C340.57 127.29 342 125.44 343.03 123.34C344.09 121.21 344.61 118.89 344.61 116.45C344.61 113.27 343.8 110.39 342.16 107.92C340.58 105.51 338.49 103.56 335.92 102.14C333.34 100.72 330.51 100.01 327.5 100.01H302.56C301.16 100.01 300.01 101.15 300.01 102.54V147.41C300.01 148.8 301.16 149.94 302.56 149.94H309.52C310.92 149.94 312.07 148.8 312.07 147.41V133.35H322.63L333.78 148.89C334.25 149.54 335.02 149.94 335.83 149.94L344.47 150C345.87 150 347.02 148.86 347.02 147.47C347.02 146.88 346.8 146.3 346.43 145.83L335.65 130.94L335.71 130.97H335.69Z" fill="#2A327C"/>
<path d="M396.45 100H356.55C355.15 100 354 101.14 354 102.54V109.22C354 110.61 355.15 111.76 356.55 111.76H370.27V147.47C370.27 148.86 371.42 150.01 372.82 150.01H379.79C381.19 150.01 382.34 148.87 382.34 147.47V111.76H396.44C397.84 111.76 398.99 110.62 398.99 109.22V102.54C398.99 101.15 397.84 100 396.44 100H396.45Z" fill="#2A327C"/>
<path d="M461 102.57C461 101.18 459.85 100.03 458.44 100.03H451.46C450.06 100.03 448.9 101.17 448.9 102.57V117.33C448.9 119.53 448.93 121.91 448.99 124.38C449.05 126.73 449.15 129.11 449.3 131.43L420.22 100.8C419.75 100.3 419.07 100 418.35 100H411.55C410.15 100 408.99 101.14 408.99 102.54V147.47C408.99 148.86 410.14 150.01 411.55 150.01H418.53C419.93 150.01 421.09 148.87 421.09 147.47V128.78C421.09 125.96 420.97 123.15 420.68 120.33L420.59 119.31L449.68 149.2C450.15 149.7 450.83 149.97 451.52 149.97H458.44C459.84 149.97 461 148.83 461 147.43V102.51V102.57Z" fill="#2A327C"/>
<path d="M514.5 100.03H479.5C478.13 100.03 477 101.17 477 102.57V147.47C477 148.86 478.13 150.01 479.5 150.01H514.5C515.87 150.01 517 148.87 517 147.47V140.79C517 139.4 515.87 138.25 514.5 138.25H488.84V130.3H511.02C512.39 130.3 513.52 129.16 513.52 127.76V121.08C513.52 119.69 512.39 118.54 511.02 118.54H488.84V111.74H514.5C515.87 111.74 517 110.6 517 109.2V102.54C517 101.15 515.87 100 514.5 100V100.03Z" fill="#2A327C"/>
<path d="M563.18 116.41C563.18 117.34 562.93 118.14 562.43 118.91C561.9 119.74 561.16 120.39 560.22 120.89C559.28 121.39 558.26 121.63 557.08 121.63H543.07V111.77H556.71C557.95 111.77 559.13 112.02 560.16 112.48C561.15 112.91 561.9 113.5 562.46 114.24C562.96 114.89 563.17 115.6 563.17 116.4L563.18 116.41ZM577.47 145.86L566.69 130.97C567.78 130.35 568.8 129.64 569.77 128.84C571.57 127.29 573 125.44 574.03 123.34C575.09 121.21 575.61 118.89 575.61 116.45C575.61 113.27 574.8 110.39 573.16 107.92C571.58 105.51 569.49 103.56 566.92 102.14C564.34 100.72 561.51 100.01 558.5 100.01H533.56C532.16 100.01 531.01 101.15 531.01 102.54V147.41C531.01 148.8 532.16 149.94 533.56 149.94H540.52C541.92 149.94 543.07 148.8 543.07 147.41V133.35H553.63L564.78 148.89C565.25 149.54 566.02 149.94 566.83 149.94L575.47 150C576.87 150 578.02 148.86 578.02 147.47C578.02 146.88 577.8 146.3 577.43 145.83L577.49 145.86H577.47Z" fill="#2A327C"/>
<path d="M38.71 125L66.54 101.37C67.08 100.89 66.76 100 66.03 100H51.43C51.27 100 51.08 100.06 50.95 100.16L29.58 116.94C29.39 117.1 29.29 117.32 29.29 117.55V101.02C29.29 100.44 28.84 100 28.27 100H17.02C16.45 100 16 100.45 16 101.02V148.97C16 149.55 16.45 149.99 17.02 149.99H28.28C28.85 149.99 29.3 149.54 29.3 148.97V132.47C29.3 132.66 29.4 132.85 29.55 132.98L50.99 149.83C50.99 149.83 51.24 149.96 51.4 149.96H66.35C66.95 149.96 67.24 149.19 66.76 148.78L38.68 124.96L38.71 124.99V125Z" fill="#2A327C"/>
</g>
<defs>
<clipPath id="clip0_4276_35">
<rect width="562" height="50" fill="white" transform="translate(16 100)"/>
</clipPath>
</defs>
</svg>
