<svg width="594" height="250" viewBox="0 0 594 250" fill="none" xmlns="http://www.w3.org/2000/svg">
<rect x="0.5" y="0.5" width="593" height="249" stroke="white"/>
<path d="M241.758 77.9293H201.991V117.618H241.758V77.9293Z" fill="#004899"/>
<path d="M221.989 57.9706H182.223V97.6588H221.989V57.9706Z" fill="#5E4F9C"/>
<path d="M201.991 38.0117H162.225V77.7H201.991V38.0117Z" fill="#83D0F5"/>
<path d="M134.641 174.282V125.188H152.57C160.845 125.188 167.281 127.482 171.879 132.071C176.476 136.659 178.775 142.165 178.775 149.735C178.775 157.306 176.476 163.041 171.879 167.4C167.281 171.988 160.845 174.282 152.57 174.282H134.641ZM143.605 166.253H151.88C164.293 166.253 169.81 160.059 169.81 149.735C169.81 139.412 164.523 133.218 151.88 133.218H143.605V166.024V166.253Z" fill="#1D1D1B"/>
<path d="M184.981 127.253C184.981 124.271 187.28 121.976 190.268 121.976C193.257 121.976 195.555 124.271 195.555 127.253C195.555 130.235 193.257 132.529 190.268 132.529C187.28 132.529 184.981 130.235 184.981 127.253ZM185.901 136.888H194.866V163.271C194.866 166.253 195.555 167.171 197.394 167.171C199.233 167.171 198.543 167.171 199.003 167.171V174.741C198.084 175.2 196.705 175.429 194.636 175.429C188.889 175.429 185.901 172.218 185.901 166.023V137.347V136.888Z" fill="#1D1D1B"/>
<path d="M233.023 136.888H241.988V168.088C241.988 177.035 240.609 182.541 235.552 186.441C231.874 189.194 227.506 190.571 222.22 190.571C216.933 190.571 209.117 188.735 204.06 185.065L208.428 178.412C212.565 181.165 216.933 182.541 221.3 182.541C225.668 182.541 227.506 181.853 229.575 180.247C231.874 178.641 233.253 175.429 233.253 170.841V169.006C231.414 172.218 227.047 174.512 221.07 174.512C215.094 174.512 211.416 172.676 207.738 169.006C204.06 165.335 202.451 160.747 202.451 155.241C202.451 149.735 204.29 145.147 207.968 141.476C211.646 137.576 216.013 135.741 221.3 135.741C226.587 135.741 232.104 138.265 233.253 141.935V136.429L233.023 136.888ZM230.265 163.5C232.563 161.435 233.713 158.682 233.713 155.47C233.713 152.259 232.563 149.506 230.265 147.441C228.196 145.376 225.438 144.229 222.22 144.229C219.001 144.229 216.473 145.376 214.174 147.441C212.105 149.506 210.956 152.259 210.956 155.47C210.956 158.682 212.105 161.435 214.174 163.5C216.243 165.565 219.001 166.712 222.22 166.712C225.438 166.712 228.196 165.565 230.265 163.5Z" fill="#1D1D1B"/>
<path d="M248.193 127.253C248.193 124.271 250.492 121.976 253.48 121.976C256.468 121.976 258.767 124.271 258.767 127.253C258.767 130.235 256.468 132.529 253.48 132.529C250.492 132.529 248.193 130.235 248.193 127.253ZM249.113 136.888H258.078V163.271C258.078 166.253 258.767 167.171 260.606 167.171C262.445 167.171 261.755 167.171 262.215 167.171V174.741C261.296 175.2 259.916 175.429 257.848 175.429C252.101 175.429 249.113 172.218 249.113 166.023V137.347V136.888Z" fill="#1D1D1B"/>
<path d="M270.031 144.918H265.434V136.888H270.031V122.435H278.996V136.888H287.271V144.918H278.996V161.665C278.996 165.794 280.375 167.171 283.593 167.171C286.811 167.171 285.662 167.171 286.811 166.941V174.971C285.432 175.2 284.053 175.429 282.214 175.429C274.168 175.429 270.031 171.3 270.031 162.812V145.147V144.918Z" fill="#1D1D1B"/>
<path d="M290.948 155.7C290.948 150.194 293.017 145.376 296.925 141.476C300.832 137.576 305.66 135.741 311.406 135.741C317.153 135.741 321.98 137.576 325.888 141.476C329.795 145.376 331.864 149.965 331.864 155.7C331.864 161.435 329.795 166.023 325.888 169.923C321.98 173.823 317.153 175.659 311.406 175.659C305.66 175.659 300.832 173.823 296.925 169.923C293.017 166.023 290.948 161.435 290.948 155.7ZM319.911 163.959C322.21 161.665 323.359 158.912 323.359 155.47C323.359 152.029 322.21 149.276 319.911 147.212C317.613 144.918 314.854 143.771 311.636 143.771C308.418 143.771 305.43 144.918 303.361 147.212C301.292 149.506 300.143 152.259 300.143 155.47C300.143 158.682 301.292 161.665 303.361 163.959C305.66 166.253 308.418 167.4 311.636 167.4C314.854 167.4 317.613 166.253 319.911 163.959Z" fill="#1D1D1B"/>
<path d="M339.221 136.888H348.185V158.912C348.185 163.959 350.944 167.171 355.771 167.171C360.598 167.171 364.046 163.5 364.046 158.453V136.888H373.011V163.041C373.011 166.253 373.7 167.4 375.769 167.4C377.838 167.4 376.919 167.4 377.608 167.4V174.741C376.689 175.2 375.08 175.429 373.241 175.429C371.402 175.429 369.103 174.971 367.724 174.053C366.345 172.906 365.425 171.759 364.966 170.153C362.897 173.823 358.989 175.659 353.472 175.659C344.508 175.659 339.221 169.923 339.221 160.747V137.576V136.888Z" fill="#1D1D1B"/>
<path d="M415.765 142.165L410.249 147.9C407.72 145.147 404.502 143.771 400.824 143.771C397.146 143.771 394.848 144.918 392.549 147.212C390.48 149.506 389.331 152.259 389.331 155.7C389.331 159.141 390.48 161.894 392.549 164.188C394.848 166.482 397.606 167.629 400.824 167.629C404.042 167.629 407.72 166.253 410.249 163.5L415.765 169.235C411.628 173.594 406.801 175.659 400.824 175.659C394.848 175.659 390.25 173.823 386.343 169.923C382.435 166.023 380.366 161.435 380.366 155.7C380.366 149.965 382.205 145.376 386.343 141.476C390.25 137.576 395.078 135.741 400.824 135.741C406.571 135.741 411.858 137.806 415.765 142.165Z" fill="#1D1D1B"/>
<path d="M423.121 174.282V122.435H432.086V141.935C433.695 138.265 437.832 135.971 443.119 135.971C451.854 135.971 456.911 141.706 456.911 150.882V162.812C456.911 165.794 457.371 166.712 459.44 166.712C461.509 166.712 460.359 166.712 460.819 166.712V174.282C459.899 174.512 458.75 174.741 456.911 174.741C450.935 174.741 448.176 171.529 448.176 164.876V152.488C448.176 147.441 445.418 144.229 440.591 144.229C435.764 144.229 432.316 147.9 432.316 152.947V174.512H423.351L423.121 174.282Z" fill="#1D1D1B"/>
<path d="M275.318 190.341C276.927 190.341 278.306 190.8 279.226 191.947C280.145 193.094 280.605 194.47 280.605 196.306V205.023H276.237V196.765C276.237 196.076 276.237 195.388 275.778 195.159C275.318 194.929 274.858 194.47 274.169 194.47C273.479 194.47 273.019 194.7 272.559 195.159C272.1 195.618 271.87 196.306 271.87 197.223V205.253H267.502V196.994C267.502 196.306 267.502 195.618 267.043 195.388C266.583 195.159 266.123 194.7 265.434 194.7C264.744 194.7 264.284 194.929 263.825 195.388C263.365 195.847 263.135 196.535 263.135 197.453V205.482H258.768V191.259H263.135V192.635C263.825 191.488 265.204 191.029 267.043 191.029C268.882 191.029 270.031 191.718 270.721 192.865C271.64 191.718 273.019 191.029 274.858 191.029L275.318 190.341Z" fill="#83D0F5"/>
<path d="M297.385 204.794H292.558L287.96 198.6V204.794H283.593V184.835H287.96V196.765L292.328 190.57H297.385L292.098 197.682L297.385 204.794Z" fill="#83D0F5"/>
<path d="M307.039 194.7H304.051V199.747C304.051 200.206 304.051 200.665 304.74 200.894C305.2 200.894 305.89 200.894 307.039 200.894V204.794C304.281 205.023 302.442 204.794 301.292 204.106C300.143 203.188 299.683 201.812 299.683 199.747V194.7H297.385V190.57H299.683V187.818L304.051 186.441V190.341H307.039V194.47V194.7Z" fill="#83D0F5"/>
<path d="M319.452 190.8H323.589V204.335C323.589 206.629 322.9 208.235 321.291 209.382C319.912 210.529 318.073 210.988 316.004 210.988C312.786 210.988 310.487 209.841 309.338 207.547L313.016 205.482C313.705 206.629 314.855 207.318 316.234 207.318C317.613 207.318 318.073 207.088 318.532 206.629C318.992 206.171 319.452 205.253 319.452 204.335V202.959C318.532 204.106 317.153 204.794 315.314 204.794C313.475 204.794 311.636 204.106 310.257 202.729C308.878 201.353 308.188 199.518 308.188 197.682C308.188 195.847 308.878 194.012 310.257 192.635C311.636 191.259 313.246 190.571 315.314 190.571C317.383 190.571 318.532 191.259 319.452 192.406V191.029V190.8ZM313.705 199.976C314.395 200.665 315.084 200.894 316.234 200.894C317.383 200.894 318.073 200.665 318.762 199.976C319.452 199.288 319.682 198.6 319.682 197.682C319.682 196.765 319.452 195.847 318.762 195.388C318.073 194.7 317.383 194.471 316.234 194.471C315.084 194.471 314.395 194.7 313.705 195.388C313.016 196.076 312.786 196.765 312.786 197.682C312.786 198.6 313.016 199.518 313.705 199.976Z" fill="#83D0F5"/>
<path d="M338.071 194.7H335.083V199.747C335.083 200.206 335.083 200.665 335.773 200.894C336.232 200.894 336.922 200.894 338.071 200.894V204.794C335.313 205.024 333.474 204.794 332.325 204.106C331.175 203.188 330.716 201.812 330.716 199.747V194.7H328.417V190.571H330.716V187.818L335.083 186.441V190.341H338.071V194.471V194.7Z" fill="#5E4F9C"/>
<path d="M344.048 199.518C344.508 200.894 345.657 201.582 347.496 201.582C349.335 201.582 349.565 201.123 350.254 200.435L353.702 202.5C352.323 204.335 350.254 205.482 347.496 205.482C344.738 205.482 343.129 204.794 341.749 203.418C340.37 202.041 339.681 200.206 339.681 198.141C339.681 196.076 340.37 194.241 341.749 192.865C343.129 191.488 344.968 190.8 347.266 190.8C349.565 190.8 350.944 191.488 352.323 192.865C353.702 194.241 354.392 196.076 354.392 198.141C354.392 200.206 354.392 199.288 354.392 199.747H344.278L344.048 199.518ZM344.048 196.306H350.254C349.795 194.7 348.875 194.012 347.266 194.012C345.657 194.012 344.508 194.7 344.278 196.306H344.048Z" fill="#5E4F9C"/>
<path d="M363.586 205.253C361.517 205.253 359.678 204.565 358.299 203.188C356.92 201.812 356.23 199.976 356.23 197.912C356.23 195.847 356.92 194.012 358.299 192.635C359.678 191.259 361.517 190.571 363.586 190.571C365.655 190.571 366.115 190.8 367.264 191.488C368.413 192.176 369.333 193.094 370.022 194.241L366.345 196.306C365.885 195.159 364.965 194.7 363.586 194.7C362.207 194.7 361.977 194.929 361.288 195.618C360.598 196.306 360.368 196.994 360.368 197.912C360.368 198.829 360.598 199.747 361.288 200.206C361.977 200.894 362.667 201.123 363.586 201.123C364.965 201.123 365.885 200.665 366.345 199.518L370.022 201.582C369.333 202.729 368.413 203.647 367.264 204.335C366.115 205.023 364.965 205.253 363.586 205.253Z" fill="#5E4F9C"/>
<path d="M379.907 190.341C381.516 190.341 382.665 190.8 383.815 191.947C384.734 193.094 385.424 194.471 385.424 196.306V205.023H381.056V196.994C381.056 196.076 380.826 195.618 380.367 195.159C379.907 194.7 379.217 194.471 378.528 194.471C377.838 194.471 377.149 194.7 376.689 195.159C376.229 195.618 375.999 196.306 375.999 197.453V205.253H371.632V185.294H375.999V192.406C376.919 191.259 378.298 190.571 380.137 190.571L379.907 190.341Z" fill="#5E4F9C"/>
<path d="M395.077 199.518C395.537 200.894 396.686 201.582 398.525 201.582C400.364 201.582 400.594 201.123 401.284 200.435L404.732 202.5C403.353 204.335 401.284 205.482 398.525 205.482C395.767 205.482 394.158 204.794 392.779 203.418C391.4 202.041 390.71 200.206 390.71 198.141C390.71 196.076 391.4 194.241 392.779 192.865C394.158 191.488 395.997 190.8 398.295 190.8C400.594 190.8 401.973 191.488 403.353 192.865C404.732 194.241 405.421 196.076 405.421 198.141C405.421 200.206 405.421 199.288 405.421 199.747H395.307L395.077 199.518ZM394.848 196.306H401.054C400.594 194.7 399.675 194.012 398.066 194.012C396.457 194.012 395.307 194.7 395.077 196.306H394.848Z" fill="#004899"/>
<path d="M414.386 205.253C412.317 205.253 410.478 204.565 409.099 203.188C407.72 201.812 407.03 199.976 407.03 197.912C407.03 195.847 407.72 194.012 409.099 192.635C410.478 191.259 412.317 190.571 414.386 190.571C416.455 190.571 416.914 190.8 418.064 191.488C419.213 192.176 420.133 193.094 420.822 194.241L417.144 196.306C416.685 195.159 415.765 194.7 414.386 194.7C413.007 194.7 412.777 194.929 412.087 195.618C411.398 196.306 411.168 196.994 411.168 197.912C411.168 198.829 411.398 199.747 412.087 200.206C412.777 200.894 413.466 201.123 414.386 201.123C415.765 201.123 416.685 200.665 417.144 199.518L420.822 201.582C420.133 202.729 419.213 203.647 418.064 204.335C416.914 205.023 415.765 205.253 414.386 205.253Z" fill="#004899"/>
<path d="M434.384 203.188C433.005 204.565 431.166 205.253 429.097 205.253C427.028 205.253 425.19 204.565 423.81 203.188C422.431 201.812 421.512 199.976 421.512 197.912C421.512 195.847 422.201 194.012 423.81 192.635C425.419 191.259 427.028 190.571 429.097 190.571C431.166 190.571 433.005 191.259 434.384 192.635C435.763 194.012 436.683 195.847 436.683 197.912C436.683 199.976 435.993 201.812 434.384 203.188ZM426.799 200.206C427.488 200.894 428.178 201.123 429.097 201.123C430.017 201.123 430.706 200.894 431.396 200.206C432.086 199.518 432.315 198.829 432.315 197.682C432.315 196.535 432.086 195.847 431.396 195.159C430.706 194.471 430.017 194.241 429.097 194.241C428.178 194.241 427.488 194.471 426.799 195.159C426.109 195.847 425.879 196.535 425.879 197.682C425.879 198.829 426.109 199.518 426.799 200.206Z" fill="#004899"/>
<path d="M455.072 190.341C456.681 190.341 458.06 190.8 458.979 191.947C459.899 193.094 460.359 194.47 460.359 196.306V205.023H455.991V196.765C455.991 196.076 455.991 195.388 455.531 195.159C455.072 194.929 454.612 194.47 453.922 194.47C453.233 194.47 452.773 194.7 452.313 195.159C451.854 195.618 451.624 196.306 451.624 197.223V205.253H447.256V196.994C447.256 196.306 447.256 195.618 446.797 195.388C446.337 195.159 445.877 194.7 445.188 194.7C444.498 194.7 444.038 194.929 443.579 195.388C443.119 195.847 442.889 196.535 442.889 197.453V205.482H438.521V191.259H442.889V192.635C443.579 191.488 444.958 191.029 446.797 191.029C448.636 191.029 449.785 191.718 450.474 192.865C451.394 191.718 452.773 191.029 454.612 191.029L455.072 190.341Z" fill="#004899"/>
<g style="mix-blend-mode:multiply">
<path d="M221.989 77.9293H201.991V97.8881H221.989V77.9293Z" fill="#0069B4"/>
</g>
<g style="mix-blend-mode:multiply">
<path d="M202.221 57.9706H182.223V77.9294H202.221V57.9706Z" fill="#5E4F9C"/>
</g>
</svg>
