<svg width="594" height="250" viewBox="0 0 594 250" fill="none" xmlns="http://www.w3.org/2000/svg">
<path d="M518.088 150.462C518.088 154.329 515.087 157.367 511.267 157.367C507.447 157.367 504.31 154.329 504.31 150.462C504.31 146.733 507.311 143.695 511.267 143.695C515.087 143.695 518.088 146.733 518.088 150.462ZM506.083 150.462C506.083 153.5 508.266 155.848 511.267 155.848C514.268 155.848 516.451 153.5 516.451 150.462C516.451 147.424 514.268 144.938 511.267 144.938C508.266 145.076 506.083 147.424 506.083 150.462ZM510.176 154.052H508.675V147.286C509.357 147.148 510.176 147.009 511.267 147.009C512.495 147.009 513.177 147.286 513.586 147.562C513.995 147.838 514.268 148.39 514.268 149.081C514.268 149.771 513.722 150.462 512.904 150.6V150.738C513.586 151.014 513.995 151.429 514.132 152.395C514.268 153.5 514.405 153.776 514.677 154.052H513.04C512.767 153.776 512.767 153.224 512.495 152.395C512.358 151.705 511.949 151.29 511.13 151.29H510.448V154.052H510.176ZM510.312 150.186H510.994C511.813 150.186 512.495 149.909 512.495 149.219C512.495 148.667 512.085 148.252 511.13 148.252C510.721 148.252 510.448 148.252 510.312 148.39V150.186Z" fill="black"/>
<path d="M73.2285 108.343C73.2285 102.543 74.7291 98.5381 77.8667 96.0524C81.0043 93.5667 84.9605 92.1858 89.053 92.3238C98.4658 92.1858 107.879 92.6 117.155 93.7048V107.929H93.964C92.8727 107.791 91.7814 108.205 90.9628 109.033C90.2808 109.724 90.0079 110.691 90.0079 111.657V118.976L113.063 119.667V133.062L90.0079 133.891V156.952H73.2285V108.343Z" fill="black"/>
<path d="M123.294 142.038V108.343C123.294 102.543 124.795 98.5381 127.932 96.0524C131.206 93.5666 135.162 92.1857 139.118 92.3238C148.531 92.3238 157.944 92.7381 167.357 93.5666V107.79H144.302C141.438 107.79 139.937 109.033 139.937 111.657V117.043L163.128 117.871V131.267L139.937 132.095V136.929C139.801 138.171 140.21 139.414 140.892 140.381C141.574 141.21 142.529 141.624 143.62 141.486H167.357V155.71C163.81 156.262 159.581 156.676 154.534 156.814C149.486 156.952 144.712 157.229 140.21 157.229C128.887 157.367 123.294 152.257 123.294 142.038Z" fill="black"/>
<path d="M175.133 92.3239H202.416C208.419 92.3239 213.193 93.981 216.604 97.2953C220.014 100.61 221.651 106.133 221.651 114.143C221.651 119.114 220.833 122.981 219.332 125.605C217.832 128.229 215.649 130.438 212.921 131.957L223.97 157.091H207.055L198.187 134.719H191.776V156.952H175.133V92.3239ZM199.415 121.324C201.052 121.462 202.553 120.771 203.644 119.667C204.735 118.01 205.145 116.076 205.008 114.281C205.145 112.486 204.735 110.552 203.644 109.033C202.553 107.929 200.916 107.376 199.415 107.514H191.912V121.324H199.415Z" fill="black"/>
<path d="M225.881 92.3239H243.206L255.347 138.586L267.488 92.3239H284.541L265.578 156.952H244.843L225.881 92.3239Z" fill="black"/>
<path d="M287.405 142.038V108.343C287.405 102.543 288.906 98.5381 292.043 96.0524C295.181 93.5666 299.137 92.1857 303.23 92.3238C312.643 92.3238 322.055 92.7381 331.332 93.5666V107.79H308.277C305.412 107.79 303.912 109.033 303.912 111.657V117.043L326.966 117.871V131.267L303.912 132.095V136.929C303.775 138.171 304.185 139.414 304.867 140.381C305.549 141.21 306.504 141.624 307.595 141.486H331.332V155.71C327.785 156.262 323.556 156.676 318.509 156.814C313.461 157.09 308.686 157.229 304.048 157.229C293.135 157.367 287.405 152.257 287.405 142.038Z" fill="black"/>
<path d="M339.38 92.3239H352.612L374.985 128.367V92.3239H391.628V156.952H378.395L356.023 120.91V156.952H339.38V92.3239Z" fill="black"/>
<path d="M413.865 107.376H397.768V92.1857H446.605V107.376H430.508V156.952H413.865V107.376Z" fill="black"/>
<path d="M462.429 154.881C458.336 152.948 455.199 149.495 453.562 145.214C451.515 140.519 450.561 133.614 450.561 124.638C450.561 115.662 451.515 108.895 453.562 104.062C455.199 99.781 458.336 96.3286 462.429 94.3953C466.249 92.6001 471.432 91.7715 477.981 91.7715C484.529 91.7715 489.576 92.6001 493.532 94.3953C497.625 96.3286 500.762 99.9191 502.399 104.062C504.446 108.757 505.401 115.662 505.401 124.638C505.401 133.614 504.173 140.381 502.127 145.214C500.489 149.495 497.352 152.948 493.259 154.881C489.44 156.676 484.256 157.505 477.708 157.505C471.16 157.505 466.249 156.538 462.429 154.881ZM484.529 140.795C486.166 139.552 487.257 137.757 487.666 135.686C488.348 131.957 488.621 128.229 488.621 124.5C488.758 120.633 488.485 116.905 487.803 113.176C487.53 111.105 486.438 109.31 484.665 108.205C480.436 106.41 475.525 106.41 471.296 108.205C469.659 109.448 468.568 111.243 468.158 113.176C467.476 116.905 467.204 120.771 467.34 124.5C467.204 128.229 467.476 131.957 468.295 135.686C468.568 137.757 469.795 139.552 471.432 140.795C475.389 142.729 480.3 142.729 484.529 140.795Z" fill="black"/>
<path d="M247.161 159.024H263.395C264.214 159.024 264.759 158.333 264.759 157.643C264.759 157.367 264.623 156.952 264.35 156.676C260.94 153.086 254.801 146.595 254.937 146.595C255.074 146.595 249.208 153.086 246.07 156.676C245.524 157.229 245.661 158.195 246.206 158.61C246.479 158.886 246.752 159.024 247.161 159.024Z" fill="#B50F0F" stroke="white" stroke-miterlimit="10"/>
</svg>
