<svg width="594" height="250" viewBox="0 0 594 250" fill="none" xmlns="http://www.w3.org/2000/svg">
<rect x="0.5" y="0.5" width="593" height="249" stroke="white"/>
<path d="M543.17 153.446C543.17 157.757 539.821 161.144 535.558 161.144C531.295 161.144 527.794 157.757 527.794 153.446C527.794 149.289 531.143 145.902 535.558 145.902C539.821 145.902 543.17 149.289 543.17 153.446ZM529.773 153.446C529.773 156.833 532.209 159.451 535.558 159.451C538.907 159.451 541.343 156.833 541.343 153.446C541.343 150.059 538.907 147.287 535.558 147.287C532.209 147.441 529.773 150.059 529.773 153.446ZM534.34 157.449H532.666V149.905C533.427 149.751 534.34 149.597 535.558 149.597C536.928 149.597 537.689 149.905 538.146 150.213C538.603 150.521 538.907 151.137 538.907 151.906C538.907 152.676 538.298 153.446 537.385 153.6V153.754C538.146 154.062 538.603 154.524 538.755 155.602C538.907 156.833 539.06 157.141 539.364 157.449H537.537C537.233 157.141 537.233 156.525 536.928 155.602C536.776 154.832 536.319 154.37 535.406 154.37H534.645V157.449H534.34ZM534.492 153.138H535.254C536.167 153.138 536.928 152.83 536.928 152.06C536.928 151.444 536.472 150.983 535.406 150.983C534.949 150.983 534.645 150.983 534.492 151.137V153.138Z" fill="black"/>
<path d="M46.7197 106.486C46.7197 100.019 48.3944 95.5539 51.8958 92.7825C55.3973 90.0111 59.8123 88.4714 64.3794 88.6254C74.8839 88.4714 85.3884 88.9333 95.7406 90.1651V106.024H69.86C68.6421 105.87 67.4242 106.332 66.5108 107.256C65.7496 108.025 65.4451 109.103 65.4451 110.181V118.341L91.1735 119.111V134.046L65.4451 134.97V160.683H46.7197V106.486Z" fill="black"/>
<path d="M102.591 144.054V106.486C102.591 100.019 104.265 95.554 107.767 92.7826C111.421 90.0111 115.836 88.4714 120.251 88.6254C130.755 88.6254 141.259 89.0873 151.764 90.0111V105.87H126.036C122.839 105.87 121.164 107.256 121.164 110.181V116.186L147.045 117.11V132.044L121.164 132.968V138.357C121.012 139.743 121.468 141.129 122.23 142.206C122.991 143.13 124.056 143.592 125.274 143.438H151.764V159.297C147.806 159.913 143.086 160.375 137.454 160.529C131.821 160.683 126.492 160.99 121.468 160.99C108.833 161.144 102.591 155.448 102.591 144.054Z" fill="black"/>
<path d="M160.441 88.6254H190.889C197.588 88.6254 202.916 90.473 206.722 94.1682C210.528 97.8635 212.355 104.022 212.355 112.952C212.355 118.495 211.441 122.806 209.767 125.732C208.092 128.657 205.656 131.121 202.612 132.814L214.943 160.836H196.065L186.17 135.894H179.015V160.683H160.441V88.6254ZM187.54 120.959C189.367 121.113 191.041 120.343 192.259 119.111C193.477 117.263 193.934 115.108 193.782 113.106C193.934 111.105 193.477 108.949 192.259 107.256C191.041 106.024 189.215 105.408 187.54 105.562H179.167V120.959H187.54Z" fill="black"/>
<path d="M217.074 88.6254H236.409L249.958 140.205L263.507 88.6254H282.537L261.376 160.683H238.235L217.074 88.6254Z" fill="black"/>
<path d="M285.734 144.054V106.486C285.734 100.019 287.409 95.554 290.91 92.7826C294.412 90.0111 298.827 88.4714 303.394 88.6254C313.899 88.6254 324.403 89.0873 334.755 90.0111V105.87H309.027C305.83 105.87 304.155 107.256 304.155 110.181V116.186L329.884 117.11V132.044L304.155 132.968V138.357C304.003 139.743 304.46 141.129 305.221 142.206C305.982 143.13 307.048 143.592 308.266 143.438H334.755V159.297C330.797 159.913 326.078 160.375 320.445 160.529C314.812 160.837 309.484 160.99 304.308 160.99C292.128 161.144 285.734 155.448 285.734 144.054Z" fill="black"/>
<path d="M343.737 88.6254H358.504L383.472 128.811V88.6254H402.045V160.683H387.278L362.31 120.497V160.683H343.737V88.6254Z" fill="black"/>
<path d="M426.86 105.408H408.896V88.4714H463.397V105.408H445.433V160.683H426.86V105.408Z" fill="black"/>
<path d="M481.056 158.373C476.489 156.217 472.988 152.368 471.161 147.595C468.877 142.36 467.812 134.662 467.812 124.654C467.812 114.646 468.877 107.102 471.161 101.713C472.988 96.9397 476.489 93.0905 481.056 90.9349C485.319 88.9333 491.104 88.0095 498.411 88.0095C505.719 88.0095 511.352 88.9333 515.767 90.9349C520.334 93.0905 523.835 97.0936 525.662 101.713C527.946 106.948 529.011 114.646 529.011 124.654C529.011 134.662 527.641 142.206 525.358 147.595C523.531 152.368 520.029 156.217 515.462 158.373C511.2 160.375 505.415 161.298 498.107 161.298C490.8 161.298 485.319 160.221 481.056 158.373ZM505.719 142.668C507.546 141.283 508.764 139.281 509.22 136.971C509.982 132.814 510.286 128.657 510.286 124.5C510.438 120.189 510.134 116.032 509.373 111.875C509.068 109.565 507.85 107.563 505.871 106.332C501.152 104.33 495.671 104.33 490.952 106.332C489.125 107.717 487.907 109.719 487.45 111.875C486.689 116.032 486.385 120.343 486.537 124.5C486.385 128.657 486.689 132.814 487.603 136.971C487.907 139.281 489.277 141.283 491.104 142.668C495.519 144.824 501 144.824 505.719 142.668Z" fill="black"/>
<path d="M240.824 162.992H258.941C259.854 162.992 260.463 162.222 260.463 161.452C260.463 161.144 260.311 160.683 260.006 160.375C256.2 156.371 249.35 149.135 249.502 149.135C249.654 149.135 243.108 156.371 239.606 160.375C238.997 160.99 239.15 162.068 239.759 162.53C240.063 162.838 240.368 162.992 240.824 162.992Z" fill="#B50F0F" stroke="white" stroke-miterlimit="10"/>
</svg>
