<svg width="594" height="250" viewBox="0 0 594 250" fill="none" xmlns="http://www.w3.org/2000/svg">
<path d="M448.595 164.942V181.971H431.55V199H465.64V164.942H448.595Z" fill="#342578"/>
<path d="M129 50V84.0577H146.045V67.0288H163.091V50H129Z" fill="#DB1176"/>
<path d="M180.155 84.0577H163.091V174.26H180.155V84.0577Z" fill="#272727"/>
<path d="M194.116 84.0577H210.602L249.236 143.417V84.0577H266.43V174.26H249.896L211.303 115.087V174.262H194.116V84.0577Z" fill="#272727"/>
<path d="M280.823 84.0577H330.112V100.859H297.885V117.171H330.11V133.667H297.885V157.399H330.11V174.262H280.823V84.0577Z" fill="#272727"/>
<mask id="mask0_4276_224" style="mask-type:luminance" maskUnits="userSpaceOnUse" x="129" y="50" width="337" height="149">
<path d="M465.638 50H129V199H465.638V50Z" fill="white"/>
</mask>
<g mask="url(#mask0_4276_224)">
<path d="M389.067 81.7873C395.217 81.7167 401.315 82.9106 406.984 85.2947C412.652 87.6789 417.768 91.2024 422.015 95.6461C426.494 100.044 430.028 105.309 432.4 111.119C434.772 116.928 435.933 123.161 435.811 129.434C435.937 135.636 434.796 141.799 432.456 147.546C430.116 153.293 426.626 158.502 422.202 162.854C417.798 167.223 412.573 170.679 406.829 173.025C401.085 175.371 394.933 176.561 388.727 176.527C382.521 176.492 376.383 175.234 370.666 172.823C364.948 170.413 359.763 166.899 355.408 162.482C348.84 155.835 344.384 147.399 342.6 138.231C340.815 129.063 341.782 119.573 345.378 110.952C348.974 102.331 355.039 94.9641 362.812 89.7753C370.585 84.5865 379.719 81.8075 389.067 81.7873ZM388.881 98.5889C384.958 98.5037 381.059 99.2337 377.433 100.733C373.806 102.231 370.531 104.466 367.815 107.296C364.974 110.223 362.754 113.692 361.287 117.496C359.82 121.299 359.135 125.36 359.274 129.434C359.274 139.409 362.859 147.299 370.027 153.104C375.407 157.574 382.202 159.986 389.198 159.91C393.094 159.967 396.959 159.211 400.546 157.691C404.132 156.17 407.362 153.919 410.028 151.08C415.566 145.172 418.642 137.377 418.631 129.283C418.619 121.189 415.521 113.403 409.966 107.51C407.272 104.638 404.005 102.36 400.377 100.824C396.749 99.2876 392.84 98.5263 388.9 98.5889" fill="#272727"/>
</g>
</svg>
