<svg width="594" height="250" viewBox="0 0 594 250" fill="none" xmlns="http://www.w3.org/2000/svg">
<path d="M363.427 90.1468C359.226 90.1468 355.197 88.4777 352.227 85.5066C349.256 82.5356 347.587 78.5059 347.587 74.3042C347.587 70.1025 349.256 66.0728 352.227 63.1018C355.197 60.1307 359.226 58.4615 363.427 58.4615C367.628 58.4615 371.657 60.1307 374.628 63.1018C377.598 66.0728 379.267 70.1025 379.267 74.3042C379.267 78.5059 377.598 82.5356 374.628 85.5066C371.657 88.4777 367.628 90.1468 363.427 90.1468ZM363.427 65.356C361.015 65.356 358.702 66.3142 356.997 68.0199C355.292 69.7255 354.334 72.0388 354.334 74.4509C354.334 79.4384 358.44 83.5457 363.427 83.5457C368.414 83.5457 372.52 79.4384 372.52 74.4509C372.52 69.3167 368.414 65.356 363.427 65.356Z" fill="#112BFC"/>
<path d="M44.1333 90.194C44.1333 74.7915 54.1067 61.736 74.7868 61.736C79.1866 61.736 84.1732 62.3227 89.7467 63.6429V83.1529C86.08 81.5393 82.4132 80.5124 79.3335 80.5124C72.2933 80.5124 68.7734 84.4731 68.7734 91.3676V95.7684H88.1333V112.784H68.9199V186.423H44.1333V112.931H28V95.7684H44.1333V90.194ZM212.8 144.616C212.8 159.432 219.253 167.06 231.427 167.06C242.28 167.06 250.2 159.726 250.2 141.096C250.2 122.466 242.28 115.132 231.427 115.132C227.467 115.132 224.093 116.012 221.453 117.772V98.1153C225.853 96.2083 231.133 94.5948 236.413 94.5948C258.707 94.5948 275.72 106.917 275.72 140.656C275.72 171.901 259.293 187.597 235.093 187.597C225.267 187.597 217.347 183.343 212.947 177.622V186.423H188.16V64.9632H212.8V144.616ZM313.12 186.57H288.333V95.7684H312.68V111.904C318.547 99.2889 329.107 93.7146 338.2 93.7146L342.453 94.1547V121.293C339.667 120.412 336.733 119.826 334.093 119.826C322.8 119.826 313.267 127.454 313.267 141.976V186.57H313.12ZM351.107 186.57V95.7684H375.893V186.423H351.107V186.57ZM471.226 152.244C468.441 175.715 453.041 187.744 430.305 187.744C404.64 187.744 387.627 172.341 387.627 141.536C387.627 110.877 405.52 94.5948 431.188 94.5948C453.333 94.5948 468.734 106.623 470.933 130.681H445.998C444.534 119.386 439.109 115.132 430.746 115.132C420.04 115.132 413 122.613 413 141.243C413 159.579 420.185 167.207 430.453 167.207C438.374 167.207 444.534 163.1 446.44 152.244H471.226ZM507.159 186.57H482.373V64.9632H507.159V186.57ZM534.148 136.255L567 186.57H538.402L507.308 139.482L536.64 95.915H562.747L534.148 136.255ZM135.36 94.7415C110.573 94.7415 96.0534 107.357 96.0534 127.454H119.52C119.52 122.173 122.307 114.691 134.48 114.691C143.72 114.691 148.267 119.239 148.267 126.72V153.418C148.267 162.513 142.107 169.554 131.84 169.554C123.333 169.554 119.667 163.98 119.667 159.872C119.667 156.058 121.867 152.978 126.413 150.924L139.027 145.937V128.627L119.227 134.788C106.027 138.749 94.0002 145.497 94.0002 161.926C94.0002 177.035 105.88 187.597 122.893 187.597C137.56 187.597 145.333 180.409 148.267 176.595V186.423H173.2V124.666C173.347 104.423 159.12 94.7415 135.36 94.7415Z" fill="#112BFC"/>
</svg>
