<svg width="594" height="250" viewBox="0 0 594 250" fill="none" xmlns="http://www.w3.org/2000/svg">
<rect x="0.5" y="0.5" width="593" height="249" stroke="white"/>
<g clip-path="url(#clip0_4285_2)">
<path d="M318.643 112.044C316.307 112.044 314.186 111.568 312.255 110.641C310.3 109.714 308.655 108.43 307.273 106.79C305.89 105.174 304.818 103.296 304.055 101.156C303.292 99.0164 302.935 96.758 302.935 94.3332C302.935 91.7896 303.34 89.4361 304.15 87.249C304.937 85.0619 306.057 83.1601 307.487 81.496C308.918 79.8557 310.634 78.5482 312.612 77.6211C314.591 76.694 316.808 76.2185 319.215 76.2185C321.98 76.2185 324.388 76.8366 326.438 78.049C328.488 79.2614 330.156 80.9017 331.467 82.9699V76.8128H339.309V110.142C339.309 112.709 338.833 115.039 337.879 117.084C336.926 119.128 335.567 120.863 333.827 122.29C332.087 123.716 330.037 124.81 327.677 125.547C325.317 126.307 322.719 126.688 319.906 126.688C316.021 126.688 312.779 126.046 310.157 124.786C307.535 123.526 305.294 121.719 303.411 119.413L308.298 114.683C309.633 116.323 311.325 117.63 313.351 118.558C315.377 119.485 317.546 119.96 319.882 119.96C321.265 119.96 322.6 119.77 323.863 119.39C325.15 119.009 326.247 118.415 327.2 117.63C328.154 116.822 328.917 115.8 329.489 114.564C330.037 113.328 330.323 111.854 330.323 110.142V105.744C329.155 107.741 327.534 109.286 325.436 110.38C323.315 111.497 321.05 112.044 318.643 112.044ZM321.718 104.912C322.695 104.912 323.625 104.746 324.531 104.437C325.413 104.128 326.223 103.7 326.962 103.153C327.701 102.63 328.368 101.988 328.94 101.275C329.513 100.562 329.965 99.8009 330.275 98.9927V90.6485C329.465 88.604 328.201 86.9637 326.509 85.7038C324.817 84.4676 323.029 83.8257 321.146 83.8257C319.763 83.8257 318.5 84.1348 317.356 84.7291C316.235 85.3234 315.258 86.1317 314.448 87.1301C313.637 88.1286 313.041 89.2697 312.612 90.5772C312.183 91.8609 311.969 93.1921 311.969 94.5947C311.969 96.0211 312.207 97.3524 312.708 98.5885C313.208 99.8247 313.876 100.918 314.758 101.869C315.64 102.796 316.641 103.533 317.833 104.08C319.024 104.627 320.335 104.912 321.718 104.912Z" fill="#088D7B"/>
<path d="M363.647 112.519C360.834 112.519 358.284 112.044 356.019 111.093C353.731 110.142 351.8 108.835 350.203 107.194C348.606 105.554 347.343 103.628 346.484 101.441C345.626 99.2543 345.197 96.9721 345.197 94.5711C345.197 92.0749 345.626 89.7214 346.461 87.5344C347.319 85.3235 348.558 83.3979 350.155 81.7338C351.752 80.0698 353.707 78.7385 356.019 77.7638C358.307 76.7891 360.882 76.2899 363.742 76.2899C366.603 76.2899 369.153 76.7891 371.418 77.7638C373.658 78.7385 375.589 80.046 377.162 81.7101C378.736 83.3504 379.951 85.276 380.785 87.463C381.62 89.6501 382.025 91.9085 382.025 94.262C382.025 94.8326 382.025 95.4031 381.977 95.9261C381.953 96.4491 381.906 96.9008 381.81 97.2574H354.684C354.827 98.6362 355.161 99.8486 355.685 100.918C356.21 101.988 356.925 102.891 357.759 103.652C358.617 104.413 359.571 104.983 360.643 105.388C361.716 105.792 362.836 105.982 363.981 105.982C365.768 105.982 367.461 105.554 369.034 104.674C370.607 103.819 371.704 102.654 372.276 101.227L379.975 103.367C378.688 106.029 376.614 108.24 373.777 109.952C370.941 111.664 367.556 112.519 363.647 112.519ZM372.753 91.4093C372.538 88.7705 371.561 86.6785 369.844 85.1096C368.128 83.5168 366.031 82.7323 363.575 82.7323C362.36 82.7323 361.239 82.9463 360.191 83.3742C359.142 83.8021 358.212 84.3726 357.402 85.1333C356.615 85.8941 355.948 86.7974 355.423 87.8672C354.923 88.9369 354.613 90.1256 354.517 91.4093H372.753Z" fill="#088D7B"/>
<path d="M401.333 112.519C399.903 112.519 398.425 112.4 396.876 112.186C395.35 111.973 393.824 111.64 392.37 111.259C390.892 110.855 389.486 110.356 388.151 109.785C386.816 109.215 385.625 108.549 384.6 107.836L388.223 101.774C392.68 104.674 396.995 106.124 401.142 106.124C403.025 106.124 404.503 105.792 405.552 105.126C406.625 104.46 407.173 103.509 407.173 102.25C407.173 100.99 406.529 100.086 405.266 99.4681C403.979 98.8738 401.857 98.2082 398.854 97.495C396.566 96.972 394.635 96.4015 393.038 95.8309C391.417 95.2604 390.13 94.5947 389.152 93.834C388.175 93.0733 387.46 92.2175 387.007 91.2428C386.554 90.2681 386.34 89.1033 386.34 87.772C386.34 85.9891 386.697 84.3963 387.412 82.9699C388.127 81.5436 389.105 80.3312 390.392 79.3327C391.679 78.3343 393.157 77.5498 394.873 77.0268C396.589 76.48 398.449 76.2185 400.451 76.2185C402.954 76.2185 405.433 76.5989 407.912 77.3834C410.391 78.1679 412.703 79.2139 414.848 80.5451L411.178 86.0841C409.199 84.848 407.364 83.9446 405.624 83.3741C403.884 82.8273 402.143 82.542 400.403 82.542C398.782 82.542 397.448 82.8511 396.351 83.4692C395.255 84.0872 394.706 85.0857 394.706 86.4645C394.706 87.6769 395.231 88.5327 396.28 89.0795C397.328 89.6025 399.188 90.2206 401.857 90.8862C404.36 91.5043 406.482 92.1224 408.269 92.7642C410.033 93.3823 411.464 94.0955 412.608 94.9038C413.752 95.712 414.562 96.6392 415.087 97.6852C415.587 98.7312 415.85 99.9911 415.85 101.465C415.85 103.153 415.492 104.698 414.801 106.077C414.109 107.456 413.132 108.621 411.893 109.595C410.653 110.546 409.128 111.283 407.316 111.806C405.504 112.258 403.526 112.519 401.333 112.519Z" fill="#088D7B"/>
<path d="M442.379 110.047C441.188 110.57 439.686 111.117 437.922 111.64C436.158 112.187 434.323 112.448 432.392 112.448C431.128 112.448 429.96 112.282 428.888 111.973C427.791 111.664 426.838 111.164 426.004 110.475C425.169 109.785 424.526 108.906 424.025 107.812C423.525 106.719 423.286 105.388 423.286 103.842V83.7307H418.733V76.8604H423.286V65.5209H432.249V76.8604H439.686V83.7307H432.249V100.823C432.249 102.083 432.583 102.963 433.25 103.462C433.917 103.961 434.728 104.223 435.657 104.223C436.587 104.223 437.517 104.056 438.399 103.747C439.304 103.438 440.02 103.177 440.544 102.939L442.379 110.047Z" fill="#088D7B"/>
<path d="M456.49 112.519C454.798 112.519 453.201 112.234 451.747 111.687C450.269 111.14 449.006 110.356 447.933 109.358C446.86 108.359 446.026 107.194 445.43 105.863C444.834 104.532 444.524 103.058 444.524 101.465C444.524 99.8247 444.906 98.3033 445.621 96.9007C446.36 95.4981 447.385 94.3095 448.696 93.3348C450.007 92.3601 451.58 91.5994 453.416 91.0288C455.227 90.4821 457.253 90.1968 459.446 90.1968C461.019 90.1968 462.545 90.3394 464.047 90.6009C465.525 90.8624 466.883 91.2428 468.027 91.742V89.7451C468.027 87.4392 467.36 85.6562 466.049 84.3963C464.738 83.1601 462.783 82.5183 460.185 82.5183C458.302 82.5183 456.49 82.8511 454.703 83.5167C452.915 84.1823 451.103 85.157 449.22 86.4645L446.479 80.7829C450.984 77.8113 455.847 76.3136 461.067 76.3136C466.12 76.3136 470.03 77.5498 472.819 80.0221C475.607 82.4945 477.014 86.0604 477.014 90.7436V101.631C477.014 102.559 477.181 103.224 477.538 103.628C477.896 104.032 478.516 104.246 479.421 104.294V111.901C478.563 112.068 477.777 112.21 477.038 112.258C476.299 112.329 475.679 112.353 475.131 112.353C473.438 112.305 472.127 111.925 471.245 111.188C470.363 110.451 469.791 109.453 469.577 108.216L469.386 106.291C467.837 108.335 465.93 109.904 463.689 110.974C461.425 111.973 459.041 112.519 456.49 112.519ZM459.041 105.982C460.543 105.982 461.997 105.72 463.355 105.174C464.714 104.651 465.787 103.937 466.526 103.034C467.527 102.273 468.004 101.441 468.004 100.49V96.4965C466.931 96.0924 465.763 95.7834 464.523 95.5219C463.284 95.2841 462.068 95.1653 460.9 95.1653C458.588 95.1653 456.681 95.6883 455.203 96.7343C453.725 97.7803 452.986 99.1115 452.986 100.704C452.986 102.226 453.559 103.486 454.727 104.484C455.918 105.483 457.349 105.982 459.041 105.982Z" fill="#088D7B"/>
<path d="M485.476 63.0961H494.439V100.229C494.439 102.939 495.655 104.294 498.11 104.294C498.61 104.294 499.182 104.199 499.802 104.033C500.446 103.866 501.066 103.652 501.638 103.438L502.853 110.57C501.638 111.141 500.231 111.592 498.634 111.901C497.037 112.21 495.583 112.377 494.272 112.377C491.459 112.377 489.29 111.64 487.741 110.142C486.215 108.644 485.429 106.529 485.429 103.771V63.0961H485.476Z" fill="#088D7B"/>
<path d="M527 110.047C525.784 110.57 524.306 111.117 522.542 111.64C520.778 112.187 518.943 112.448 517.012 112.448C515.772 112.448 514.581 112.282 513.508 111.973C512.411 111.664 511.458 111.164 510.624 110.475C509.789 109.785 509.146 108.906 508.645 107.812C508.145 106.719 507.906 105.388 507.906 103.842V83.7307H503.354V76.8604H507.906V65.5209H516.869V76.8604H524.306V83.7307H516.869V100.823C516.869 102.083 517.203 102.963 517.87 103.462C518.538 103.961 519.348 104.223 520.278 104.223C521.207 104.223 522.137 104.056 523.019 103.747C523.925 103.438 524.616 103.177 525.164 102.939L527 110.047Z" fill="#088D7B"/>
<path d="M364.267 171.357C361.859 171.357 359.666 170.857 357.664 169.859C355.685 168.86 353.969 167.529 352.515 165.889C351.061 164.249 349.941 162.347 349.13 160.207C348.32 158.068 347.938 155.857 347.938 153.598C347.938 151.197 348.32 148.891 349.106 146.681C349.893 144.47 350.99 142.544 352.42 140.904C353.85 139.263 355.566 137.956 357.545 136.958C359.523 135.983 361.74 135.484 364.147 135.484C367.127 135.484 369.725 136.221 371.918 137.718C374.111 139.216 375.97 141.094 377.544 143.352V136.078H381.62V171C381.62 173.401 381.143 175.54 380.237 177.371C379.308 179.225 378.092 180.77 376.566 182.007C375.017 183.243 373.205 184.194 371.108 184.812C369.01 185.43 366.793 185.739 364.481 185.739C360.5 185.739 357.282 185.026 354.851 183.599C352.396 182.173 350.417 180.247 348.892 177.846L351.705 175.636C353.087 177.87 354.899 179.511 357.187 180.557C359.452 181.603 361.883 182.125 364.481 182.125C366.174 182.125 367.794 181.888 369.344 181.436C370.869 180.961 372.228 180.271 373.372 179.368C374.493 178.465 375.422 177.3 376.066 175.897C376.733 174.494 377.067 172.854 377.067 170.976V164.106C375.684 166.34 373.849 168.1 371.537 169.383C369.225 170.715 366.817 171.357 364.267 171.357ZM365.53 167.553C366.865 167.553 368.2 167.315 369.487 166.816C370.798 166.317 371.966 165.675 372.991 164.843C374.04 164.011 374.922 163.107 375.637 162.085C376.352 161.063 376.805 160.017 377.043 158.947V148.202C376.543 146.942 375.875 145.801 374.993 144.731C374.111 143.661 373.158 142.758 372.085 141.997C371.012 141.237 369.868 140.642 368.629 140.191C367.413 139.739 366.174 139.525 364.934 139.525C362.956 139.525 361.239 139.929 359.714 140.761C358.188 141.593 356.901 142.663 355.828 143.994C354.756 145.325 353.945 146.847 353.397 148.535C352.849 150.223 352.563 151.934 352.563 153.67C352.563 155.548 352.897 157.331 353.564 159.019C354.231 160.706 355.137 162.18 356.305 163.464C357.473 164.724 358.832 165.746 360.429 166.483C362.002 167.173 363.695 167.553 365.53 167.553Z" fill="#088D7B"/>
<path d="M408.793 140.096C405.718 140.191 403.049 141.023 400.76 142.639C398.472 144.232 396.875 146.443 395.945 149.248V170.881H391.393V136.102H395.683V144.446C396.875 141.997 398.472 139.977 400.427 138.336C402.381 136.72 404.503 135.888 406.791 135.888C407.196 135.888 407.578 135.888 407.935 135.888C408.293 135.888 408.579 135.912 408.793 135.959V140.096Z" fill="#088D7B"/>
<path d="M428.34 171.547C425.813 171.547 423.477 171.071 421.356 170.12C419.234 169.169 417.399 167.862 415.873 166.222C414.324 164.581 413.132 162.656 412.298 160.469C411.464 158.282 411.011 155.999 411.011 153.598C411.011 151.15 411.464 148.844 412.322 146.657C413.18 144.47 414.396 142.568 415.945 140.904C417.471 139.263 419.306 137.956 421.427 136.958C423.549 135.983 425.861 135.484 428.364 135.484C430.867 135.484 433.179 135.983 435.3 136.958C437.422 137.932 439.257 139.24 440.783 140.904C442.332 142.544 443.524 144.47 444.406 146.657C445.288 148.844 445.717 151.15 445.717 153.598C445.717 155.999 445.288 158.305 444.406 160.469C443.524 162.656 442.332 164.558 440.783 166.222C439.257 167.862 437.422 169.169 435.3 170.12C433.155 171.071 430.843 171.547 428.34 171.547ZM415.683 153.646C415.683 155.595 416.016 157.426 416.66 159.09C417.304 160.754 418.209 162.228 419.33 163.488C420.474 164.771 421.809 165.746 423.334 166.459C424.884 167.173 426.505 167.529 428.245 167.529C429.985 167.529 431.63 167.149 433.155 166.436C434.704 165.699 436.039 164.7 437.207 163.416C438.375 162.157 439.281 160.659 439.949 158.971C440.616 157.283 440.95 155.453 440.95 153.503C440.95 151.578 440.616 149.771 439.949 148.059C439.281 146.348 438.375 144.85 437.207 143.59C436.039 142.33 434.704 141.308 433.179 140.595C431.677 139.858 430.032 139.501 428.292 139.501C426.552 139.501 424.908 139.858 423.382 140.595C421.833 141.332 420.498 142.33 419.354 143.638C418.209 144.921 417.304 146.419 416.636 148.154C416.016 149.866 415.683 151.697 415.683 153.646Z" fill="#088D7B"/>
<path d="M463.88 171.547C460.209 171.547 457.444 170.287 455.561 167.767C453.701 165.247 452.748 161.515 452.748 156.522V136.102H457.301V155.738C457.301 163.607 459.994 167.553 465.405 167.553C466.74 167.553 468.051 167.339 469.362 166.887C470.673 166.436 471.841 165.794 472.962 164.938C474.058 164.106 475.035 163.084 475.893 161.943C476.775 160.778 477.467 159.47 477.991 157.996V136.102H482.544V165.009C482.544 166.245 483.092 166.887 484.213 166.887V170.881C483.307 171 482.687 171.071 482.329 171.071C481.304 171.071 480.422 170.762 479.684 170.144C478.945 169.526 478.587 168.742 478.587 167.814V163.012C477.038 165.722 474.964 167.838 472.366 169.312C469.791 170.81 466.979 171.547 463.88 171.547Z" fill="#088D7B"/>
<path d="M510.743 171.547C507.811 171.547 505.189 170.81 502.9 169.312C500.612 167.814 498.801 165.936 497.418 163.678V185.121H492.865V136.102H496.941V142.853C498.371 140.666 500.231 138.907 502.495 137.552C504.784 136.197 507.239 135.507 509.932 135.507C512.34 135.507 514.557 136.007 516.583 137.005C518.609 138.004 520.349 139.335 521.851 140.999C523.329 142.663 524.473 144.589 525.307 146.776C526.141 148.963 526.547 151.197 526.547 153.527C526.547 155.976 526.165 158.282 525.402 160.469C524.64 162.656 523.567 164.558 522.161 166.222C520.754 167.862 519.086 169.169 517.155 170.12C515.2 171.071 513.079 171.547 510.743 171.547ZM509.479 167.553C511.363 167.553 513.055 167.149 514.557 166.341C516.082 165.556 517.369 164.486 518.466 163.179C519.562 161.871 520.397 160.374 520.969 158.71C521.541 157.045 521.851 155.31 521.851 153.527C521.851 151.649 521.517 149.866 520.85 148.178C520.182 146.49 519.276 144.993 518.108 143.709C516.94 142.425 515.582 141.403 513.985 140.642C512.411 139.882 510.695 139.501 508.86 139.501C507.692 139.501 506.5 139.739 505.236 140.191C503.973 140.666 502.805 141.284 501.685 142.069C500.564 142.853 499.611 143.757 498.848 144.803C498.062 145.849 497.585 146.942 497.394 148.107V158.805C497.942 160.041 498.61 161.206 499.444 162.275C500.278 163.345 501.208 164.272 502.257 165.057C503.306 165.841 504.45 166.459 505.666 166.887C506.929 167.315 508.192 167.553 509.479 167.553Z" fill="#088D7B"/>
<path d="M68 33V217H252.496V33H68ZM166.446 172.712H165.588L147.829 154.882C127.425 153.361 111.335 136.435 111.335 115.681C111.335 93.953 128.998 76.3375 150.785 76.3375L164.3 89.9116H166.47C189.353 89.9116 207.993 108.478 207.993 131.324C207.969 154.145 189.353 172.712 166.446 172.712Z" fill="#088D7B"/>
<path d="M166.445 94.0243H150.665C138.747 94.0243 129.069 103.7 129.069 115.562C129.069 127.425 138.723 137.076 150.618 137.1H166.35C169.592 137.1 172.238 134.461 172.261 131.228C172.238 128.067 169.616 125.499 166.445 125.499H150.546C144.992 125.499 140.487 120.982 140.487 115.467C140.487 109.881 144.945 105.435 150.451 105.435H166.231C180.437 105.459 191.974 116.989 191.974 131.11C191.974 145.278 180.437 156.784 166.231 156.784H155.528L167.303 168.599C187.517 168.147 203.845 151.602 203.845 131.324C203.845 110.76 187.064 94.0243 166.445 94.0243Z" fill="#088D7B"/>
</g>
<defs>
<clipPath id="clip0_4285_2">
<rect width="459" height="184" fill="white" transform="translate(68 33)"/>
</clipPath>
</defs>
</svg>
