<svg width="594" height="250" viewBox="0 0 594 250" fill="none" xmlns="http://www.w3.org/2000/svg">
<rect x="0.5" y="0.5" width="593" height="249" stroke="white"/>
<g clip-path="url(#clip0_4276_530)">
<mask id="mask0_4276_530" style="mask-type:luminance" maskUnits="userSpaceOnUse" x="19" y="52" width="557" height="145">
<path d="M576 52H19V196.64H576V52Z" fill="white"/>
</mask>
<g mask="url(#mask0_4276_530)">
<path d="M146.511 124.32C146.511 118.628 151.122 114.014 156.812 114.014C162.502 114.014 167.114 118.628 167.114 124.32C167.114 130.012 162.502 134.626 156.812 134.626C151.122 134.626 146.511 130.012 146.511 124.32Z" fill="#26C026"/>
<path d="M125.849 103.649C125.849 97.9567 130.46 93.343 136.15 93.343C141.84 93.343 146.452 97.9567 146.452 103.649C146.452 109.341 141.84 113.955 136.15 113.955C130.46 113.955 125.849 109.341 125.849 103.649Z" fill="#26C026"/>
<path d="M105.186 82.9773C105.186 77.2851 109.797 72.6715 115.487 72.6715C121.177 72.6715 125.789 77.2851 125.789 82.9773C125.789 88.6694 121.177 93.2831 115.487 93.2831C109.797 93.343 105.186 88.6694 105.186 82.9773Z" fill="#26C026"/>
<path d="M84.5225 62.3058C84.5225 56.6136 89.1342 52 94.824 52C100.514 52 105.125 56.6136 105.125 62.3058C105.125 67.9979 100.514 72.6116 94.824 72.6116C89.1941 72.6715 84.5225 68.0579 84.5225 62.3058Z" fill="#26C026"/>
<path d="M105.185 186.275C105.185 180.583 100.573 175.969 94.8835 175.969C89.1937 175.969 84.582 180.583 84.582 186.275C84.582 191.967 89.1937 196.581 94.8835 196.581C100.573 196.64 105.185 192.027 105.185 186.275Z" fill="#26C026"/>
<path d="M125.848 165.663C125.848 159.971 121.236 155.357 115.547 155.357C109.857 155.357 105.245 159.971 105.245 165.663C105.245 171.355 109.857 175.969 115.547 175.969C121.236 175.969 125.848 171.355 125.848 165.663Z" fill="#26C026"/>
<path d="M146.511 144.992C146.511 139.3 141.899 134.686 136.21 134.686C130.52 134.686 125.908 139.3 125.908 144.992C125.908 150.684 130.52 155.297 136.21 155.297C141.899 155.297 146.511 150.684 146.511 144.992Z" fill="#26C026"/>
<path d="M112.312 124.32C112.312 119.707 116.026 115.992 120.638 115.992C125.249 115.992 128.963 119.707 128.963 124.32C128.963 128.934 125.249 132.649 120.638 132.649C116.086 132.649 112.312 128.934 112.312 124.32Z" fill="#26C026"/>
<path d="M91.709 103.649C91.709 99.0349 95.4223 95.3201 100.034 95.3201C104.646 95.3201 108.359 99.0349 108.359 103.649C108.359 108.262 104.646 111.977 100.034 111.977C95.4223 111.977 91.709 108.262 91.709 103.649Z" fill="#26C026"/>
<path d="M71.0469 82.9772C71.0469 78.3636 74.7602 74.6487 79.3717 74.6487C83.9834 74.6487 87.6967 78.3636 87.6967 82.9772C87.6967 87.5908 83.9834 91.3057 79.3717 91.3057C74.7602 91.3656 71.0469 87.5908 71.0469 82.9772Z" fill="#26C026"/>
<path d="M50.3838 62.3057C50.3838 57.6921 54.0971 53.9772 58.7088 53.9772C63.3206 53.9772 67.0339 57.6921 67.0339 62.3057C67.0339 66.9193 63.3206 70.6342 58.7088 70.6342C54.0971 70.6342 50.3838 66.9193 50.3838 62.3057Z" fill="#26C026"/>
<path d="M67.0935 185.556C67.0935 180.942 63.3801 177.227 58.7684 177.227C54.1567 177.227 50.4434 180.942 50.4434 185.556C50.4434 190.169 54.1567 193.884 58.7684 193.884C63.3202 193.884 67.0935 190.169 67.0935 185.556Z" fill="#26C026"/>
<path d="M87.7566 165.663C87.7566 161.05 84.0432 157.335 79.4315 157.335C74.8198 157.335 71.1064 161.05 71.1064 165.663C71.1064 170.277 74.8198 173.992 79.4315 173.992C83.9833 173.992 87.7566 170.277 87.7566 165.663Z" fill="#26C026"/>
<path d="M108.359 144.992C108.359 140.378 104.646 136.663 100.034 136.663C95.4223 136.663 91.709 140.378 91.709 144.992C91.709 149.605 95.4223 153.32 100.034 153.32C104.646 153.32 108.359 149.605 108.359 144.992Z" fill="#26C026"/>
<path d="M80.9287 124.32C80.9287 121.264 83.4442 118.748 86.4987 118.748C89.5532 118.748 92.0687 121.264 92.0687 124.32C92.0687 127.376 89.5532 129.893 86.4987 129.893C83.4442 129.893 80.9287 127.376 80.9287 124.32Z" fill="#26C026"/>
<path d="M60.3262 103.649C60.3262 100.593 62.8417 98.0767 65.8962 98.0767C68.9507 98.0767 71.4662 100.593 71.4662 103.649C71.4662 106.705 68.9507 109.221 65.8962 109.221C62.8417 109.221 60.3262 106.705 60.3262 103.649Z" fill="#26C026"/>
<path d="M39.6631 82.9775C39.6631 79.9217 42.1786 77.4052 45.2331 77.4052C48.2876 77.4052 50.8031 79.9217 50.8031 82.9775C50.8031 86.0333 48.2876 88.5498 45.2331 88.5498C42.1786 88.5498 39.6631 86.0932 39.6631 82.9775Z" fill="#26C026"/>
<path d="M19 62.3057C19 59.2499 21.5155 56.7933 24.57 56.7933C27.6245 56.7933 30.14 59.3099 30.14 62.3656C30.14 65.4214 27.6245 67.938 24.57 67.938C21.5155 67.938 19 65.4214 19 62.3057Z" fill="#26C026"/>
<path d="M30.14 185.556C30.14 182.5 27.6245 179.984 24.57 179.984C21.5155 179.984 19 182.5 19 185.556C19 188.612 21.5155 191.128 24.57 191.128C27.6245 191.128 30.14 188.612 30.14 185.556Z" fill="#26C026"/>
<path d="M50.8031 165.663C50.8031 162.607 48.2876 160.091 45.2331 160.091C42.1786 160.091 39.6631 162.607 39.6631 165.663C39.6631 168.719 42.1786 171.236 45.2331 171.236C48.2876 171.236 50.8031 168.719 50.8031 165.663Z" fill="#26C026"/>
<path d="M71.4066 144.992C71.4066 141.936 68.8911 139.419 65.8366 139.419C62.7821 139.419 60.2666 141.936 60.2666 144.992C60.2666 148.048 62.7821 150.564 65.8366 150.564C68.951 150.564 71.4066 148.048 71.4066 144.992Z" fill="#26C026"/>
<path d="M222.335 140.079H236.589V125.878H222.335C214.489 125.878 208.14 119.527 208.14 111.618V68.9565H193.886V111.618C193.886 127.316 206.643 140.079 222.335 140.079Z" fill="#09080F"/>
<path d="M330.74 111.618C330.74 103.769 337.089 97.4173 344.935 97.4173V83.157C329.243 83.157 316.486 95.9194 316.486 111.618C316.486 119.467 310.077 125.878 302.231 125.878V140.078C317.983 140.078 330.74 127.316 330.74 111.618Z" fill="#09080F"/>
<path d="M269.411 83.157C253.719 83.157 240.962 95.9194 240.962 111.618C240.962 127.316 253.719 140.078 269.411 140.078C274.621 140.078 279.473 138.7 283.665 136.244V140.078H297.86V111.618C297.86 95.9194 285.163 83.157 269.411 83.157ZM269.411 125.878C261.565 125.878 255.216 119.527 255.216 111.618C255.216 103.769 261.565 97.4173 269.411 97.4173C277.257 97.4173 283.665 103.769 283.665 111.618C283.665 119.467 277.257 125.878 269.411 125.878Z" fill="#09080F"/>
<path d="M387.878 121.684C385.303 124.26 381.769 125.878 377.816 125.878C369.97 125.878 363.562 119.527 363.562 111.618C363.562 103.768 369.97 97.4171 377.816 97.4171C381.769 97.4171 385.303 99.0349 387.878 101.611L397.94 91.5452C392.789 86.3923 385.662 83.2167 377.816 83.2167C362.124 83.2167 349.367 95.9791 349.367 111.677C349.367 127.376 362.124 140.138 377.816 140.138C385.662 140.138 392.789 136.963 397.94 131.81L387.878 121.684Z" fill="#09080F"/>
<path d="M506.345 111.618C506.345 119.467 499.997 125.878 492.151 125.878C484.305 125.878 477.956 119.527 477.956 111.618V83.157H463.762V111.618C463.762 127.316 476.519 140.078 492.211 140.078C497.421 140.078 502.273 138.7 506.405 136.244V140.078H520.66V111.618V83.157H506.405V111.618H506.345Z" fill="#09080F"/>
<path d="M576 97.4173V83.157C564.86 83.157 555.218 89.5681 550.546 98.8553C545.874 89.5681 536.232 83.157 525.092 83.157V97.3574C532.938 97.3574 539.346 103.709 539.346 111.558C539.346 119.407 532.998 125.818 525.092 125.818V140.078C536.232 140.078 545.874 133.667 550.546 124.38C555.218 133.727 564.86 140.078 576 140.078V125.818C568.154 125.818 561.746 119.467 561.746 111.558C561.746 103.769 568.154 97.4173 576 97.4173Z" fill="#09080F"/>
<path d="M445.015 140.078H459.209V111.618C459.209 95.9194 446.452 83.157 430.76 83.157C415.069 83.157 402.312 95.9194 402.312 111.618C402.312 127.316 415.069 140.078 430.76 140.078C435.971 140.078 440.822 138.7 444.955 136.244V140.078H445.015ZM430.82 125.878C422.974 125.878 416.626 119.527 416.626 111.618C416.626 103.769 422.974 97.4173 430.82 97.4173C438.666 97.4173 445.015 103.769 445.015 111.618C445.015 119.467 438.666 125.878 430.82 125.878Z" fill="#09080F"/>
<path d="M210.476 161.409C209.697 160.57 208.739 159.911 207.601 159.492C206.463 159.072 205.205 158.833 203.888 158.833H196.102V179.504H203.888C205.265 179.504 206.523 179.264 207.601 178.845C208.739 178.426 209.697 177.767 210.476 176.928C211.254 176.089 211.853 175.01 212.332 173.692C212.752 172.434 212.991 170.876 212.991 169.198C212.991 167.521 212.752 165.963 212.332 164.705C211.853 163.326 211.254 162.248 210.476 161.409ZM203.828 175.31H200.653V162.907H203.828C205.145 162.907 206.163 163.267 206.882 163.986C207.601 164.705 208.02 165.903 208.02 167.521V170.696C208.02 172.314 207.661 173.512 206.882 174.231C206.163 174.95 205.145 175.31 203.828 175.31Z" fill="#09080F"/>
<path d="M215.866 162.488H218.501V175.729H215.866V179.444H225.808V175.729H223.173V162.488H225.808V158.773H215.866V162.488Z" fill="#09080F"/>
<path d="M238.206 171.775H242.039V172.733C242.039 173.213 241.919 173.632 241.74 173.992C241.56 174.351 241.261 174.651 240.901 174.89C240.542 175.13 240.123 175.37 239.644 175.49C239.164 175.609 238.625 175.669 238.086 175.669C236.709 175.669 235.631 175.25 234.852 174.471C234.074 173.692 233.654 172.434 233.654 170.756V167.461C233.654 165.783 234.074 164.525 234.852 163.746C235.631 162.967 236.769 162.548 238.086 162.548C239.284 162.548 240.183 162.847 240.841 163.386C241.5 163.926 241.979 164.585 242.279 165.364L242.339 165.483L246.052 163.326L246.112 163.267L246.052 163.207C245.273 161.589 244.195 160.39 242.878 159.612C241.56 158.833 239.943 158.413 238.086 158.413C236.709 158.413 235.391 158.653 234.253 159.132C233.115 159.612 232.097 160.331 231.319 161.229C230.48 162.128 229.881 163.267 229.402 164.585C228.923 165.903 228.743 167.461 228.743 169.198C228.743 170.936 228.983 172.434 229.402 173.752C229.821 175.07 230.42 176.209 231.199 177.048C231.977 177.946 232.876 178.605 233.894 179.085C234.912 179.564 236.05 179.744 237.248 179.744C238.805 179.744 240.063 179.384 240.961 178.725C241.86 178.066 242.399 177.227 242.578 176.209V179.384H246.531V167.82H238.206V171.775Z" fill="#09080F"/>
<path d="M250.005 162.488H252.64V175.729H250.005V179.444H259.947V175.729H257.312V162.488H259.947V158.773H250.005V162.488Z" fill="#09080F"/>
<path d="M277.795 158.773H262.104V162.907H267.614V179.444H272.285V162.907H277.795V158.773Z" fill="#09080F"/>
<path d="M289.713 158.773H284.084L277.316 179.324L277.256 179.444H281.987L283.485 174.591H290.193L291.69 179.444H296.541L289.713 158.773ZM286.719 163.027L288.995 170.636H284.503L286.719 163.027Z" fill="#09080F"/>
<path d="M303.849 158.773H299.237V179.444H311.695V175.31H303.849V158.773Z" fill="#09080F"/>
<path d="M322.116 179.444H336.251V175.31H326.728V171.056H334.873V166.921H326.728V162.907H336.251V158.773H322.116V179.444Z" fill="#09080F"/>
<path d="M349.067 168.719L347.57 174.95L346.013 168.659L342.958 158.833L342.898 158.773H338.227L344.875 179.384V179.444H350.025L356.733 158.773H352.182L349.067 168.719Z" fill="#09080F"/>
<path d="M373.384 161.169C372.606 160.271 371.647 159.612 370.509 159.132C369.371 158.653 368.114 158.473 366.796 158.473C365.419 158.473 364.161 158.713 363.083 159.132C361.945 159.612 360.986 160.271 360.208 161.169C359.429 162.068 358.83 163.207 358.351 164.525C357.932 165.843 357.692 167.401 357.692 169.138C357.692 170.876 357.932 172.434 358.351 173.752C358.77 175.07 359.429 176.209 360.208 177.107C360.986 178.006 361.945 178.665 363.083 179.145C364.221 179.624 365.478 179.804 366.796 179.804C368.174 179.804 369.431 179.564 370.509 179.145C371.647 178.665 372.606 178.006 373.384 177.107C374.163 176.209 374.762 175.07 375.241 173.752C375.66 172.434 375.9 170.876 375.9 169.138C375.9 167.401 375.66 165.843 375.241 164.525C374.762 163.207 374.163 162.068 373.384 161.169ZM366.736 175.669C365.418 175.669 364.4 175.25 363.622 174.351C362.903 173.512 362.484 172.254 362.484 170.636V167.581C362.484 165.963 362.843 164.705 363.622 163.866C364.34 163.027 365.418 162.548 366.736 162.548C368.054 162.548 369.072 162.967 369.851 163.866C370.569 164.705 370.989 165.963 370.989 167.581V170.636C370.989 172.254 370.629 173.512 369.851 174.351C369.132 175.25 368.054 175.669 366.736 175.669Z" fill="#09080F"/>
<path d="M384.224 158.773H379.553V179.444H392.01V175.31H384.224V158.773Z" fill="#09080F"/>
<path d="M405.965 171.415C405.965 172.853 405.666 173.932 405.127 174.591C404.588 175.31 403.63 175.609 402.372 175.609C401.054 175.609 400.156 175.25 399.557 174.591C399.018 173.872 398.718 172.793 398.718 171.415V158.773H394.227V170.936C394.227 172.434 394.346 173.752 394.646 174.89C394.945 176.029 395.424 176.928 396.083 177.647C396.742 178.366 397.581 178.905 398.599 179.264C399.617 179.624 400.875 179.804 402.372 179.804C403.869 179.804 405.127 179.624 406.145 179.264C407.163 178.905 408.002 178.366 408.661 177.647C409.319 176.928 409.799 175.969 410.098 174.89C410.398 173.812 410.517 172.434 410.517 170.936V158.773H406.025V171.415H405.965Z" fill="#09080F"/>
<path d="M413.392 162.907H418.962V179.444H423.573V162.907H429.143V158.773H413.392V162.907Z" fill="#09080F"/>
<path d="M431.3 162.488H433.935V175.729H431.3V179.444H441.242V175.729H438.547V162.488H441.242V158.773H431.3V162.488Z" fill="#09080F"/>
<path d="M459.869 161.169C459.09 160.271 458.132 159.612 456.994 159.132C455.856 158.653 454.598 158.473 453.28 158.473C451.903 158.473 450.645 158.713 449.567 159.132C448.429 159.612 447.471 160.271 446.692 161.169C445.914 162.068 445.315 163.207 444.836 164.525C444.416 165.843 444.177 167.401 444.177 169.138C444.177 170.876 444.416 172.434 444.836 173.752C445.255 175.07 445.914 176.209 446.692 177.107C447.471 178.006 448.429 178.665 449.567 179.145C450.705 179.624 451.963 179.804 453.28 179.804C454.658 179.804 455.916 179.564 456.994 179.145C458.132 178.665 459.09 178.006 459.869 177.107C460.647 176.209 461.246 175.07 461.725 173.752C462.144 172.434 462.384 170.876 462.384 169.138C462.384 167.401 462.144 165.843 461.725 164.525C461.246 163.147 460.647 162.068 459.869 161.169ZM453.221 175.669C451.903 175.669 450.885 175.25 450.106 174.351C449.387 173.512 448.968 172.254 448.968 170.636V167.581C448.968 165.963 449.327 164.705 450.106 163.866C450.825 163.027 451.903 162.548 453.221 162.548C454.538 162.548 455.556 162.967 456.335 163.866C457.054 164.705 457.473 165.963 457.473 167.581V170.636C457.473 172.254 457.114 173.512 456.335 174.351C455.616 175.25 454.538 175.669 453.221 175.669Z" fill="#09080F"/>
<path d="M478.615 172.494L476.698 168.539L471.068 158.833V158.773H466.037V179.444H470.409V165.783L472.326 169.738L477.956 179.444H482.987V158.773H478.615V172.494Z" fill="#09080F"/>
</g>
</g>
<defs>
<clipPath id="clip0_4276_530">
<rect width="557" height="145" fill="white" transform="translate(19 52)"/>
</clipPath>
</defs>
</svg>
