<svg width="594" height="250" viewBox="0 0 594 250" fill="none" xmlns="http://www.w3.org/2000/svg">
<rect x="0.5" y="0.5" width="593" height="249" stroke="white"/>
<g clip-path="url(#clip0_4276_84)">
<mask id="mask0_4276_84" style="mask-type:luminance" maskUnits="userSpaceOnUse" x="117" y="36" width="361" height="179">
<path d="M478 36H117V214.778H478V36Z" fill="white"/>
</mask>
<g mask="url(#mask0_4276_84)">
<path d="M144.576 196.457V195.501C142.507 194.771 140.546 194.489 138.477 194.489C134.72 194.489 132.76 196.063 132.76 198.65C132.76 201.01 134.393 202.808 137.769 202.808C141.907 202.808 144.576 199.886 144.576 196.457ZM126.552 198.873C126.552 193.815 129.982 189.88 138.042 189.88C140.601 189.88 143.106 190.386 144.576 190.836V188.137C144.576 185.439 142.942 183.191 139.022 183.191C135.591 183.191 133.794 185.158 133.739 187.519H127.858C127.858 182.01 132.051 177.907 139.131 177.907C146.536 177.907 150.729 182.347 150.729 188.081V207.418H145.284L144.848 203.988H144.63C142.997 206.462 140.111 207.923 136.353 207.923C130.145 207.923 126.552 203.988 126.552 198.873Z" fill="#00558C"/>
<path d="M156.773 197.749H163.138C163.138 200.617 165.372 202.415 169.002 202.415C172.631 202.415 174.53 201.179 174.53 199.155C174.53 197.524 173.358 196.4 170.733 195.838L165.652 194.882C160.961 193.927 157.667 191.285 157.667 186.338C157.667 181.56 161.798 177.907 168.779 177.907C175.702 177.907 180.281 181.786 180.281 187.406H174.027C173.916 184.764 171.962 183.078 168.667 183.078C165.819 183.078 163.864 184.258 163.864 186.395C163.864 188.137 165.26 189.148 167.662 189.542L172.576 190.498C177.601 191.566 180.951 193.646 180.951 199.155C180.951 204.775 175.702 207.923 169.002 207.923C161.24 207.923 156.941 203.876 156.773 197.749Z" fill="#00558C"/>
<path d="M188.204 197.749H194.57C194.57 200.617 196.804 202.415 200.433 202.415C204.062 202.415 205.961 201.179 205.961 199.155C205.961 197.524 204.789 196.4 202.164 195.838L197.082 194.882C192.392 193.927 189.097 191.285 189.097 186.338C189.097 181.56 193.23 177.907 200.21 177.907C207.133 177.907 211.713 181.786 211.713 187.406H205.458C205.347 184.764 203.393 183.078 200.098 183.078C197.25 183.078 195.296 184.258 195.296 186.395C195.296 188.137 196.692 189.148 199.093 189.542L204.007 190.498C209.032 191.566 212.382 193.646 212.382 199.155C212.382 204.775 207.133 207.923 200.433 207.923C192.671 207.923 188.371 203.876 188.204 197.749Z" fill="#00558C"/>
<mask id="mask1_4276_84" style="mask-type:luminance" maskUnits="userSpaceOnUse" x="95" y="18" width="404" height="218">
<path d="M95.1211 235.537H498.884V18.221H95.1211V235.537Z" fill="white"/>
</mask>
<g mask="url(#mask1_4276_84)">
<path d="M219.665 207.192H227.085V175.812H219.665V207.192ZM218.625 166.629C218.625 163.953 220.252 162.311 223.376 162.311C226.434 162.311 228.125 163.953 228.125 166.629C228.125 169.306 226.434 171.008 223.376 171.008C220.252 171.008 218.625 169.306 218.625 166.629Z" fill="#00558C"/>
</g>
<mask id="mask2_4276_84" style="mask-type:luminance" maskUnits="userSpaceOnUse" x="95" y="18" width="404" height="218">
<path d="M95.1211 235.537H498.884V18.221H95.1211V235.537Z" fill="white"/>
</mask>
<g mask="url(#mask2_4276_84)">
<path d="M232.876 191.838C232.876 182.695 238.053 176.484 247.675 176.484C256.505 176.484 260.891 181.429 261.317 187.813H254.374C254.07 184.477 251.573 182.292 247.675 182.292C242.315 182.292 239.941 186.087 239.941 191.838C239.941 197.704 242.315 201.442 247.675 201.442C251.634 201.442 254.07 199.314 254.436 195.922H261.377C260.831 202.477 256.445 207.192 247.858 207.192C238.175 207.192 232.876 201.039 232.876 191.838Z" fill="#00558C"/>
</g>
<mask id="mask3_4276_84" style="mask-type:luminance" maskUnits="userSpaceOnUse" x="95" y="18" width="404" height="218">
<path d="M95.1211 235.537H498.884V18.221H95.1211V235.537Z" fill="white"/>
</mask>
<g mask="url(#mask3_4276_84)">
<path d="M292.253 176.484V195.237C292.253 201.976 287.723 207.192 279.19 207.192C270.717 207.192 266.127 201.976 266.127 195.237V176.484H272.835V194.183C272.835 198.403 274.659 201.04 279.19 201.04C283.721 201.04 285.545 198.403 285.545 194.183V176.484H292.253Z" fill="#00558C"/>
</g>
<mask id="mask4_4276_84" style="mask-type:luminance" maskUnits="userSpaceOnUse" x="95" y="18" width="404" height="218">
<path d="M95.1211 235.537H498.884V18.221H95.1211V235.537Z" fill="white"/>
</mask>
<g mask="url(#mask4_4276_84)">
<path d="M299.378 176.895H304.96L305.54 181.71H305.773C306.994 178.599 309.783 176.484 313.562 176.484H316.003V182.708H313.445C308.388 182.708 305.773 186.231 305.773 192.396V207.192H299.378V176.895Z" fill="#00558C"/>
</g>
<mask id="mask5_4276_84" style="mask-type:luminance" maskUnits="userSpaceOnUse" x="95" y="18" width="404" height="218">
<path d="M95.1211 235.537H498.884V18.221H95.1211V235.537Z" fill="white"/>
</mask>
<g mask="url(#mask5_4276_84)">
<path d="M337.855 195.462V194.484C335.619 193.737 333.5 193.449 331.265 193.449C327.204 193.449 325.086 195.058 325.086 197.705C325.086 200.12 326.852 201.959 330.5 201.959C334.971 201.959 337.855 198.97 337.855 195.462ZM318.378 197.934C318.378 192.758 322.085 188.733 330.795 188.733C333.559 188.733 336.266 189.251 337.855 189.711V186.95C337.855 184.19 336.089 181.89 331.853 181.89C328.146 181.89 326.205 183.902 326.145 186.318H319.79C319.79 180.682 324.321 176.484 331.97 176.484C339.973 176.484 344.504 181.027 344.504 186.893V206.675H338.619L338.148 203.166H337.913C336.148 205.697 333.03 207.192 328.969 207.192C322.262 207.192 318.378 203.166 318.378 197.934Z" fill="#00558C"/>
</g>
<mask id="mask6_4276_84" style="mask-type:luminance" maskUnits="userSpaceOnUse" x="95" y="18" width="404" height="218">
<path d="M95.1211 235.537H498.884V18.221H95.1211V235.537Z" fill="white"/>
</mask>
<g mask="url(#mask6_4276_84)">
<path d="M351.629 201.539L367.27 182.494V182.258H351.686V176.484H375.264V182.197L359.681 201.182V201.42H375.38V207.192H351.629V201.539Z" fill="#00558C"/>
</g>
<mask id="mask7_4276_84" style="mask-type:luminance" maskUnits="userSpaceOnUse" x="95" y="18" width="404" height="218">
<path d="M95.1211 235.537H498.884V18.221H95.1211V235.537Z" fill="white"/>
</mask>
<g mask="url(#mask7_4276_84)">
<path d="M381.172 207.192H388.589V175.812H381.172V207.192ZM380.13 166.629C380.13 163.953 381.757 162.311 384.88 162.311C387.938 162.311 389.63 163.953 389.63 166.629C389.63 169.306 387.938 171.008 384.88 171.008C381.757 171.008 380.13 169.306 380.13 166.629Z" fill="#00558C"/>
</g>
<mask id="mask8_4276_84" style="mask-type:luminance" maskUnits="userSpaceOnUse" x="95" y="18" width="404" height="218">
<path d="M95.1211 235.537H498.884V18.221H95.1211V235.537Z" fill="white"/>
</mask>
<g mask="url(#mask8_4276_84)">
<path d="M418.482 191.838C418.482 185.916 416.087 182.292 411.006 182.292C405.925 182.292 403.531 185.973 403.531 191.838C403.531 197.819 405.985 201.385 411.006 201.385C416.087 201.385 418.482 197.819 418.482 191.838ZM396.756 191.838C396.756 183.154 401.546 176.484 411.006 176.484C420.468 176.484 425.257 183.154 425.257 191.838C425.257 200.522 420.584 207.192 411.006 207.192C401.428 207.192 396.756 200.579 396.756 191.838Z" fill="#00558C"/>
</g>
<mask id="mask9_4276_84" style="mask-type:luminance" maskUnits="userSpaceOnUse" x="95" y="18" width="404" height="218">
<path d="M95.1211 235.537H498.884V18.221H95.1211V235.537Z" fill="white"/>
</mask>
<g mask="url(#mask9_4276_84)">
<path d="M430.007 177.01H435.858L436.379 180.93H436.611C438.232 178.356 441.071 176.484 445.358 176.484C452.02 176.484 456.133 180.637 456.133 187.48V207.192H449.529V189.118C449.529 184.906 447.617 182.509 443.445 182.509C439.276 182.509 436.611 185.492 436.611 190.522V207.192H430.007V177.01Z" fill="#00558C"/>
</g>
<mask id="mask10_4276_84" style="mask-type:luminance" maskUnits="userSpaceOnUse" x="95" y="18" width="404" height="218">
<path d="M95.1211 235.537H498.884V18.221H95.1211V235.537Z" fill="white"/>
</mask>
<g mask="url(#mask10_4276_84)">
<path d="M461.925 207.192H469.342V175.812H461.925V207.192ZM460.883 166.629C460.883 163.953 462.51 162.311 465.633 162.311C468.692 162.311 470.383 163.953 470.383 166.629C470.383 169.306 468.692 171.008 465.633 171.008C462.51 171.008 460.883 169.306 460.883 166.629Z" fill="#00558C"/>
</g>
<mask id="mask11_4276_84" style="mask-type:luminance" maskUnits="userSpaceOnUse" x="95" y="18" width="404" height="218">
<path d="M95.1211 235.537H498.884V18.221H95.1211V235.537Z" fill="white"/>
</mask>
<g mask="url(#mask11_4276_84)">
<path d="M175.333 95.6706C180.872 100.062 184.221 105.839 185.374 113.001H170.02C168.178 106.879 162.406 102.719 155.479 102.719C133.177 102.719 133.35 139.229 155.595 139.229C162.52 139.229 168.178 135.301 169.907 129.409H185.26C182.89 143.854 170.449 152.863 155.365 152.863C136.434 152.863 123.622 138.652 123.622 120.972C123.622 103.064 136.434 89.0851 155.365 89.0851C163.097 89.0851 169.793 91.2797 175.333 95.6706Z" fill="#00558C"/>
</g>
<mask id="mask12_4276_84" style="mask-type:luminance" maskUnits="userSpaceOnUse" x="95" y="18" width="404" height="218">
<path d="M95.1211 235.537H498.884V18.221H95.1211V235.537Z" fill="white"/>
</mask>
<g mask="url(#mask12_4276_84)">
<path d="M210.667 134.145C220.665 144.216 240.945 139.231 240.945 120.975C240.945 109.817 233.017 102.721 223.372 102.721C205.783 102.721 201.01 123.708 210.667 134.145ZM223.372 89.0877C242.611 88.8596 256.979 103.301 256.62 120.975C256.62 138.767 242.728 152.863 223.372 152.863C213.635 152.863 205.681 149.858 199.385 143.85C193.213 137.728 190.124 130.103 190.124 120.975C190.124 102.955 203.66 89.0877 223.372 89.0877Z" fill="#00558C"/>
</g>
<mask id="mask13_4276_84" style="mask-type:luminance" maskUnits="userSpaceOnUse" x="95" y="18" width="404" height="218">
<path d="M95.1211 235.537H498.884V18.221H95.1211V235.537Z" fill="white"/>
</mask>
<g mask="url(#mask13_4276_84)">
<path d="M261.377 150.501V88.3034H275.818V95.8711H276.637C284.841 80.9369 316.004 83.4074 316.004 109.824V150.501H300.863V113.844C300.863 96.3847 276.518 97.157 276.518 114.908V150.501H261.377Z" fill="#00558C"/>
</g>
<mask id="mask14_4276_84" style="mask-type:luminance" maskUnits="userSpaceOnUse" x="95" y="18" width="404" height="218">
<path d="M95.1211 235.537H498.884V18.221H95.1211V235.537Z" fill="white"/>
</mask>
<g mask="url(#mask14_4276_84)">
<path d="M320.754 101.475V89.5105H327.684C330.385 89.5105 332.147 87.7671 332.147 84.8625V72.5502H346.474V89.3931H363.505V101.475H346.474V129.59C346.474 134.819 349.294 137.953 354.931 137.953H363.153V150.501H351.76C338.723 150.501 331.207 143.181 331.207 130.17V101.475H320.754Z" fill="#C8102E"/>
</g>
<mask id="mask15_4276_84" style="mask-type:luminance" maskUnits="userSpaceOnUse" x="95" y="18" width="404" height="218">
<path d="M95.1211 235.537H498.884V18.221H95.1211V235.537Z" fill="white"/>
</mask>
<g mask="url(#mask15_4276_84)">
<path d="M410.701 114.735C408.862 96.3612 380.724 96.7517 378.54 114.735H410.701ZM394.622 89.0851C414.457 89.0851 425.257 103.527 425.257 120.626V125.363H378.309C378.776 134.606 385.35 140.848 395.093 140.848C402.488 140.848 408.237 137.497 410.466 132.412H424.67C421.501 144.892 410.466 152.863 394.622 152.863C352.819 152.863 353.447 89.0851 394.622 89.0851Z" fill="#C8102E"/>
</g>
<mask id="mask16_4276_84" style="mask-type:luminance" maskUnits="userSpaceOnUse" x="95" y="18" width="404" height="218">
<path d="M95.1211 235.537H498.884V18.221H95.1211V235.537Z" fill="white"/>
</mask>
<g mask="url(#mask16_4276_84)">
<path d="M427.632 53.4772C391.862 44.2663 351.8 44.26 316.003 53.4772C316.003 53.4772 317.887 60.9017 319.047 65.4637C352.808 56.6961 390.793 56.687 424.589 65.4637C425.749 60.9017 427.632 53.4772 427.632 53.4772Z" fill="#C8102E"/>
</g>
<mask id="mask17_4276_84" style="mask-type:luminance" maskUnits="userSpaceOnUse" x="95" y="18" width="404" height="218">
<path d="M95.1211 235.537H498.884V18.221H95.1211V235.537Z" fill="white"/>
</mask>
<g mask="url(#mask17_4276_84)">
<path d="M425.257 145.776C425.257 142.928 426.895 141.052 430.04 141.052C433.054 141.052 434.757 142.928 434.757 145.776C434.757 148.624 433.054 150.501 430.04 150.501C426.895 150.501 425.257 148.624 425.257 145.776Z" fill="#00558C"/>
</g>
<mask id="mask18_4276_84" style="mask-type:luminance" maskUnits="userSpaceOnUse" x="95" y="18" width="404" height="218">
<path d="M95.1211 235.537H498.884V18.221H95.1211V235.537Z" fill="white"/>
</mask>
<g mask="url(#mask18_4276_84)">
<path d="M440.548 150.501H447.966V119.121H440.548V150.501ZM439.507 109.938C439.507 107.262 441.135 105.62 444.257 105.62C447.316 105.62 449.007 107.262 449.007 109.938C449.007 112.613 447.316 114.316 444.257 114.316C441.135 114.316 439.507 112.613 439.507 109.938Z" fill="#00558C"/>
</g>
<mask id="mask19_4276_84" style="mask-type:luminance" maskUnits="userSpaceOnUse" x="95" y="18" width="404" height="218">
<path d="M95.1211 235.537H498.884V18.221H95.1211V235.537Z" fill="white"/>
</mask>
<g mask="url(#mask19_4276_84)">
<path d="M456.337 141.402V124.539H451.383V118.655H456.629V112.043L462.399 110.344H462.981V118.655H470.267V124.539H462.981V140.188C462.981 143.161 464.205 144.435 466.886 144.435C468.11 144.435 469.043 144.253 469.8 144.01H470.383V149.833C469.451 150.137 467.527 150.501 465.254 150.501C458.843 150.501 456.337 146.801 456.337 141.402Z" fill="#00558C"/>
</g>
</g>
</g>
<defs>
<clipPath id="clip0_4276_84">
<rect width="361" height="178" fill="white" transform="translate(117 36)"/>
</clipPath>
</defs>
</svg>
