<svg width="594" height="250" viewBox="0 0 594 250" fill="none" xmlns="http://www.w3.org/2000/svg">
<rect x="0.5" y="0.5" width="593" height="249" stroke="white"/>
<path d="M361.581 91.4218C357.466 91.4218 353.519 89.7903 350.609 86.8862C347.699 83.9822 346.064 80.0434 346.064 75.9365C346.064 71.8295 347.699 67.8908 350.609 64.9867C353.519 62.0827 357.466 60.4512 361.581 60.4512C365.697 60.4512 369.643 62.0827 372.553 64.9867C375.463 67.8908 377.098 71.8295 377.098 75.9365C377.098 80.0434 375.463 83.9822 372.553 86.8862C369.643 89.7903 365.697 91.4218 361.581 91.4218ZM361.581 67.1901C359.219 67.1901 356.953 68.1267 355.283 69.7939C353.612 71.461 352.674 73.7221 352.674 76.0798C352.674 80.9548 356.696 84.9696 361.581 84.9696C366.466 84.9696 370.489 80.9548 370.489 76.0798C370.489 71.0615 366.466 67.1901 361.581 67.1901Z" fill="#112BFC"/>
<path d="M48.8041 91.4679C48.8041 76.4128 58.5739 63.6517 78.8319 63.6517C83.142 63.6517 88.0268 64.2253 93.4866 65.5157V84.5856C89.8947 83.0084 86.3027 82.0047 83.2859 82.0047C76.3894 82.0047 72.9413 85.876 72.9413 92.615V96.9165H91.9061V113.549H73.0848V185.527H48.8041V113.692H33V96.9165H48.8041V91.4679ZM214.029 144.663C214.029 159.144 220.35 166.6 232.275 166.6C242.907 166.6 250.665 159.431 250.665 141.222C250.665 123.012 242.907 115.843 232.275 115.843C228.396 115.843 225.091 116.703 222.505 118.424V99.2105C226.815 97.3465 231.988 95.7694 237.16 95.7694C258.999 95.7694 275.665 107.813 275.665 140.791C275.665 171.332 259.573 186.674 235.867 186.674C226.241 186.674 218.483 182.516 214.172 176.924V185.527H189.891V66.8061H214.029V144.663ZM312.301 185.67H288.021V96.9165H311.87V112.688C317.617 100.358 327.961 94.9091 336.869 94.9091L341.036 95.3392V121.865C338.306 121.005 335.433 120.431 332.847 120.431C321.784 120.431 312.445 127.887 312.445 142.082V185.67H312.301ZM349.513 185.67V96.9165H373.793V185.527H349.513V185.67ZM467.181 152.119C464.452 175.06 449.366 186.817 427.095 186.817C401.953 186.817 385.287 171.762 385.287 141.652C385.287 111.685 402.815 95.7694 427.959 95.7694C449.653 95.7694 464.739 107.527 466.894 131.041H442.468C441.033 120.001 435.719 115.843 427.527 115.843C417.04 115.843 410.143 123.155 410.143 141.365C410.143 159.288 417.181 166.744 427.24 166.744C434.999 166.744 441.033 162.729 442.9 152.119H467.181ZM502.381 185.67H478.1V66.8061H502.381V185.67ZM528.819 136.49L561 185.67H532.985L502.526 139.644L531.26 97.0598H556.833L528.819 136.49ZM138.169 95.9128C113.888 95.9128 99.6646 108.244 99.6646 127.887H122.652C122.652 122.725 125.382 115.413 137.307 115.413C146.359 115.413 150.812 119.858 150.812 127.17V153.266C150.812 162.155 144.778 169.038 134.721 169.038C126.388 169.038 122.796 163.589 122.796 159.574C122.796 155.847 124.951 152.836 129.405 150.828L141.761 145.953V129.034L122.365 135.056C109.434 138.927 97.6532 145.523 97.6532 161.582C97.6532 176.35 109.291 186.674 125.957 186.674C140.324 186.674 147.939 179.648 150.812 175.92V185.527H175.237V125.163C175.381 105.376 161.444 95.9128 138.169 95.9128Z" fill="#112BFC"/>
</svg>
