<svg width="594" height="250" viewBox="0 0 594 250" fill="none" xmlns="http://www.w3.org/2000/svg">
<path d="M211.055 97.686H226.698V138.234H236.427V97.686H252.07V89.3293H210.98V97.686H211.055ZM198.931 103.499L204.544 96.6687C202.074 94.198 199.155 92.236 195.712 90.8553C192.269 89.4747 188.752 88.748 185.159 88.748C180.22 88.748 175.729 89.838 171.687 92.018C167.646 94.198 164.428 97.1773 162.107 101.029C159.787 104.88 158.59 109.095 158.59 113.745C158.59 118.396 159.712 122.683 162.033 126.462C164.353 130.313 167.496 133.365 171.538 135.545C175.579 137.798 179.995 138.888 184.86 138.888C188.452 138.888 191.97 138.161 195.488 136.635C199.005 135.109 202.074 133.075 204.693 130.459L199.005 124.282C197.134 126.099 194.964 127.552 192.569 128.569C190.174 129.587 187.704 130.095 185.309 130.095C182.166 130.095 179.321 129.369 176.777 127.915C174.157 126.462 172.136 124.427 170.64 121.884C169.143 119.341 168.394 116.579 168.394 113.527C168.394 110.475 169.143 107.714 170.64 105.171C172.136 102.627 174.157 100.665 176.777 99.212C179.396 97.7587 182.24 97.032 185.309 97.032C187.779 97.032 190.249 97.6133 192.644 98.7033C195.039 99.866 197.134 101.465 198.931 103.499ZM140.478 138.234H150.132V89.3293H140.478V138.234Z" fill="#3F5772"/>
<g opacity="0.8">
<path d="M496.285 118.396H482.888V94.0527H496.285C501.15 94.0527 504.818 95.07 507.437 97.1047C510.057 99.1393 511.329 102.119 511.329 106.043C511.329 110.039 510.057 113.091 507.437 115.199C504.743 117.379 501.075 118.396 496.285 118.396ZM496.51 89.6927H477.949V138.525H482.888V122.756H496.51C502.722 122.756 507.587 121.303 510.955 118.323C514.323 115.417 516.044 111.275 516.044 105.897C516.044 100.738 514.323 96.7413 510.955 93.9073C507.512 91.146 502.722 89.6927 496.51 89.6927ZM429.225 118.687V89.62H424.286V118.687C424.286 125.009 426.157 129.95 429.824 133.583C433.491 137.144 438.656 138.961 445.167 138.961C451.678 138.961 456.768 137.144 460.435 133.583C464.103 130.023 465.899 125.009 465.899 118.687V89.62H460.959V118.687C460.959 123.701 459.537 127.625 456.768 130.386C453.999 133.147 450.107 134.601 445.092 134.601C440.078 134.601 436.186 133.22 433.417 130.386C430.647 127.625 429.225 123.701 429.225 118.687ZM388.286 93.6167C392.103 93.6167 395.62 94.4887 398.839 96.3053C402.057 98.122 404.677 100.593 406.548 103.717C408.494 106.842 409.392 110.257 409.392 113.963C409.392 117.669 408.419 121.157 406.548 124.282C404.602 127.479 402.057 129.95 398.839 131.767C395.62 133.583 392.103 134.528 388.286 134.528C384.469 134.528 380.876 133.583 377.658 131.767C374.365 129.95 371.82 127.407 369.874 124.282C367.928 121.085 367.03 117.669 367.03 113.963C367.03 110.257 368.003 106.842 369.874 103.717C371.82 100.593 374.365 98.122 377.658 96.3053C380.951 94.5613 384.469 93.6167 388.286 93.6167ZM388.211 89.2567C383.421 89.2567 379.005 90.3467 375.038 92.5993C371.072 94.7793 367.853 97.8313 365.533 101.537C363.213 105.316 362.016 109.458 362.016 113.963C362.016 118.469 363.213 122.683 365.533 126.462C367.853 130.313 371.072 133.293 375.038 135.545C379.005 137.798 383.421 138.888 388.211 138.888C393.001 138.888 397.417 137.798 401.383 135.545C405.35 133.293 408.568 130.313 410.889 126.462C413.209 122.611 414.406 118.469 414.406 113.963C414.406 109.458 413.209 105.316 410.889 101.537C408.568 97.7587 405.35 94.7793 401.383 92.5993C397.417 90.4193 393.001 89.2567 388.211 89.2567ZM319.879 118.396V94.0527H333.65C338.44 94.0527 342.107 95.07 344.727 97.1047C347.346 99.1393 348.619 102.119 348.619 106.043C348.619 110.039 347.346 113.091 344.727 115.199C342.107 117.306 338.44 118.396 333.65 118.396H319.879V118.396ZM353.783 138.525L341.733 121.666C345.475 120.576 348.319 118.687 350.34 115.998C352.361 113.309 353.334 109.894 353.334 105.897C353.334 100.738 351.612 96.7413 348.17 93.9073C344.727 91.0733 339.862 89.6927 333.575 89.6927H314.789V138.525H319.729V122.756H333.5C334.323 122.756 335.521 122.683 337.018 122.611L347.87 138.525H353.783V138.525ZM298.548 130.168C296.527 131.549 294.357 132.639 291.962 133.438C289.567 134.237 287.172 134.601 284.777 134.601C280.885 134.601 277.293 133.656 273.999 131.839C270.706 130.023 268.087 127.479 266.216 124.355C264.27 121.23 263.372 117.742 263.372 113.963C263.372 110.257 264.345 106.842 266.216 103.717C268.162 100.593 270.706 98.122 273.999 96.3053C277.293 94.4887 280.81 93.544 284.702 93.544C287.546 93.544 290.39 94.0527 293.01 95.07C295.704 96.0873 298.099 97.468 300.12 99.3573L302.964 95.942C300.494 93.8347 297.725 92.236 294.507 91.0733C291.288 89.9107 287.995 89.3293 284.627 89.3293C279.837 89.3293 275.421 90.4193 271.38 92.672C267.338 94.852 264.12 97.904 261.8 101.61C259.48 105.389 258.282 109.531 258.282 114.036C258.282 118.541 259.48 122.756 261.8 126.535C264.12 130.386 267.338 133.365 271.305 135.618C275.272 137.871 279.688 138.961 284.403 138.961C287.771 138.961 291.064 138.379 294.282 137.217C297.5 136.054 300.344 134.528 302.814 132.493V114.617H298.398V130.168H298.548Z" fill="#3F5772"/>
</g>
<path d="M505.715 164.612H508.035V157.563C508.035 156.837 507.885 155.674 507.885 155.674C507.885 155.674 508.484 156.837 508.933 157.563L513.723 164.612H515.969V152.404H513.723V159.453C513.723 160.179 513.873 161.342 513.873 161.342C513.873 161.342 513.274 160.179 512.825 159.453L508.035 152.404H505.715V164.612ZM492.093 158.435C492.093 156.037 493.964 154.221 496.285 154.221C498.605 154.221 500.476 156.037 500.476 158.435C500.476 160.906 498.605 162.795 496.285 162.795C493.964 162.795 492.093 160.906 492.093 158.435ZM489.698 158.435C489.698 161.996 492.542 164.83 496.21 164.83C499.952 164.83 502.721 162.069 502.721 158.435C502.721 154.947 499.877 152.259 496.21 152.259C492.542 152.186 489.698 154.947 489.698 158.435ZM484.534 164.612H486.854V152.404H484.534V164.612ZM475.852 164.612H478.172V154.293H482.364V152.404H471.736V154.293H475.927V164.612H475.852ZM466.197 154.511C466.197 154.511 466.497 155.747 466.721 156.401L467.844 159.671H464.551L465.674 156.401C465.898 155.747 466.123 154.511 466.197 154.511ZM469.491 164.612H471.886L467.395 152.404H465L460.509 164.612H462.904L463.952 161.487H468.368L469.491 164.612ZM453.549 164.612H455.869L460.509 152.404H458.039L455.27 160.325C455.046 161.051 454.821 162.141 454.821 162.141C454.821 162.141 454.597 161.051 454.372 160.325L451.603 152.404H449.133L453.549 164.612ZM437.008 158.435C437.008 156.037 438.879 154.221 441.2 154.221C443.52 154.221 445.391 156.037 445.391 158.435C445.391 160.906 443.52 162.795 441.2 162.795C438.879 162.795 437.008 160.906 437.008 158.435ZM434.688 158.435C434.688 161.996 437.532 164.83 441.2 164.83C444.942 164.83 447.711 162.069 447.711 158.435C447.711 154.947 444.867 152.259 441.2 152.259C437.457 152.186 434.688 154.947 434.688 158.435ZM421.441 164.612H423.761V157.563C423.761 156.837 423.611 155.674 423.611 155.674C423.611 155.674 424.21 156.837 424.659 157.563L429.449 164.612H431.694V152.404H429.449V159.453C429.449 160.179 429.599 161.342 429.599 161.342C429.599 161.342 429 160.179 428.551 159.453L423.761 152.404H421.441V164.612ZM407.37 164.612H409.69V157.563C409.69 156.837 409.541 155.674 409.541 155.674C409.541 155.674 410.139 156.837 410.589 157.563L415.379 164.612H417.624V152.404H415.379V159.453C415.379 160.179 415.528 161.342 415.528 161.342C415.528 161.342 414.929 160.179 414.48 159.453L409.69 152.404H407.37V164.612ZM401.308 164.612H403.628V152.404H401.308V164.612ZM390.755 167.373H392.701V150.951H390.755V167.373ZM377.133 164.612H379.454V159.525L383.645 152.477H381.025L379.079 156.037C378.705 156.764 378.331 157.636 378.331 157.636C378.331 157.636 377.957 156.764 377.582 156.037L375.636 152.477H373.017L377.208 159.525V164.612H377.133ZM359.62 158.508C359.62 162.359 362.464 164.83 365.832 164.83C368.227 164.83 369.499 163.522 369.499 163.522C369.499 163.522 369.499 163.813 369.499 164.031V164.612H371.445V158.217H367.404V160.107H369.35V161.56C369.35 161.56 368.077 162.795 366.206 162.795C363.811 162.795 361.94 161.051 361.94 158.435C361.94 156.11 363.437 154.221 366.281 154.221C368.302 154.221 369.649 155.383 369.649 155.383L370.772 153.712C370.772 153.712 369.2 152.186 366.056 152.186C362.389 152.186 359.62 154.947 359.62 158.508ZM346.896 158.435C346.896 156.037 348.768 154.221 351.088 154.221C353.408 154.221 355.279 156.037 355.279 158.435C355.279 160.906 353.408 162.795 351.088 162.795C348.768 162.795 346.896 160.906 346.896 158.435ZM344.501 158.435C344.501 161.996 347.346 164.83 351.013 164.83C354.755 164.83 357.524 162.069 357.524 158.435C357.524 154.947 354.68 152.259 351.013 152.259C347.346 152.186 344.501 154.947 344.501 158.435ZM335.445 164.612H343.229V162.723H337.766V152.477H335.445V164.612V164.612ZM321.824 158.435C321.824 156.037 323.695 154.221 326.015 154.221C328.335 154.221 330.206 156.037 330.206 158.435C330.206 160.906 328.335 162.795 326.015 162.795C323.695 162.795 321.824 160.906 321.824 158.435ZM319.504 158.435C319.504 161.996 322.348 164.83 326.015 164.83C329.682 164.83 332.526 162.069 332.526 158.435C332.526 154.947 329.682 152.259 326.015 152.259C322.348 152.259 319.504 154.947 319.504 158.435ZM306.256 164.612H308.576V157.563C308.576 156.837 308.427 155.674 308.427 155.674C308.427 155.674 309.026 156.837 309.475 157.563L314.265 164.612H316.51V152.404H314.265V159.453C314.265 160.179 314.414 161.342 314.414 161.342C314.414 161.342 313.816 160.179 313.366 159.453L308.576 152.404H306.256V164.612ZM292.111 164.612H294.431V159.525H300.194V164.612H302.514V152.404H300.194V157.563H294.431V152.404H292.111V164.612ZM277.891 158.435C277.891 161.996 280.585 164.757 284.402 164.757C287.62 164.757 289.416 162.795 289.416 162.795L288.219 161.197C288.219 161.197 286.722 162.723 284.552 162.723C281.932 162.723 280.286 160.688 280.286 158.363C280.286 156.11 281.857 154.148 284.552 154.148C286.572 154.148 287.994 155.456 287.994 155.456L289.117 153.785C289.117 153.785 287.545 152.113 284.477 152.113C280.735 152.186 277.891 154.947 277.891 158.435ZM268.086 164.612H275.945V162.723H270.406V159.453H274.672V157.563H270.406V154.293H275.72V152.404H268.161V164.612H268.086ZM259.404 164.612H261.724V154.293H265.916V152.404H255.288V154.293H259.479V164.612H259.404ZM246.232 167.373H248.178V150.951H246.232V167.373ZM230.514 164.612H238.373V162.723H232.835V159.453H237.101V157.563H232.835V154.293H238.149V152.404H230.589V164.612H230.514ZM220.56 158.145V154.293H222.282C224.078 154.293 224.602 155.02 224.602 156.183C224.602 157.418 223.853 158.072 222.581 158.072H220.56V158.145ZM218.24 164.612H220.56V160.034H222.806L225.35 164.612H227.895L225.275 160.034C225.051 159.598 224.826 159.453 224.826 159.453C226.174 158.944 226.997 157.563 226.997 156.11C226.997 154.511 226.174 153.349 224.901 152.767C224.377 152.549 223.704 152.404 222.356 152.404H218.24V164.612ZM210.456 154.511C210.456 154.511 210.756 155.747 210.98 156.401L212.103 159.671H208.81L209.932 156.401C210.157 155.747 210.456 154.511 210.456 154.511ZM213.749 164.612H216.144L211.654 152.404H209.259L204.768 164.612H207.163L208.211 161.487H212.627L213.749 164.612ZM196.91 152.404H194.964L192.718 160.833C192.494 161.56 192.494 162.141 192.494 162.141C192.494 162.141 192.419 161.56 192.269 160.833L190.249 152.404H187.854L190.997 164.612H193.691L195.637 157.418C195.862 156.619 195.937 155.819 195.937 155.819C195.937 155.819 196.011 156.619 196.236 157.418L198.182 164.612H200.876L204.169 152.404H201.774L199.679 160.833C199.529 161.487 199.454 162.141 199.454 162.141C199.454 162.141 199.454 161.56 199.23 160.833L196.91 152.404ZM180.145 164.612H182.465V154.293H186.656V152.404H176.028V154.293H180.219V164.612H180.145ZM167.571 164.612H169.891V159.671H174.082V157.781H169.891V154.293H174.906V152.404H167.646V164.612H167.571ZM153.949 158.435C153.949 156.037 155.82 154.221 158.141 154.221C160.461 154.221 162.332 156.037 162.332 158.435C162.332 160.906 160.461 162.795 158.141 162.795C155.82 162.795 153.949 160.906 153.949 158.435ZM151.629 158.435C151.629 161.996 154.473 164.83 158.141 164.83C161.883 164.83 164.727 162.069 164.727 158.435C164.727 154.947 161.883 152.259 158.141 152.259C154.398 152.186 151.629 154.947 151.629 158.435ZM141.076 163.159C141.076 163.159 142.648 164.83 145.417 164.83C148.037 164.83 149.608 163.231 149.608 161.269C149.608 157.345 143.621 157.927 143.621 155.747C143.621 154.875 144.444 154.293 145.567 154.293C147.139 154.293 148.336 155.383 148.336 155.383L149.309 153.567C149.309 153.567 148.037 152.259 145.492 152.259C143.097 152.259 141.226 153.785 141.226 155.819C141.226 159.525 147.213 159.162 147.213 161.342C147.213 162.359 146.315 162.795 145.342 162.795C143.546 162.795 142.199 161.487 142.199 161.487L141.076 163.159Z" fill="#3F5772"/>
<path d="M110.84 127.843C109.193 129.369 106.574 129.369 104.927 127.843C103.28 126.317 103.28 123.846 104.927 122.32C106.574 120.794 109.193 120.794 110.84 122.32C112.486 123.846 112.486 126.317 110.84 127.843ZM115.255 117.96C113.759 116.507 113.833 114.036 115.48 112.51C115.555 112.51 115.555 112.437 115.63 112.437L127.605 100.665V89.838L98.3408 117.669C98.3408 117.669 98.2659 117.742 98.2659 117.815C96.6942 119.341 94.1495 119.486 92.6527 118.033C91.1558 116.579 91.2306 114.109 92.8772 112.583C92.8772 112.583 92.952 112.51 93.0269 112.51L117.127 89.402H92.8023C92.8023 89.402 76.7109 89.402 76.7109 105.025V134.237C76.7109 134.237 76.7109 138.743 81.3513 138.743H111.438C111.438 138.743 127.605 138.743 127.605 123.047V111.202L121.018 117.597C121.018 117.597 120.944 117.669 120.944 117.742C119.297 119.341 116.752 119.413 115.255 117.96Z" fill="#5AC2E1"/>
</svg>
