<svg width="594" height="250" viewBox="0 0 594 250" fill="none" xmlns="http://www.w3.org/2000/svg">
<g clip-path="url(#clip0_4276_34)">
<path d="M207.531 107.41C210.153 107.415 212.739 108.022 215.09 109.183C217.441 110.345 219.494 112.03 221.091 114.11C221.147 114.185 221.219 114.248 221.301 114.295C221.383 114.342 221.473 114.371 221.567 114.381C221.661 114.392 221.756 114.383 221.846 114.355C221.936 114.327 222.019 114.281 222.091 114.22L227.801 109.67C227.874 109.612 227.935 109.539 227.98 109.458C228.025 109.376 228.053 109.286 228.063 109.193C228.074 109.1 228.065 109.006 228.039 108.916C228.013 108.826 227.969 108.743 227.911 108.67C225.48 105.516 222.358 102.962 218.785 101.206C215.211 99.4498 211.282 98.5376 207.301 98.54C192.391 98.54 180.301 111.39 180.301 127.19C180.301 142.99 192.431 155.84 207.301 155.84C211.282 155.853 215.212 154.947 218.786 153.192C222.359 151.436 225.478 148.879 227.901 145.72C227.961 145.648 228.007 145.564 228.034 145.473C228.061 145.383 228.069 145.288 228.058 145.194C228.046 145.1 228.016 145.01 227.968 144.928C227.921 144.847 227.857 144.776 227.781 144.72L222.081 140.22C222.008 140.161 221.924 140.118 221.835 140.092C221.745 140.065 221.651 140.057 221.558 140.067C221.465 140.078 221.375 140.106 221.293 140.151C221.211 140.196 221.139 140.257 221.081 140.33C219.475 142.396 217.421 144.07 215.074 145.226C212.727 146.381 210.147 146.988 207.531 147C197.341 147 189.371 138.3 189.371 127.21C189.371 116.12 197.341 107.41 207.531 107.41Z" fill="#3448C5"/>
<path d="M235.27 96.91H242.43C242.619 96.91 242.799 96.9848 242.932 97.1179C243.066 97.2511 243.14 97.4317 243.14 97.62V154.4C243.14 154.586 243.067 154.764 242.935 154.895C242.804 155.026 242.626 155.1 242.44 155.1H235.28C235.092 155.1 234.911 155.025 234.778 154.892C234.645 154.759 234.57 154.578 234.57 154.39V97.62C234.569 97.5272 234.586 97.4351 234.621 97.349C234.655 97.2629 234.707 97.1846 234.772 97.1185C234.837 97.0525 234.915 97 235 96.9642C235.086 96.9284 235.178 96.91 235.27 96.91Z" fill="#3448C5"/>
<path d="M267.54 116.55C258.05 116.55 248.45 123.27 248.45 136.12C248.45 147.41 256.66 155.93 267.54 155.93C278.42 155.93 286.71 147.41 286.71 136.12C286.71 124.83 278.47 116.55 267.54 116.55ZM278.07 136.12C278.07 142.64 273.54 147.56 267.54 147.56C261.54 147.56 257.1 142.64 257.1 136.12C257.1 129.6 261.59 124.92 267.54 124.92C273.49 124.92 278.07 129.73 278.07 136.12Z" fill="#3448C5"/>
<path d="M325.301 117.37H318.141C318.048 117.369 317.956 117.386 317.87 117.42C317.784 117.455 317.705 117.506 317.639 117.571C317.573 117.637 317.521 117.714 317.485 117.8C317.449 117.885 317.431 117.977 317.431 118.07V137.07C317.431 144.49 312.311 147.12 307.921 147.12C304.041 147.12 300.131 144.19 300.131 137.64V118.07C300.131 117.977 300.112 117.885 300.076 117.8C300.041 117.714 299.988 117.637 299.922 117.571C299.856 117.506 299.778 117.455 299.691 117.42C299.605 117.386 299.513 117.369 299.421 117.37H292.261C292.075 117.37 291.897 117.444 291.766 117.575C291.634 117.706 291.561 117.884 291.561 118.07V138.57C291.561 149.82 296.651 156.01 305.901 156.01C309.261 156.01 314.701 154.08 316.741 149.82L317.431 149.96V154.4C317.431 154.588 317.505 154.769 317.638 154.902C317.772 155.035 317.952 155.11 318.141 155.11H325.301C325.489 155.11 325.669 155.035 325.803 154.902C325.936 154.769 326.011 154.588 326.011 154.4V118.07C326.011 117.977 325.992 117.885 325.956 117.8C325.921 117.714 325.868 117.637 325.802 117.571C325.736 117.506 325.658 117.455 325.572 117.42C325.485 117.386 325.393 117.369 325.301 117.37Z" fill="#3448C5"/>
<path d="M369.271 96.91H362.101C362.008 96.91 361.916 96.9284 361.83 96.9642C361.745 97 361.667 97.0525 361.602 97.1185C361.537 97.1846 361.486 97.2629 361.451 97.349C361.416 97.4351 361.399 97.5272 361.401 97.62V123L360.961 122.3C358.781 118.79 354.091 116.52 349.011 116.52C340.251 116.52 331.391 123.27 331.391 136.17C331.391 147.42 339.001 155.9 349.081 155.9C352.921 155.9 358.331 154.36 360.961 150.04L361.401 149.32V154.4C361.399 154.493 361.416 154.585 361.451 154.671C361.486 154.757 361.537 154.835 361.602 154.901C361.667 154.967 361.745 155.02 361.83 155.056C361.916 155.092 362.008 155.11 362.101 155.11H369.271C369.363 155.11 369.455 155.092 369.541 155.056C369.626 155.02 369.704 154.967 369.769 154.901C369.834 154.835 369.886 154.757 369.92 154.671C369.955 154.585 369.972 154.493 369.971 154.4V97.62C369.972 97.5272 369.955 97.4351 369.92 97.349C369.886 97.2629 369.834 97.1846 369.769 97.1185C369.704 97.0525 369.626 97 369.541 96.9642C369.455 96.9284 369.363 96.91 369.271 96.91ZM361.271 136.12C361.319 137.574 361.078 139.023 360.562 140.383C360.046 141.743 359.266 142.987 358.266 144.043C357.267 145.1 356.067 145.948 354.738 146.537C353.408 147.127 351.975 147.448 350.521 147.48C344.661 147.48 340.071 142.48 340.071 136.12C340.071 129.76 344.661 124.92 350.521 124.92C353.424 124.993 356.181 126.212 358.189 128.31C360.197 130.409 361.294 133.216 361.241 136.12H361.271Z" fill="#3448C5"/>
<path d="M380 117.37H387.16C387.346 117.37 387.524 117.444 387.655 117.575C387.786 117.706 387.86 117.884 387.86 118.07V154.4C387.86 154.586 387.786 154.764 387.655 154.895C387.524 155.026 387.346 155.1 387.16 155.1H380C379.812 155.1 379.631 155.025 379.498 154.892C379.365 154.759 379.29 154.578 379.29 154.39V118.07C379.293 117.883 379.369 117.705 379.501 117.574C379.634 117.443 379.813 117.37 380 117.37Z" fill="#3448C5"/>
<path d="M383.611 98.06C382.869 98.044 382.132 98.1763 381.442 98.449C380.753 98.7218 380.124 99.1295 379.594 99.6483C379.064 100.167 378.643 100.787 378.356 101.47C378.069 102.154 377.921 102.888 377.921 103.63C377.937 105.124 378.545 106.551 379.612 107.597C380.678 108.643 382.117 109.223 383.611 109.21C384.348 109.219 385.079 109.082 385.762 108.805C386.445 108.528 387.065 108.118 387.588 107.598C388.11 107.079 388.524 106.46 388.804 105.779C389.085 105.097 389.226 104.367 389.221 103.63C389.233 102.892 389.096 102.159 388.818 101.475C388.54 100.791 388.127 100.17 387.603 99.6496C387.079 99.1294 386.455 98.7204 385.769 98.4473C385.083 98.1741 384.349 98.0424 383.611 98.06Z" fill="#3448C5"/>
<path d="M417.35 116.55C414.21 116.55 408.63 118.24 406.5 122.74L405.81 122.6V118.07C405.81 117.977 405.792 117.885 405.756 117.8C405.72 117.714 405.668 117.637 405.602 117.571C405.536 117.506 405.457 117.455 405.371 117.42C405.285 117.386 405.193 117.369 405.1 117.37H397.94C397.755 117.37 397.577 117.444 397.445 117.575C397.314 117.706 397.24 117.884 397.24 118.07V154.4C397.239 154.493 397.256 154.585 397.291 154.671C397.325 154.757 397.377 154.835 397.442 154.901C397.507 154.968 397.585 155.02 397.67 155.056C397.756 155.092 397.848 155.11 397.94 155.11H405.1C405.289 155.11 405.469 155.035 405.602 154.902C405.736 154.769 405.81 154.588 405.81 154.4V135.4C405.81 128.04 410.93 125.4 415.32 125.4C419.2 125.4 423.11 128.31 423.11 134.8V154.4C423.11 154.588 423.185 154.769 423.318 154.902C423.451 155.035 423.632 155.11 423.82 155.11H431C431.189 155.11 431.369 155.035 431.502 154.902C431.636 154.769 431.71 154.588 431.71 154.4V133.91C431.69 122.72 426.59 116.55 417.35 116.55Z" fill="#3448C5"/>
<path d="M474.481 117.37H467.321C467.228 117.369 467.136 117.386 467.05 117.42C466.964 117.455 466.885 117.506 466.819 117.571C466.753 117.637 466.701 117.714 466.665 117.8C466.629 117.885 466.611 117.977 466.611 118.07V123.07L466.181 122.37C463.991 118.86 459.301 116.59 454.181 116.59C445.431 116.59 436.561 123.34 436.561 136.24C436.561 147.49 444.171 155.97 454.261 155.97C458.091 155.97 463.501 154.43 466.141 150.11L466.571 149.39V154.4C466.571 154.588 466.645 154.769 466.779 154.902C466.912 155.035 467.092 155.11 467.281 155.11H474.441C474.533 155.11 474.625 155.092 474.711 155.056C474.796 155.02 474.874 154.967 474.939 154.901C475.004 154.835 475.056 154.757 475.09 154.671C475.125 154.585 475.142 154.493 475.141 154.4V118.07C475.141 117.891 475.073 117.719 474.95 117.589C474.827 117.458 474.659 117.38 474.481 117.37ZM466.481 136.12C466.529 137.576 466.287 139.027 465.769 140.389C465.252 141.751 464.469 142.997 463.466 144.054C462.463 145.111 461.26 145.958 459.927 146.546C458.594 147.134 457.157 147.452 455.701 147.48C449.841 147.48 445.261 142.48 445.261 136.12C445.261 129.76 449.841 124.92 455.701 124.92C458.611 124.983 461.378 126.197 463.395 128.297C465.412 130.396 466.514 133.209 466.461 136.12H466.481Z" fill="#3448C5"/>
<path d="M507.15 117.5C505.517 116.838 503.772 116.499 502.01 116.5C497.25 116.5 493.79 119.35 492.01 124.75L491.37 124.66V118.07C491.37 117.977 491.352 117.885 491.316 117.8C491.28 117.714 491.228 117.637 491.161 117.571C491.095 117.506 491.017 117.455 490.931 117.42C490.845 117.386 490.753 117.369 490.66 117.37H483.5C483.407 117.369 483.315 117.386 483.229 117.42C483.143 117.455 483.065 117.506 482.999 117.571C482.933 117.637 482.88 117.714 482.844 117.8C482.808 117.885 482.79 117.977 482.79 118.07V154.4C482.79 154.588 482.865 154.769 482.998 154.902C483.131 155.035 483.312 155.11 483.5 155.11H490.74C490.833 155.11 490.925 155.092 491.01 155.056C491.096 155.02 491.173 154.968 491.239 154.901C491.304 154.835 491.355 154.757 491.39 154.671C491.424 154.585 491.441 154.493 491.44 154.4V142C491.44 127.2 497.35 125 500.88 125C502.369 125.004 503.843 125.31 505.21 125.9C505.306 125.945 505.41 125.968 505.515 125.968C505.62 125.968 505.725 125.945 505.82 125.9C505.912 125.852 505.992 125.784 506.054 125.701C506.116 125.618 506.159 125.522 506.18 125.42L507.6 118.31C507.634 118.143 507.608 117.97 507.525 117.821C507.443 117.673 507.31 117.559 507.15 117.5Z" fill="#3448C5"/>
<path d="M546.88 117.68C546.816 117.583 546.728 117.503 546.625 117.449C546.522 117.395 546.407 117.368 546.29 117.37H538.58C538.438 117.371 538.3 117.415 538.182 117.495C538.065 117.575 537.974 117.688 537.92 117.82L528.59 142L519.17 117.82C519.117 117.688 519.026 117.575 518.908 117.495C518.791 117.415 518.652 117.371 518.51 117.37H510.65C510.535 117.369 510.422 117.397 510.321 117.451C510.22 117.506 510.134 117.584 510.07 117.68C510.005 117.776 509.964 117.886 509.952 118.001C509.94 118.116 509.956 118.233 510 118.34L524 152.72L516.27 172.81C516.222 172.919 516.201 173.039 516.211 173.158C516.22 173.277 516.26 173.391 516.326 173.491C516.392 173.591 516.482 173.672 516.587 173.728C516.693 173.784 516.811 173.812 516.93 173.81H524.43C524.572 173.811 524.71 173.768 524.826 173.687C524.942 173.607 525.031 173.493 525.08 173.36L546.94 118.36C546.99 118.251 547.011 118.131 547 118.012C546.99 117.893 546.948 117.778 546.88 117.68Z" fill="#3448C5"/>
<path d="M144.91 105.11C142.323 96.9973 137.238 89.9102 130.38 84.8616C123.523 79.813 115.245 77.0613 106.73 77C99.5313 76.9587 92.4569 78.8798 86.2674 82.5568C80.078 86.2338 75.0074 91.5278 71.6004 97.87C65.3389 98.9921 59.5989 102.083 55.2158 106.694C50.8328 111.304 48.0355 117.193 47.2311 123.503C46.4267 129.813 47.6572 136.216 50.7434 141.778C53.8297 147.341 58.6107 151.773 64.3904 154.43L65.1404 154.77H65.1904V146.27C61.2255 143.836 58.1215 140.223 56.3135 135.936C54.5055 131.649 54.0841 126.904 55.1084 122.366C56.1327 117.828 58.5513 113.724 62.0253 110.629C65.4993 107.535 69.8545 105.605 74.4804 105.11L76.5804 104.89L77.5004 103C80.1126 97.464 84.2509 92.7889 89.4289 89.5241C94.6069 86.2593 100.609 84.5406 106.73 84.57C114.024 84.6214 121.091 87.11 126.808 91.6399C132.525 96.1699 136.563 102.481 138.28 109.57L139 112.43H142C146.837 112.529 151.442 114.516 154.834 117.965C158.225 121.414 160.133 126.053 160.15 130.89C160.15 137.94 156.08 143.71 149.15 146.63V154.69L149.65 154.53C160.79 150.88 167.71 141.82 167.71 130.89C167.665 124.564 165.33 118.468 161.139 113.729C156.948 108.99 151.184 105.929 144.91 105.11Z" fill="#3448C5"/>
<path d="M92.0709 153.79L93.7309 155.45C93.7757 155.496 93.8061 155.554 93.8183 155.617C93.8305 155.681 93.824 155.746 93.7995 155.805C93.7751 155.865 93.7338 155.916 93.6808 155.952C93.6277 155.989 93.5652 156.009 93.5009 156.01H80.4009C78.8096 156.01 77.2835 155.378 76.1582 154.253C75.033 153.127 74.4009 151.601 74.4009 150.01V124.57C74.4009 124.482 74.3661 124.399 74.3042 124.337C74.2423 124.275 74.1584 124.24 74.0709 124.24H71.2709C71.2057 124.241 71.1418 124.222 71.0872 124.186C71.0327 124.151 70.9898 124.1 70.9642 124.04C70.9385 123.98 70.9312 123.914 70.943 123.85C70.9549 123.786 70.9855 123.727 71.0309 123.68L82.1509 112.56C82.1816 112.529 82.2182 112.504 82.2585 112.487C82.2988 112.47 82.3421 112.462 82.3859 112.462C82.4296 112.462 82.4729 112.47 82.5132 112.487C82.5536 112.504 82.5902 112.529 82.6209 112.56L93.7309 123.68C93.7757 123.726 93.8061 123.784 93.8183 123.847C93.8305 123.911 93.824 123.976 93.7995 124.035C93.7751 124.095 93.7338 124.146 93.6808 124.182C93.6277 124.219 93.5652 124.239 93.5009 124.24H90.6609C90.5724 124.24 90.4874 124.274 90.4239 124.336C90.3604 124.398 90.3235 124.482 90.3209 124.57V149.57C90.3249 151.152 90.9539 152.669 92.0709 153.79Z" fill="#3448C5"/>
<path d="M116.64 153.79L118.31 155.45C118.355 155.497 118.386 155.556 118.398 155.62C118.41 155.684 118.402 155.75 118.377 155.81C118.351 155.87 118.308 155.921 118.254 155.956C118.199 155.992 118.135 156.011 118.07 156.01H105C103.409 156.01 101.883 155.378 100.757 154.253C99.6322 153.127 99 151.601 99 150.01V131C99.0001 130.912 98.9656 130.827 98.904 130.763C98.8424 130.7 98.7584 130.663 98.67 130.66H95.84C95.7757 130.659 95.7132 130.639 95.6601 130.602C95.6071 130.566 95.5658 130.515 95.5413 130.455C95.5169 130.396 95.5104 130.331 95.5226 130.267C95.5348 130.204 95.5652 130.146 95.61 130.1L106.72 119C106.751 118.969 106.787 118.944 106.828 118.927C106.868 118.91 106.911 118.902 106.955 118.902C106.999 118.902 107.042 118.91 107.082 118.927C107.123 118.944 107.159 118.969 107.19 119L118.31 130.08C118.355 130.127 118.386 130.186 118.398 130.25C118.41 130.314 118.402 130.38 118.377 130.44C118.351 130.5 118.308 130.551 118.254 130.586C118.199 130.622 118.135 130.641 118.07 130.64H115.23C115.142 130.643 115.058 130.68 114.996 130.743C114.934 130.807 114.9 130.892 114.9 130.98V149.57C114.901 151.151 115.527 152.668 116.64 153.79Z" fill="#3448C5"/>
<path d="M141.221 153.79L142.881 155.45C142.926 155.496 142.956 155.554 142.968 155.617C142.98 155.681 142.974 155.746 142.949 155.805C142.925 155.865 142.884 155.916 142.831 155.952C142.778 155.989 142.715 156.009 142.651 156.01H129.541C127.949 156.01 126.423 155.378 125.298 154.253C124.173 153.127 123.541 151.601 123.541 150.01V137.38C123.541 137.292 123.506 137.209 123.444 137.147C123.382 137.085 123.298 137.05 123.211 137.05H120.411C120.344 137.051 120.279 137.031 120.224 136.995C120.169 136.958 120.126 136.905 120.101 136.843C120.076 136.782 120.071 136.714 120.085 136.649C120.099 136.585 120.132 136.526 120.181 136.48L131.301 125.37C131.331 125.339 131.366 125.315 131.406 125.298C131.445 125.281 131.488 125.272 131.531 125.272C131.574 125.272 131.616 125.281 131.656 125.298C131.695 125.315 131.731 125.339 131.761 125.37L142.881 136.48C142.929 136.526 142.962 136.585 142.977 136.649C142.991 136.714 142.985 136.782 142.96 136.843C142.935 136.905 142.893 136.958 142.837 136.995C142.782 137.031 142.717 137.051 142.651 137.05H139.801C139.713 137.05 139.629 137.085 139.567 137.147C139.505 137.209 139.471 137.292 139.471 137.38V149.57C139.475 151.152 140.104 152.669 141.221 153.79Z" fill="#3448C5"/>
</g>
<defs>
<clipPath id="clip0_4276_34">
<rect width="500" height="96.77" fill="white" transform="translate(47 77)"/>
</clipPath>
</defs>
</svg>
