<?xml version="1.0" encoding="UTF-8" standalone="no"?>
<!-- Created with Inkscape (http://www.inkscape.org/) -->

<svg
   width="1024"
   height="1024"
   viewBox="0 0 270.93334 270.93334"
   version="1.1"
   id="svg3734"
   xmlns="http://www.w3.org/2000/svg"
   xmlns:svg="http://www.w3.org/2000/svg">
  <defs
     id="defs3731" />
  <g
     id="layer2"
     style="display:inline">
    <path
       id="base"
       style="fill:#b5b5b5;fill-opacity:1;fill-rule:evenodd;stroke-width:0.950571"
       d="m 68.355003,166.6875 v 3.95428 11.69335 9.92032 c 0,1.95937 1.600554,3.53622 3.588411,3.53622 H 197.05826 c 1.98786,0 3.58841,-1.57685 3.58841,-3.53622 v -9.92032 -11.69335 -3.95428 z m 16.933333,5.55625 a 8.9958336,8.9958336 0 0 1 8.995834,8.99584 8.9958336,8.9958336 0 0 1 -8.995834,8.99583 8.9958336,8.9958336 0 0 1 -8.995833,-8.99583 8.9958336,8.9958336 0 0 1 8.995833,-8.99584 z m 49.212504,0 a 8.9958336,8.9958336 0 0 1 8.99583,8.99584 8.9958336,8.9958336 0 0 1 -8.99583,8.99583 8.9958336,8.9958336 0 0 1 -8.99584,-8.99583 8.9958336,8.9958336 0 0 1 8.99584,-8.99584 z m 49.2125,0 a 8.9958336,8.9958336 0 0 1 8.99583,8.99584 8.9958336,8.9958336 0 0 1 -8.99583,8.99583 8.9958336,8.9958336 0 0 1 -8.99583,-8.99583 8.9958336,8.9958336 0 0 1 8.99583,-8.99584 z" />
    <g
       id="g875"
       style="display:inline">
      <path
         id="rect7163-0"
         style="fill:#666666;fill-opacity:1;stroke-width:0.406725"
         d="m 166.78001,156.10416 h 33.86667 v 7.9375 h -33.86667 z" />
      <path
         id="rect7163-7"
         style="fill:#666666;fill-opacity:1;stroke-width:0.538046"
         d="m 104.8675,156.10416 h 59.26668 v 7.9375 H 104.8675 Z" />
      <path
         id="rect7163"
         style="fill:#666666;fill-opacity:1;stroke-width:0.406725"
         d="m 68.355003,156.10416 h 33.866667 v 7.9375 H 68.355003 Z" />
    </g>
    <g
       id="g870">
      <path
         id="path9739-3"
         style="fill:#ae3f25;fill-opacity:1;stroke-width:1"
         d="m 146.30994,74.612501 a 79.375193,105.83337 0 0 1 54.33674,74.486919 v 4.35891 H 166.73661 A 81.662902,126.46059 0.106768 0 0 143.51115,74.612501 Z" />
      <path
         id="path9739"
         style="fill:#ae3f25;fill-opacity:1;stroke-width:1"
         d="M 122.69174,74.612502 A 79.375193,105.83337 0 0 0 68.355003,149.09943 v 4.35891 h 33.910077 a 126.46059,81.662902 89.893232 0 1 23.22545,-78.845838 z" />
      <path
         id="path10640-3"
         style="display:inline;fill:#ae3f25;fill-opacity:1;stroke-width:1.05876"
         d="M 128.08573,74.612502 A 126.46059,81.662902 89.893232 0 0 104.96,153.45834 h 29.54084 29.54083 A 81.662902,126.46059 0.106768 0 0 140.91595,74.612502 h -6.41511 z" />
    </g>
    <path
       id="rect15915"
       style="fill:#b5b5b5;fill-opacity:1;stroke-width:0.223024"
       d="m 134.50084,36.247917 -7.40834,17.069242 v 3.720187 a 6.0803567,9.921875 0 0 1 0.0134,0.653706 6.0803567,9.921875 0 0 1 -4.51135,9.582362 v 4.693254 h 11.90625 11.90625 v -4.693254 a 6.0803567,9.921875 0 0 1 -4.51135,-9.582362 6.0803567,9.921875 0 0 1 0.0134,-0.653706 v -3.720187 z" />
    <circle
       style="fill:#e6bc33;fill-opacity:1;stroke-width:0.317499"
       id="path17962"
       cx="134.50084"
       cy="28.839584"
       r="4.7625003" />
    <g
       id="g865">
      <g
         aria-label="{"
         id="text3314"
         style="font-size:194.028px;line-height:1.25;font-family:Georgia;-inkscape-font-specification:Georgia;letter-spacing:0px;stroke-width:0.264583">
        <path
           d="m 40.826647,200.55058 q -12.03201,0 -18.569086,-7.295 -6.442336,-7.295 -6.442336,-20.46389 v -34.20122 q 0,-11.08461 -5.021233,-16.4848 -4.9264918,-5.49494 -15.3479176,-5.96864 V 104.10502 Q 5.77276,103.72606 10.793992,98.325867 15.815225,92.830933 15.815225,81.746326 V 47.450361 q 0,-13.358373 6.252855,-20.558631 6.347596,-7.200257 18.758567,-7.200257 h 12.789931 v 12.22149 h -5.968634 q -8.621362,0 -12.316231,5.115972 -3.600129,5.021233 -3.600129,15.253178 v 33.727524 q 0,8.905582 -5.021232,15.442653 -5.021233,6.44234 -13.358373,8.43189 v 0.18948 q 8.431881,1.98954 13.358373,8.43188 5.021232,6.44233 5.021232,15.63214 v 33.82226 q 0,10.04246 3.600129,15.15844 3.694869,5.21071 12.316231,5.21071 h 5.968634 v 12.22149 z"
           style="font-family:Arial;-inkscape-font-specification:Arial;fill:#222222"
           id="path842" />
      </g>
      <g
         aria-label="}"
         id="text3314-2"
         style="font-size:194.028px;line-height:1.25;font-family:Georgia;-inkscape-font-specification:Georgia;letter-spacing:0px;display:inline;stroke-width:0.264583">
        <path
           d="m 220.9751,188.3291 q 8.62136,0 12.31623,-5.21071 3.78961,-5.11597 3.78961,-15.15844 v -33.82226 q 0,-9.28454 4.92649,-15.72688 4.9265,-6.44233 13.35838,-8.33714 v -0.18948 q -8.14766,-1.8948 -13.26364,-8.2424 -5.02123,-6.442335 -5.02123,-15.632138 V 52.282128 q 0,-10.231945 -3.78961,-15.253177 -3.69487,-5.115973 -12.31623,-5.115973 h -5.68441 v -12.22149 h 12.50571 q 12.41097,0 18.66382,7.200258 6.3476,7.200257 6.3476,20.55863 v 34.295965 q 0,10.989867 5.02123,16.484801 5.02123,5.494938 15.5374,5.873898 v 12.03201 q -10.61091,0.37896 -15.63214,5.87389 -4.92649,5.49493 -4.92649,16.57954 v 34.20123 q 0,13.07415 -6.53708,20.36915 -6.44233,7.38974 -18.47434,7.38974 h -12.50571 v -12.2215 z"
           style="font-family:Arial;-inkscape-font-specification:Arial;fill:#222222"
           id="path845" />
      </g>
    </g>
  </g>
  <g
     id="layer1"
     style="display:inline">
    <g
       aria-label="firenze.dev"
       id="text15250"
       style="font-size:49.3889px;line-height:1.25;font-family:Georgia;-inkscape-font-specification:Georgia;stroke-width:0.264583">
      <path
         d="m 26.504916,221.17513 q 0,1.08521 -0.578777,1.83279 -0.578776,0.74759 -1.760444,0.74759 -0.747586,0 -1.326362,-0.31351 -0.55466,-0.3135 -1.036974,-0.84404 -0.482313,-0.53055 -0.89228,-1.20579 -0.409966,-0.67524 -0.699354,-1.0852 -1.61575,0.0723 -2.50803,2.26687 -0.868165,2.17041 -0.868165,6.94531 v 2.43569 h 6.125382 v 2.3151 H 16.83453 v 17.0739 q 0,0.84405 0.313504,1.37459 0.33762,0.53055 1.036974,0.79582 0.578776,0.21704 1.543403,0.36173 0.964627,0.12058 1.663982,0.16881 v 1.59164 H 8.8522422 v -1.59164 q 0.5546605,-0.0482 1.1334366,-0.0965 0.6028922,-0.0482 1.0369742,-0.19292 0.675239,-0.21704 0.988742,-0.74759 0.33762,-0.55466 0.33762,-1.42282 V 234.26994 H 7.6464584 v -2.3151 h 4.7025566 v -1.51929 q 0,-5.42603 2.797418,-8.77811 2.821534,-3.37619 7.041777,-3.37619 2.146295,0 3.2315,0.84405 1.085206,0.84405 1.085206,2.04983 z"
         id="path922" />
      <path
         d="M 36.416458,255.63643 H 24.913281 v -1.59164 q 0.554661,-0.0482 1.133437,-0.0965 0.602892,-0.0482 1.036974,-0.19292 0.675239,-0.21704 0.988742,-0.74759 0.33762,-0.55466 0.33762,-1.42282 v -14.68645 q 0,-0.7717 -0.361735,-1.39871 -0.33762,-0.65112 -0.964627,-1.0852 -0.458198,-0.28939 -1.326362,-0.48232 -0.868165,-0.21704 -1.591635,-0.26527 v -1.56752 l 8.392255,-0.53054 0.337619,0.33762 v 19.389 q 0,0.84405 0.313504,1.39871 0.337619,0.55466 1.036974,0.81993 0.530545,0.21704 1.036974,0.36173 0.506429,0.12058 1.133437,0.16881 z m -3.038575,-33.44844 q 0,1.37459 -0.916396,2.41157 -0.89228,1.01285 -2.218642,1.01285 -1.229899,0 -2.146295,-0.96462 -0.89228,-0.98875 -0.89228,-2.24276 0,-1.32636 0.89228,-2.3151 0.916396,-0.98875 2.146295,-0.98875 1.374594,0 2.242758,0.94051 0.89228,0.9164 0.89228,2.1463 z"
         id="path924" />
      <path
         d="m 57.541788,234.92106 q 0,1.2299 -0.602892,2.19453 -0.602892,0.94051 -1.856907,0.94051 -1.350478,0 -2.073948,-0.69935 -0.699354,-0.69936 -0.699354,-1.54341 0,-0.53054 0.07235,-0.96462 0.09646,-0.43408 0.168809,-0.86817 -1.133436,0 -2.652724,0.9164 -1.519287,0.91639 -2.580377,2.60449 v 13.8424 q 0,0.84405 0.313504,1.37459 0.337619,0.53055 1.036974,0.79582 0.602892,0.24116 1.543403,0.36173 0.964627,0.12058 1.663982,0.16881 v 1.59164 H 39.334454 v -1.59164 q 0.554661,-0.0482 1.133437,-0.0965 0.602892,-0.0482 1.036974,-0.19292 0.675239,-0.21704 0.988742,-0.74759 0.33762,-0.55466 0.33762,-1.42282 v -14.68645 q 0,-0.74759 -0.361735,-1.47106 -0.33762,-0.72347 -0.964627,-1.15755 -0.458198,-0.28939 -1.085206,-0.40996 -0.627007,-0.1447 -1.350477,-0.19293 v -1.56752 l 7.909941,-0.53054 0.337619,0.33762 v 3.35207 h 0.120579 q 1.495171,-1.95337 3.327963,-2.96622 1.832791,-1.01286 3.352078,-1.01286 1.519288,0 2.459799,0.98874 0.964627,0.98874 0.964627,2.65272 z"
         id="path926" />
      <path
         d="m 80.692838,250.04159 q -1.495172,2.84565 -4.003202,4.53375 -2.50803,1.6881 -5.763646,1.6881 -2.869765,0 -5.040176,-1.01286 -2.146295,-1.01286 -3.545004,-2.74919 -1.398709,-1.73633 -2.098064,-4.05143 -0.675239,-2.31511 -0.675239,-4.89548 0,-2.31511 0.72347,-4.53375 0.747586,-2.24276 2.170411,-4.02732 1.374594,-1.71221 3.40031,-2.74919 2.049832,-1.06108 4.581978,-1.06108 2.604493,0 4.4614,0.81993 1.856907,0.81993 3.014459,2.24276 1.109321,1.35047 1.639866,3.18326 0.554661,1.8328 0.554661,3.97909 v 1.59164 H 64.366526 q 0,2.33922 0.434083,4.24435 0.458197,1.90514 1.422824,3.35208 0.940512,1.39871 2.459799,2.21864 1.519288,0.79582 3.617351,0.79582 2.146295,0 3.689698,-0.98874 1.567519,-1.01286 3.01446,-3.61735 z m -5.329564,-9.06749 q 0,-1.35048 -0.241157,-2.89388 -0.217041,-1.54341 -0.72347,-2.58038 -0.554661,-1.10932 -1.519288,-1.80867 -0.964627,-0.69936 -2.483914,-0.69936 -2.532146,0 -4.220243,2.12218 -1.663982,2.09806 -1.808676,5.86011 z"
         id="path928" />
      <path
         d="M 109.704,255.63643 H 98.056125 v -1.59164 q 0.554661,-0.0482 1.205784,-0.0965 0.675239,-0.0482 1.109321,-0.19292 0.67524,-0.21704 0.98874,-0.74759 0.33762,-0.55466 0.33762,-1.42282 v -12.22665 q 0,-2.53215 -1.20578,-3.90674 -1.18167,-1.37459 -2.893883,-1.37459 -1.27813,0 -2.33922,0.40996 -1.06109,0.38585 -1.881023,0.96463 -0.795817,0.55466 -1.27813,1.20578 -0.458198,0.62701 -0.675239,1.01286 v 13.67359 q 0,0.81993 0.337619,1.35048 0.33762,0.53054 1.012858,0.81993 0.50643,0.24116 1.085206,0.36173 0.602892,0.12058 1.229899,0.16881 v 1.59164 h -11.64787 v -1.59164 q 0.55466,-0.0482 1.133436,-0.0965 0.602892,-0.0482 1.036974,-0.19292 0.675239,-0.21704 0.988743,-0.74759 0.337619,-0.55466 0.337619,-1.42282 v -14.68645 q 0,-0.81993 -0.361735,-1.49517 -0.337619,-0.69936 -0.964627,-1.13344 -0.458198,-0.28939 -1.085205,-0.40996 -0.627008,-0.1447 -1.350478,-0.19293 v -1.56752 l 7.909941,-0.53054 0.33762,0.33762 v 3.35207 h 0.120578 q 0.578776,-0.57877 1.446941,-1.37459 0.868164,-0.81993 1.639865,-1.32636 0.89228,-0.57878 2.12218,-0.96463 1.229899,-0.38585 2.773302,-0.38585 3.424429,0 5.064289,2.1463 1.66398,2.12218 1.66398,5.66718 v 12.37134 q 0,0.84405 0.28939,1.37459 0.28939,0.50643 0.98875,0.79582 0.57877,0.24116 0.98874,0.33762 0.43408,0.0965 1.18167,0.14469 z"
         id="path930" />
      <path
         d="m 131.45633,255.63643 h -19.24431 v -1.27813 l 13.45655,-20.54656 h -3.32796 q -2.09807,0 -3.27974,0.0724 -1.18166,0.0724 -2.17041,0.48231 -0.67524,0.26528 -1.27813,1.51929 -0.57877,1.25402 -1.01286,3.27973 h -1.47105 v -7.30705 h 18.18322 v 0.98875 l -13.67359,20.83594 q 0.86816,0.0241 1.90514,0.0482 1.03697,0 2.24275,0 0.96463,0 2.00161,-0.0241 1.06109,-0.0241 2.70095,-0.12057 0.96463,-0.0482 1.44694,-0.65113 0.50643,-0.60289 0.7717,-1.37459 0.26528,-0.69935 0.62701,-1.92925 0.38585,-1.2299 0.67524,-2.38746 h 1.44694 z"
         id="path932" />
      <path
         d="m 155.66847,250.04159 q -1.49517,2.84565 -4.0032,4.53375 -2.50803,1.6881 -5.76365,1.6881 -2.86976,0 -5.04017,-1.01286 -2.1463,-1.01286 -3.54501,-2.74919 -1.39871,-1.73633 -2.09806,-4.05143 -0.67524,-2.31511 -0.67524,-4.89548 0,-2.31511 0.72347,-4.53375 0.74759,-2.24276 2.17041,-4.02732 1.37459,-1.71221 3.40031,-2.74919 2.04983,-1.06108 4.58198,-1.06108 2.60449,0 4.4614,0.81993 1.8569,0.81993 3.01446,2.24276 1.10932,1.35047 1.63986,3.18326 0.55466,1.8328 0.55466,3.97909 v 1.59164 h -15.74753 q 0,2.33922 0.43408,4.24435 0.4582,1.90514 1.42282,3.35208 0.94052,1.39871 2.4598,2.21864 1.51929,0.79582 3.61735,0.79582 2.1463,0 3.6897,-0.98874 1.56752,-1.01286 3.01446,-3.61735 z m -5.32956,-9.06749 q 0,-1.35048 -0.24116,-2.89388 -0.21704,-1.54341 -0.72347,-2.58038 -0.55466,-1.10932 -1.51929,-1.80867 -0.96463,-0.69936 -2.48391,-0.69936 -2.53215,0 -4.22025,2.12218 -1.66398,2.09806 -1.80867,5.86011 z"
         id="path934" />
      <path
         d="m 169.5591,251.63323 q 0,1.90514 -1.42283,3.30384 -1.3987,1.39871 -3.32796,1.39871 -1.95337,0 -3.37619,-1.37459 -1.39871,-1.39871 -1.39871,-3.32796 0,-1.92926 1.39871,-3.32797 1.42282,-1.42282 3.37619,-1.42282 1.92926,0 3.32796,1.42282 1.42283,1.42283 1.42283,3.32797 z"
         style="font-weight:bold;-inkscape-font-specification:'Georgia Bold'"
         id="path936" />
      <path
         d="m 205.46734,255.13 -11.88903,0.69935 -0.36173,-0.33762 v -2.21864 l -0.16881,-0.0482 q -1.18167,1.27813 -3.20739,2.24276 -2.0016,0.94051 -4.05143,0.94051 -4.87137,0 -8.03052,-3.61735 -3.15915,-3.61735 -3.15915,-9.35688 0,-5.08841 3.52089,-8.72988 3.545,-3.64146 8.56106,-3.64146 1.97748,0 3.71381,0.45819 1.73633,0.43409 2.77331,1.03698 v -7.88583 q 0,-0.89228 -0.36174,-1.66398 -0.36173,-0.79582 -0.96463,-1.2299 -0.74758,-0.53054 -1.88102,-0.74758 -1.10932,-0.24116 -2.24276,-0.33762 v -1.76045 l 13.02247,-0.627 0.36173,0.38585 v 31.61564 q 0,0.9164 0.28939,1.54341 0.3135,0.62701 0.98874,0.98874 0.50643,0.26527 1.47106,0.38585 0.98874,0.12058 1.61575,0.1447 z m -12.29899,-4.29259 v -13.62536 q -0.16881,-0.55466 -0.48232,-1.2299 -0.28939,-0.67523 -0.81993,-1.27813 -0.48231,-0.50643 -1.30225,-0.89228 -0.79581,-0.38585 -1.80867,-0.38585 -2.41157,0 -3.95497,2.72507 -1.54341,2.72508 -1.54341,7.6929 0,1.95337 0.26528,3.52089 0.28938,1.54341 0.98874,2.82154 0.69935,1.27813 1.78456,2.0016 1.10932,0.72347 2.65272,0.72347 1.47106,0 2.43569,-0.55466 0.96462,-0.57878 1.78456,-1.51929 z"
         style="font-weight:bold;-inkscape-font-specification:'Georgia Bold'"
         id="path938" />
      <path
         d="m 232.95921,249.87278 q -0.84405,1.3746 -2.04983,2.6045 -1.18167,1.20578 -2.70096,2.07394 -1.61575,0.9164 -3.27973,1.3746 -1.63987,0.48231 -3.78616,0.48231 -3.56912,0 -6.17362,-1.01286 -2.58037,-1.01286 -4.26847,-2.72507 -1.6881,-1.71221 -2.53215,-4.02732 -0.81993,-2.33922 -0.81993,-5.06429 0,-2.4598 0.89228,-4.70255 0.9164,-2.26688 2.58038,-4.02732 1.63986,-1.71222 4.12378,-2.7733 2.50803,-1.06109 5.59484,-1.06109 3.37619,0 5.5466,0.81993 2.17041,0.81993 3.59324,2.26687 1.37459,1.3746 2.0016,3.25562 0.627,1.8569 0.627,3.90674 v 1.56752 h -16.30219 q 0,4.94371 1.90514,7.52409 1.90513,2.58037 6.05303,2.58037 2.26687,0 4.07555,-1.2299 1.80868,-1.25401 3.08681,-3.15915 z m -9.21219,-9.16395 q 0,-1.44694 -0.14469,-2.96623 -0.1447,-1.51929 -0.50643,-2.48392 -0.40997,-1.13343 -1.13344,-1.71221 -0.69935,-0.57877 -1.78456,-0.57877 -1.85691,0 -2.96623,1.88102 -1.10932,1.88102 -1.20578,5.95657 z"
         style="font-weight:bold;-inkscape-font-specification:'Georgia Bold'"
         id="path940" />
      <path
         d="m 262.76618,233.47412 q -1.0852,0.16881 -2.12218,0.81994 -1.01286,0.65112 -1.68809,2.02571 -1.6881,3.52089 -3.32797,7.11413 -1.61575,3.56912 -3.18327,6.9212 -0.48231,1.01285 -1.10932,2.60449 -0.60289,1.59163 -1.01286,2.89388 h -4.43728 q -2.7733,-6.43889 -4.75079,-10.68324 -1.95337,-4.24436 -4.14789,-9.11573 -0.50643,-1.13344 -1.59164,-1.78456 -1.06109,-0.65112 -2.17041,-0.79582 v -1.76044 h 14.85526 v 1.76044 q -0.81994,0.0241 -1.92926,0.36174 -1.10932,0.33762 -1.10932,0.86816 0,0.1447 0.0965,0.43409 0.0965,0.28938 0.24116,0.65112 0.7717,1.83279 2.31511,5.28133 1.56751,3.44854 3.30384,7.25882 1.20579,-2.62861 2.29099,-5.13664 1.10932,-2.53214 2.72507,-6.43888 0.21704,-0.57878 0.24116,-0.94052 0.0482,-0.36173 0.0482,-0.48231 0,-0.43408 -0.43408,-0.74758 -0.40997,-0.33762 -0.98874,-0.57878 -0.60289,-0.24116 -1.15756,-0.36174 -0.55466,-0.12057 -0.91639,-0.16881 v -1.76044 h 9.95977 z"
         style="font-weight:bold;-inkscape-font-specification:'Georgia Bold'"
         id="path942" />
    </g>
  </g>
</svg>
