<svg width="409" height="439" viewBox="0 0 409 439" fill="none" xmlns="http://www.w3.org/2000/svg">
<g clip-path="url(#clip0_2357_2565)">
<path fill-rule="evenodd" clip-rule="evenodd" d="M204.5 0L201.343 1.11291L6.99583 70.5413L0 73.0668L0.85315 80.4719L30.5001 337.939L31.0547 342.733L35.2777 345.088L199.978 436.475L204.5 439L209.064 436.475L373.722 345.088L377.945 342.733L378.5 337.939L408.147 80.4719L409 73.0668L402.004 70.5413L207.657 1.11291L204.5 0Z" fill="url(#a)"/>
<path fill-rule="evenodd" clip-rule="evenodd" d="M238.099 238.516C239.293 238.516 240.402 238.986 241.255 239.8C242.109 240.613 242.578 241.769 242.578 242.967H251.707C251.707 239.329 250.299 235.905 247.739 233.336C245.18 230.768 241.767 229.355 238.141 229.355C230.634 229.355 224.534 235.476 224.534 242.967V251.999H233.662V242.967C233.62 240.527 235.625 238.516 238.099 238.516Z" fill="white"/>
<path fill-rule="evenodd" clip-rule="evenodd" d="M135.593 89.1719H69.2178V98.332H140.84L135.593 89.1719Z" fill="white"/>
<path fill-rule="evenodd" clip-rule="evenodd" d="M225.557 170.586H201.072L201.584 170.287L188.744 147.9H178.165L191.218 170.544H150.096V162.025C150.096 160.827 150.566 159.714 151.419 158.858C152.272 158.002 153.381 157.531 154.575 157.531C155.77 157.531 156.879 158.002 157.732 158.815C158.585 159.671 159.054 160.784 159.054 161.983H168.183C168.183 158.344 166.775 154.92 164.216 152.352C161.657 149.783 158.244 148.371 154.618 148.371C150.992 148.371 147.58 149.783 145.02 152.352C142.461 154.92 141.053 158.344 141.053 161.983V170.458H108.42V161.983C108.42 159.543 110.425 157.531 112.856 157.531C115.331 157.531 117.293 159.543 117.293 161.983H126.421C126.421 154.492 120.321 148.371 112.814 148.371C105.306 148.371 99.206 154.492 99.206 161.983V170.458H87.0486V147.814H77.7919V170.458H69.2178V179.618H230.847L225.557 170.586Z" fill="white"/>
<path fill-rule="evenodd" clip-rule="evenodd" d="M180.724 129.88H156.922L144.21 107.707H133.631L146.385 129.88H86.9633V107.707H77.7919V129.88H69.2178V139.04H186.014L180.724 129.88Z" fill="white"/>
<path fill-rule="evenodd" clip-rule="evenodd" d="M266.466 211.292H245.82L246.076 211.163L233.236 188.777H222.657L235.582 211.292H191.858V202.26C191.858 201.061 192.327 199.949 193.18 199.092C194.034 198.236 195.143 197.766 196.337 197.766C197.531 197.766 198.641 198.236 199.494 199.05C200.347 199.906 200.816 201.019 200.816 202.217H209.945C209.945 198.579 208.537 195.155 205.978 192.586C203.418 190.018 200.006 188.605 196.38 188.605C192.754 188.605 189.341 190.018 186.782 192.586C184.222 195.155 182.815 198.579 182.815 202.217V211.249H150.182V202.26C150.182 201.061 150.651 199.949 151.504 199.092C152.357 198.236 153.466 197.766 154.661 197.766C157.092 197.766 159.097 199.777 159.097 202.217H168.226C168.226 194.726 162.126 188.605 154.618 188.605C150.992 188.605 147.58 190.018 145.02 192.586C142.461 195.155 141.053 198.579 141.053 202.217V211.206H108.42V202.217C108.42 199.777 110.425 197.766 112.856 197.766C115.288 197.766 117.293 199.777 117.293 202.217H126.421C126.421 194.726 120.321 188.605 112.814 188.605C105.306 188.605 99.206 194.726 99.206 202.217V211.206H87.0059V189.076H77.7919V211.206H69.2178V220.366H271.756L266.466 211.292Z" fill="white"/>
<path fill-rule="evenodd" clip-rule="evenodd" d="M342.951 179.746V170.586H236.393L241.639 179.746H342.951Z" fill="white"/>
<path fill-rule="evenodd" clip-rule="evenodd" d="M325.205 189.162V211.292H277.13L282.42 220.452H342.951V211.292H334.334V189.162H325.205Z" fill="white"/>
<path fill-rule="evenodd" clip-rule="evenodd" d="M334.334 252.042V229.869H325.205V252.042H288.008L275.595 230.426H265.016L277.429 252.042H191.858V243.01C191.858 241.812 192.327 240.699 193.18 239.843C194.033 238.986 195.143 238.516 196.337 238.516C197.531 238.516 198.64 238.986 199.494 239.8C200.347 240.656 200.816 241.769 200.816 242.967H209.945C209.945 239.329 208.537 235.905 205.978 233.336C203.418 230.768 200.005 229.355 196.38 229.355C192.754 229.355 189.341 230.768 186.782 233.336C184.222 235.905 182.815 239.329 182.815 242.967V251.999H150.182V243.01C150.182 241.812 150.651 240.699 151.504 239.843C152.357 238.986 153.466 238.516 154.661 238.516C157.092 238.516 159.097 240.527 159.097 242.967H168.226C168.226 235.476 162.126 229.355 154.618 229.355C150.992 229.355 147.579 230.768 145.02 233.336C142.461 235.905 141.053 239.329 141.053 242.967V251.956H108.42V242.967C108.42 240.527 110.425 238.516 112.856 238.516C114.051 238.516 115.16 238.986 116.013 239.8C116.866 240.656 117.335 241.769 117.335 242.967H126.464C126.464 239.329 125.056 235.905 122.497 233.336C119.937 230.768 116.525 229.355 112.899 229.355C105.391 229.355 99.2912 235.476 99.2912 242.967V251.956H86.8778V230.34H77.5785V251.956H39.4854L40.5518 261.116H368.503L369.569 251.956H334.334V252.042Z" fill="white"/>
<path fill-rule="evenodd" clip-rule="evenodd" d="M132.052 274.898V377.329L141.224 382.38V274.898H132.052Z" fill="white"/>
<path fill-rule="evenodd" clip-rule="evenodd" d="M154.661 274.898V389.871L163.832 394.921V274.898H154.661Z" fill="white"/>
<path fill-rule="evenodd" clip-rule="evenodd" d="M109.444 274.898V364.787L118.615 369.838V274.898H109.444Z" fill="white"/>
<path fill-rule="evenodd" clip-rule="evenodd" d="M86.835 274.898V352.203L95.9637 357.297V274.898H86.835Z" fill="white"/>
<path fill-rule="evenodd" clip-rule="evenodd" d="M42.1304 274.898L48.5717 330.972L50.7472 332.213V274.898H42.1304Z" fill="white"/>
<path fill-rule="evenodd" clip-rule="evenodd" d="M199.92 274.898V414.954L204.484 417.522L209.049 414.997V274.898H199.92Z" fill="white"/>
<path fill-rule="evenodd" clip-rule="evenodd" d="M64.2266 274.898V339.661L73.3553 344.755V274.898H64.2266Z" fill="white"/>
<path fill-rule="evenodd" clip-rule="evenodd" d="M177.312 274.898V402.412L186.441 407.506V274.898H177.312Z" fill="white"/>
<path fill-rule="evenodd" clip-rule="evenodd" d="M335.613 274.898V344.755L344.742 339.704V274.898H335.613Z" fill="white"/>
<path fill-rule="evenodd" clip-rule="evenodd" d="M222.528 274.898V407.506L231.657 402.455V274.898H222.528Z" fill="white"/>
<path fill-rule="evenodd" clip-rule="evenodd" d="M313.005 274.898V357.297L322.134 352.246V274.898H313.005Z" fill="white"/>
<path fill-rule="evenodd" clip-rule="evenodd" d="M358.222 274.898V332.213L360.44 330.972L366.882 274.898H358.222Z" fill="white"/>
<path fill-rule="evenodd" clip-rule="evenodd" d="M290.354 274.898V369.881L299.526 364.787V274.898H290.354Z" fill="white"/>
<path fill-rule="evenodd" clip-rule="evenodd" d="M245.137 274.898V394.964L254.266 389.871V274.898H245.137Z" fill="white"/>
<path fill-rule="evenodd" clip-rule="evenodd" d="M267.746 274.898V382.423L276.917 377.329V274.898H267.746Z" fill="white"/>
</g>
<defs>
<linearGradient id='a' gradientUnits='objectBoundingBox' x1='0' y1='0' x2='1' y2='1'>
    <stop offset='0' stop-color='red'>
    <animate attributeName="stop-color"
        values="#5C44E4;#8514F5;#F736E3;#E90464;#F11653" dur="20s" repeatCount="indefinite">
    </animate>
    </stop>
    <stop offset='.5' stop-color='purple'>
    <animate attributeName="stop-color"
        values="#8514F5;#F736E3;#E90464;#F11653;#5C44E4;" dur="20s" repeatCount="indefinite">
    </animate>
    </stop>
    <stop offset='1' stop-color='blue'>
    <animate attributeName="stop-color"
        values="#F736E3;#E90464;#F11653;#5C44E4;#8514F5;" dur="20s" repeatCount="indefinite">
    </animate>
    </stop>
    <animateTransform attributeName="gradientTransform" type="rotate" from="0 .5 .5" to="360 .5 .5"
    dur="20s" repeatCount="indefinite" />
</linearGradient>
<clipPath id="clip0_2357_2565">
<rect width="409" height="439" fill="white"/>
</clipPath>
</defs>
</svg>
