<svg width="482" height="262" viewBox="0 0 482 262" fill="none" xmlns="http://www.w3.org/2000/svg">
<path fill-rule="evenodd" clip-rule="evenodd" d="M0 128.611L52.2108 176.459V132.289H66.8261V209.077L14.7073 161.229V205.429H0V128.611V128.611ZM118.792 178.252V166.366H155.254C155.468 171.929 154.794 177.188 153.262 182.113C151.73 187.068 149.371 191.415 146.215 195.154C143.059 198.923 139.106 201.872 134.418 204.03C129.7 206.189 124.307 207.253 118.179 207.253C110.519 207.253 103.717 205.642 97.7727 202.389C91.8285 199.167 87.1712 194.637 83.8008 188.861C80.4304 183.086 78.7451 176.398 78.7451 168.829C78.7451 161.229 80.461 154.602 83.9233 148.887C87.355 143.172 92.1042 138.734 98.1097 135.572C104.115 132.411 110.948 130.83 118.608 130.83C126.115 130.83 132.58 132.35 138.003 135.36C143.426 138.4 147.808 142.443 151.178 147.519L138.218 155.028C136.318 151.897 133.775 149.313 130.588 147.306C127.402 145.3 123.418 144.267 118.639 144.267C114.226 144.267 110.182 145.27 106.505 147.246C102.859 149.222 99.9481 152.049 97.8033 155.696C95.6585 159.344 94.5861 163.722 94.5861 168.798C94.5861 173.875 95.6279 178.283 97.742 182.052C99.8562 185.822 102.706 188.71 106.321 190.777C109.937 192.844 114.043 193.847 118.608 193.847C124.644 193.847 129.363 192.357 132.733 189.348C136.103 186.369 138.463 182.63 139.78 178.192H118.792V178.252ZM212.152 178.86V205.368H196.985V132.32H206.269H212.183H221.865C227.687 132.32 232.681 133.293 236.787 135.238C240.893 137.184 244.049 139.92 246.224 143.446C248.4 146.972 249.503 151.045 249.503 155.696C249.503 160.834 248.154 165.272 245.458 169.011C242.762 172.72 238.901 175.425 233.907 177.097L253.945 205.368H235.929L218.648 178.86H212.152ZM212.152 166.974H220.885C224.807 166.974 227.932 166.032 230.261 164.117C232.589 162.202 233.754 159.527 233.754 156.122C233.754 152.657 232.589 149.951 230.261 148.036C227.932 146.121 224.807 145.178 220.885 145.178H212.152V166.974ZM258.235 168.859C258.235 163.296 259.216 158.189 261.177 153.569C263.137 148.948 265.895 144.935 269.388 141.561C272.912 138.187 277.017 135.572 281.767 133.688C286.516 131.803 291.663 130.861 297.209 130.861C302.816 130.861 307.995 131.803 312.713 133.688C317.432 135.572 321.538 138.187 325.092 141.561C328.646 144.935 331.373 148.948 333.303 153.569C335.234 158.189 336.214 163.296 336.214 168.859C336.214 174.361 335.234 179.468 333.303 184.15C331.373 188.861 328.677 192.905 325.184 196.37C321.691 199.805 317.585 202.48 312.866 204.395C308.117 206.31 302.908 207.253 297.209 207.253C291.51 207.253 286.301 206.31 281.552 204.395C276.803 202.48 272.697 199.805 269.235 196.37C265.742 192.935 263.046 188.861 261.115 184.15C259.185 179.438 258.235 174.361 258.235 168.859ZM274.229 168.859C274.229 173.51 275.21 177.675 277.171 181.292C279.132 184.91 281.859 187.737 285.29 189.804C288.722 191.871 292.705 192.874 297.209 192.874C301.713 192.874 305.666 191.841 309.128 189.804C312.56 187.737 315.287 184.91 317.248 181.292C319.209 177.675 320.189 173.541 320.189 168.859C320.189 164.178 319.24 160.043 317.34 156.426C315.44 152.809 312.774 149.981 309.343 147.914C305.911 145.847 301.867 144.844 297.209 144.844C292.705 144.844 288.753 145.878 285.29 147.914C281.859 149.981 279.132 152.809 277.171 156.426C275.21 160.043 274.229 164.178 274.229 168.859ZM362.136 165.09L357.387 205.368H341.576L352.545 128.642L383.523 175.729L414.285 128.642L425.469 205.368H409.444L404.695 165.09L383.523 198.589L362.136 165.09ZM449.736 172.811V192.631H482V205.368H449.736H444.68H434.998V132.32H444.68H449.736H482V145.057H449.736V160.408H479.886V172.841H449.736V172.811Z" fill="#DD0031"/>
<path fill-rule="evenodd" clip-rule="evenodd" d="M241.247 0L240.465 0.280284L191.613 17.5285L189.852 18.1538L190.07 20.008L197.524 83.9774L197.654 85.1848L198.719 85.7669L240.117 108.47L241.247 109.095L242.399 108.47L283.798 85.7669L284.841 85.1848L284.993 83.9774L292.447 20.008L292.664 18.1538L290.882 17.5285L242.052 0.280284L241.247 0Z" fill="#DD0031"/>
<path fill-rule="evenodd" clip-rule="evenodd" d="M249.693 59.2745C249.998 59.2745 250.28 59.3823 250.476 59.598C250.693 59.8136 250.802 60.0938 250.802 60.3741H253.105C253.105 59.4686 252.757 58.6277 252.105 57.9809C251.454 57.3341 250.606 56.9892 249.693 56.9892C247.803 56.9892 246.281 58.5199 246.281 60.3741V62.6164H248.585V60.3741C248.563 59.7704 249.085 59.2745 249.693 59.2745Z" fill="#F9F9F9"/>
<path fill-rule="evenodd" clip-rule="evenodd" d="M223.92 22.1477H207.252V24.4331H225.245L223.92 22.1477Z" fill="#F9F9F9"/>
<path fill-rule="evenodd" clip-rule="evenodd" d="M246.542 42.3928H240.392L240.523 42.3282L237.285 36.7656H234.633L237.915 42.3928H227.571V40.2799C227.571 39.9781 227.679 39.6978 227.897 39.5038C228.114 39.2882 228.396 39.1804 228.679 39.1804C228.983 39.1804 229.266 39.2882 229.461 39.5038C229.679 39.7194 229.787 39.9996 229.787 40.2799H232.091C232.091 39.3744 231.743 38.5335 231.091 37.8867C230.461 37.2399 229.592 36.895 228.679 36.895C227.766 36.895 226.919 37.2399 226.267 37.8867C225.615 38.5335 225.267 39.3744 225.267 40.2799V42.3928H217.074V40.2799C217.074 39.6762 217.574 39.1804 218.183 39.1804C218.791 39.1804 219.291 39.6762 219.291 40.2799H221.594C221.594 38.4042 220.051 36.895 218.183 36.895C216.292 36.895 214.771 38.4257 214.771 40.2799V42.3928H211.707V36.7656H209.403V42.3928H207.252V44.6782H247.868L246.542 42.3928Z" fill="#F9F9F9"/>
<path fill-rule="evenodd" clip-rule="evenodd" d="M235.285 32.281H229.287L226.093 26.7616H223.442L226.636 32.281H211.707V26.7616H209.403V32.281H207.252V34.5449H236.589L235.285 32.281Z" fill="#F9F9F9"/>
<path fill-rule="evenodd" clip-rule="evenodd" d="M256.821 52.5046H251.627L251.693 52.4615L248.455 46.8989H245.803L249.063 52.4831H238.067V50.2408C238.067 49.9389 238.176 49.6587 238.393 49.4646C238.61 49.249 238.893 49.1412 239.175 49.1412C239.479 49.1412 239.762 49.249 239.958 49.4646C240.175 49.6802 240.283 49.9605 240.283 50.2408H242.587C242.587 49.3352 242.239 48.4944 241.587 47.8476C240.935 47.2008 240.088 46.8558 239.175 46.8558C238.262 46.8558 237.415 47.2008 236.763 47.8476C236.111 48.4944 235.763 49.3352 235.763 50.2408V52.4831H227.571V50.2408C227.571 49.9389 227.679 49.6587 227.897 49.4646C228.114 49.249 228.396 49.1412 228.679 49.1412C229.287 49.1412 229.787 49.6371 229.787 50.2408H232.091C232.091 48.365 230.548 46.8558 228.679 46.8558C227.766 46.8558 226.919 47.2008 226.267 47.8476C225.615 48.4944 225.267 49.3352 225.267 50.2408V52.4831H217.074V50.2408C217.074 49.6371 217.574 49.1412 218.183 49.1412C218.791 49.1412 219.291 49.6371 219.291 50.2408H221.594C221.594 48.365 220.051 46.8558 218.183 46.8558C216.292 46.8558 214.771 48.3866 214.771 50.2408V52.4831H211.707V47.0067H209.403V52.5046H207.252V54.79H258.169L256.821 52.5046Z" fill="#F9F9F9"/>
<path fill-rule="evenodd" clip-rule="evenodd" d="M276.054 44.6782V42.3928H249.259L250.584 44.6782H276.054Z" fill="#F9F9F9"/>
<path fill-rule="evenodd" clip-rule="evenodd" d="M271.599 47.0067V52.5046H259.516L260.842 54.79H276.054V52.5046H273.881V47.0067H271.599Z" fill="#F9F9F9"/>
<path fill-rule="evenodd" clip-rule="evenodd" d="M273.881 62.638V57.1185H271.577V62.6164H262.232L259.103 57.2479H256.452L259.581 62.6164H238.067V60.3741C238.067 60.0723 238.176 59.792 238.393 59.598C238.61 59.3824 238.893 59.2745 239.175 59.2745C239.48 59.2745 239.762 59.3824 239.958 59.598C240.175 59.8136 240.284 60.0938 240.284 60.3741H242.587C242.587 59.4686 242.239 58.6277 241.588 57.9809C240.936 57.3341 240.088 56.9892 239.175 56.9892C238.263 56.9892 237.415 57.3341 236.763 57.9809C236.111 58.6277 235.763 59.4686 235.763 60.3741V62.6164H227.571V60.3741C227.571 60.0723 227.679 59.792 227.897 59.598C228.114 59.3824 228.396 59.2745 228.679 59.2745C229.287 59.2745 229.787 59.7704 229.787 60.3741H232.091C232.091 58.4984 230.548 56.9892 228.679 56.9892C227.766 56.9892 226.919 57.3341 226.267 57.9809C225.615 58.6277 225.267 59.4686 225.267 60.3741V62.6164H217.074V60.3741C217.074 59.7704 217.574 59.2745 218.183 59.2745C218.487 59.2745 218.769 59.3824 218.965 59.598C219.182 59.8136 219.291 60.0938 219.291 60.3741H221.595C221.595 59.4686 221.247 58.6277 220.595 57.9809C219.943 57.3341 219.095 56.9892 218.183 56.9892C216.292 56.9892 214.771 58.5199 214.771 60.3741V62.6164H211.641V57.2694H209.338V62.638H199.776L200.037 64.9234H282.464L282.725 62.638H273.881Z" fill="#F9F9F9"/>
<path fill-rule="evenodd" clip-rule="evenodd" d="M223.05 68.3299V93.771L225.332 95.0431V68.3299H223.05Z" fill="#F9F9F9"/>
<path fill-rule="evenodd" clip-rule="evenodd" d="M228.722 68.3299V96.8973L231.026 98.1478V68.3299H228.722Z" fill="#F9F9F9"/>
<path fill-rule="evenodd" clip-rule="evenodd" d="M217.357 68.3299V90.6448L219.66 91.9169V68.3299H217.357Z" fill="#F9F9F9"/>
<path fill-rule="evenodd" clip-rule="evenodd" d="M211.685 68.3299V87.5401L213.967 88.7906V68.3299H211.685Z" fill="#F9F9F9"/>
<path fill-rule="evenodd" clip-rule="evenodd" d="M200.428 68.3299L202.058 82.2578L202.601 82.5597V68.3299H200.428Z" fill="#F9F9F9"/>
<path fill-rule="evenodd" clip-rule="evenodd" d="M240.088 68.3299V103.128L241.261 103.753L242.391 103.128V68.3299H240.088Z" fill="#F9F9F9"/>
<path fill-rule="evenodd" clip-rule="evenodd" d="M205.991 68.3299V84.4139L208.295 85.6859V68.3299H205.991Z" fill="#F9F9F9"/>
<path fill-rule="evenodd" clip-rule="evenodd" d="M234.416 68.3299V100.002L236.72 101.274V68.3299H234.416Z" fill="#F9F9F9"/>
<path fill-rule="evenodd" clip-rule="evenodd" d="M274.206 68.3299V85.6859L276.51 84.4139V68.3299H274.206Z" fill="#F9F9F9"/>
<path fill-rule="evenodd" clip-rule="evenodd" d="M245.782 68.3299V101.274L248.085 100.024V68.3299H245.782Z" fill="#F9F9F9"/>
<path fill-rule="evenodd" clip-rule="evenodd" d="M268.513 68.3299V88.7906L270.816 87.5401V68.3299H268.513Z" fill="#F9F9F9"/>
<path fill-rule="evenodd" clip-rule="evenodd" d="M279.878 68.3299V82.5597L280.443 82.2578L282.073 68.3299H279.878Z" fill="#F9F9F9"/>
<path fill-rule="evenodd" clip-rule="evenodd" d="M262.841 68.3299V91.9169L265.144 90.6664V68.3299H262.841Z" fill="#F9F9F9"/>
<path fill-rule="evenodd" clip-rule="evenodd" d="M251.475 68.3299V98.1478L253.757 96.8973V68.3299H251.475Z" fill="#F9F9F9"/>
<path fill-rule="evenodd" clip-rule="evenodd" d="M257.147 68.3299V95.0431L259.451 93.771V68.3299H257.147Z" fill="#F9F9F9"/>
</svg>
