<svg width="78" height="83" viewBox="0 0 78 83" fill="none" xmlns="http://www.w3.org/2000/svg">
<g clip-path="url(#clip0_2617_2)">
<path fill-rule="evenodd" clip-rule="evenodd" d="M38.6872 0L38.09 0.210163L1.32347 13.3211L0 13.798L0.161398 15.1964L5.76999 63.8167L5.8749 64.722L6.67382 65.1666L37.8318 82.4242L38.6872 82.9011L39.5507 82.4242L70.7005 65.1666L71.4995 64.722L71.6044 63.8167L77.213 15.1964L77.3744 13.798L76.0509 13.3211L39.2844 0.210163L38.6872 0Z" fill="#DD0031"/>
<path fill-rule="evenodd" clip-rule="evenodd" d="M45.0434 45.0415C45.2694 45.0415 45.4792 45.1304 45.6406 45.284C45.802 45.4375 45.8907 45.6558 45.8907 45.8821H47.6177C47.6177 45.195 47.3514 44.5484 46.8672 44.0634C46.383 43.5784 45.7374 43.3117 45.0515 43.3117C43.6312 43.3117 42.4772 44.4676 42.4772 45.8821V47.5877H44.2041V45.8821C44.1961 45.4214 44.5753 45.0415 45.0434 45.0415Z" fill="white"/>
<path fill-rule="evenodd" clip-rule="evenodd" d="M25.6514 16.8392H13.0946V18.569H26.644L25.6514 16.8392Z" fill="white"/>
<path fill-rule="evenodd" clip-rule="evenodd" d="M42.6708 32.2134H38.0387L38.1355 32.1569L35.7065 27.9293H33.7052L36.1746 32.2053H28.3952V30.5968C28.3952 30.3705 28.4839 30.1603 28.6453 29.9986C28.8067 29.837 29.0165 29.7481 29.2425 29.7481C29.4685 29.7481 29.6783 29.837 29.8397 29.9906C30.0011 30.1522 30.0898 30.3624 30.0898 30.5887H31.8168C31.8168 29.9016 31.5505 29.255 31.0663 28.77C30.5821 28.285 29.9365 28.0183 29.2506 28.0183C28.5646 28.0183 27.919 28.285 27.4348 28.77C26.9506 29.255 26.6843 29.9016 26.6843 30.5887V32.1892H20.5108V30.5887C20.5108 30.128 20.8901 29.7481 21.3501 29.7481C21.8182 29.7481 22.1894 30.128 22.1894 30.5887H23.9163C23.9163 29.1742 22.7623 28.0183 21.342 28.0183C19.9217 28.0183 18.7677 29.1742 18.7677 30.5887V32.1892H16.4678V27.9132H14.7166V32.1892H13.0946V33.919H43.6715L42.6708 32.2134Z" fill="white"/>
<path fill-rule="evenodd" clip-rule="evenodd" d="M34.1894 24.5263H29.6863L27.2815 20.3392H25.2802L27.6931 24.5263H16.4517V20.3392H14.7166V24.5263H13.0946V26.2561H35.19L34.1894 24.5263Z" fill="white"/>
<path fill-rule="evenodd" clip-rule="evenodd" d="M50.4099 39.9005H46.504L46.5525 39.8763L44.1234 35.6488H42.1221L44.5673 39.9005H36.2956V38.195C36.2956 37.9687 36.3844 37.7585 36.5458 37.5968C36.7072 37.4352 36.917 37.3463 37.1429 37.3463C37.3689 37.3463 37.5787 37.4352 37.7401 37.5888C37.9015 37.7504 37.9903 37.9606 37.9903 38.1869H39.7172C39.7172 37.4998 39.4509 36.8532 38.9667 36.3682C38.4825 35.8832 37.837 35.6165 37.151 35.6165C36.4651 35.6165 35.8195 35.8832 35.3353 36.3682C34.8511 36.8532 34.5848 37.4998 34.5848 38.1869V39.8925H28.4113V38.195C28.4113 37.9687 28.5001 37.7585 28.6615 37.5968C28.8229 37.4352 29.0327 37.3463 29.2586 37.3463C29.7186 37.3463 30.0979 37.7262 30.0979 38.1869H31.8249C31.8249 36.7724 30.6709 35.6165 29.2506 35.6165C28.5646 35.6165 27.919 35.8832 27.4348 36.3682C26.9506 36.8532 26.6843 37.4998 26.6843 38.1869V39.8844H20.5108V38.1869C20.5108 37.7262 20.8901 37.3463 21.3501 37.3463C21.8101 37.3463 22.1894 37.7262 22.1894 38.1869H23.9163C23.9163 36.7724 22.7623 35.6165 21.342 35.6165C19.9217 35.6165 18.7677 36.7724 18.7677 38.1869V39.8844H16.4597V35.7054H14.7166V39.8844H13.0946V41.6142H51.4106L50.4099 39.9005Z" fill="white"/>
<path fill-rule="evenodd" clip-rule="evenodd" d="M64.8792 33.9432V32.2134H44.7206L45.7132 33.9432H64.8792Z" fill="white"/>
<path fill-rule="evenodd" clip-rule="evenodd" d="M61.5222 35.7215V39.9005H52.4274L53.428 41.6303H64.8792V39.9005H63.2491V35.7215H61.5222Z" fill="white"/>
<path fill-rule="evenodd" clip-rule="evenodd" d="M63.2491 47.5957V43.4087H61.5222V47.5957H54.4852L52.1368 43.5137H50.1355L52.4838 47.5957H36.2956V45.8902C36.2956 45.6639 36.3844 45.4537 36.5458 45.292C36.7072 45.1304 36.917 45.0415 37.1429 45.0415C37.3689 45.0415 37.5787 45.1304 37.7401 45.284C37.9015 45.4456 37.9903 45.6558 37.9903 45.8821H39.7172C39.7172 45.195 39.4509 44.5484 38.9667 44.0634C38.4825 43.5784 37.8369 43.3117 37.151 43.3117C36.4651 43.3117 35.8195 43.5784 35.3353 44.0634C34.8511 44.5484 34.5848 45.195 34.5848 45.8821V47.5877H28.4113V45.8902C28.4113 45.6639 28.5001 45.4537 28.6615 45.292C28.8228 45.1304 29.0327 45.0415 29.2586 45.0415C29.7186 45.0415 30.0979 45.4214 30.0979 45.8821H31.8249C31.8249 44.4676 30.6709 43.3117 29.2506 43.3117C28.5646 43.3117 27.919 43.5784 27.4348 44.0634C26.9506 44.5484 26.6843 45.195 26.6843 45.8821V47.5796H20.5108V45.8821C20.5108 45.4214 20.8901 45.0415 21.3501 45.0415C21.5761 45.0415 21.7859 45.1304 21.9473 45.284C22.1087 45.4456 22.1974 45.6558 22.1974 45.8821H23.9244C23.9244 45.195 23.6581 44.5484 23.1739 44.0634C22.6897 43.5784 22.0441 43.3117 21.3582 43.3117C19.9379 43.3117 18.7839 44.4676 18.7839 45.8821V47.5796H16.4355V43.4976H14.6763V47.5796H7.46985L7.6716 49.3094H69.7131L69.9149 47.5796H63.2491V47.5957Z" fill="white"/>
<path fill-rule="evenodd" clip-rule="evenodd" d="M24.9816 51.9121V71.2552L26.7166 72.209V51.9121H24.9816Z" fill="white"/>
<path fill-rule="evenodd" clip-rule="evenodd" d="M29.2587 51.9121V73.6236L30.9937 74.5774V51.9121H29.2587Z" fill="white"/>
<path fill-rule="evenodd" clip-rule="evenodd" d="M20.7045 51.9121V68.8868L22.4395 69.8406V51.9121H20.7045Z" fill="white"/>
<path fill-rule="evenodd" clip-rule="evenodd" d="M16.4275 51.9121V66.5104L18.1544 67.4723V51.9121H16.4275Z" fill="white"/>
<path fill-rule="evenodd" clip-rule="evenodd" d="M7.97021 51.9121L9.18877 62.5011L9.60034 62.7355V51.9121H7.97021Z" fill="white"/>
<path fill-rule="evenodd" clip-rule="evenodd" d="M37.8208 51.9121V78.3603L38.6843 78.8453L39.5478 78.3684V51.9121H37.8208Z" fill="white"/>
<path fill-rule="evenodd" clip-rule="evenodd" d="M12.1504 51.9121V64.142L13.8773 65.1039V51.9121H12.1504Z" fill="white"/>
<path fill-rule="evenodd" clip-rule="evenodd" d="M33.5438 51.9121V75.9919L35.2708 76.9538V51.9121H33.5438Z" fill="white"/>
<path fill-rule="evenodd" clip-rule="evenodd" d="M63.4912 51.9121V65.1039L65.2181 64.1501V51.9121H63.4912Z" fill="white"/>
<path fill-rule="evenodd" clip-rule="evenodd" d="M42.0978 51.9121V76.9538L43.8248 76V51.9121H42.0978Z" fill="white"/>
<path fill-rule="evenodd" clip-rule="evenodd" d="M59.2141 51.9121V67.4723L60.9411 66.5185V51.9121H59.2141Z" fill="white"/>
<path fill-rule="evenodd" clip-rule="evenodd" d="M67.7683 51.9121V62.7355L68.1879 62.5011L69.4065 51.9121H67.7683Z" fill="white"/>
<path fill-rule="evenodd" clip-rule="evenodd" d="M54.9291 51.9121V69.8487L56.6641 68.8868V51.9121H54.9291Z" fill="white"/>
<path fill-rule="evenodd" clip-rule="evenodd" d="M46.375 51.9121V74.5855L48.1019 73.6236V51.9121H46.375Z" fill="white"/>
<path fill-rule="evenodd" clip-rule="evenodd" d="M50.652 51.9121V72.2171L52.387 71.2552V51.9121H50.652Z" fill="white"/>
</g>
<defs>
<clipPath id="clip0_2617_2">
<rect width="77.3744" height="82.9011" fill="white"/>
</clipPath>
</defs>
</svg>
