<svg width="229" height="138" viewBox="0 0 229 138" fill="none" xmlns="http://www.w3.org/2000/svg">
<path fill-rule="evenodd" clip-rule="evenodd" d="M0.518311 61.3121L25.2116 84.1222V63.0656H32.1239V99.6719L7.47415 76.8618V97.9329H0.518311V61.3121ZM56.7012 84.9772V79.3109H73.9459C74.0474 81.9629 73.7286 84.47 73.004 86.8177C72.2794 89.1799 71.1636 91.2522 69.671 93.0347C68.1784 94.8317 66.309 96.2374 64.0918 97.2663C61.8602 98.2952 59.3097 98.8024 56.4114 98.8024C52.7886 98.8024 49.5715 98.0344 46.7602 96.4837C43.9489 94.9476 41.7462 92.7883 40.1521 90.0349C38.5581 87.2814 37.7611 84.0932 37.7611 80.4848C37.7611 76.8618 38.5726 73.7026 40.2101 70.9781C41.8331 68.2537 44.0793 66.1379 46.9196 64.6307C49.7599 63.1236 52.9915 62.37 56.6143 62.37C60.1647 62.37 63.2224 63.0946 65.7873 64.5293C68.3523 65.9784 70.4245 67.9059 72.0186 70.326L65.8888 73.9055C64.9903 72.4128 63.7875 71.181 62.2804 70.2245C60.7733 69.2681 58.8894 68.7754 56.6288 68.7754C54.542 68.7754 52.6292 69.2536 50.8902 70.1956C49.1657 71.1375 47.7891 72.4853 46.7747 74.2243C45.7603 75.9633 45.2531 78.0501 45.2531 80.4703C45.2531 82.8904 45.7458 84.9917 46.7457 86.7887C47.7456 88.5857 49.0933 89.9624 50.8033 90.9479C52.5132 91.9333 54.4551 92.4115 56.6143 92.4115C59.4691 92.4115 61.7008 91.7014 63.2948 90.2667C64.8889 88.8465 66.0047 87.064 66.6278 84.9482H56.7012V84.9772ZM100.856 85.2671V97.9039H93.6832V63.0801H98.074H100.871H105.45C108.203 63.0801 110.566 63.5438 112.507 64.4713C114.449 65.3988 115.942 66.703 116.971 68.3841C118 70.0651 118.521 72.007 118.521 74.2243C118.521 76.6734 117.884 78.7892 116.608 80.5717C115.333 82.3397 113.507 83.6295 111.145 84.4265L120.623 97.9039H112.102L103.929 85.2671H100.856ZM100.856 79.6008H104.986C106.841 79.6008 108.319 79.1515 109.421 78.2385C110.522 77.3255 111.073 76.0503 111.073 74.4272C111.073 72.7751 110.522 71.4853 109.421 70.5723C108.319 69.6594 106.841 69.2101 104.986 69.2101H100.856V79.6008ZM122.651 80.4992C122.651 77.8472 123.115 75.4126 124.043 73.2099C124.97 71.0071 126.274 69.0942 127.926 67.4856C129.593 65.877 131.535 64.6307 133.781 63.7322C136.027 62.8337 138.461 62.3845 141.084 62.3845C143.736 62.3845 146.185 62.8337 148.417 63.7322C150.649 64.6307 152.59 65.877 154.271 67.4856C155.952 69.0942 157.242 71.0071 158.155 73.2099C159.068 75.4126 159.532 77.8472 159.532 80.4992C159.532 83.1223 159.068 85.5569 158.155 87.7886C157.242 90.0349 155.967 91.9623 154.315 93.6143C152.663 95.2519 150.721 96.5272 148.489 97.4402C146.243 98.3532 143.78 98.8024 141.084 98.8024C138.389 98.8024 135.925 98.3532 133.679 97.4402C131.433 96.5272 129.491 95.2519 127.854 93.6143C126.202 91.9768 124.926 90.0349 124.014 87.7886C123.101 85.5424 122.651 83.1223 122.651 80.4992ZM130.216 80.4992C130.216 82.7165 130.68 84.7019 131.607 86.4264C132.534 88.1509 133.824 89.4987 135.447 90.4841C137.07 91.4696 138.954 91.9478 141.084 91.9478C143.215 91.9478 145.084 91.4551 146.721 90.4841C148.344 89.4987 149.634 88.1509 150.562 86.4264C151.489 84.7019 151.953 82.731 151.953 80.4992C151.953 78.2675 151.504 76.2966 150.605 74.5721C149.707 72.8476 148.446 71.4998 146.823 70.5144C145.2 69.5289 143.287 69.0507 141.084 69.0507C138.954 69.0507 137.085 69.5434 135.447 70.5144C133.824 71.4998 132.534 72.8476 131.607 74.5721C130.68 76.2966 130.216 78.2675 130.216 80.4992ZM171.791 78.7023L169.545 97.9039H162.068L167.256 61.3266L181.906 83.7744L196.456 61.3266L201.745 97.9039H194.166L191.92 78.7023L181.906 94.6722L171.791 78.7023ZM213.222 82.3832V91.8319H228.482V97.9039H213.222H210.831H206.252V63.0801H210.831H213.222H228.482V69.1521H213.222V76.4705H227.482V82.3977H213.222V82.3832Z" fill="#DD0031"/>
<path fill-rule="evenodd" clip-rule="evenodd" d="M114.617 0L114.247 0.133618L91.1421 8.35628L90.3096 8.65435L90.4123 9.53828L93.9377 40.0341L93.9994 40.6097L94.503 40.8872L114.083 51.7102L114.617 52.0083L115.162 51.7102L134.741 40.8872L135.235 40.6097L135.307 40.0341L138.832 9.53828L138.935 8.65435L138.092 8.35628L114.997 0.133618L114.617 0Z" fill="#DD0031"/>
<path fill-rule="evenodd" clip-rule="evenodd" d="M118.611 28.2576C118.755 28.2576 118.889 28.309 118.981 28.4118C119.084 28.5146 119.136 28.6482 119.136 28.7818H120.225C120.225 28.3501 120.061 27.9493 119.752 27.6409C119.444 27.3326 119.043 27.1681 118.611 27.1681C117.717 27.1681 116.998 27.8979 116.998 28.7818V29.8508H118.087V28.7818C118.077 28.494 118.324 28.2576 118.611 28.2576Z" fill="white"/>
<path fill-rule="evenodd" clip-rule="evenodd" d="M106.422 10.5583H98.5386V11.6479H107.049L106.422 10.5583Z" fill="white"/>
<path fill-rule="evenodd" clip-rule="evenodd" d="M117.121 20.2097H114.212L114.274 20.1788L112.743 17.527H111.489L113.041 20.2097H108.148V19.2024C108.148 19.0585 108.2 18.9249 108.303 18.8324C108.405 18.7296 108.539 18.6782 108.673 18.6782C108.817 18.6782 108.95 18.7296 109.043 18.8324C109.145 18.9352 109.197 19.0688 109.197 19.2024H110.286C110.286 18.7707 110.122 18.3699 109.814 18.0615C109.515 17.7532 109.104 17.5887 108.673 17.5887C108.241 17.5887 107.84 17.7532 107.532 18.0615C107.223 18.3699 107.059 18.7707 107.059 19.2024V20.2097H103.184V19.2024C103.184 18.9146 103.421 18.6782 103.708 18.6782C103.996 18.6782 104.233 18.9146 104.233 19.2024H105.322C105.322 18.3082 104.592 17.5887 103.708 17.5887C102.814 17.5887 102.095 18.3185 102.095 19.2024V20.2097H100.646V17.527H99.5561V20.2097H98.5386V21.2992H117.748L117.121 20.2097Z" fill="white"/>
<path fill-rule="evenodd" clip-rule="evenodd" d="M111.797 15.3892H108.96L107.45 12.7579H106.196L107.707 15.3892H100.646V12.7579H99.5561V15.3892H98.5386V16.4684H112.414L111.797 15.3892Z" fill="white"/>
<path fill-rule="evenodd" clip-rule="evenodd" d="M121.983 25.0302H119.526L119.557 25.0097L118.026 22.3579H116.772L118.313 25.02H113.113V23.951C113.113 23.8071 113.164 23.6735 113.267 23.581C113.37 23.4782 113.503 23.4268 113.637 23.4268C113.781 23.4268 113.914 23.4782 114.007 23.581C114.11 23.6838 114.161 23.8174 114.161 23.951H115.251C115.251 23.5193 115.086 23.1185 114.778 22.8101C114.469 22.5018 114.069 22.3373 113.637 22.3373C113.205 22.3373 112.804 22.5018 112.496 22.8101C112.188 23.1185 112.023 23.5193 112.023 23.951V25.02H108.148V23.951C108.148 23.8071 108.2 23.6735 108.303 23.581C108.405 23.4782 108.539 23.4268 108.673 23.4268C108.96 23.4268 109.197 23.6632 109.197 23.951H110.286C110.286 23.0568 109.557 22.3373 108.673 22.3373C108.241 22.3373 107.84 22.5018 107.532 22.8101C107.223 23.1185 107.059 23.5193 107.059 23.951V25.02H103.184V23.951C103.184 23.6632 103.421 23.4268 103.708 23.4268C103.996 23.4268 104.233 23.6632 104.233 23.951H105.322C105.322 23.0568 104.592 22.3373 103.708 22.3373C102.814 22.3373 102.095 23.0671 102.095 23.951V25.02H100.646V22.4093H99.5561V25.0302H98.5386V26.1198H122.62L121.983 25.0302Z" fill="white"/>
<path fill-rule="evenodd" clip-rule="evenodd" d="M131.079 21.2992V20.2097H118.406L119.033 21.2992H131.079Z" fill="white"/>
<path fill-rule="evenodd" clip-rule="evenodd" d="M128.972 22.4093V25.0302H123.257L123.884 26.1197H131.079V25.0302H130.051V22.4093H128.972Z" fill="white"/>
<path fill-rule="evenodd" clip-rule="evenodd" d="M130.051 29.861V27.2298H128.961V29.8508H124.542L123.062 27.2915H121.808L123.288 29.8508H113.113V28.7818C113.113 28.6379 113.164 28.5043 113.267 28.4118C113.37 28.309 113.503 28.2576 113.637 28.2576C113.781 28.2576 113.914 28.309 114.007 28.4118C114.11 28.5146 114.161 28.6482 114.161 28.7818H115.251C115.251 28.3501 115.086 27.9493 114.778 27.6409C114.469 27.3326 114.069 27.1681 113.637 27.1681C113.205 27.1681 112.804 27.3326 112.496 27.6409C112.188 27.9493 112.023 28.3501 112.023 28.7818V29.8508H108.148V28.7818C108.148 28.6379 108.2 28.5043 108.303 28.4118C108.405 28.309 108.539 28.2576 108.673 28.2576C108.96 28.2576 109.197 28.494 109.197 28.7818H110.286C110.286 27.8876 109.557 27.1681 108.673 27.1681C108.241 27.1681 107.84 27.3326 107.532 27.6409C107.223 27.9493 107.059 28.3501 107.059 28.7818V29.8508H103.184V28.7818C103.184 28.494 103.421 28.2576 103.708 28.2576C103.852 28.2576 103.986 28.309 104.078 28.4118C104.181 28.5146 104.233 28.6482 104.233 28.7818H105.322C105.322 28.3501 105.158 27.9493 104.849 27.6409C104.541 27.3326 104.14 27.1681 103.708 27.1681C102.814 27.1681 102.095 27.8979 102.095 28.7818V29.8508H100.615V27.3017H99.5252V29.861H95.0029L95.1263 30.9505H134.111L134.234 29.861H130.051Z" fill="white"/>
<path fill-rule="evenodd" clip-rule="evenodd" d="M106.011 32.5745V44.7029L107.09 45.3094V32.5745H106.011Z" fill="white"/>
<path fill-rule="evenodd" clip-rule="evenodd" d="M108.693 32.5745V46.1933L109.783 46.7894V32.5745H108.693Z" fill="white"/>
<path fill-rule="evenodd" clip-rule="evenodd" d="M103.318 32.5745V43.2126L104.407 43.819V32.5745H103.318Z" fill="white"/>
<path fill-rule="evenodd" clip-rule="evenodd" d="M100.635 32.5745V41.7325L101.714 42.3287V32.5745H100.635Z" fill="white"/>
<path fill-rule="evenodd" clip-rule="evenodd" d="M95.3113 32.5745L96.0821 39.2143L96.3391 39.3582V32.5745H95.3113Z" fill="white"/>
<path fill-rule="evenodd" clip-rule="evenodd" d="M114.069 32.5745V49.1637L114.624 49.4618L115.158 49.1637V32.5745H114.069Z" fill="white"/>
<path fill-rule="evenodd" clip-rule="evenodd" d="M97.9424 32.5745V40.2422L99.0319 40.8486V32.5745H97.9424Z" fill="white"/>
<path fill-rule="evenodd" clip-rule="evenodd" d="M111.386 32.5745V47.6734L112.475 48.2798V32.5745H111.386Z" fill="white"/>
<path fill-rule="evenodd" clip-rule="evenodd" d="M130.205 32.5745V40.8486L131.295 40.2422V32.5745H130.205Z" fill="white"/>
<path fill-rule="evenodd" clip-rule="evenodd" d="M116.761 32.5745V48.2798L117.851 47.6837V32.5745H116.761Z" fill="white"/>
<path fill-rule="evenodd" clip-rule="evenodd" d="M127.512 32.5745V42.3287L128.602 41.7325V32.5745H127.512Z" fill="white"/>
<path fill-rule="evenodd" clip-rule="evenodd" d="M132.888 32.5745V39.3582L133.155 39.2143L133.926 32.5745H132.888Z" fill="white"/>
<path fill-rule="evenodd" clip-rule="evenodd" d="M124.83 32.5745V43.819L125.919 43.2229V32.5745H124.83Z" fill="white"/>
<path fill-rule="evenodd" clip-rule="evenodd" d="M119.454 32.5745V46.7894L120.534 46.1933V32.5745H119.454Z" fill="white"/>
<path fill-rule="evenodd" clip-rule="evenodd" d="M122.137 32.5745V45.3094L123.226 44.7029V32.5745H122.137Z" fill="white"/>
<path d="M187 105V137.022" stroke="#DD0031" stroke-width="5"/>
<path d="M198 105V137.022" stroke="#DD0031" stroke-width="5"/>
<path d="M175 105V137.075" stroke="#DD0031" stroke-width="5"/>
<path fill-rule="evenodd" clip-rule="evenodd" d="M38.6547 118.441L36.7764 137H32L35.7567 105L46.9732 125.685L58.2433 105L62 137H57.1699L55.2916 118.5L46.9732 134.186L38.6547 118.441Z" fill="#DD0031"/>
<path fill-rule="evenodd" clip-rule="evenodd" d="M76.6547 118.441L74.7764 137H70L73.7567 105L84.9732 125.685L96.2433 105L100 137H95.1699L93.2916 118.5L84.9732 134.186L76.6547 118.441Z" fill="#DD0031"/>
<path fill-rule="evenodd" clip-rule="evenodd" d="M126.332 105H132.433L123.456 120.37L133.072 136.998H126.971L120.609 124.708L114.072 136.998H108L117.82 120.37L109.017 105H115.118L120.667 115.781L126.332 105Z" fill="#DD0031"/>
<path fill-rule="evenodd" clip-rule="evenodd" d="M159.332 105H165.433L156.456 120.37L166.072 136.998H159.971L153.638 124.708L147.072 136.998H141L150.82 120.37L142.017 105H148.118L153.667 115.781L159.332 105Z" fill="#DD0031"/>
</svg>
