<svg width="77" height="83" viewBox="0 0 77 83" fill="none" xmlns="http://www.w3.org/2000/svg">
<path fill-rule="evenodd" clip-rule="evenodd" d="M38.5061 0L37.9039 0.208939L1.31508 13.2369L0 13.7039L0.159777 15.105L5.73967 63.4067L5.85028 64.3039L6.63687 64.7464L37.6458 81.8916L38.5061 82.3587L39.3542 81.8916L70.3631 64.7464L71.162 64.3039L71.2603 63.4067L76.8402 15.105L77 13.7039L75.6849 13.2369L39.0961 0.208939L38.5061 0Z" fill="white"/>
<path fill-rule="evenodd" clip-rule="evenodd" d="M44.8189 44.753C45.0401 44.753 45.249 44.8391 45.4088 44.9988C45.5686 45.1586 45.6546 45.3675 45.6546 45.5888H47.3753C47.3753 44.9005 47.1049 44.2614 46.6256 43.7821C46.1462 43.3027 45.4948 43.0323 44.8189 43.0323C43.4055 43.0323 42.2624 44.1754 42.2624 45.5888V47.2849H43.9831V45.5888C43.9831 45.1217 44.3641 44.753 44.8189 44.753Z" fill="#DD0031"/>
<path fill-rule="evenodd" clip-rule="evenodd" d="M25.5229 16.7306H13.0358V18.4513H26.5184L25.5229 16.7306Z" fill="#DD0031"/>
<path fill-rule="evenodd" clip-rule="evenodd" d="M42.4592 32.0081H37.8503L37.9486 31.9589L35.5274 27.7679H33.5363L35.9944 32.0204H28.2514V30.4226C28.2514 30.2014 28.3374 29.9925 28.4972 29.8327C28.657 29.6729 28.8659 29.5869 29.0872 29.5869C29.3084 29.5869 29.5173 29.6729 29.6771 29.8327C29.8369 29.9925 29.9229 30.2014 29.9229 30.4226H31.6436C31.6436 29.7344 31.3732 29.0952 30.8939 28.6159C30.4145 28.1366 29.7631 27.8662 29.0872 27.8662C28.3989 27.8662 27.7598 28.1366 27.2805 28.6159C26.8011 29.0952 26.5307 29.7466 26.5307 30.4226V32.0204H20.3855V30.4349C20.3855 29.9679 20.7665 29.5992 21.2212 29.5992C21.6883 29.5992 22.057 29.9802 22.057 30.4349H23.7777C23.7777 29.0215 22.6347 27.8785 21.2212 27.8785C19.8078 27.8785 18.6648 29.0215 18.6648 30.4349V32.0204H16.3665V27.7556H14.6458V32.0081H13.0358V33.7288H43.4671L42.4592 32.0081Z" fill="#DD0031"/>
<path fill-rule="evenodd" clip-rule="evenodd" d="M34.0279 24.3631H29.5419L27.1453 20.2089H25.1542L27.5631 24.3631H16.3665V20.2089H14.6458V24.3631H13.0358V26.0838H35.0112L34.0279 24.3631Z" fill="#DD0031"/>
<path fill-rule="evenodd" clip-rule="evenodd" d="M50.1654 39.6404H46.2816L46.3307 39.6158L43.9095 35.4247H41.9184L44.352 39.6527H36.1173V37.9566C36.1173 37.7353 36.2034 37.5264 36.3631 37.3666C36.5229 37.2068 36.7319 37.1208 36.9531 37.1208C37.1743 37.1208 37.3833 37.2068 37.543 37.3666C37.7028 37.5264 37.7888 37.7353 37.7888 37.9566H39.5095C39.5095 37.2683 39.2391 36.6292 38.7598 36.1499C38.2805 35.6705 37.6291 35.4001 36.9531 35.4001C36.2648 35.4001 35.6257 35.6705 35.1464 36.1499C34.6671 36.6292 34.3967 37.2806 34.3967 37.9566V39.6527H28.2514V37.9566C28.2514 37.7353 28.3374 37.5264 28.4972 37.3666C28.657 37.2068 28.8659 37.1208 29.0872 37.1208C29.5542 37.1208 29.9229 37.4895 29.9229 37.9566H31.6436C31.6436 36.5432 30.5006 35.4001 29.0872 35.4001C28.3989 35.4001 27.7598 35.6705 27.2805 36.1499C26.8011 36.6292 26.5307 37.2806 26.5307 37.9566V39.6404H20.3855V37.9566C20.3855 37.4895 20.7665 37.1208 21.2212 37.1208C21.6883 37.1208 22.057 37.4895 22.057 37.9566H23.7777C23.7777 36.5432 22.6346 35.4001 21.2212 35.4001C19.8078 35.4001 18.6648 36.5432 18.6648 37.9566V39.6404H16.3665V35.4862H14.6458V39.6404H13.0358V41.361H51.1609L50.1654 39.6404Z" fill="#DD0031"/>
<path fill-rule="evenodd" clip-rule="evenodd" d="M64.5571 33.7289V32.0082H44.499L45.4946 33.7289H64.5571Z" fill="#DD0031"/>
<path fill-rule="evenodd" clip-rule="evenodd" d="M61.2264 35.4857V39.6399H52.1806L53.1638 41.3606H64.5571V39.6399H62.9471V35.4857H61.2264Z" fill="#DD0031"/>
<path fill-rule="evenodd" clip-rule="evenodd" d="M62.9473 47.2849V43.1307H61.2267V47.2849H54.2211L51.8859 43.229H49.8948L52.23 47.2849H36.1172V45.5888C36.1172 45.3675 36.2032 45.1586 36.363 44.9988C36.5228 44.8391 36.7317 44.753 36.9529 44.753C37.1742 44.753 37.3831 44.8391 37.5429 44.9988C37.7026 45.1586 37.7887 45.3675 37.7887 45.5888H39.5093C39.5093 44.9005 39.239 44.2614 38.7596 43.7821C38.2803 43.3027 37.6289 43.0323 36.9529 43.0323C36.2647 43.0323 35.6255 43.3027 35.1462 43.7821C34.6669 44.2614 34.3965 44.9128 34.3965 45.5888V47.2849H28.2512V45.5888C28.2512 45.3675 28.3373 45.1586 28.4971 44.9988C28.6568 44.8391 28.8658 44.753 29.087 44.753C29.554 44.753 29.9228 45.1217 29.9228 45.5888H31.6434C31.6434 44.1754 30.5004 43.0323 29.087 43.0323C28.3987 43.0323 27.7596 43.3027 27.2803 43.7821C26.801 44.2614 26.5306 44.9128 26.5306 45.5888V47.2726H20.3853V45.5888C20.3853 45.1217 20.7663 44.753 21.2211 44.753C21.4546 44.753 21.6512 44.8391 21.811 44.9988C21.9708 45.1586 22.0568 45.3675 22.0568 45.5888H23.7775C23.7775 44.9005 23.5071 44.2614 23.0278 43.7821C22.5485 43.3027 21.8971 43.0323 21.2211 43.0323C19.8077 43.0323 18.6647 44.1754 18.6647 45.5888V47.2726H16.3295V43.2167H14.6088V47.2726H7.43114L7.62778 48.9932H69.3753L69.5719 47.2726H62.9473V47.2849Z" fill="#DD0031"/>
<path fill-rule="evenodd" clip-rule="evenodd" d="M24.8589 51.5862V70.7962L26.5796 71.7426V51.5862H24.8589Z" fill="#DD0031"/>
<path fill-rule="evenodd" clip-rule="evenodd" d="M29.1239 51.5862V73.1437L30.8446 74.1024V51.5862H29.1239Z" fill="#DD0031"/>
<path fill-rule="evenodd" clip-rule="evenodd" d="M20.6067 51.5862V68.4365L22.3273 69.3951V51.5862H20.6067Z" fill="#DD0031"/>
<path fill-rule="evenodd" clip-rule="evenodd" d="M16.354 51.5862V66.089L18.0747 67.0353V51.5862H16.354Z" fill="#DD0031"/>
<path fill-rule="evenodd" clip-rule="evenodd" d="M7.92281 51.5862L9.13957 62.0946L9.55744 62.3281V51.5862H7.92281Z" fill="#DD0031"/>
<path fill-rule="evenodd" clip-rule="evenodd" d="M37.6411 51.5862V77.851L38.5015 78.3303L39.3618 77.8633V51.5862H37.6411Z" fill="#DD0031"/>
<path fill-rule="evenodd" clip-rule="evenodd" d="M12.0894 51.5862V63.7292L13.8101 64.6756V51.5862H12.0894Z" fill="#DD0031"/>
<path fill-rule="evenodd" clip-rule="evenodd" d="M33.3766 51.5862V75.5035L35.0972 76.4499V51.5862H33.3766Z" fill="#DD0031"/>
<path fill-rule="evenodd" clip-rule="evenodd" d="M63.1809 51.5862V64.6879L64.9015 63.7292V51.5862H63.1809Z" fill="#DD0031"/>
<path fill-rule="evenodd" clip-rule="evenodd" d="M41.8938 51.5862V76.4622L43.6144 75.5035V51.5862H41.8938Z" fill="#DD0031"/>
<path fill-rule="evenodd" clip-rule="evenodd" d="M58.9282 51.5862V67.0353L60.6489 66.089V51.5862H58.9282Z" fill="#DD0031"/>
<path fill-rule="evenodd" clip-rule="evenodd" d="M67.4335 51.5862V62.3281L67.8637 62.0946L69.0682 51.5862H67.4335Z" fill="#DD0031"/>
<path fill-rule="evenodd" clip-rule="evenodd" d="M54.6637 51.5862V69.3951L56.3843 68.4365V51.5862H54.6637Z" fill="#DD0031"/>
<path fill-rule="evenodd" clip-rule="evenodd" d="M46.146 51.5862V74.1024L47.8667 73.156V51.5862H46.146Z" fill="#DD0031"/>
<path fill-rule="evenodd" clip-rule="evenodd" d="M50.411 51.5862V71.7426L52.1317 70.7962V51.5862H50.411Z" fill="#DD0031"/>
</svg>
