<svg xmlns="http://www.w3.org/2000/svg" xmlns:xlink="http://www.w3.org/1999/xlink" version="1.1" x="0px" y="0px" viewBox="0 0 40 39" style="enable-background:new 0 0 40 39;" xml:space="preserve">
  <style type="text/css">
	.st0{clip-path:url(#SVGID_2_);}
	.st1{fill:#DD0031;}
	.st2{fill:#FFFFFF;}
  </style>
  <g id="Livello_1">
    <g>
      <defs>
        <rect id="SVGID_1_" width="36.3" height="38.9"/>
      </defs>
      <clipPath id="SVGID_2_">
        <use xlink:href="#SVGID_1_" style="overflow:visible;"/>
      </clipPath>
      <g class="st0">
        <path class="st1" d="M18.2,0l-0.3,0.1L0.6,6.3L0,6.5l0.1,0.7l2.6,22.8l0,0.4l0.4,0.2l14.6,8.1l0.4,0.2l0.4-0.2l14.6-8.1l0.4-0.2     l0-0.4l2.6-22.8l0.1-0.7l-0.6-0.2L18.4,0.1L18.2,0z"/>
        <path class="st2" d="M21.1,21.1c0.1,0,0.2,0,0.3,0.1c0.1,0.1,0.1,0.2,0.1,0.3h0.8c0-0.3-0.1-0.6-0.4-0.9     c-0.2-0.2-0.5-0.4-0.9-0.4c-0.7,0-1.2,0.5-1.2,1.2v0.8h0.8v-0.8C20.7,21.3,20.9,21.1,21.1,21.1z"/>
        <path class="st2" d="M12,7.9H6.1v0.8h6.4L12,7.9z"/>
        <path class="st2" d="M20,15.1h-2.2l0,0l-1.1-2h-0.9l1.2,2h-3.7v-0.8c0-0.1,0-0.2,0.1-0.3c0.1-0.1,0.2-0.1,0.3-0.1s0.2,0,0.3,0.1     c0.1,0.1,0.1,0.2,0.1,0.3h0.8c0-0.3-0.1-0.6-0.4-0.9c-0.2-0.2-0.5-0.4-0.9-0.4c-0.3,0-0.6,0.1-0.9,0.4c-0.2,0.2-0.4,0.5-0.4,0.9     v0.8H9.6v-0.8c0-0.2,0.2-0.4,0.4-0.4c0.2,0,0.4,0.2,0.4,0.4h0.8c0-0.7-0.5-1.2-1.2-1.2c-0.7,0-1.2,0.5-1.2,1.2v0.8H7.7v-2H6.9v2     H6.1v0.8h14.3L20,15.1z"/>
        <path class="st2" d="M16,11.5h-2.1l-1.1-2h-0.9l1.1,2H7.7v-2H6.9v2H6.1v0.8h10.4L16,11.5z"/>
        <path class="st2" d="M23.7,18.7h-1.8l0,0l-1.1-2h-0.9l1.1,2H17v-0.8c0-0.1,0-0.2,0.1-0.3c0.1-0.1,0.2-0.1,0.3-0.1     c0.1,0,0.2,0,0.3,0.1c0.1,0.1,0.1,0.2,0.1,0.3h0.8c0-0.3-0.1-0.6-0.4-0.9c-0.2-0.2-0.5-0.4-0.9-0.4c-0.3,0-0.6,0.1-0.9,0.4     c-0.2,0.2-0.4,0.5-0.4,0.9v0.8h-2.9v-0.8c0-0.1,0-0.2,0.1-0.3c0.1-0.1,0.2-0.1,0.3-0.1c0.2,0,0.4,0.2,0.4,0.4h0.8     c0-0.7-0.5-1.2-1.2-1.2c-0.3,0-0.6,0.1-0.9,0.4c-0.2,0.2-0.4,0.5-0.4,0.9v0.8H9.6v-0.8c0-0.2,0.2-0.4,0.4-0.4     c0.2,0,0.4,0.2,0.4,0.4h0.8c0-0.7-0.5-1.2-1.2-1.2c-0.7,0-1.2,0.5-1.2,1.2v0.8H7.7v-2H6.9v2H6.1v0.8h18L23.7,18.7z"/>
        <path class="st2" d="M30.4,15.9v-0.8H21l0.5,0.8H30.4z"/>
        <path class="st2" d="M28.9,16.8v2h-4.3l0.5,0.8h5.4v-0.8h-0.8v-2H28.9z"/>
        <path class="st2" d="M29.7,22.3v-2h-0.8v2h-3.3l-1.1-1.9h-0.9l1.1,1.9H17v-0.8c0-0.1,0-0.2,0.1-0.3c0.1-0.1,0.2-0.1,0.3-0.1     c0.1,0,0.2,0,0.3,0.1c0.1,0.1,0.1,0.2,0.1,0.3h0.8c0-0.3-0.1-0.6-0.4-0.9c-0.2-0.2-0.5-0.4-0.9-0.4c-0.3,0-0.6,0.1-0.9,0.4     c-0.2,0.2-0.4,0.5-0.4,0.9v0.8h-2.9v-0.8c0-0.1,0-0.2,0.1-0.3c0.1-0.1,0.2-0.1,0.3-0.1c0.2,0,0.4,0.2,0.4,0.4h0.8     c0-0.7-0.5-1.2-1.2-1.2c-0.3,0-0.6,0.1-0.9,0.4c-0.2,0.2-0.4,0.5-0.4,0.9v0.8H9.6v-0.8c0-0.2,0.2-0.4,0.4-0.4     c0.1,0,0.2,0,0.3,0.1c0.1,0.1,0.1,0.2,0.1,0.3h0.8c0-0.3-0.1-0.6-0.4-0.9s-0.5-0.4-0.9-0.4c-0.7,0-1.2,0.5-1.2,1.2v0.8H7.7v-1.9     H6.9v1.9H3.5l0.1,0.8h29.1l0.1-0.8L29.7,22.3L29.7,22.3z"/>
        <path class="st2" d="M11.7,24.4v9.1l0.8,0.4v-9.5H11.7z"/>
        <path class="st2" d="M13.7,24.4v10.2l0.8,0.4V24.4H13.7z"/>
        <path class="st2" d="M9.7,24.4v8l0.8,0.4v-8.4H9.7z"/>
        <path class="st2" d="M7.7,24.4v6.9l0.8,0.5v-7.3H7.7z"/>
        <path class="st2" d="M3.7,24.4l0.6,5l0.2,0.1v-5.1H3.7z"/>
        <path class="st2" d="M17.7,24.4v12.4l0.4,0.2l0.4-0.2V24.4H17.7z"/>
        <path class="st2" d="M5.7,24.4v5.7l0.8,0.5v-6.2H5.7z"/>
        <path class="st2" d="M15.7,24.4v11.3l0.8,0.5V24.4H15.7z"/>
        <path class="st2" d="M29.8,24.4v6.2l0.8-0.4v-5.7H29.8z"/>
        <path class="st2" d="M19.8,24.4v11.8l0.8-0.4V24.4H19.8z"/>
        <path class="st2" d="M27.8,24.4v7.3l0.8-0.4v-6.9H27.8z"/>
        <path class="st2" d="M31.8,24.4v5.1l0.2-0.1l0.6-5H31.8z"/>
        <path class="st2" d="M25.8,24.4v8.4l0.8-0.5v-8H25.8z"/>
        <path class="st2" d="M21.8,24.4V35l0.8-0.5V24.4H21.8z"/>
        <path class="st2" d="M23.8,24.4v9.5l0.8-0.5v-9.1H23.8z"/>
      </g>
    </g>
    
    
  </g>
</svg>