<svg width="1440" height="941" viewBox="0 0 1440 941" fill="none" xmlns="http://www.w3.org/2000/svg">
<g clip-path="url(#clip0_2417_2)">
<path fill-rule="evenodd" clip-rule="evenodd" d="M58.9807 477.599C60.5159 479.026 61.4328 480.898 61.4026 482.909C61.482 485.023 60.7081 486.955 59.3859 488.378L71.0091 499.178C75.281 494.581 77.4933 488.681 77.255 482.341C77.0167 476 74.3675 470.275 69.7621 465.996C60.2222 457.132 45.3249 457.772 36.5778 467.186L25.9999 478.571L37.6233 489.371L48.2012 477.986C50.9394 474.819 55.9104 474.747 58.9807 477.599Z" fill="#CA1633"/>
<path fill-rule="evenodd" clip-rule="evenodd" d="M60.2819 820.707C62.3277 821.161 64.0656 822.312 65.057 824.063C66.1946 825.846 66.5045 827.904 66.0837 829.801L81.5732 833.238C82.9326 827.111 81.857 820.903 78.4442 815.554C75.0315 810.205 69.8504 806.606 63.713 805.244C50.9999 802.423 38.4728 810.511 35.6891 823.057L32.3228 838.228L47.8124 841.665L51.1787 826.494C51.9389 822.377 56.1904 819.8 60.2819 820.707Z" fill="#DD0031"/>
<g filter="url(#filter0_f_2417_2)">
<path fill-rule="evenodd" clip-rule="evenodd" d="M329.174 846.436C333.089 849.988 335.458 854.683 335.442 859.759C335.705 865.089 333.81 869.987 330.516 873.616L360.16 900.516C370.8 888.791 376.206 873.842 375.416 857.854C374.627 841.865 367.774 827.501 356.028 816.842C331.698 794.764 294.134 796.822 272.347 820.831L246 849.866L275.644 876.766L301.991 847.731C308.805 839.661 321.344 839.33 329.174 846.436Z" fill="#DD0031"/>
</g>
<g filter="url(#filter1_f_2417_2)">
<path fill-rule="evenodd" clip-rule="evenodd" d="M1045.71 792.384C1040.49 795.537 1034.51 796.603 1028.91 794.906C1022.93 793.434 1018.14 789.718 1015.21 784.876L975.664 808.752C985.108 824.396 999.848 835.319 1017.79 839.735C1035.73 844.152 1053.88 841.326 1069.55 831.866C1102.01 812.269 1112.16 770.055 1092.82 738.023L1069.43 699.286L1029.88 723.163L1053.27 761.9C1059.94 772.104 1056.16 786.077 1045.71 792.384Z" fill="#DD0031"/>
</g>
<g filter="url(#filter2_f_2417_2)">
<path fill-rule="evenodd" clip-rule="evenodd" d="M557.67 648.397C555.857 648.789 554.033 648.507 552.588 647.466C551.013 646.453 550.002 644.911 549.638 643.23L535.907 646.198C537.081 651.63 540.244 656.225 544.969 659.265C549.693 662.304 555.193 663.281 560.633 662.105C571.903 659.669 578.987 648.528 576.583 637.406L573.676 623.957L559.944 626.925L562.851 640.374C563.764 643.967 561.298 647.613 557.67 648.397Z" fill="#DD0031"/>
</g>
<path fill-rule="evenodd" clip-rule="evenodd" d="M985.284 658.496C985.816 660.918 985.448 663.356 984.063 665.293C982.717 667.402 980.663 668.761 978.418 669.255L982.452 687.59C989.704 685.995 995.83 681.745 999.868 675.417C1003.91 669.088 1005.19 661.734 1003.59 654.469C1000.28 639.421 985.353 630.01 970.503 633.277L952.544 637.228L956.578 655.563L974.536 651.612C979.333 650.375 984.218 653.653 985.284 658.496Z" fill="#DD0031"/>
<path fill-rule="evenodd" clip-rule="evenodd" d="M1324.96 730.731C1323.46 732.707 1321.37 734.008 1319 734.21C1316.52 734.553 1314.15 733.87 1312.32 732.482L1300.98 747.442C1306.89 751.928 1314.1 753.836 1321.54 752.806C1328.97 751.776 1335.4 747.981 1339.9 742.053C1349.2 729.774 1346.69 712.311 1334.57 703.125L1319.92 692.017L1308.58 706.977L1323.23 718.086C1327.28 720.935 1327.96 726.779 1324.96 730.731Z" fill="#DD0031"/>
<g filter="url(#filter3_f_2417_2)">
<path fill-rule="evenodd" clip-rule="evenodd" d="M1397.76 337.036C1396.04 335.242 1395.09 332.966 1395.27 330.593C1395.33 328.091 1396.38 325.863 1398.04 324.276L1385.08 310.695C1379.71 315.822 1376.68 322.633 1376.51 330.138C1376.34 337.644 1379.06 344.594 1384.2 349.975C1394.84 361.122 1412.48 361.424 1423.48 350.926L1436.78 338.231L1423.82 324.65L1410.51 337.345C1407.06 340.891 1401.18 340.624 1397.76 337.036Z" fill="#DD0031"/>
</g>
<path fill-rule="evenodd" clip-rule="evenodd" d="M552.764 813.636C555.234 812.569 557.908 812.458 560.257 813.534C562.782 814.533 564.653 816.441 565.643 818.731L584.344 810.651C581.148 803.254 575.358 797.605 567.782 794.608C560.207 791.611 552.109 791.765 544.699 794.967C529.35 801.598 522.402 819.438 528.946 834.585L536.859 852.902L555.561 844.822L547.647 826.505C545.34 821.65 547.824 815.77 552.764 813.636Z" fill="#DD0031"/>
<g filter="url(#filter4_f_2417_2)">
<path fill-rule="evenodd" clip-rule="evenodd" d="M46.5418 374.071L6.94019 391.397L5 409.155L44.6016 391.829L46.5418 374.071Z" fill="#DD0031"/>
<path fill-rule="evenodd" clip-rule="evenodd" d="M46.5418 374.071L6.94019 391.397L5 409.155L44.6016 391.829L46.5418 374.071Z" fill="#DD0031"/>
<path fill-rule="evenodd" clip-rule="evenodd" d="M46.5418 374.071L6.94019 391.397L5 409.155L44.6016 391.829L46.5418 374.071Z" fill="#DD0031"/>
<path fill-rule="evenodd" clip-rule="evenodd" d="M46.5418 374.071L6.94019 391.397L5 409.155L44.6016 391.829L46.5418 374.071Z" fill="#DD0031"/>
</g>
<path fill-rule="evenodd" clip-rule="evenodd" d="M737.055 881.284L711.768 846.227L694 848.076L719.288 883.133L737.055 881.284Z" fill="#DD0031"/>
<path fill-rule="evenodd" clip-rule="evenodd" d="M737.055 881.284L711.768 846.227L694 848.076L719.288 883.133L737.055 881.284Z" fill="#DD0031"/>
<path fill-rule="evenodd" clip-rule="evenodd" d="M737.055 881.284L711.768 846.227L694 848.076L719.288 883.133L737.055 881.284Z" fill="#DD0031"/>
<path fill-rule="evenodd" clip-rule="evenodd" d="M737.055 881.284L711.768 846.227L694 848.076L719.288 883.133L737.055 881.284Z" fill="#DD0031"/>
<g filter="url(#filter5_f_2417_2)">
<path fill-rule="evenodd" clip-rule="evenodd" d="M106 609.173L150.449 683.998L186.412 683.466L141.963 608.641L106 609.173Z" fill="#CA1633"/>
<path fill-rule="evenodd" clip-rule="evenodd" d="M106 609.173L150.449 683.998L186.412 683.466L141.963 608.641L106 609.173Z" fill="#CA1633"/>
<path fill-rule="evenodd" clip-rule="evenodd" d="M106 609.173L150.449 683.998L186.412 683.466L141.963 608.641L106 609.173Z" fill="#CA1633"/>
<path fill-rule="evenodd" clip-rule="evenodd" d="M106 609.173L150.449 683.998L186.412 683.466L141.963 608.641L106 609.173Z" fill="#CA1633"/>
</g>
<g filter="url(#filter6_f_2417_2)">
<path fill-rule="evenodd" clip-rule="evenodd" d="M1414.19 560.551L1364.6 578.985L1361 600.551L1410.59 582.117L1414.19 560.551Z" fill="#CA1633"/>
<path fill-rule="evenodd" clip-rule="evenodd" d="M1414.19 560.551L1364.6 578.985L1361 600.551L1410.59 582.117L1414.19 560.551Z" fill="#CA1633"/>
<path fill-rule="evenodd" clip-rule="evenodd" d="M1414.19 560.551L1364.6 578.985L1361 600.551L1410.59 582.117L1414.19 560.551Z" fill="#CA1633"/>
<path fill-rule="evenodd" clip-rule="evenodd" d="M1414.19 560.551L1364.6 578.985L1361 600.551L1410.59 582.117L1414.19 560.551Z" fill="#CA1633"/>
</g>
<g filter="url(#filter7_f_2417_2)">
<path fill-rule="evenodd" clip-rule="evenodd" d="M1194 709.173L1238.45 783.998L1274.41 783.466L1229.96 708.641L1194 709.173Z" fill="#CA1633"/>
<path fill-rule="evenodd" clip-rule="evenodd" d="M1194 709.173L1238.45 783.998L1274.41 783.466L1229.96 708.641L1194 709.173Z" fill="#CA1633"/>
<path fill-rule="evenodd" clip-rule="evenodd" d="M1194 709.173L1238.45 783.998L1274.41 783.466L1229.96 708.641L1194 709.173Z" fill="#CA1633"/>
<path fill-rule="evenodd" clip-rule="evenodd" d="M1194 709.173L1238.45 783.998L1274.41 783.466L1229.96 708.641L1194 709.173Z" fill="#CA1633"/>
</g>
<path fill-rule="evenodd" clip-rule="evenodd" d="M118.612 772L108 811.603L124.421 816.003L135.032 776.4L118.612 772Z" fill="#CA1633"/>
<path fill-rule="evenodd" clip-rule="evenodd" d="M277.892 677.879L269.4 709.571L282.54 713.092L291.032 681.4L277.892 677.879Z" fill="#DD0031"/>
<path fill-rule="evenodd" clip-rule="evenodd" d="M444.476 635.77L480.149 660.746L490.505 645.955L454.832 620.979L444.476 635.77Z" fill="#DD0031"/>
<path fill-rule="evenodd" clip-rule="evenodd" d="M1342 832.791L1377.67 857.767L1388.03 842.976L1352.36 818L1342 832.791Z" fill="#DD0031"/>
<path fill-rule="evenodd" clip-rule="evenodd" d="M1188.19 809L1177 851.085L1194.45 855.724L1205.64 813.639L1188.19 809Z" fill="#DD0031"/>
<g filter="url(#filter8_f_2417_2)">
<path fill-rule="evenodd" clip-rule="evenodd" d="M1285.62 527L1266 600.218L1296.36 608.352L1315.98 535.135L1285.62 527Z" fill="#DD0031"/>
</g>
<g filter="url(#filter9_f_2417_2)">
<path fill-rule="evenodd" clip-rule="evenodd" d="M781 812.791L816.673 837.767L827.029 822.976L791.356 798L781 812.791Z" fill="#DD0031"/>
</g>
<path fill-rule="evenodd" clip-rule="evenodd" d="M778.271 653L767 695.063L784.441 699.736L795.712 657.673L778.271 653Z" fill="#DD0031"/>
<path fill-rule="evenodd" clip-rule="evenodd" d="M1332 424.859L1367.84 449.6L1378.09 434.742L1342.26 410L1332 424.859Z" fill="#DD0031"/>
</g>
<defs>
<filter id="filter0_f_2417_2" x="235" y="790.48" width="151.492" height="121.036" filterUnits="userSpaceOnUse" color-interpolation-filters="sRGB">
<feFlood flood-opacity="0" result="BackgroundImageFix"/>
<feBlend mode="normal" in="SourceGraphic" in2="BackgroundImageFix" result="shape"/>
<feGaussianBlur stdDeviation="5.5" result="effect1_foregroundBlur_2417_2"/>
</filter>
<filter id="filter1_f_2417_2" x="961.664" y="685.286" width="154.937" height="170.487" filterUnits="userSpaceOnUse" color-interpolation-filters="sRGB">
<feFlood flood-opacity="0" result="BackgroundImageFix"/>
<feBlend mode="normal" in="SourceGraphic" in2="BackgroundImageFix" result="shape"/>
<feGaussianBlur stdDeviation="7" result="effect1_foregroundBlur_2417_2"/>
</filter>
<filter id="filter2_f_2417_2" x="523.907" y="611.957" width="65.144" height="62.6318" filterUnits="userSpaceOnUse" color-interpolation-filters="sRGB">
<feFlood flood-opacity="0" result="BackgroundImageFix"/>
<feBlend mode="normal" in="SourceGraphic" in2="BackgroundImageFix" result="shape"/>
<feGaussianBlur stdDeviation="6" result="effect1_foregroundBlur_2417_2"/>
</filter>
<filter id="filter3_f_2417_2" x="1368.5" y="302.695" width="76.2772" height="63.8792" filterUnits="userSpaceOnUse" color-interpolation-filters="sRGB">
<feFlood flood-opacity="0" result="BackgroundImageFix"/>
<feBlend mode="normal" in="SourceGraphic" in2="BackgroundImageFix" result="shape"/>
<feGaussianBlur stdDeviation="4" result="effect1_foregroundBlur_2417_2"/>
</filter>
<filter id="filter4_f_2417_2" x="2" y="371.072" width="47.5417" height="41.0835" filterUnits="userSpaceOnUse" color-interpolation-filters="sRGB">
<feFlood flood-opacity="0" result="BackgroundImageFix"/>
<feBlend mode="normal" in="SourceGraphic" in2="BackgroundImageFix" result="shape"/>
<feGaussianBlur stdDeviation="1.5" result="effect1_foregroundBlur_2417_2"/>
</filter>
<filter id="filter5_f_2417_2" x="94" y="596.641" width="104.412" height="99.3569" filterUnits="userSpaceOnUse" color-interpolation-filters="sRGB">
<feFlood flood-opacity="0" result="BackgroundImageFix"/>
<feBlend mode="normal" in="SourceGraphic" in2="BackgroundImageFix" result="shape"/>
<feGaussianBlur stdDeviation="6" result="effect1_foregroundBlur_2417_2"/>
</filter>
<filter id="filter6_f_2417_2" x="1350" y="549.552" width="75.1892" height="61.9995" filterUnits="userSpaceOnUse" color-interpolation-filters="sRGB">
<feFlood flood-opacity="0" result="BackgroundImageFix"/>
<feBlend mode="normal" in="SourceGraphic" in2="BackgroundImageFix" result="shape"/>
<feGaussianBlur stdDeviation="5.5" result="effect1_foregroundBlur_2417_2"/>
</filter>
<filter id="filter7_f_2417_2" x="1187" y="701.641" width="94.412" height="89.3569" filterUnits="userSpaceOnUse" color-interpolation-filters="sRGB">
<feFlood flood-opacity="0" result="BackgroundImageFix"/>
<feBlend mode="normal" in="SourceGraphic" in2="BackgroundImageFix" result="shape"/>
<feGaussianBlur stdDeviation="3.5" result="effect1_foregroundBlur_2417_2"/>
</filter>
<filter id="filter8_f_2417_2" x="1257" y="518" width="67.9772" height="99.3523" filterUnits="userSpaceOnUse" color-interpolation-filters="sRGB">
<feFlood flood-opacity="0" result="BackgroundImageFix"/>
<feBlend mode="normal" in="SourceGraphic" in2="BackgroundImageFix" result="shape"/>
<feGaussianBlur stdDeviation="4.5" result="effect1_foregroundBlur_2417_2"/>
</filter>
<filter id="filter9_f_2417_2" x="766" y="783" width="76.0286" height="69.7671" filterUnits="userSpaceOnUse" color-interpolation-filters="sRGB">
<feFlood flood-opacity="0" result="BackgroundImageFix"/>
<feBlend mode="normal" in="SourceGraphic" in2="BackgroundImageFix" result="shape"/>
<feGaussianBlur stdDeviation="7.5" result="effect1_foregroundBlur_2417_2"/>
</filter>
<clipPath id="clip0_2417_2">
<rect width="1440" height="941" fill="white"/>
</clipPath>
</defs>
</svg>
