<svg width="700" height="941" viewBox="0 0 700 941" fill="none" xmlns="http://www.w3.org/2000/svg">
<g clip-path="url(#clip0_2426_2)">
<path fill-rule="evenodd" clip-rule="evenodd" d="M28.3155 831.394C30.3874 831.873 32.1474 833.086 33.1515 834.931C34.3036 836.81 34.6174 838.979 34.1912 840.978L49.8782 844.6C51.255 838.143 50.1656 831.6 46.7093 825.963C43.2531 820.325 38.0059 816.533 31.7903 815.097C18.9152 812.124 6.22841 820.648 3.40923 833.87L-6.2849e-06 849.86L15.687 853.482L19.0963 837.492C19.8662 833.153 24.1718 830.437 28.3155 831.394Z" fill="#DD0031"/>
<g filter="url(#filter0_f_2426_2)">
<path fill-rule="evenodd" clip-rule="evenodd" d="M206.777 853.402C210.742 857.147 213.141 862.095 213.124 867.444C213.391 873.061 211.472 878.224 208.136 882.049L238.158 910.4C248.934 898.042 254.408 882.287 253.609 865.436C252.809 848.585 245.868 833.447 233.973 822.213C209.332 798.944 171.29 801.113 149.226 826.417L122.542 857.018L152.564 885.369L179.247 854.768C186.148 846.262 198.846 845.914 206.777 853.402Z" fill="#DD0031"/>
</g>
<g filter="url(#filter1_f_2426_2)">
<path fill-rule="evenodd" clip-rule="evenodd" d="M575.679 857.262C570.389 860.586 564.338 861.709 558.66 859.92C552.604 858.369 547.754 854.453 544.793 849.349L504.739 874.514C514.304 891.001 529.232 902.513 547.4 907.167C565.568 911.822 583.948 908.844 599.819 898.874C632.693 878.22 642.974 833.73 623.389 799.97L599.705 759.144L559.651 784.308L583.335 825.134C590.09 835.889 586.259 850.615 575.679 857.262Z" fill="#DD0031"/>
</g>
<g filter="url(#filter2_f_2426_2)">
<path fill-rule="evenodd" clip-rule="evenodd" d="M200.985 718.759C199.148 719.172 197.301 718.874 195.837 717.777C194.242 716.709 193.218 715.084 192.85 713.313L178.944 716.441C180.133 722.165 183.336 727.008 188.121 730.212C192.906 733.415 198.476 734.445 203.986 733.206C215.399 730.638 222.573 718.896 220.138 707.174L217.194 693L203.288 696.128L206.232 710.303C207.156 714.089 204.658 717.932 200.985 718.759Z" fill="#DD0031"/>
</g>
<path fill-rule="evenodd" clip-rule="evenodd" d="M567.784 713.523C566.267 715.606 564.144 716.977 561.742 717.19C559.232 717.551 556.835 716.832 554.98 715.368L543.494 731.136C549.487 735.864 556.786 737.874 564.317 736.789C571.849 735.703 578.358 731.703 582.909 725.456C592.336 712.515 589.79 694.11 577.519 684.429L562.679 672.721L551.193 688.489L566.033 700.196C570.136 703.199 570.818 709.358 567.784 713.523Z" fill="#DD0031"/>
<path fill-rule="evenodd" clip-rule="evenodd" d="M361.312 790.378C363.814 789.253 366.522 789.137 368.9 790.27C371.458 791.323 373.353 793.334 374.355 795.747L393.294 787.232C390.057 779.436 384.193 773.482 376.521 770.324C368.849 767.165 360.648 767.328 353.144 770.702C337.599 777.691 330.563 796.493 337.19 812.456L345.205 831.761L364.144 823.246L356.13 803.941C353.793 798.824 356.309 792.627 361.312 790.378Z" fill="#DD0031"/>
<g filter="url(#filter3_f_2426_2)">
<path fill-rule="evenodd" clip-rule="evenodd" d="M24.3058 609.667L69.3212 688.528L105.743 687.967L60.7274 609.107L24.3058 609.667Z" fill="#CA1633"/>
<path fill-rule="evenodd" clip-rule="evenodd" d="M24.3058 609.667L69.3212 688.528L105.743 687.967L60.7274 609.107L24.3058 609.667Z" fill="#CA1633"/>
<path fill-rule="evenodd" clip-rule="evenodd" d="M24.3058 609.667L69.3212 688.528L105.743 687.967L60.7274 609.107L24.3058 609.667Z" fill="#CA1633"/>
<path fill-rule="evenodd" clip-rule="evenodd" d="M24.3058 609.667L69.3212 688.528L105.743 687.967L60.7274 609.107L24.3058 609.667Z" fill="#CA1633"/>
</g>
<g filter="url(#filter4_f_2426_2)">
<path fill-rule="evenodd" clip-rule="evenodd" d="M700 773.426L649.777 792.854L646.133 815.583L696.355 796.155L700 773.426Z" fill="#CA1633"/>
<path fill-rule="evenodd" clip-rule="evenodd" d="M700 773.426L649.777 792.854L646.133 815.583L696.355 796.155L700 773.426Z" fill="#CA1633"/>
<path fill-rule="evenodd" clip-rule="evenodd" d="M700 773.426L649.777 792.854L646.133 815.583L696.355 796.155L700 773.426Z" fill="#CA1633"/>
<path fill-rule="evenodd" clip-rule="evenodd" d="M700 773.426L649.777 792.854L646.133 815.583L696.355 796.155L700 773.426Z" fill="#CA1633"/>
</g>
<g filter="url(#filter5_f_2426_2)">
<path fill-rule="evenodd" clip-rule="evenodd" d="M599.546 643.393L644.562 722.254L680.983 721.693L635.968 642.832L599.546 643.393Z" fill="#CA1633"/>
<path fill-rule="evenodd" clip-rule="evenodd" d="M599.546 643.393L644.562 722.254L680.983 721.693L635.968 642.832L599.546 643.393Z" fill="#CA1633"/>
<path fill-rule="evenodd" clip-rule="evenodd" d="M599.546 643.393L644.562 722.254L680.983 721.693L635.968 642.832L599.546 643.393Z" fill="#CA1633"/>
<path fill-rule="evenodd" clip-rule="evenodd" d="M599.546 643.393L644.562 722.254L680.983 721.693L635.968 642.832L599.546 643.393Z" fill="#CA1633"/>
</g>
<path fill-rule="evenodd" clip-rule="evenodd" d="M18.8488 739.119L8.10193 780.858L24.732 785.495L35.4788 743.756L18.8488 739.119Z" fill="#CA1633"/>
<path fill-rule="evenodd" clip-rule="evenodd" d="M272.619 739.119L261.289 783.474L278.961 788.363L290.291 744.008L272.619 739.119Z" fill="#DD0031"/>
<g filter="url(#filter6_f_2426_2)">
<path fill-rule="evenodd" clip-rule="evenodd" d="M390.92 854.831L427.048 881.154L437.536 865.565L401.408 839.242L390.92 854.831Z" fill="#DD0031"/>
</g>
<path fill-rule="evenodd" clip-rule="evenodd" d="M487.406 719.094L475.991 763.426L493.654 768.351L505.069 724.02L487.406 719.094Z" fill="#DD0031"/>
</g>
<defs>
<filter id="filter0_f_2426_2" x="111.542" y="795.022" width="153.143" height="126.378" filterUnits="userSpaceOnUse" color-interpolation-filters="sRGB">
<feFlood flood-opacity="0" result="BackgroundImageFix"/>
<feBlend mode="normal" in="SourceGraphic" in2="BackgroundImageFix" result="shape"/>
<feGaussianBlur stdDeviation="5.5" result="effect1_foregroundBlur_2426_2"/>
</filter>
<filter id="filter1_f_2426_2" x="490.739" y="745.144" width="156.555" height="178.171" filterUnits="userSpaceOnUse" color-interpolation-filters="sRGB">
<feFlood flood-opacity="0" result="BackgroundImageFix"/>
<feBlend mode="normal" in="SourceGraphic" in2="BackgroundImageFix" result="shape"/>
<feGaussianBlur stdDeviation="7" result="effect1_foregroundBlur_2426_2"/>
</filter>
<filter id="filter2_f_2426_2" x="166.944" y="681" width="65.6685" height="64.7153" filterUnits="userSpaceOnUse" color-interpolation-filters="sRGB">
<feFlood flood-opacity="0" result="BackgroundImageFix"/>
<feBlend mode="normal" in="SourceGraphic" in2="BackgroundImageFix" result="shape"/>
<feGaussianBlur stdDeviation="6" result="effect1_foregroundBlur_2426_2"/>
</filter>
<filter id="filter3_f_2426_2" x="12.3058" y="597.107" width="105.437" height="103.421" filterUnits="userSpaceOnUse" color-interpolation-filters="sRGB">
<feFlood flood-opacity="0" result="BackgroundImageFix"/>
<feBlend mode="normal" in="SourceGraphic" in2="BackgroundImageFix" result="shape"/>
<feGaussianBlur stdDeviation="6" result="effect1_foregroundBlur_2426_2"/>
</filter>
<filter id="filter4_f_2426_2" x="635.133" y="762.426" width="75.8672" height="64.1567" filterUnits="userSpaceOnUse" color-interpolation-filters="sRGB">
<feFlood flood-opacity="0" result="BackgroundImageFix"/>
<feBlend mode="normal" in="SourceGraphic" in2="BackgroundImageFix" result="shape"/>
<feGaussianBlur stdDeviation="5.5" result="effect1_foregroundBlur_2426_2"/>
</filter>
<filter id="filter5_f_2426_2" x="592.546" y="635.833" width="95.437" height="93.4211" filterUnits="userSpaceOnUse" color-interpolation-filters="sRGB">
<feFlood flood-opacity="0" result="BackgroundImageFix"/>
<feBlend mode="normal" in="SourceGraphic" in2="BackgroundImageFix" result="shape"/>
<feGaussianBlur stdDeviation="3.5" result="effect1_foregroundBlur_2426_2"/>
</filter>
<filter id="filter6_f_2426_2" x="375.92" y="824.242" width="76.6154" height="71.9119" filterUnits="userSpaceOnUse" color-interpolation-filters="sRGB">
<feFlood flood-opacity="0" result="BackgroundImageFix"/>
<feBlend mode="normal" in="SourceGraphic" in2="BackgroundImageFix" result="shape"/>
<feGaussianBlur stdDeviation="7.5" result="effect1_foregroundBlur_2426_2"/>
</filter>
<clipPath id="clip0_2426_2">
<rect width="700" height="941" fill="white"/>
</clipPath>
</defs>
</svg>
